<svg class="triumph-svg-icon" xmlns="http://www.w3.org/2000/svg" width="1.38in" height="1.38in" viewBox="0 0 99.25 99.25">
  <defs>
    <style>
      .secondary {
        fill: #000000;
      }
    </style>
  </defs>
  <g>
    <g>
      <path class="secondary" d="M50,54.85a3.79,3.79,0,0,1-3.77-3.13,1,1,0,1,1,1.92-.54c.41,1.49,1.21,1.67,1.85,1.67.9,0,1.36-.43,1.36-1.28s-.31-1-1.66-1.34c-1.15-.29-3.09-.78-3.09-3.15,0-1.44,1-3.11,3.66-3.11a3.25,3.25,0,0,1,3.18,3,1,1,0,0,1-.93,1.07,1,1,0,0,1-1.07-.92A1.27,1.27,0,0,0,50.3,46c-1.1,0-1.66.37-1.66,1.11s.22.87,1.58,1.21c1.19.3,3.17.8,3.17,3.28A3.14,3.14,0,0,1,50,54.85Z"/>
      <path class="secondary" d="M50.12,45.89a1,1,0,0,1-1-1V43.26a1,1,0,0,1,2,0v1.63A1,1,0,0,1,50.12,45.89Z"/>
      <path class="secondary" d="M50.12,56.78a1,1,0,0,1-1-1V54.15a1,1,0,0,1,2,0v1.63A1,1,0,0,1,50.12,56.78Z"/>
    </g>
    <g>
      <path class="secondary" d="M63,60.25a1,1,0,0,1-.7-.3,1,1,0,0,1,0-1.41l1-1a12.91,12.91,0,1,0-18.25,0A1,1,0,0,1,43.57,59a14.91,14.91,0,1,1,21.07,0l-1,1A1,1,0,0,1,63,60.25Z"/>
      <path class="secondary" d="M66.89,60.25H63a1,1,0,0,1-1-1V55.31a1,1,0,0,1,2,0v2.94h2.94a1,1,0,0,1,0,2Z"/>
    </g>
    <g>
      <path class="secondary" d="M46.06,65.89A14.91,14.91,0,0,1,35.52,40.45l1-1a1,1,0,0,1,1.42,0,1,1,0,0,1,0,1.41l-1,1a12.91,12.91,0,1,0,18.25,0,1,1,0,1,1,1.41-1.41A14.9,14.9,0,0,1,46.06,65.89Z"/>
      <path class="secondary" d="M37.21,45.11a1,1,0,0,1-1-1V41.17H33.28a1,1,0,0,1,0-2h3.93a1,1,0,0,1,1,1v3.94A1,1,0,0,1,37.21,45.11Z"/>
    </g>
  </g>
</svg>
