<svg xmlns="http://www.w3.org/2000/svg" viewBox="0 0 99.25 99.25"><defs><style>.cls-1{fill:#c8c9c7;stroke-width:2.06px;}.cls-1,.cls-2{stroke:#000;stroke-linecap:round;stroke-linejoin:round;}.cls-2{fill:none;stroke-width:2px;}</style></defs><g id="Icons"><polygon class="cls-1" points="58.62 51.55 52.28 51.55 52.28 45.22 46.9 45.22 46.9 51.55 40.56 51.55 40.56 56.94 46.9 56.94 46.9 63.27 52.28 63.27 52.28 56.94 58.62 56.94 58.62 51.55"/><path class="cls-2" d="M68.92,39.25H58.69V34a3.94,3.94,0,0,0-3.93-3.93H44.54A3.94,3.94,0,0,0,40.61,34v5.21H30.33A3.8,3.8,0,0,0,26.54,43V65.35a3.81,3.81,0,0,0,3.79,3.79H68.92a3.81,3.81,0,0,0,3.79-3.79V43A3.8,3.8,0,0,0,68.92,39.25Z"/><rect class="cls-2" x="46.93" y="31.86" width="5.22" height="9.95" rx="1.09" transform="translate(12.71 86.37) rotate(-90)"/></g></svg>