<svg class="triumph-svg-icon" xmlns="http://www.w3.org/2000/svg" viewBox="0 0 99.25 99.25">
  <defs>
    <style>
      .icon-accent
        fill: #c8c9c7;
      }

      .icon-dark {
        fill: #000000;
      }
    </style>
  </defs>
  <g>
    <g>
      <polygon class="icon-accent" points="58.62 51.59 52.28 51.59 52.28 45.25 46.9 45.25 46.9 51.59 40.56 51.59 40.56 56.97 46.9 56.97 46.9 63.31 52.28 63.31 52.28 56.97 58.62 56.97 58.62 51.59"/>
      <path class="icon-dark" d="M52.28,64.34H46.9a1,1,0,0,1-1-1V58H40.56a1,1,0,0,1-1-1V51.59a1,1,0,0,1,1-1h5.31V45.25a1,1,0,0,1,1-1h5.38a1,1,0,0,1,1,1v5.31h5.31a1,1,0,0,1,1,1V57a1,1,0,0,1-1,1H53.31v5.31A1,1,0,0,1,52.28,64.34Zm-4.35-2.06h3.33V57a1,1,0,0,1,1-1H57.6V52.62H52.28a1,1,0,0,1-1-1V46.28H47.93v5.31a1,1,0,0,1-1,1H41.59V56H46.9a1,1,0,0,1,1,1Z"/>
    </g>
    <path class="icon-dark" d="M68.92,70.17H30.33a4.79,4.79,0,0,1-4.79-4.78V43.07a4.79,4.79,0,0,1,4.79-4.78h9.28V34.08a4.93,4.93,0,0,1,4.93-4.93H54.76a4.93,4.93,0,0,1,4.93,4.93v4.21h9.23a4.79,4.79,0,0,1,4.79,4.78V65.39A4.79,4.79,0,0,1,68.92,70.17ZM30.33,40.29a2.79,2.79,0,0,0-2.79,2.78V65.39a2.79,2.79,0,0,0,2.79,2.78H68.92a2.79,2.79,0,0,0,2.79-2.78V43.07a2.79,2.79,0,0,0-2.79-2.78H58.69a1,1,0,0,1-1-1V34.08a2.94,2.94,0,0,0-2.93-2.93H44.54a2.93,2.93,0,0,0-2.93,2.93v5.21a1,1,0,0,1-1,1Z"/>
    <path class="icon-dark" d="M53.42,40.48H45.66a2.09,2.09,0,0,1-2.09-2.1v-3a2.09,2.09,0,0,1,2.09-2.09h7.76a2.1,2.1,0,0,1,2.09,2.09v3A2.1,2.1,0,0,1,53.42,40.48Zm-7.76-5.22a.09.09,0,0,0-.09.09v3a.1.1,0,0,0,.09.1h7.76a.1.1,0,0,0,.09-.1v-3a.09.09,0,0,0-.09-.09Z"/>
  </g>
</svg>
