<svg class="triumph-svg-icon" xmlns="http://www.w3.org/2000/svg" width="1.38in" height="1.38in" viewBox="0 0 99.25 99.25">
  <defs>
    <style>
      .cls-1 {
        fill: #808080;
      }

      .cls-2 {
        fill: #000000;
      }
    </style>
  </defs>
  <g>
    <g>
      <g>
        <path class="cls-1" d="M49.39,47.88a4,4,0,1,0,4,4A4,4,0,0,0,49.39,47.88Z"/>
        <path class="cls-2" d="M49.39,56.85a5,5,0,1,1,5-5A5,5,0,0,1,49.39,56.85Zm0-8a3,3,0,1,0,3,3A3,3,0,0,0,49.39,48.88Z"/>
      </g>
      <g>
        <path class="cls-1" d="M49.39,32.52A19.35,19.35,0,1,0,68.74,51.87,19.34,19.34,0,0,0,49.39,32.52Zm0,31A11.67,11.67,0,1,1,61.06,51.87,11.66,11.66,0,0,1,49.39,63.53Z"/>
        <path class="cls-2" d="M49.39,72.21A20.35,20.35,0,1,1,69.74,51.87,20.36,20.36,0,0,1,49.39,72.21Zm0-38.69A18.35,18.35,0,1,0,67.74,51.87,18.37,18.37,0,0,0,49.39,33.52Zm0,31A12.67,12.67,0,1,1,62.06,51.87,12.68,12.68,0,0,1,49.39,64.53Zm0-23.33A10.67,10.67,0,1,0,60.06,51.87,10.67,10.67,0,0,0,49.39,41.2Z"/>
      </g>
    </g>
    <path class="cls-2" d="M49.46,52.87a1,1,0,0,1-.74-1.67l18-20.28a1,1,0,0,1,1.5,1.33L50.21,52.53A1,1,0,0,1,49.46,52.87Z"/>
    <path class="cls-2" d="M61.91,38.47a1,1,0,0,1-.66-.24,1,1,0,0,1-.34-.73l-.14-4.32a1,1,0,0,1,1-1h0a1,1,0,0,1,1,1l.1,3.24L66.31,36a1,1,0,1,1,.22,2L62,38.46Z"/>
    <path class="cls-2" d="M65,35.4a1,1,0,0,1-1-1l-.14-4.32a1,1,0,0,1,1-1h0a1,1,0,0,1,1,1l.11,3.25,3.43-.39a1,1,0,1,1,.23,2l-4.51.51Z"/>
  </g>
</svg>
