<svg class="triumph-svg-icon" xmlns="http://www.w3.org/2000/svg" width="1.38in" height="1.38in" viewBox="0 0 99.25 99.25">
  <defs>
    <style>
      .cls-1 {
        fill: #808080;
      }

      .cls-2 {
        fill: #000000;
      }
    </style>
  </defs>
  <g>
    <rect class="cls-1" x="35.45" y="64.53" width="13.41" height="10.74"/>
    <rect class="cls-1" x="48.86" y="64.53" width="13.41" height="10.74"/>
    <rect class="cls-1" x="42.18" y="53.79" width="13.41" height="10.74"/>
    <path class="cls-2" d="M48.86,76.27H35.45a1,1,0,0,1-1-1V64.53a1,1,0,0,1,1-1H48.86a1,1,0,0,1,1,1V75.27A1,1,0,0,1,48.86,76.27Zm-12.41-2H47.86V65.53H36.45Z"/>
    <path class="cls-2" d="M62.27,76.27H48.86a1,1,0,0,1-1-1V64.53a1,1,0,0,1,1-1H62.27a1,1,0,0,1,1,1V75.27A1,1,0,0,1,62.27,76.27Zm-12.41-2H61.27V65.53H49.86Z"/>
    <path class="cls-2" d="M55.59,65.53H42.18a1,1,0,0,1-1-1V53.79a1,1,0,0,1,1-1H55.59a1,1,0,0,1,1,1V64.53A1,1,0,0,1,55.59,65.53Zm-12.41-2H54.59V54.79H43.18Z"/>
    <g>
      <path class="cls-2" d="M18,45.44a1,1,0,0,1-.57-1.82L48.29,22.14a1,1,0,0,1,1.14,0L80.26,43.62A1,1,0,0,1,80.51,45a1,1,0,0,1-1.39.25L48.86,24.18,18.6,45.26A1,1,0,0,1,18,45.44Z"/>
      <path class="cls-2" d="M22,77.61a1,1,0,0,1-1-1V41.72a1,1,0,0,1,2,0V76.61A1,1,0,0,1,22,77.61Z"/>
      <path class="cls-2" d="M75.68,77.61a1,1,0,0,1-1-1V41.72a1,1,0,0,1,2,0V76.61A1,1,0,0,1,75.68,77.61Z"/>
      <path class="cls-2" d="M69,77.61a1,1,0,0,1-1-1V48.11H29.77v28.5a1,1,0,0,1-2,0V47.11a1,1,0,0,1,1-1H69a1,1,0,0,1,1,1v29.5A1,1,0,0,1,69,77.61Z"/>
    </g>
  </g>
</svg>
