<svg class="triumph-svg-icon" xmlns="http://www.w3.org/2000/svg" width="1.38in" height="1.38in" viewBox="0 0 99.25 99.25">
  <defs>
    <style>
      .icon-dark {
        fill: #000000;
      }

      .icon-accent {
        fill: #c8c9c7;
      }
    </style>
  </defs>
  <g>
    <path class="icon-dark" d="M67.41,71.63H58.55a1,1,0,0,1,0-2h7.86V25.54H33.25V69.63h8a1,1,0,0,1,0,2h-9a1,1,0,0,1-1-1V24.54a1,1,0,0,1,1-1H67.41a1,1,0,0,1,1,1V70.63A1,1,0,0,1,67.41,71.63Z"/>
    <g>
      <rect class="icon-accent" x="37.64" y="29.56" width="24.65" height="16.84"/>
      <path class="icon-dark" d="M62.29,47.4H37.64a1,1,0,0,1-1-1V29.56a1,1,0,0,1,1-1H62.29a1,1,0,0,1,1,1V46.4A1,1,0,0,1,62.29,47.4Zm-23.65-2H61.29V30.56H38.64Z"/>
    </g>
    <path class="icon-dark" d="M58,56a1,1,0,0,1-1-1V51.7H42.73V55a1,1,0,0,1-2,0V50.7a1,1,0,0,1,1-1H58a1,1,0,0,1,1,1V55A1,1,0,0,1,58,56Z"/>
    <g>
      <path class="icon-accent" d="M44.89,54.47V75.4h10V54.47Zm5,12.65a2.33,2.33,0,1,1,2.32-2.33A2.33,2.33,0,0,1,49.87,67.12Z"/>
      <path class="icon-dark" d="M54.84,76.4h-10a1,1,0,0,1-1-1V54.47a1,1,0,0,1,1-1h10a1,1,0,0,1,1,1V75.4A1,1,0,0,1,54.84,76.4Zm-9-2h8V55.47h-8Zm4-6.28a3.33,3.33,0,1,1,3.32-3.33A3.33,3.33,0,0,1,49.87,68.12Zm0-4.65a1.33,1.33,0,1,0,1.32,1.32A1.33,1.33,0,0,0,49.87,63.47Z"/>
    </g>
  </g>
</svg>
