<svg class="triumph-svg-icon" xmlns="http://www.w3.org/2000/svg" width="1.38in" height="1.38in" viewBox="0 0 99.25 99.25">
    <defs>
        <style>
        .secondary {
            fill: #000000;
        }

        .primary {
            fill: #c8c9c7;
        }
        </style>
    </defs>

		<path class="primary" d="M29.1,60.74V65.4A1.58,1.58,0,0,0,30.65,67h4.66a1.58,1.58,0,0,0,1.55-1.55V61.17"></path>
		<path class="secondary" d="M35.31,68H30.65A2.59,2.59,0,0,1,28.1,65.4V60.74a1,1,0,0,1,2,0V65.4a.58.58,0,0,0,.55.55h4.66a.58.58,0,0,0,.55-.55V61.17a1,1,0,0,1,2,0V65.4A2.59,2.59,0,0,1,35.31,68Z"></path>
		<path class="secondary" class="primary" d="M62,67H58.46a1.58,1.58,0,0,1-1.55-1.55V61.14h4.27"></path>
		<path class="secondary" d="M62,68H58.46a2.59,2.59,0,0,1-2.55-2.55V61.14a1,1,0,0,1,1-1h4.27a1,1,0,0,1,0,2H57.91V65.4a.58.58,0,0,0,.55.55H62a1,1,0,0,1,0,2Z"></path>
		<path class="secondary" d="M60.94,61.86H31.17a5.79,5.79,0,0,1-5.56-4.22l-.26-1a10.46,10.46,0,0,1,1.56-9,9.85,9.85,0,0,1,.64-.76,57.13,57.13,0,0,1,2.35-7.32c2.18-5.36,4.61-8.08,7.23-8.08H56.48c2.59,0,5.05,2.72,7.31,8.1A57.35,57.35,0,0,1,66.27,47a8,8,0,0,1,1,1.3,10,10,0,0,1,1.51,5,1,1,0,0,1-2,.07,7.83,7.83,0,0,0-1.2-3.94,6.24,6.24,0,0,0-.91-1.15,1,1,0,0,1-.28-.48C63,42.22,59.68,33.5,56.48,33.5H37.13c-3.23,0-6.44,8.67-7.7,14.13a1,1,0,0,1-.28.5,6,6,0,0,0-.64.73,8.42,8.42,0,0,0-1.23,7.29l.26,1a3.77,3.77,0,0,0,3.63,2.76H60.94a1,1,0,0,1,0,2Z"></path>
		<path class="secondary" d="M35,51.87H30.34a1,1,0,1,1,0-2H35a1,1,0,0,1,0,2Z"></path>
		<path class="secondary" d="M63.1,51.87H58.45a1,1,0,0,1,0-2H63.1a1,1,0,0,1,0,2Z"></path>
		<path class="secondary" d="M35.31,67.45H30.65a2.08,2.08,0,0,1-2-2V60.74h1V65.4a1.08,1.08,0,0,0,1,1h4.66a1.08,1.08,0,0,0,1-1V61.07h1V65.4A2.08,2.08,0,0,1,35.31,67.45Z"></path>
		<polygon class="primary" points="36.86 36.59 56.91 36.59 60.42 44.29 33.78 44.29 36.86 36.59"></polygon>
		<path class="secondary" d="M60.42,45.29H33.79a1,1,0,0,1-.83-.44,1,1,0,0,1-.1-.93l3.07-7.7a1,1,0,0,1,.93-.63h20a1,1,0,0,1,.91.58l3.51,7.7a1,1,0,0,1-.07,1A1,1,0,0,1,60.42,45.29Zm-25.16-2h23.6l-2.59-5.7H37.53Z"></path>
		<path class="secondary" d="M52.37,56.57H41.62a1,1,0,0,1-.9-.56l-2.35-4.7a1,1,0,0,1,.05-1,1,1,0,0,1,.85-.47H54.48a1,1,0,0,1,.91,1.4L53.28,56A1,1,0,0,1,52.37,56.57Zm-10.14-2h9.49l1.21-2.7h-12Z"></path>
		<path class="secondary" d="M67.65,48H65.31a1,1,0,0,1,0-2h2.34a.55.55,0,0,0,.55-.55v-.23a.7.7,0,0,0-.7-.7H64.42a1,1,0,0,1,0-2H67.5a2.7,2.7,0,0,1,2.7,2.7v.23A2.55,2.55,0,0,1,67.65,48Z"></path>
		<path class="secondary" d="M28,48H25.67a2.55,2.55,0,0,1-2.55-2.55v-.23a2.7,2.7,0,0,1,2.7-2.7H28.9a1,1,0,1,1,0,2H25.82a.7.7,0,0,0-.7.7v.23a.55.55,0,0,0,.55.55H28a1,1,0,1,1,0,2Z"></path>
		<path class="secondary" d="M70.62,72.89A10.44,10.44,0,1,1,81.05,62.45,10.45,10.45,0,0,1,70.62,72.89Zm0-18.87a8.44,8.44,0,1,0,8.43,8.43A8.45,8.45,0,0,0,70.62,54Z"></path>
		<path class="secondary" d="M70.6,67.21a3.44,3.44,0,0,1-3.42-2.84,1,1,0,1,1,1.93-.53c.33,1.21,1,1.37,1.49,1.37.72,0,1.08-.33,1.08-1s-.17-.74-1.37-1.05c-1-.26-2.8-.71-2.8-2.88,0-1.31.87-2.85,3.33-2.85a3,3,0,0,1,2.91,2.77,1,1,0,0,1-.93,1.08,1,1,0,0,1-1.07-.93c0-.18-.21-.92-.91-.92-1.33,0-1.33.64-1.33.85,0,.51.1.64,1.3.94s2.87.73,2.87,3A2.88,2.88,0,0,1,70.6,67.21Z"></path>
		<path class="secondary" d="M70.69,59.36a1,1,0,0,1-1-1V56.93a1,1,0,0,1,2,0v1.43A1,1,0,0,1,70.69,59.36Z"></path>
		<path class="secondary" d="M70.69,68.89a1,1,0,0,1-1-1V66.46a1,1,0,1,1,2,0v1.43A1,1,0,0,1,70.69,68.89Z"></path>
</svg>