<svg class="triumph-svg-icon" xmlns="http://www.w3.org/2000/svg" width="1.38in" height="1.38in" viewBox="0 0 99.25 99.25">
  <defs>
    <style>
      .primary {
        fill: #c8c9c7;
      }

      .secondary {
        fill: #000000;
      }
    </style>
  </defs>
  <g>
    <rect class="primary" x="30.14" y="41.19" width="3.48" height="7.82"/>
    <g>
      <path class="primary" d="M65.55,40.2h1a2.7,2.7,0,0,1,2.69,2.69v3.39A2.7,2.7,0,0,1,66.59,49H65.28"/>
      <path class="secondary" d="M66.59,50H65.28a1,1,0,0,1,0-2h1.31a1.69,1.69,0,0,0,1.69-1.69V42.89a1.69,1.69,0,0,0-1.69-1.69h-1a1,1,0,0,1,0-2h1a3.69,3.69,0,0,1,3.69,3.69v3.39A3.69,3.69,0,0,1,66.59,50Z"/>
    </g>
    <path class="secondary" d="M50,61.1a1,1,0,0,1,0-2A14.22,14.22,0,0,0,64.22,44.89V37.26A14.23,14.23,0,0,0,50,23.05H49A14.23,14.23,0,0,0,34.81,37.26v7.63l-.06,4.39a1,1,0,0,1-1,1H31.91c-1.9,0-3.23-1.52-3.23-3.69v-3.4c0-2.17,1.33-3.68,3.23-3.68h.9V37.26A16.23,16.23,0,0,1,49,21.05h1A16.23,16.23,0,0,1,66.22,37.26v7.63A16.23,16.23,0,0,1,50,61.1ZM31.91,41.5c-1.11,0-1.23,1.18-1.23,1.68v3.4c0,.51.12,1.69,1.23,1.69h.86l0-6.77Z"/>
    <path class="secondary" d="M49.88,56.66h-.75a12.61,12.61,0,0,1-12.6-12.59V38.25c0-.28,0-.63-.06-1-.12-1.4-.23-2.72.57-3.42a1.51,1.51,0,0,1,1.34-.33c8.28,1.73,12.17-.28,15.13-2.72a1,1,0,0,1,1.63.61,3.89,3.89,0,0,0,1.74,2.55A6,6,0,0,0,61,35h0a1.29,1.29,0,0,1,1.16.3c.6.56.48,1.46.36,2.32a5.11,5.11,0,0,0-.08.68v5.82A12.61,12.61,0,0,1,49.88,56.66ZM38.4,35.54a13.13,13.13,0,0,0,.06,1.54c0,.43.07.84.07,1.17v5.82a10.61,10.61,0,0,0,10.6,10.59h.75A10.6,10.6,0,0,0,60.47,44.07V38.25c0-.26.05-.6.09-1a2.26,2.26,0,0,0,0-.29,8.36,8.36,0,0,1-4.85-1.43,6.12,6.12,0,0,1-2.11-2.38C50.48,35.48,46.23,37.08,38.4,35.54Zm23,1.37Zm-.2-1h0Z"/>
    <g>
      <path class="secondary" d="M71.63,71.78a1,1,0,0,1-1-1,10.31,10.31,0,0,0-10.29-10.3,1,1,0,0,1,0-2,12.31,12.31,0,0,1,12.29,12.3A1,1,0,0,1,71.63,71.78Z"/>
      <path class="secondary" d="M27.4,71.78a1,1,0,0,1-1-1,12.32,12.32,0,0,1,12.3-12.3h3.24a1,1,0,0,1,0,2H38.7a10.31,10.31,0,0,0-10.3,10.3A1,1,0,0,1,27.4,71.78Z"/>
    </g>
    <g>
      <rect class="primary" x="45.26" y="57.79" width="8.51" height="4.25" rx="2.13"/>
      <path class="secondary" d="M51.64,63.05H47.39a3.13,3.13,0,0,1,0-6.26h4.25a3.13,3.13,0,1,1,0,6.26Zm-4.25-4.26a1.13,1.13,0,0,0,0,2.26h4.25a1.13,1.13,0,0,0,0-2.26Z"/>
    </g>
    <g>
      <path class="primary" d="M64.52,70.09H42.22a5.75,5.75,0,0,0-8.94-1,5.62,5.62,0,0,0-1,1.3.6.6,0,0,0,0,.58.62.62,0,0,0,.5.29h5.32v3.8h-4c-1.5,0-1.69.11-1.79.29a.55.55,0,0,0,0,.57,5.75,5.75,0,0,0,9.12,1.31,5.61,5.61,0,0,0,.81-1H64.52a3.07,3.07,0,1,0,0-6.14Z"/>
      <path class="secondary" d="M37.36,79.92h0a6.74,6.74,0,0,1-5.93-3.52,1.58,1.58,0,0,1,0-1.56c.44-.73,1.24-.78,2.61-.78h3.07V72.25H32.8a1.57,1.57,0,0,1-1.38-2.34,6.6,6.6,0,0,1,1.15-1.53,6.76,6.76,0,0,1,10.18.71H64.52a4.07,4.07,0,1,1,0,8.14H42.75a7,7,0,0,1-.62.71A6.69,6.69,0,0,1,37.36,79.92Zm-3.78-3.85a4.75,4.75,0,0,0,3.77,1.85h0a4.72,4.72,0,0,0,3.35-1.4,4.43,4.43,0,0,0,.67-.83,1,1,0,0,1,.85-.46H64.37a.6.6,0,0,1,.19,0,2.07,2.07,0,0,0,0-4.14H42.22a1,1,0,0,1-.84-.47,4.77,4.77,0,0,0-7.4-.83,5.72,5.72,0,0,0-.4.46h4.54a1,1,0,0,1,1,1v3.81a1,1,0,0,1-.3.71,1,1,0,0,1-.7.29H33.58Zm-.41-.63Zm0-4.57h0Z"/>
    </g>
  </g>
</svg>
