<svg class="triumph-svg-icon" xmlns="http://www.w3.org/2000/svg" width="1.38in" height="1.38in" viewBox="0 0 99.25 99.25">
  <defs>
    <style>
      .icon-dark {
        fill: #000000;
      }

      .icon-accent {
        fill: #c8c9c7;
      }
    </style>
  </defs>
  <g>
    <path class="icon-dark" d="M77.29,57.39H22.59a1,1,0,0,1-1-1V33.22a1,1,0,0,1,1-1h54.7a1,1,0,0,1,1,1V56.39A1,1,0,0,1,77.29,57.39Zm-53.7-2h52.7V34.22H23.59Z"/>
    <path class="icon-dark" d="M53,53.42a.73.73,0,0,1-.73-.67.74.74,0,0,1,.67-.79,8.31,8.31,0,0,0,2.85-.76c-.39-.35-.76-.72-1.12-1.07l-.89-.87A.88.88,0,0,1,53.63,48c.73-.92,4.89-1.65,6.24-.59.27.22,1.06,1,0,2.4a8.71,8.71,0,0,1-1.44,1.47,2.68,2.68,0,0,0,1.2.26c1-.05,2.11-.8,3.3-2.23a.73.73,0,0,1,.6-.26.7.7,0,0,1,.56.33c.13.19.28.42.44.68.28.42.57.89.88,1.33a13,13,0,0,1,7.42-.86.73.73,0,1,1-.26,1.43,11.55,11.55,0,0,0-7.11,1,.72.72,0,0,1-.88-.23c-.42-.56-.84-1.21-1.19-1.75a5.64,5.64,0,0,1-3.7,2,4.48,4.48,0,0,1-2.61-.78,9.84,9.84,0,0,1-4,1.23Zm2.28-4.74.42.41c.46.46.93.93,1.41,1.33a7.69,7.69,0,0,0,1.59-1.53,1.26,1.26,0,0,0,.24-.39C58.44,48.17,56.33,48.36,55.27,48.68Z"/>
    <g>
      <g>
        <path class="icon-accent" d="M65,61.74H31.65A2.27,2.27,0,0,0,29.38,64h0a2.28,2.28,0,0,0,2.28,2.27H65l5.82-2.36Z"/>
        <path class="icon-dark" d="M31.65,67.29a3.27,3.27,0,1,1,0-6.54H65a1.13,1.13,0,0,1,.36.06L71.18,63a1,1,0,0,1,.65.92,1,1,0,0,1-.63.94l-5.81,2.36a1,1,0,0,1-.38.08Zm33.18-4.55H31.65a1.27,1.27,0,0,0,0,2.54H64.82L68.08,64Z"/>
      </g>
      <path class="icon-dark" d="M62.74,67.28a1,1,0,0,1-1-1v-4a1,1,0,0,1,2,0v4A1,1,0,0,1,62.74,67.28Z"/>
      <path class="icon-dark" d="M35.91,70.32a1,1,0,0,1-1-1V61.74a1,1,0,0,1,2,0v6.58h11a1,1,0,1,1,0,2Z"/>
    </g>
    <path class="icon-dark" d="M42.65,53.47h-15a1,1,0,0,1,0-2h15a1,1,0,1,1,0,2Z"/>
    <path class="icon-dark" d="M42.73,49.3H27.62a1,1,0,0,1,0-2H42.73a1,1,0,1,1,0,2Z"/>
    <path class="icon-dark" d="M35.14,45.26H27.62a1,1,0,1,1,0-2h7.52a1,1,0,0,1,0,2Z"/>
    <g>
      <rect class="icon-accent" x="22.57" y="33.28" width="54.64" height="4.93"/>
      <path class="icon-dark" d="M77.21,39.21H22.57a1,1,0,0,1-1-1V33.28a1,1,0,0,1,1-1H77.21a1,1,0,0,1,1,1v4.93A1,1,0,0,1,77.21,39.21Zm-53.64-2H76.21V34.28H23.57Z"/>
    </g>
  </g>
</svg>
