<svg class="triumph-svg-icon" xmlns="http://www.w3.org/2000/svg" width="1.38in" height="1.38in" viewBox="0 0 99.25 99.25">
  <defs>
    <style>
      .cls-1 {
        fill: #000000;
      }

      .cls-2 {
        fill: #808080;
      }
    </style>
  </defs>
  <g>
    <path class="cls-1" d="M65.84,73.64H30a7.85,7.85,0,0,1-7.85-7.84V49.24a1,1,0,0,1,2,0V65.8A5.85,5.85,0,0,0,30,71.64H65.84c3.55,0,5.85-2.85,5.85-7.26a1,1,0,0,1,2,0C73.69,70.78,69.75,73.64,65.84,73.64Z"/>
    <path class="cls-1" d="M56.3,35.88a1,1,0,0,1-1-1V32.44a3,3,0,0,0-3-3H43.61a3,3,0,0,0-3,3v2.44a1,1,0,0,1-2,0V32.44a5.05,5.05,0,0,1,5-5h8.65a5,5,0,0,1,5,5v2.44A1,1,0,0,1,56.3,35.88Z"/>
    <g>
      <path class="cls-1" d="M79.33,64.86H34a1,1,0,0,1-1-1V44.67a1,1,0,0,1,1-1h45.3a1,1,0,0,1,1,1V63.86A1,1,0,0,1,79.33,64.86Zm-44.3-2h43.3V45.67H35Z"/>
      <path class="cls-1" d="M59.21,61.4a.6.6,0,0,1-.61-.55.61.61,0,0,1,.56-.65,7,7,0,0,0,2.36-.64c-.33-.29-.63-.59-.93-.88s-.49-.49-.74-.72a.74.74,0,0,1-.11-1.06c.6-.76,4-1.37,5.17-.49.22.18.88.84,0,2a7.63,7.63,0,0,1-1.19,1.22,2.29,2.29,0,0,0,1,.21A4.28,4.28,0,0,0,67.41,58a.6.6,0,0,1,1,0c.11.16.23.35.36.56s.48.74.73,1.1A10.81,10.81,0,0,1,75.61,59a.6.6,0,0,1-.21,1.19,9.6,9.6,0,0,0-5.89.82.6.6,0,0,1-.73-.19c-.35-.46-.69-1-1-1.45A4.65,4.65,0,0,1,64.74,61a3.72,3.72,0,0,1-2.17-.65,8.06,8.06,0,0,1-3.31,1Zm1.89-3.92.34.34c.39.38.78.77,1.18,1.1a6.57,6.57,0,0,0,1.31-1.27,1.24,1.24,0,0,0,.2-.32A5.84,5.84,0,0,0,61.1,57.48Z"/>
      <path class="cls-1" d="M50.65,60.18H38.2a1,1,0,0,1,0-2H50.65a1,1,0,0,1,0,2Z"/>
      <path class="cls-1" d="M44.42,55.32H38.2a1,1,0,0,1,0-2h6.22a1,1,0,0,1,0,2Z"/>
      <g>
        <rect class="cls-2" x="34.02" y="44.72" width="45.25" height="4.08"/>
        <path class="cls-1" d="M79.27,49.8H34a1,1,0,0,1-1-1V44.72a1,1,0,0,1,1-1H79.27a1,1,0,0,1,1,1V48.8A1,1,0,0,1,79.27,49.8ZM35,47.8H78.27V45.72H35Z"/>
      </g>
    </g>
    <path class="cls-1" d="M34,56.06h-.37A12.85,12.85,0,0,1,20.78,43.22V40.71a6.54,6.54,0,0,1,6.53-6.53H68a6.54,6.54,0,0,1,6.53,6.53v2.51a13.28,13.28,0,0,1-.11,1.58,1,1,0,0,1-1,.87H35v9.39A1,1,0,0,1,34,56.06ZM27.31,36.18a4.53,4.53,0,0,0-4.53,4.53v2.51A10.84,10.84,0,0,0,33,54V44.67a1,1,0,0,1,1-1H72.51c0-.15,0-.3,0-.45V40.71A4.53,4.53,0,0,0,68,36.18Z"/>
  </g>
</svg>
