<svg class="triumph-svg-icon" xmlns="http://www.w3.org/2000/svg" width="1.38in" height="1.38in" viewBox="0 0 99.25 99.25">
  <defs>
    <style>
      .icon-dark {
        fill: #000000;
      }

      .icon-accent {
        fill: #c8c9c7;
      }
    </style>
  </defs>
  <g>
    <path class="icon-dark" d="M76,68.63H21.75a1,1,0,0,1-1-1v-33a1,1,0,0,1,2,0v32H76a1,1,0,0,1,0,2Z"/>
    <g>
      <rect class="icon-accent" x="65.77" y="51.36" width="4.97" height="16.26"/>
      <path class="icon-dark" d="M70.75,68.62h-5a1,1,0,0,1-1-1V51.36a1,1,0,0,1,1-1h5a1,1,0,0,1,1,1V67.62A1,1,0,0,1,70.75,68.62Zm-4-2h3V52.36h-3Z"/>
    </g>
    <g>
      <rect class="icon-accent" x="41.03" y="55.3" width="4.97" height="12.32"/>
      <path class="icon-dark" d="M46,68.62H41a1,1,0,0,1-1-1V55.3a1,1,0,0,1,1-1h5a1,1,0,0,1,1,1V67.62A1,1,0,0,1,46,68.62Zm-4-2h3V56.3H42Z"/>
    </g>
    <g>
      <rect class="icon-accent" x="53.48" y="61.06" width="4.97" height="6.56"/>
      <path class="icon-dark" d="M58.46,68.62h-5a1,1,0,0,1-1-1V61.06a1,1,0,0,1,1-1h5a1,1,0,0,1,1,1v6.56A1,1,0,0,1,58.46,68.62Zm-4-2h3V62.06h-3Z"/>
    </g>
    <g>
      <rect class="icon-accent" x="29.58" y="63.73" width="4.97" height="3.89"/>
      <path class="icon-dark" d="M34.55,68.62h-5a1,1,0,0,1-1-1V63.73a1,1,0,0,1,1-1h5a1,1,0,0,1,1,1v3.89A1,1,0,0,1,34.55,68.62Zm-4-2h3V64.73h-3Z"/>
    </g>
    <path class="icon-dark" d="M26.82,61.24a1,1,0,0,1-.71-.29,1,1,0,0,1,0-1.41L42.2,43.45a1,1,0,0,1,1.42,0L54.76,54.59l21.66-21.4a1,1,0,0,1,1.42,0,1,1,0,0,1,0,1.41L55.46,56.72a1,1,0,0,1-1.41,0L42.91,45.57,27.53,61A1,1,0,0,1,26.82,61.24Z"/>
    <path class="icon-dark" d="M77.13,39.6a1,1,0,0,1-1-1V34.9H72a1,1,0,0,1,0-2h5.1a1,1,0,0,1,1,1v4.7A1,1,0,0,1,77.13,39.6Z"/>
  </g>
</svg>
