<svg class="triumph-svg-icon" xmlns="http://www.w3.org/2000/svg" width="1.38in" height="1.38in" viewBox="0 0 99.25 99.25">
  <defs>
    <style>
      .icon-dark {
        fill: #000000;
      }

      .icon-accent {
        fill: #c8c9c7;
      }
    </style>
  </defs>
  <g>
    <path class="icon-dark" d="M41.8,54.63a1,1,0,0,1-.68-.26,41.05,41.05,0,0,1-3.45-3.52,1,1,0,0,1,.06-1.38l.42-.41-1.6-1.6a1,1,0,0,1-.23-.35,16.77,16.77,0,0,1-1.11-6c0-8.8,6.81-16,15.17-16s15.16,7.16,15.16,16A16.75,16.75,0,0,1,65,45.3a1,1,0,0,1-.7.71,1,1,0,0,1-1-.24l-2.29,2.29.76.77a1,1,0,0,1,.3.73,1,1,0,0,1-.34.72c-3.37,3-3.68,3.07-4,3.11-.76.12-2-.32-4.79-1.45-.6-.25-1.26-.52-1.54-.61a46.87,46.87,0,0,0-9.16,3.18A1,1,0,0,1,41.8,54.63Zm-2-4.39c.72.79,1.38,1.46,2.16,2.19,2.54-1.19,8.73-3.33,9.86-3.06a16.25,16.25,0,0,1,1.91.72,25.89,25.89,0,0,0,3.64,1.3c.4-.28,1.33-1.07,2.27-1.9l-.72-.72a1,1,0,0,1,0-1.42l3.7-3.7a1,1,0,0,1,.73-.29,14.16,14.16,0,0,0,.18-2.23c0-7.7-5.91-14-13.16-14s-13.17,6.26-13.17,14a14.61,14.61,0,0,0,.91,5.07l2.16,2.16a1,1,0,0,1,.3.72,1.07,1.07,0,0,1-.31.71Z"/>
    <g>
      <path class="icon-dark" d="M50.36,46.18a3.65,3.65,0,0,1-3.62-3,1,1,0,1,1,1.93-.54c.38,1.36,1.1,1.54,1.69,1.54.82,0,1.24-.39,1.24-1.16s-.2-.88-1.53-1.21c-1.11-.29-3-.76-3-3,0-1.38.92-3,3.51-3a3.13,3.13,0,0,1,3.06,2.92,1,1,0,0,1-.93,1.07,1,1,0,0,1-1.07-.93,1.13,1.13,0,0,0-1.06-1.06c-1.51,0-1.51.74-1.51,1,0,.63.19.78,1.45,1.1s3,.77,3,3.15A3,3,0,0,1,50.36,46.18Z"/>
      <path class="icon-dark" d="M50.45,37.71a1,1,0,0,1-1-1V35.17a1,1,0,0,1,2,0v1.54A1,1,0,0,1,50.45,37.71Z"/>
      <path class="icon-dark" d="M50.45,48a1,1,0,0,1-1-1V45.46a1,1,0,1,1,2,0V47A1,1,0,0,1,50.45,48Z"/>
    </g>
    <path class="icon-dark" d="M62.72,66.71a1.85,1.85,0,0,1-1.25-.47c-1.79-1.58-4.95-4.8-7.25-7.16-.77-.8-1.43-1.47-1.87-1.91s-2.77.16-3.9.4c-.8.18-1.62.35-2.35.45A5.72,5.72,0,0,1,41,55.63a2.08,2.08,0,0,1-.2-2.27c.92-1.5,10-4.25,11.15-4a15.59,15.59,0,0,1,1.91.72,26.34,26.34,0,0,0,3.64,1.3c.51-.36,1.91-1.57,3.06-2.6a1,1,0,0,1,1.34,1.49c-3.38,3-3.69,3.07-4,3.11-.75.12-2-.32-4.79-1.45-.6-.25-1.28-.53-1.55-.61a38.79,38.79,0,0,0-9,3,2.44,2.44,0,0,0,.72.83,3.59,3.59,0,0,0,2.57.84c.64-.09,1.39-.25,2.18-.42,2.38-.51,4.61-1,5.75.14l1.88,1.92c2.15,2.2,5.4,5.53,7.14,7.06h0c.86,0,3.86-3.34,6.26-7.08a1,1,0,1,1,1.68,1.08c-1.13,1.77-5,7.58-7.7,7.95A1.72,1.72,0,0,1,62.72,66.71Z"/>
    <path class="icon-dark" d="M50.68,75.88a1,1,0,0,1-.71-.3l-2.78-2.86a1,1,0,1,1,1.43-1.4l2.78,2.86a1,1,0,0,1,0,1.42A1,1,0,0,1,50.68,75.88Z"/>
    <path class="icon-dark" d="M55.36,74.35a1,1,0,0,1-.74-.32L49.7,68.67a1,1,0,0,1,1.48-1.36l4.91,5.36a1,1,0,0,1-.73,1.68Z"/>
    <path class="icon-dark" d="M59.63,71.85a1,1,0,0,1-.72-.3L53,65.5a1,1,0,0,1,1.43-1.39l5.89,6a1,1,0,0,1-.72,1.7Z"/>
    <path class="icon-dark" d="M42,76.35a2.72,2.72,0,0,1-1.94-.8L31.4,66.88a2.72,2.72,0,0,1,0-3.87l1.53-1.53a2.39,2.39,0,0,1,2-.67,3.39,3.39,0,0,1,2.83,2.79,3.38,3.38,0,0,1,2.78,2.78,3.38,3.38,0,0,1,2.78,2.78,3.27,3.27,0,0,1,1.83.94A2.77,2.77,0,0,1,45.47,74l-1.53,1.53A2.74,2.74,0,0,1,42,76.35ZM34.63,62.79a.37.37,0,0,0-.28.1l-1.54,1.54a.73.73,0,0,0-.22.52.74.74,0,0,0,.22.52l8.67,8.66h0a.73.73,0,0,0,1,0l1.53-1.53a.4.4,0,0,0,.1-.37,1.22,1.22,0,0,0-.38-.71c-.37-.37-.86-.5-1.08-.28a1,1,0,0,1-1.42,0,1,1,0,0,1-.29-.71,1,1,0,0,1,.29-.71.4.4,0,0,0,.1-.37,1.22,1.22,0,0,0-.38-.71,1.27,1.27,0,0,0-.71-.39.37.37,0,0,0-.37.11,1,1,0,0,1-1.42,0,1,1,0,0,1-.29-.71,1,1,0,0,1,.29-.71c.22-.22.09-.71-.28-1.08s-.87-.5-1.08-.28a1,1,0,0,1-1.42,0,1,1,0,0,1-.29-.71,1,1,0,0,1,.29-.71c.22-.22.09-.71-.28-1.08a1.27,1.27,0,0,0-.71-.39Z"/>
    <path class="icon-dark" d="M47.81,78a3.82,3.82,0,0,1-2.71-1.26l-1.88-1.92a1,1,0,1,1,1.47-1.37l.52.57,1.3,1.3A1.81,1.81,0,0,0,48,76a3,3,0,0,0,1.86-1.59A1,1,0,0,1,51.15,74a2.25,2.25,0,0,0,1.77.14,2.7,2.7,0,0,0,1.55-1.24,1,1,0,0,1,1.33-.44,1.76,1.76,0,0,0,1.88-.14,2,2,0,0,0,.92-1.29,1,1,0,0,1,.23-.76,1,1,0,0,1,.69-.37,2.44,2.44,0,0,0,2.07-1.39,2.27,2.27,0,0,0-.31-2.37A1,1,0,1,1,62.89,65a4.29,4.29,0,0,1,.51,4.4,4.43,4.43,0,0,1-2.92,2.42A4.27,4.27,0,0,1,58.88,74a3.75,3.75,0,0,1-3.13.64,4.81,4.81,0,0,1-2.22,1.49,4.39,4.39,0,0,1-2.46.06A4.42,4.42,0,0,1,48.21,78,2.41,2.41,0,0,1,47.81,78Z"/>
    <path class="icon-dark" d="M32.87,64a1,1,0,0,1-.76-.35,6.91,6.91,0,0,1-1.25-2.09l-1.69-1.77a1,1,0,0,1,0-1.42,1,1,0,0,1,1.41,0l1.86,1.94a.88.88,0,0,1,.23.41,4.75,4.75,0,0,0,.93,1.6A1,1,0,0,1,32.87,64Z"/>
    <path class="icon-dark" d="M41.74,54.73a1,1,0,0,1-.71-.3l-3.14-3.14a1,1,0,0,1,1.41-1.41L42.44,53a1,1,0,0,1,0,1.41A1,1,0,0,1,41.74,54.73Z"/>
    <path class="icon-dark" d="M33.72,68.82A1,1,0,0,1,33,67.07l2.74-2.78a1,1,0,1,1,1.46,1.44l-2.74,2.78A1,1,0,0,1,33.72,68.82Z"/>
    <path class="icon-dark" d="M33.72,68.79a1,1,0,0,1-.71-1.7l2.74-2.78a1,1,0,0,1,1.42,1.4l-2.74,2.78A1,1,0,0,1,33.72,68.79Z"/>
    <path class="icon-dark" d="M36.5,71.57a1,1,0,0,1-.72-1.7l2.74-2.82A1,1,0,1,1,40,68.45l-2.74,2.82A1,1,0,0,1,36.5,71.57Z"/>
    <path class="icon-dark" d="M39.28,74.35a1,1,0,0,1-.72-1.7l2.74-2.82a1,1,0,1,1,1.44,1.4L40,74.05A1,1,0,0,1,39.28,74.35Z"/>
    <path class="icon-dark" d="M28.36,61.09,24,56.68l12-12,4.41,4.41Zm-3-4.41,3,3L39,49.07l-3-3Z"/>
    <g>
      <rect class="icon-accent" x="24.16" y="50.25" width="16" height="5.24" transform="translate(-27.97 38.23) rotate(-45)"/>
      <path class="icon-dark" d="M28.36,61.41a1,1,0,0,1-.73-.3l-3.7-3.71a1,1,0,0,1,0-1.45L35.24,44.64a1,1,0,0,1,1.45,0l3.71,3.7a1,1,0,0,1,0,1.46L29.08,61.11A1,1,0,0,1,28.36,61.41Zm-2.25-4.73,2.25,2.25,9.86-9.86L36,46.82Z"/>
    </g>
    <path class="icon-dark" d="M71.08,60l-12-12,4.41-4.42,12,12ZM60.48,48l10.6,10.6,3-3L63.48,45Z"/>
    <g>
      <rect class="icon-accent" x="64.66" y="43.83" width="5.24" height="16" transform="translate(-16.94 62.76) rotate(-45)"/>
      <path class="icon-dark" d="M71.08,60.37a1,1,0,0,1-.72-.31L59.05,48.75a1,1,0,0,1,0-1.45l3.7-3.7a1,1,0,0,1,1.45,0L75.52,54.91a1,1,0,0,1,0,1.45l-3.71,3.7A1,1,0,0,1,71.08,60.37ZM61.23,48l9.85,9.85,2.26-2.25-9.86-9.86Z"/>
    </g>
  </g>
</svg>
