<svg class="triumph-svg-icon" xmlns="http://www.w3.org/2000/svg" width="1.38in" height="1.38in" viewBox="0 0 99.25 99.25">
  <defs>
    <style>
      .icon-accent {
        fill: #c8c9c7;
      }

      .icon-dark {
        fill: #000000;
      }
    </style>
  </defs>
  <g>
    <g>
      <g>
        <path class="icon-accent" d="M43.86,23.09V59.21H65V23.09Zm8.89,30.64H48.54V47.35h4.21Zm0-10.12H48.54V37.23h4.21Zm0-9.79H48.54V27.43h4.21Zm7.8,19.91H56.34V47.35h4.21Zm0-10.12H56.34V37.23h4.21Zm0-9.79H56.34V27.43h4.21Z"/>
        <path class="icon-dark" d="M65,60.21H43.86a1,1,0,0,1-1-1V23.09a1,1,0,0,1,1-1H65a1,1,0,0,1,1,1V59.21A1,1,0,0,1,65,60.21Zm-20.18-2H64V24.09H44.86Zm15.69-3.48H56.34a1,1,0,0,1-1-1V47.35a1,1,0,0,1,1-1h4.21a1,1,0,0,1,1,1v6.38A1,1,0,0,1,60.55,54.73Zm-3.21-2h2.21V48.35H57.34Zm-4.59,2H48.54a1,1,0,0,1-1-1V47.35a1,1,0,0,1,1-1h4.21a1,1,0,0,1,1,1v6.38A1,1,0,0,1,52.75,54.73Zm-3.21-2h2.21V48.35H49.54Zm11-8.12H56.34a1,1,0,0,1-1-1V37.23a1,1,0,0,1,1-1h4.21a1,1,0,0,1,1,1v6.38A1,1,0,0,1,60.55,44.61Zm-3.21-2h2.21V38.23H57.34Zm-4.59,2H48.54a1,1,0,0,1-1-1V37.23a1,1,0,0,1,1-1h4.21a1,1,0,0,1,1,1v6.38A1,1,0,0,1,52.75,44.61Zm-3.21-2h2.21V38.23H49.54Zm11-7.79H56.34a1,1,0,0,1-1-1V27.43a1,1,0,0,1,1-1h4.21a1,1,0,0,1,1,1v6.39A1,1,0,0,1,60.55,34.82Zm-3.21-2h2.21V28.43H57.34Zm-4.59,2H48.54a1,1,0,0,1-1-1V27.43a1,1,0,0,1,1-1h4.21a1,1,0,0,1,1,1v6.39A1,1,0,0,1,52.75,34.82Zm-3.21-2h2.21V28.43H49.54Z"/>
      </g>
      <path class="icon-dark" d="M32.32,54.73H28.11a1,1,0,0,1-1-1V47.35a1,1,0,0,1,1-1h4.21a1,1,0,0,1,1,1v6.38A1,1,0,0,1,32.32,54.73Zm-3.21-2h2.21V48.35H29.11Z"/>
      <path class="icon-dark" d="M40.12,54.73H35.91a1,1,0,0,1-1-1V47.35a1,1,0,0,1,1-1h4.21a1,1,0,0,1,1,1v6.38A1,1,0,0,1,40.12,54.73Zm-3.21-2h2.21V48.35H36.91Z"/>
      <path class="icon-dark" d="M32.32,44.86H28.11a1,1,0,0,1-1-1V37.48a1,1,0,0,1,1-1h4.21a1,1,0,0,1,1,1v6.38A1,1,0,0,1,32.32,44.86Zm-3.21-2h2.21V38.48H29.11Z"/>
      <path class="icon-dark" d="M40.12,44.86H35.91a1,1,0,0,1-1-1V37.48a1,1,0,0,1,1-1h4.21a1,1,0,0,1,1,1v6.38A1,1,0,0,1,40.12,44.86Zm-3.21-2h2.21V38.48H36.91Z"/>
      <path class="icon-dark" d="M23.77,68.92a1,1,0,0,1-1-1V33.5a1,1,0,0,1,1-1H43.51a1,1,0,0,1,0,2H24.77V67.92A1,1,0,0,1,23.77,68.92Z"/>
      <path class="icon-dark" d="M38.75,69.33H19.3a1,1,0,1,1,0-2H38.75a1,1,0,0,1,0,2Z"/>
    </g>
    <path class="icon-dark" d="M79.47,77.48H38.83a1,1,0,0,1-1-1V59.27a1,1,0,0,1,1-1H79.47a1,1,0,0,1,1,1V76.48A1,1,0,0,1,79.47,77.48Zm-39.64-2H78.47V60.27H39.83Z"/>
    <path class="icon-dark" d="M61.41,74.28a.54.54,0,0,1,0-1.08,6.18,6.18,0,0,0,2.11-.57c-.29-.26-.56-.53-.83-.8s-.44-.44-.66-.64a.66.66,0,0,1-.1-1c.54-.68,3.64-1.23,4.64-.44.2.16.78.75,0,1.78a7,7,0,0,1-1.07,1.1,1.81,1.81,0,0,0,.88.18,3.8,3.8,0,0,0,2.46-1.65.52.52,0,0,1,.44-.19.54.54,0,0,1,.42.24c.1.14.21.32.33.51s.42.66.65,1a9.66,9.66,0,0,1,5.51-.64.55.55,0,0,1,.44.64.54.54,0,0,1-.63.43,8.6,8.6,0,0,0-5.28.74.53.53,0,0,1-.66-.17c-.31-.41-.62-.9-.88-1.3A4.22,4.22,0,0,1,66.37,74a3.29,3.29,0,0,1-1.94-.59,7.27,7.27,0,0,1-3,.92Zm1.7-3.52.31.3a13.86,13.86,0,0,0,1,1,5.55,5.55,0,0,0,1.18-1.14,1.12,1.12,0,0,0,.18-.28A5.17,5.17,0,0,0,63.11,70.76Z"/>
    <path class="icon-dark" d="M53.73,73.28H42.56a1,1,0,0,1,0-2H53.73a1,1,0,0,1,0,2Z"/>
    <path class="icon-dark" d="M48.15,68.92H42.56a1,1,0,0,1,0-2h5.59a1,1,0,0,1,0,2Z"/>
    <g>
      <rect class="icon-accent" x="38.82" y="59.31" width="40.6" height="3.66"/>
      <path class="icon-dark" d="M79.41,64H38.82a1,1,0,0,1-1-1V59.31a1,1,0,0,1,1-1H79.41a1,1,0,0,1,1,1V63A1,1,0,0,1,79.41,64ZM39.82,62H78.41V60.31H39.82Z"/>
    </g>
  </g>
</svg>
