<svg class="triumph-svg-icon" xmlns="http://www.w3.org/2000/svg" width="1.38in" height="1.38in" viewBox="0 0 99.25 99.25">
  <defs>
    <style>
      .icon-accent {
        fill: #c8c9c7;
      }

      .b {
        fill: #0a263c;
      }

      .c {
        fill: #000000;
      }
    </style>
  </defs>
  <g>
    <g>
      <path class="icon-accent" d="M63,47.21A14.9,14.9,0,1,0,72.93,65.8,14.9,14.9,0,0,0,63,47.21Zm6.1,17.44A10.92,10.92,0,1,1,61.86,51,10.91,10.91,0,0,1,69.12,64.65Z"/>
      <path class="icon-dark" d="M58.7,77.36A16.19,16.19,0,0,1,54,76.67a15.9,15.9,0,1,1,9.27-30.41h0a15.9,15.9,0,0,1-4.61,31.1Zm0-29.8a13.91,13.91,0,1,0,4.07.61h0A13.9,13.9,0,0,0,58.66,47.56Zm0,25.82a11.92,11.92,0,0,1-5.6-22.44,11.92,11.92,0,0,1,17,14h0A11.94,11.94,0,0,1,58.67,73.38Zm0-21.85A10,10,0,0,0,54,52.7,9.93,9.93,0,1,0,61.57,52,10,10,0,0,0,58.66,51.53ZM69.12,64.65h0Z"/>
    </g>
    <circle class="icon-accent" cx="58.68" cy="61.46" r="1.73"/>
    <path class="icon-dark" d="M68.45,58.21H48.92a1,1,0,0,1,0-2H68.45a1,1,0,0,1,0,2Z"/>
    <path class="icon-dark" d="M56.48,72.79a1,1,0,0,1-1-1V68.54A5.56,5.56,0,0,0,49.93,63H48.1a1,1,0,0,1,0-2h1.83a7.56,7.56,0,0,1,7.55,7.55v3.25A1,1,0,0,1,56.48,72.79Z"/>
    <path class="icon-dark" d="M60.86,72.64a1,1,0,0,1-1-1v-3.1A7.56,7.56,0,0,1,67.41,61h2.06a1,1,0,0,1,0,2H67.41a5.56,5.56,0,0,0-5.55,5.55v3.1A1,1,0,0,1,60.86,72.64Z"/>
    <g>
      <path class="c" d="M39.92,40.89A7.79,7.79,0,0,1,32.05,33V30.26a7.88,7.88,0,1,1,15.75,0V33A7.79,7.79,0,0,1,39.92,40.89Zm0-16.51a5.81,5.81,0,0,0-5.87,5.88V33A5.88,5.88,0,1,0,45.8,33V30.26A5.81,5.81,0,0,0,39.92,24.38Z"/>
      <path class="c" d="M39.7,59.88H24.79a1,1,0,0,1-1-1V52.27c0-6.16,10.34-9.26,16.13-9.26a26.87,26.87,0,0,1,8.54,1.63,1,1,0,0,1,.6,1.28,1,1,0,0,1-1.28.6A24.68,24.68,0,0,0,39.92,45c-5,0-14.13,2.76-14.13,7.26v5.61H39.7a1,1,0,0,1,0,2Z"/>
    </g>
  </g>
</svg>
