<svg class="triumph-svg-icon" xmlns="http://www.w3.org/2000/svg" viewBox="0 0 99.25 99.25">
  <defs>
    <style>
      .icon-dark {
        fill: #000000;
      }
      .icon-accent {
        fill: #c8c9c7;
      }
    </style>
  </defs>
  <g>
    <path class="icon-dark" d="M32.2,67.93a1,1,0,0,1-1-1V41.44a1,1,0,0,1,2,0V65.93c4.36,0,21.65-.1,27-.14a1,1,0,0,1,1,1,1,1,0,0,1-1,1c-6.19,0-28.06.14-28.06.14Z"/>
    <path class="icon-dark" d="M76.33,56.28a1,1,0,0,1-1-1V40.64L71,36.25H65.17a1,1,0,0,1,0-2h6.19a1,1,0,0,1,.71.3l5,5a1,1,0,0,1,.29.7V55.28A1,1,0,0,1,76.33,56.28Z"/>
    <path class="icon-dark" d="M74.3,42.63H70.11a1,1,0,0,1-1-1V37.37a1,1,0,1,1,2,0v3.26H74.3a1,1,0,0,1,0,2Z"/>
    <path class="icon-dark" d="M54.34,59.06H37.6a1,1,0,1,1,0-2H54.34a1,1,0,0,1,0,2Z"/>
    <path class="icon-dark" d="M46.88,63.1H37.6a1,1,0,0,1,0-2h9.28a1,1,0,0,1,0,2Z"/>
    <g>
      <polygon class="icon-accent" points="74.75 71.19 74.75 79.83 69.5 76.8 64.03 79.83 64.03 71.33 66.85 71.39 69.5 72.67 72.39 71.13 74.75 71.19"/>
      <path class="icon-dark" d="M64,80.83a.9.9,0,0,1-.5-.14,1,1,0,0,1-.5-.86v-8.5a1,1,0,0,1,.3-.71,1,1,0,0,1,.72-.29l2.82.06a1,1,0,0,1,.41.1l2.2,1.06,2.44-1.3a1,1,0,0,1,.5-.12l2.36.06a1,1,0,0,1,1,1v8.64a1,1,0,0,1-.5.87,1,1,0,0,1-1,0L69.49,78l-5,2.76A1,1,0,0,1,64,80.83Zm1-8.48v5.78l4-2.2a1,1,0,0,1,1,0l3.75,2.16V72.17l-1.12,0L70,73.55a1,1,0,0,1-.9,0l-2.46-1.19Z"/>
    </g>
    <path class="icon-dark" d="M69.5,77.79a1,1,0,0,1-1-1V72.67a1,1,0,1,1,2,0V76.8A1,1,0,0,1,69.5,77.79Z"/>
    <path class="icon-dark" d="M69.69,73.67a1,1,0,0,1-.45-.11L67,72.44l-2.53.17a1,1,0,0,1-.9-.44l-1.41-2.11-2.28-1.13a1,1,0,0,1-.55-.83l-.17-2.53-1.41-2.11a1,1,0,0,1-.06-1l1.12-2.28-.17-2.53a1,1,0,0,1,.44-.9l2.11-1.41,1.12-2.27a1,1,0,0,1,.84-.56l2.53-.17,2.11-1.41a1,1,0,0,1,1-.06L71,52l2.53-.17a1,1,0,0,1,.9.44l1.41,2.11,2.27,1.13a1,1,0,0,1,.56.83l.17,2.53L80.27,61a1,1,0,0,1,.07,1l-1.12,2.28.17,2.53a1,1,0,0,1-.45.9l-2.11,1.41-1.12,2.28a1,1,0,0,1-.83.55l-2.53.17L70.24,73.5A1,1,0,0,1,69.69,73.67Zm-2.52-3.24a1,1,0,0,1,.44.1l2,1,1.85-1.23a1,1,0,0,1,.49-.17L74.17,70l1-2a.92.92,0,0,1,.34-.39l1.85-1.24-.14-2.22a.89.89,0,0,1,.1-.51l1-2-1.24-1.85a1.09,1.09,0,0,1-.16-.49L76.74,57l-2-1a1.16,1.16,0,0,1-.39-.34l-1.23-1.85L70.89,54a1,1,0,0,1-.5-.1l-2-1-1.85,1.23a1,1,0,0,1-.49.17l-2.23.15-1,2a1.16,1.16,0,0,1-.34.39L60.64,58.1l.15,2.23a1,1,0,0,1-.1.5l-1,2,1.23,1.85a1,1,0,0,1,.17.49l.15,2.23,2,1a1,1,0,0,1,.39.34l1.24,1.85,2.22-.14Z"/>
    <g>
      <circle class="icon-accent" cx="68.96" cy="62.31" r="6.01"/>
      <path class="icon-dark" d="M69,69.32a7,7,0,1,1,7-7A7,7,0,0,1,69,69.32Zm0-12a5,5,0,1,0,5,5A5,5,0,0,0,69,57.3Z"/>
    </g>
    <g>
      <path class="icon-accent" d="M57.64,19.49,42,38.6l-.27.36c.87.48,1.68.93,2,1.16,3.13,2.12.81,5.64-2.07,4.32-.51-.24-1.72-.8-3.05-1.52l-.72.86c4.28,2.9,12.18,9.16,12.27,9.24L70,29.53Z"/>
      <path class="icon-dark" d="M50.17,54a1,1,0,0,1-.63-.23c-.07,0-7.95-6.3-12.2-9.18a1,1,0,0,1-.43-.69,1,1,0,0,1,.23-.78l.71-.86A1,1,0,0,1,39.1,42c1.33.73,2.54,1.28,3,1.49a1.44,1.44,0,0,0,2-.45c.3-.53.22-1.37-.9-2.13-.16-.1-.62-.39-2-1.11a1,1,0,0,1-.31-1.49l.27-.36L56.86,18.86a1,1,0,0,1,1.41-.14l12.31,10a1,1,0,0,1,.14,1.42L50.94,53.66A1,1,0,0,1,50.17,54Zm-7.92-8.35c3,2.26,6.33,4.82,7.78,6l18.5-22L57.78,20.9,43.23,38.66c.5.28.86.49,1.07.64,2.11,1.42,2.29,3.42,1.53,4.77A3.37,3.37,0,0,1,42.25,45.67Z"/>
    </g>
    <path class="icon-dark" d="M28.67,31.3a3.17,3.17,0,0,1-2.55-1.13L26,30.05a1,1,0,0,1,1.42-1.42l.15.17a1.24,1.24,0,0,0,1.1.5,34.23,34.23,0,0,0,3.43-.86c2.87-.79,6.13-1.69,7.9-1.69a24.24,24.24,0,0,1,7.27,1.14,1,1,0,1,1-.7,1.87,22.67,22.67,0,0,0-6.57-1c-1.5,0-4.89.94-7.37,1.62A22.26,22.26,0,0,1,28.67,31.3Z"/>
    <path class="icon-dark" d="M43,45.77a4.11,4.11,0,0,1-1.68-.38c-.44-.21-1.25-.65-2.28-1.21-1.76-1-4.18-2.27-5.74-2.92-.61-.25-2.38.29-3.44.62a10,10,0,0,1-2.43.55,1,1,0,1,1,0-2A10.29,10.29,0,0,0,29.24,40c1.65-.5,3.52-1.07,4.78-.55,1.67.69,4.13,2,5.93,3,1,.52,1.79,1,2.17,1.15a1.47,1.47,0,0,0,2-.44c.3-.54.22-1.38-.91-2.14-.74-.5-4-2.21-5.2-2.82a1,1,0,0,1-.54-1,3,3,0,0,1,1.13-2.09,3.43,3.43,0,0,1,3-.4,1,1,0,0,1,.74,1.21,1,1,0,0,1-1.21.74,1.62,1.62,0,0,0-1.31.06l-.07.06c1.33.69,3.86,2,4.61,2.54,2.11,1.42,2.29,3.42,1.53,4.77A3.33,3.33,0,0,1,43,45.77Z"/>
    <g>
      <rect class="icon-accent" x="19.81" y="27.7" width="6.91" height="16.55"/>
      <path class="icon-dark" d="M26.72,45.25H19.81a1,1,0,0,1-1-1V27.7a1,1,0,0,1,1-1h6.91a1,1,0,0,1,1,1V44.25A1,1,0,0,1,26.72,45.25Zm-5.91-2h4.91V28.7H20.81Z"/>
    </g>
    <path class="icon-dark" d="M23.23,41.84a1,1,0,0,1-1-1V38.07a1,1,0,0,1,2,0v2.77A1,1,0,0,1,23.23,41.84Z"/>
    <path class="icon-dark" d="M55.25,40.09a4,4,0,0,1-1.65-.38,1,1,0,0,1,.82-1.82c.94.42,1.36.13,1.64-.21a.88.88,0,0,0,.26-.63.79.79,0,0,0-.32-.5c-.34-.29-.44-.32-1.34.33-.75.55-2.14,1.56-3.68.27a2.45,2.45,0,0,1-.93-1.8,3.22,3.22,0,0,1,.86-2.23,2.74,2.74,0,0,1,3.68-.43,1,1,0,0,1-1.16,1.63.75.75,0,0,0-1,.08,1.37,1.37,0,0,0-.41.85.46.46,0,0,0,.21.36c.28.24.35.29,1.24-.35s2.18-1.59,3.79-.25a2.73,2.73,0,0,1,1,1.83A2.81,2.81,0,0,1,57.6,39,3,3,0,0,1,55.25,40.09Z"/>
    <path class="icon-dark" d="M51.54,34.83a1,1,0,0,1-.63-.24l-1-.8a1,1,0,0,1,1.28-1.54l1,.81a1,1,0,0,1-.64,1.77Z"/>
    <path class="icon-dark" d="M58,40.21a.94.94,0,0,1-.63-.23l-1-.81a1,1,0,0,1,1.28-1.54l1,.81a1,1,0,0,1,.13,1.41A1,1,0,0,1,58,40.21Z"/>
    <g>
      <line class="icon-dark" x1="64.47" y1="29.73" x2="61.06" y2="33.78"/>
      <path class="icon-dark" d="M61.06,34.81a1,1,0,0,1-.78-1.69l3.4-4a1,1,0,0,1,1.58,1.32l-3.41,4.06A1,1,0,0,1,61.06,34.81Z"/>
    </g>
    <g>
      <line class="icon-dark" x1="58.32" y1="25.08" x2="57.12" y2="26.61"/>
      <path class="icon-dark" d="M57.12,27.63a1,1,0,0,1-.64-.22A1,1,0,0,1,56.31,26l1.21-1.53a1,1,0,0,1,1.61,1.27l-1.21,1.53A1,1,0,0,1,57.12,27.63Z"/>
    </g>
    <g>
      <line class="icon-dark" x1="46.25" y1="39.15" x2="44.87" y2="40.71"/>
      <path class="icon-dark" d="M44.87,41.73a1,1,0,0,1-.68-.26A1,1,0,0,1,44.1,40l1.38-1.55A1,1,0,0,1,47,39.84l-1.38,1.55A1,1,0,0,1,44.87,41.73Z"/>
    </g>
    <g>
      <line class="icon-dark" x1="52.96" y1="43.87" x2="49.55" y2="47.93"/>
      <path class="icon-dark" d="M49.55,49a1,1,0,0,1-.66-.25,1,1,0,0,1-.13-1.44l3.41-4.06a1,1,0,0,1,1.57,1.33l-3.4,4.05A1.06,1.06,0,0,1,49.55,49Z"/>
    </g>
  </g>
</svg>
