<svg xmlns="http://www.w3.org/2000/svg" viewBox="0 0 99.25 99.25"><defs><style>.cls-1,.cls-3{fill:none;}.cls-1,.cls-2,.cls-3,.cls-4{stroke:#000;stroke-linecap:round;stroke-linejoin:round;}.cls-1,.cls-2{stroke-width:2px;}.cls-2{fill:#c8c9c7;}.cls-3{stroke-width:1.97px;}.cls-4{fill:#9d2235;stroke-width:2.06px;}</style></defs><g id="Titles"><path class="cls-1" d="M32.2,41.41V66.89s21.87-.09,28.05-.14"/><polyline class="cls-1" points="76.33 55.25 76.33 40.18 71.36 35.22 65.17 35.22"/><polyline class="cls-1" points="74.3 41.6 70.11 41.6 70.11 37.33"/><line class="cls-1" x1="37.6" y1="58.02" x2="54.34" y2="58.02"/><line class="cls-1" x1="37.6" y1="62.06" x2="46.88" y2="62.06"/><polygon class="cls-2" points="74.75 71.16 74.75 79.79 69.5 76.76 64.03 79.79 64.03 71.29 66.85 71.35 69.5 72.63 72.39 71.09 74.75 71.16"/><line class="cls-3" x1="69.5" y1="76.76" x2="69.5" y2="72.63"/><polygon class="cls-1" points="78.39 66.81 76.06 68.37 74.82 70.88 72.02 71.07 69.69 72.63 67.17 71.39 64.37 71.57 62.81 69.24 60.3 68 60.11 65.2 58.55 62.87 59.79 60.35 59.61 57.55 61.94 55.99 63.18 53.48 65.98 53.3 68.31 51.74 70.83 52.98 73.63 52.79 75.19 55.12 77.7 56.36 77.89 59.16 79.44 61.49 78.2 64.01 78.39 66.81"/><circle class="cls-2" cx="68.96" cy="62.27" r="6.01"/><path class="cls-2" d="M57.64,19.46,42,38.56l-.27.36c.87.48,1.68.93,2,1.17,3.13,2.11.81,5.63-2.07,4.31-.51-.24-1.72-.8-3.05-1.52l-.72.86c4.28,2.9,12.18,9.16,12.27,9.24L70,29.49Z"/><path class="cls-1" d="M26.71,29.3a2.31,2.31,0,0,0,2,1c1.19,0,8.61-2.55,11.33-2.55a23.44,23.44,0,0,1,6.92,1.08"/><path class="cls-1" d="M27.39,41.39c1.27,0,4.76-1.71,6.25-1.09,2.5,1,6.89,3.6,8.06,4.14,2.88,1.33,5.2-2.2,2.07-4.31-1-.65-5.3-2.89-5.3-2.89s.13-2.24,2.87-1.57"/><rect class="cls-2" x="19.81" y="27.67" width="6.91" height="16.55"/><line class="cls-1" x1="23.23" y1="40.8" x2="23.23" y2="38.03"/><path class="cls-1" d="M54,33.46a1.75,1.75,0,0,0-2.33.26c-1,1.15-.71,2.09-.07,2.62,1.92,1.6,3-2.26,5-.6a1.67,1.67,0,0,1,.19,2.54,2.19,2.19,0,0,1-2.82.48"/><line class="cls-1" x1="50.58" y1="32.98" x2="51.55" y2="33.79"/><line class="cls-1" x1="57.05" y1="38.37" x2="58.02" y2="39.17"/><line class="cls-4" x1="64.47" y1="29.69" x2="61.06" y2="33.75"/><line class="cls-4" x1="58.32" y1="25.04" x2="57.12" y2="26.57"/><line class="cls-4" x1="46.25" y1="39.11" x2="44.87" y2="40.67"/><line class="cls-4" x1="52.96" y1="43.84" x2="49.55" y2="47.89"/></g></svg>