<svg class="triumph-svg-icon" xmlns="http://www.w3.org/2000/svg" width="1.38in" height="1.38in" viewBox="0 0 99.25 99.25">
  <defs>
    <style>
      .icon-dark {
        fill: #000000;
      }
    </style>
  </defs>
  <g>
    <path class="icon-dark" d="M60,48.09H38.84a1,1,0,0,1,0-2H60a1,1,0,0,1,0,2Z"/>
    <path class="icon-dark" d="M60,41H38.84a1,1,0,0,1,0-2H60a1,1,0,0,1,0,2Z"/>
    <path class="icon-dark" d="M51.19,55.13H38.84a1,1,0,0,1,0-2H51.19a1,1,0,0,1,0,2Z"/>
    <path class="icon-dark" d="M30.2,71.08a2.14,2.14,0,0,1-1.52-.64,3,3,0,0,1-.65-3,63.93,63.93,0,0,0,2.37-9.14,15.81,15.81,0,0,1-5-11.22c0-10.32,11.16-18.71,24.89-18.71S75.2,36.77,75.2,47.09,64,65.8,50.32,65.8a32.45,32.45,0,0,1-8.24-1.09A28.4,28.4,0,0,1,30.81,71,2.15,2.15,0,0,1,30.2,71.08Zm20.12-40.7c-12.62,0-22.89,7.49-22.89,16.71a14,14,0,0,0,4.72,10.14,1,1,0,0,1,.3.87,63.06,63.06,0,0,1-2.52,10,1,1,0,0,0,.17,1c.07.08.1.07.13.06a26.29,26.29,0,0,0,10.87-6.2,1,1,0,0,1,1-.25,30.27,30.27,0,0,0,8.25,1.17c12.61,0,22.88-7.5,22.88-16.71S62.93,30.38,50.32,30.38Z"/>
  </g>
</svg>
