<svg class="triumph-svg-icon" xmlns="http://www.w3.org/2000/svg" width="1.38in" height="1.38in" viewBox="0 0 99.25 99.25">
  <defs>
    <style>
      .icon-dark {
        fill: #000000;
      }

      .icon-accent {
        fill: #c8c9c7;
      }
    </style>
  </defs>
  <g>
    <path class="icon-dark" d="M78.14,70.78H17.74a1,1,0,0,1-1-1V44.2a1,1,0,0,1,1-1H44.36a1,1,0,0,1,0,2H18.74V68.78h58.4V45.2H63.48a1,1,0,0,1,0-2H78.14a1,1,0,0,1,1,1V69.78A1,1,0,0,1,78.14,70.78Z"/>
    <path class="icon-dark" d="M51.31,66.51a.81.81,0,0,1-.07-1.61,9.21,9.21,0,0,0,3.14-.85c-.43-.38-.83-.79-1.23-1.18s-.66-.65-1-.95A1,1,0,0,1,52,60.5c.8-1,5.4-1.82,6.89-.65.3.24,1.17,1.12,0,2.65a11.15,11.15,0,0,1-1.59,1.63,2.88,2.88,0,0,0,1.31.27q1.66-.08,3.65-2.45a.82.82,0,0,1,.66-.29.79.79,0,0,1,.62.36c.15.21.31.47.49.75.3.47.63,1,1,1.47a14.28,14.28,0,0,1,8.19-.95.81.81,0,1,1-.29,1.59A12.72,12.72,0,0,0,65.05,66a.8.8,0,0,1-1-.25c-.46-.61-.92-1.33-1.31-1.93A6.18,6.18,0,0,1,58.68,66a4.9,4.9,0,0,1-2.88-.86,10.91,10.91,0,0,1-4.43,1.35Zm2.51-5.24.47.46c.51.51,1,1,1.56,1.46a8.46,8.46,0,0,0,1.75-1.68,1.29,1.29,0,0,0,.26-.43C57.33,60.71,55,60.91,53.82,61.27Z"/>
    <g>
      <g>
        <path class="icon-accent" d="M44.65,57.26l26.05-26a2.51,2.51,0,0,0,0-3.55h0a2.51,2.51,0,0,0-3.55,0l-26.05,26-2.69,6.38Z"/>
        <path class="icon-dark" d="M38.41,61.09a1,1,0,0,1-.7-.28,1,1,0,0,1-.22-1.11l2.69-6.38A.93.93,0,0,1,40.4,53l26-26a3.51,3.51,0,1,1,5,5L45.36,58a.86.86,0,0,1-.29.21L38.82,61A1,1,0,0,1,38.41,61.09ZM42,54.28l-1.63,3.85,3.76-1.7L70,30.51a1.5,1.5,0,0,0,.44-1.07A1.54,1.54,0,0,0,70,28.37a1.51,1.51,0,0,0-2.14,0Zm2.71,3h0Z"/>
      </g>
      <path class="icon-dark" d="M46,56.09a1,1,0,0,1-.71-.29l-3.15-3.15a1,1,0,0,1,1.41-1.41l3.15,3.15a1,1,0,0,1,0,1.41A1,1,0,0,1,46,56.09Z"/>
      <path class="icon-dark" d="M52.13,39a1,1,0,0,1-.71-1.71l9.34-9.34a1,1,0,0,1,1.42,0l5.91,5.91a1,1,0,0,1-1.42,1.42L61.47,30l-8.63,8.63A1,1,0,0,1,52.13,39Z"/>
    </g>
    <path class="icon-dark" d="M39.89,66.46H23.29a1,1,0,0,1,0-2h16.6a1,1,0,0,1,0,2Z"/>
    <path class="icon-dark" d="M31.59,61.85h-8.3a1,1,0,0,1,0-2h8.3a1,1,0,1,1,0,2Z"/>
    <g>
      <rect class="icon-accent" x="65.01" y="48.99" width="8.09" height="5.44"/>
      <path class="icon-dark" d="M73.1,55.43H65a1,1,0,0,1-1-1V49a1,1,0,0,1,1-1H73.1a1,1,0,0,1,1,1v5.44A1,1,0,0,1,73.1,55.43Zm-7.09-2H72.1V50H66Z"/>
    </g>
  </g>
</svg>
