<svg xmlns="http://www.w3.org/2000/svg" viewBox="0 0 99.25 99.25"><defs><style>.cls-1{fill:#c8c9c7;stroke-width:2.06px;}.cls-1,.cls-2,.cls-3{stroke:#000;stroke-linecap:round;stroke-linejoin:round;}.cls-2{fill:none;}.cls-2,.cls-3{stroke-width:2px;}.cls-3{fill:#fff;}</style></defs><g id="Icons"><polygon class="cls-1" points="45.38 27.11 33.51 42.46 39.37 42.46 28.87 55.08 34.46 55.08 24.09 67.43 42.38 67.43 42.38 73.25 48.65 73.25 48.65 67.43 66.94 67.43 56.16 55.08 62.16 55.08 51.93 42.46 57.79 42.46 45.38 27.11"/><polygon class="cls-2" points="45.4 17.97 46.81 21.39 50.43 21.64 47.71 24.1 48.52 27.52 45.4 25.81 42.29 27.52 43.04 24.1 40.33 21.64 43.95 21.39 45.4 17.97"/><path class="cls-3" d="M48,57.32V62.5s2.67,2.79,10.63,2.79S69.15,62.5,69.15,62.5V57.32s-1.47,2.83-10.57,2.83S48,57.32,48,57.32Z"/><path class="cls-3" d="M48,62.53v5.18s2.67,2.79,10.63,2.79,10.57-2.79,10.57-2.79V62.53s-1.47,2.83-10.57,2.83S48,62.53,48,62.53Z"/><path class="cls-3" d="M48,67.67v5.19s2.67,2.78,10.63,2.78,10.57-2.78,10.57-2.78V67.67S67.68,70.5,58.58,70.5,48,67.67,48,67.67Z"/><path class="cls-3" d="M48,72.85V78s2.67,2.79,10.63,2.79S69.15,78,69.15,78V72.85s-1.47,2.83-10.57,2.83S48,72.85,48,72.85Z"/><ellipse class="cls-3" cx="58.56" cy="57" rx="10.52" ry="3.27"/><circle class="cls-3" cx="65.72" cy="71.84" r="9.44"/><path class="cls-2" d="M67.86,69.66A2,2,0,0,0,66,67.81c-1.7,0-2.33.9-2.33,1.85,0,2.82,4.16,1,4.16,3.93a1.9,1.9,0,0,1-2.07,2,2.47,2.47,0,0,1-2.46-2.11"/><line class="cls-2" x1="65.79" y1="66.32" x2="65.79" y2="67.75"/><line class="cls-2" x1="65.79" y1="75.86" x2="65.79" y2="77.28"/><circle cx="46.77" cy="38.92" r="1.67"/><circle cx="41.8" cy="52.56" r="1.67"/><circle cx="38.05" cy="62.34" r="1.67"/><circle cx="50.76" cy="48.67" r="1.67"/></g></svg>