<svg class="triumph-svg-icon" xmlns="http://www.w3.org/2000/svg" width="1.38in" height="1.38in" viewBox="0 0 99.25 99.25">
  <defs>
    <style>
      .icon-accent
        fill: #c8c9c7;
      }

      .icon-dark {
        fill: #000000;
      }
    </style>
  </defs>
  <g>
    <g>
      <path class="icon-accent" d="M47.45,73.29v-.4h0V62.55h0V57.36a.55.55,0,0,1,.09-.28v0c0-2.45,5.67-3.77,11-3.77.72,0,1.44,0,2.16.07L51.93,42.5h5.86L45.38,27.15,33.51,42.5h5.86L28.87,55.12h5.59L24.09,67.47H42.38v5.82Z"/>
      <path class="icon-dark" d="M47.45,74.32H42.37a1,1,0,0,1-1-1v-4.8H24.09a1,1,0,0,1-.79-1.68l9-10.66H28.87a1,1,0,0,1-.93-.6,1,1,0,0,1,.14-1.09l9.1-10.94H33.51a1,1,0,0,1-.93-.57,1,1,0,0,1,.11-1.08L44.56,26.52a1,1,0,0,1,1.62,0L58.59,41.85a1,1,0,0,1,.13,1.09,1,1,0,0,1-.93.58H54.08l7.44,9.17a1,1,0,0,1,.11,1.12,1,1,0,0,1-1,.56c-.71,0-1.42-.08-2.09-.08-6,0-9.9,1.59-10,2.71v.08a1,1,0,0,1-.09.42V73.29A1,1,0,0,1,47.45,74.32ZM43.4,72.26h3V62.55h0V57.36a1.81,1.81,0,0,1,.08-.51c.24-3.62,7.58-4.6,12-4.61l-7.37-9.1A1,1,0,0,1,51,42.06a1,1,0,0,1,.93-.59h3.71L45.4,28.8,35.6,41.47h3.77a1,1,0,0,1,.79,1.68l-9.1,10.94h3.4a1,1,0,0,1,.79,1.69L26.3,66.44H42.37a1,1,0,0,1,1,1Z"/>
    </g>
    <path class="icon-dark" d="M42.29,28.55a.94.94,0,0,1-.6-.2,1,1,0,0,1-.38-1l.63-2.85-2.28-2.07a1,1,0,0,1,.6-1.74l3-.21,1.21-2.85A1,1,0,0,1,45.4,17h0a1,1,0,0,1,.92.62l1.17,2.84,3,.21a1,1,0,0,1,.6,1.74l-2.28,2.06.67,2.84A1,1,0,0,1,48,28.43L45.4,27l-2.63,1.44A1,1,0,0,1,42.29,28.55Zm.45-6,1,.89a1,1,0,0,1,.31,1l-.28,1.27L44.92,25a1,1,0,0,1,1,0L47,25.6l-.29-1.23a1,1,0,0,1,.3-1l1-.89-1.28-.09a1,1,0,0,1-.86-.61l-.49-1.21-.52,1.22a1,1,0,0,1-.86.6Z"/>
    <circle class="icon-dark" cx="46.77" cy="38.96" r="1.67"/>
    <circle class="icon-dark" cx="41.8" cy="52.6" r="1.67"/>
    <circle class="icon-dark" cx="38.05" cy="62.38" r="1.67"/>
    <circle class="icon-dark" cx="50.76" cy="48.71" r="1.67"/>
    <g>
      <path class="icon-dark" d="M58.07,60.76c-5.54,0-11.52-1.33-11.52-4.27s6-4.27,11.52-4.27,11.52,1.34,11.52,4.27S63.62,60.76,58.07,60.76Zm0-6.54c-6.18,0-9.52,1.61-9.52,2.27s3.34,2.27,9.52,2.27,9.52-1.61,9.52-2.27S64.26,54.22,58.07,54.22Z"/>
      <path class="icon-dark" d="M65.24,81.77A10.44,10.44,0,1,1,75.67,71.34,10.45,10.45,0,0,1,65.24,81.77Zm0-18.87a8.44,8.44,0,1,0,8.43,8.44A8.45,8.45,0,0,0,65.24,62.9Z"/>
      <g>
        <path class="icon-dark" d="M65.23,76.09a3.45,3.45,0,0,1-3.43-2.84A1,1,0,0,1,62.5,72a1,1,0,0,1,1.23.7c.34,1.21,1,1.37,1.5,1.37.72,0,1.07-.33,1.07-1s-.17-.75-1.36-1-2.81-.72-2.81-2.89c0-1.31.88-2.84,3.33-2.84a3,3,0,0,1,2.91,2.77,1,1,0,1,1-2,.14c0-.18-.22-.91-.92-.91-1.33,0-1.33.63-1.33.84,0,.52.11.64,1.3.95s2.87.72,2.87,3A2.88,2.88,0,0,1,65.23,76.09Z"/>
        <path class="icon-dark" d="M65.31,68.24a1,1,0,0,1-1-1V65.81a1,1,0,0,1,2,0v1.43A1,1,0,0,1,65.31,68.24Z"/>
        <path class="icon-dark" d="M65.31,77.78a1,1,0,0,1-1-1V75.35a1,1,0,0,1,2,0v1.43A1,1,0,0,1,65.31,77.78Z"/>
      </g>
      <path class="icon-dark" d="M58.09,65.78c-8.29,0-11.22-3-11.34-3.09a1,1,0,0,1-.28-.69V56.81a1,1,0,0,1,1.88-.47h0s1.63,2.3,9.74,2.3,9.7-2.31,9.71-2.33a1,1,0,0,1,1.14-.44,1,1,0,0,1,.73.94V62a1,1,0,0,1-.28.69,4.86,4.86,0,0,1-.6.5,1,1,0,0,1-.9.14,8.64,8.64,0,0,0-2.65-.43,8.33,8.33,0,0,0-6,2.57,1,1,0,0,1-.71.3Zm.38-1h0Zm-10-3.24c.83.61,3.62,2.24,9.58,2.25a10.33,10.33,0,0,1,7.19-2.88,10.49,10.49,0,0,1,2.43.29V58.9c-1.6.86-4.49,1.74-9.58,1.74s-8-.89-9.62-1.75Z"/>
      <g>
        <path class="icon-dark" d="M68.67,63.55a.94.94,0,0,1-.37-.07l-.3-.11a1,1,0,0,1-.65-.72,1,1,0,0,1,.28-.94,1.13,1.13,0,0,0,.18-.2,1,1,0,0,1,1.13-.43,1,1,0,0,1,.73.94v.53a1,1,0,0,1-1,1Z"/>
        <path class="icon-dark" d="M55.92,70.91h-.07c-6.57-.47-9-2.91-9.1-3a1,1,0,0,1-.28-.7V62a1,1,0,0,1,1.88-.48h0s1.63,2.31,9.74,2.31h.31a1,1,0,0,1,.73,1.68,8.4,8.4,0,0,0-2.22,4.53A1,1,0,0,1,55.92,70.91Zm-7.45-4.18c.69.5,2.69,1.69,6.65,2.1a10.25,10.25,0,0,1,1.27-3c-4.07-.18-6.5-1-7.92-1.72Z"/>
      </g>
      <path class="icon-dark" d="M56.59,76.1h-.05c-7.11-.34-9.68-2.95-9.79-3.06a1,1,0,0,1-.28-.69V67.16a1,1,0,0,1,1.88-.48h0S49.7,68.57,56,68.93a1,1,0,0,1,.72.37,1,1,0,0,1,.21.78,8.71,8.71,0,0,0-.11,1.26,8.47,8.47,0,0,0,.7,3.36,1,1,0,0,1-.09,1A1,1,0,0,1,56.59,76.1Zm-8.12-4.22c.69.5,2.69,1.69,6.68,2.11a10.31,10.31,0,0,1-.35-2.65c0-.16,0-.32,0-.49a16.52,16.52,0,0,1-6.35-1.62Z"/>
      <path class="icon-dark" d="M58.09,81.31c-8.29,0-11.22-3-11.34-3.1a1,1,0,0,1-.28-.69V72.34a1,1,0,0,1,1.88-.48h0s1.44,2,8.3,2.28a1,1,0,0,1,.87.6,8.59,8.59,0,0,0,4.57,4.42,1,1,0,0,1,.62,1,1,1,0,0,1-.86.87A30.37,30.37,0,0,1,58.09,81.31Zm-9.62-4.25c.83.61,3.64,2.25,9.62,2.25h.43A10.55,10.55,0,0,1,56,76.11a17.77,17.77,0,0,1-7.5-1.7Z"/>
    </g>
  </g>
</svg>
