<svg class="triumph-svg-icon" xmlns="http://www.w3.org/2000/svg" width="1.38in" height="1.38in" viewBox="0 0 99.25 99.25">
  <defs>
    <style>
      .primary {
        fill: #c8c9c7;
      }

      .secondary {
        fill: #000000;
      }
    </style>
  </defs>
  <g>
    <g>
      <g>
        <path class="primary" d="M57.94,77A15.46,15.46,0,1,0,42.53,61.55,15.43,15.43,0,0,0,57.94,77Z"/>
        <path class="secondary" d="M57.94,78A16.46,16.46,0,0,1,41.53,61.55,16.46,16.46,0,0,1,57.94,45.06h0A16.51,16.51,0,0,1,74.39,61.54a16.21,16.21,0,0,1-4.78,11.6A16.39,16.39,0,0,1,57.94,78Zm0-30.92A14.44,14.44,0,0,0,43.53,61.54,14.43,14.43,0,0,0,68.19,71.72a14.23,14.23,0,0,0,4.2-10.17A14.51,14.51,0,0,0,57.94,47.06Z"/>
      </g>
      <path class="secondary" d="M57.94,78c-4.54,0-8.1-7.23-8.1-16.45S53.4,45.07,58,45.07s8.11,7.23,8.11,16.46S62.5,78,57.94,78Zm0-30.91c-2.9,0-6.12,5.93-6.12,14.46S55,76,57.94,76,64.07,70,64.07,61.53,60.85,47.07,58,47.07Z"/>
      <path class="secondary" d="M72.21,57.77H43.67a1,1,0,0,1,0-2H72.21a1,1,0,0,1,0,2Z"/>
      <path class="secondary" d="M57.94,78a1,1,0,0,1-1-1V46.07a1,1,0,1,1,2,0V77A1,1,0,0,1,57.94,78Z"/>
      <path class="secondary" d="M72.21,67.28H43.67a1,1,0,0,1,0-2H72.21a1,1,0,1,1,0,2Z"/>
    </g>
    <g>
      <path class="secondary" d="M40,42.19A7.14,7.14,0,0,1,32.81,35V32.47a7.23,7.23,0,0,1,14.45,0V35A7.15,7.15,0,0,1,40,42.19Zm0-14.94a5.16,5.16,0,0,0-5.22,5.22V35a5.23,5.23,0,1,0,10.45,0V32.47A5.17,5.17,0,0,0,40,27.25Z"/>
      <path class="secondary" d="M39.83,59.38H26.34a1,1,0,0,1-1-1v-6c0-5.64,9.42-8.47,14.69-8.47A24.4,24.4,0,0,1,47.8,45.4a1,1,0,0,1-.69,1.88A22.38,22.38,0,0,0,40,45.93c-4.47,0-12.69,2.45-12.69,6.47v5H39.83a1,1,0,0,1,0,2Z"/>
    </g>
  </g>
</svg>
