<svg class="triumph-svg-icon" xmlns="http://www.w3.org/2000/svg" width="1.38in" height="1.38in" viewBox="0 0 99.25 99.25">
  <defs>
    <style>
      .icon-accent {
        fill: #c8c9c7;
      }

      .icon-dark {
        fill: #000000;
      }
    </style>
  </defs>
  <g>
    <g>
      <path class="icon-accent" d="M49.1,68.61A15.46,15.46,0,1,0,33.69,53.17,15.44,15.44,0,0,0,49.1,68.61Z"/>
      <path class="icon-dark" d="M49.1,69.61a16.47,16.47,0,0,1-11.6-28.1,16.27,16.27,0,0,1,11.6-4.82A16.53,16.53,0,0,1,65.56,53.17,16.46,16.46,0,0,1,49.1,69.61Zm0-30.92A14.47,14.47,0,1,0,63.56,53.18,14.52,14.52,0,0,0,49.1,38.69Z"/>
    </g>
    <path class="icon-dark" d="M49.1,69.61c-4.54,0-8.1-7.23-8.1-16.46s3.57-16.46,8.12-16.46,8.12,7.23,8.12,16.46S53.66,69.61,49.1,69.61Zm0-30.92c-3.61,0-6.12,7.62-6.12,14.46,0,8.65,3.15,14.46,6.1,14.46s6.14-5.94,6.14-14.46S52,38.69,49.12,38.69Z"/>
    <path class="icon-dark" d="M63.37,49.39H34.84a1,1,0,0,1,0-2H63.37a1,1,0,0,1,0,2Z"/>
    <path class="icon-dark" d="M49.1,69.61a1,1,0,0,1-1-1V37.69a1,1,0,0,1,2,0V68.61A1,1,0,0,1,49.1,69.61Z"/>
    <path class="icon-dark" d="M63.37,58.91H34.84a1,1,0,0,1,0-2H63.37a1,1,0,1,1,0,2Z"/>
    <path class="icon-dark" d="M49.1,77.93a24.78,24.78,0,0,1-6.19-48.78,1,1,0,1,1,.5,1.94,22.79,22.79,0,1,0,5.69-.72H46.72a1,1,0,0,1,0-2H49.1a24.78,24.78,0,0,1,0,49.56Z"/>
    <path class="icon-dark" d="M51.48,35.13a1,1,0,0,1-.71-.3L46,30.08a1,1,0,0,1-.3-.71,1,1,0,0,1,.3-.7l4.75-4.76a1,1,0,0,1,1.42,0,1,1,0,0,1,0,1.41l-4,4.05,4,4.05a1,1,0,0,1-.71,1.71Z"/>
  </g>
</svg>
