<svg class="triumph-svg-icon" xmlns="http://www.w3.org/2000/svg" width="1.38in" height="1.38in" viewBox="0 0 99.25 99.25">
  <defs>
    <style>
      .cls-1 {
        fill: #808080;
      }

      .cls-2 {
        fill: #000000;
      }
    </style>
  </defs>
  <g>
    <g>
      <g>
        <path class="cls-1" d="M49.64,27V71.78H61.86a9.14,9.14,0,0,1-.25-2.1,9.44,9.44,0,0,1,9.21-9.43V27ZM58.53,67.8H54.32V61.41h4.21Zm0-10.12H54.32V51.29h4.21Zm0-10.12H54.32V41.17h4.21Zm0-9.8H54.32V31.38h4.21Zm7.8,19.92h-4.2V51.29h4.2Zm0-10.12h-4.2V41.17h4.2Zm0-9.8h-4.2V31.38h4.2Z"/>
        <path class="cls-2" d="M61.86,72.78H49.64a1,1,0,0,1-1-1V27a1,1,0,0,1,1-1H70.82a1,1,0,0,1,1,1V60.25a1,1,0,0,1-1,1,8.38,8.38,0,0,0-8.23,8.43,8.83,8.83,0,0,0,.22,1.88,1,1,0,0,1-.19.84A1,1,0,0,1,61.86,72.78Zm-11.22-2h10a10.32,10.32,0,0,1,9.14-11.46V28H50.64Zm7.89-2H54.32a1,1,0,0,1-1-1V61.41a1,1,0,0,1,1-1h4.21a1,1,0,0,1,1,1V67.8A1,1,0,0,1,58.53,68.8Zm-3.21-2h2.21V62.41H55.32Zm11-8.12H62.13a1,1,0,0,1-1-1V51.29a1,1,0,0,1,1-1h4.21a1,1,0,0,1,1,1v6.39A1,1,0,0,1,66.34,58.68Zm-3.21-2h2.21V52.29H63.13Zm-4.6,2H54.32a1,1,0,0,1-1-1V51.29a1,1,0,0,1,1-1h4.21a1,1,0,0,1,1,1v6.39A1,1,0,0,1,58.53,58.68Zm-3.21-2h2.21V52.29H55.32Zm11-8.12H62.13a1,1,0,0,1-1-1V41.17a1,1,0,0,1,1-1h4.21a1,1,0,0,1,1,1v6.39A1,1,0,0,1,66.34,48.56Zm-3.21-2h2.21V42.17H63.13Zm-4.6,2H54.32a1,1,0,0,1-1-1V41.17a1,1,0,0,1,1-1h4.21a1,1,0,0,1,1,1v6.39A1,1,0,0,1,58.53,48.56Zm-3.21-2h2.21V42.17H55.32Zm11-7.8H62.13a1,1,0,0,1-1-1V31.38a1,1,0,0,1,1-1h4.21a1,1,0,0,1,1,1v6.38A1,1,0,0,1,66.34,38.76Zm-3.21-2h2.21V32.38H63.13Zm-4.6,2H54.32a1,1,0,0,1-1-1V31.38a1,1,0,0,1,1-1h4.21a1,1,0,0,1,1,1v6.38A1,1,0,0,1,58.53,38.76Zm-3.21-2h2.21V32.38H55.32Z"/>
      </g>
      <path class="cls-2" d="M38.1,58.68H33.89a1,1,0,0,1-1-1V51.29a1,1,0,0,1,1-1H38.1a1,1,0,0,1,1,1v6.39A1,1,0,0,1,38.1,58.68Zm-3.21-2H37.1V52.29H34.89Z"/>
      <path class="cls-2" d="M45.9,58.68H41.7a1,1,0,0,1-1-1V51.29a1,1,0,0,1,1-1h4.2a1,1,0,0,1,1,1v6.39A1,1,0,0,1,45.9,58.68Zm-3.2-2h2.2V52.29H42.7Z"/>
      <path class="cls-2" d="M38.1,48.81H33.89a1,1,0,0,1-1-1V41.42a1,1,0,0,1,1-1H38.1a1,1,0,0,1,1,1v6.39A1,1,0,0,1,38.1,48.81Zm-3.21-2H37.1V42.42H34.89Z"/>
      <path class="cls-2" d="M45.9,48.81H41.7a1,1,0,0,1-1-1V41.42a1,1,0,0,1,1-1h4.2a1,1,0,0,1,1,1v6.39A1,1,0,0,1,45.9,48.81Zm-3.2-2h2.2V42.42H42.7Z"/>
      <path class="cls-2" d="M38.1,72.63a1,1,0,0,1-1-1V62.41H34.89v9.22a1,1,0,0,1-2,0V61.41a1,1,0,0,1,1-1H38.1a1,1,0,0,1,1,1V71.63A1,1,0,0,1,38.1,72.63Z"/>
      <path class="cls-2" d="M29.56,72.86a1,1,0,0,1-1-1V37.44a1,1,0,0,1,1-1H49.3a1,1,0,0,1,0,2H30.56V71.86A1,1,0,0,1,29.56,72.86Z"/>
      <path class="cls-2" d="M61.93,73.27H25.08a1,1,0,0,1,0-2H61.93a1,1,0,0,1,0,2Z"/>
    </g>
    <path class="cls-2" d="M71.05,80.06A10.44,10.44,0,1,1,81.49,69.62,10.45,10.45,0,0,1,71.05,80.06Zm0-18.87a8.44,8.44,0,1,0,8.44,8.43A8.44,8.44,0,0,0,71.05,61.19Z"/>
    <g>
      <path class="cls-2" d="M71,74.38a3.45,3.45,0,0,1-3.43-2.84,1,1,0,0,1,.7-1.23,1,1,0,0,1,1.23.7c.34,1.21,1,1.37,1.5,1.37.72,0,1.07-.33,1.07-1s-.17-.74-1.36-1.05S68,69.61,68,67.44c0-1.31.87-2.85,3.33-2.85a3,3,0,0,1,2.9,2.78,1,1,0,1,1-2,.14c0-.18-.22-.92-.91-.92-1.33,0-1.33.64-1.33.85,0,.51.1.64,1.29.94s2.87.73,2.87,3A2.88,2.88,0,0,1,71,74.38Z"/>
      <path class="cls-2" d="M71.12,66.53a1,1,0,0,1-1-1V64.1a1,1,0,0,1,2,0v1.43A1,1,0,0,1,71.12,66.53Z"/>
      <path class="cls-2" d="M71.12,76.06a1,1,0,0,1-1-1V73.63a1,1,0,0,1,2,0v1.43A1,1,0,0,1,71.12,76.06Z"/>
    </g>
  </g>
</svg>
