<svg class="triumph-svg-icon" xmlns="http://www.w3.org/2000/svg" width="1.38in" height="1.38in" viewBox="0 0 99.25 99.25">
  <defs>
    <style>
      .primary {
        fill: #c8c9c7;
      }

      .secondary {
        fill: #000000;
      }
    </style>
  </defs>
  <g>
    <path class="primary" d="M65.83,65.65H42.88a11.48,11.48,0,1,1,22.95,0Z"/>
    <path class="secondary" d="M65.83,66.68H42.88a1,1,0,0,1-1-1,12.51,12.51,0,0,1,25,0A1,1,0,0,1,65.83,66.68ZM44,64.62H64.75a10.45,10.45,0,0,0-20.79,0Z"/>
    <path class="primary" d="M46.57,69H62.2a4.32,4.32,0,0,1,4.32,4.32v0a0,0,0,0,1,0,0H42.24a0,0,0,0,1,0,0v0A4.32,4.32,0,0,1,46.57,69Z"/>
    <path class="secondary" d="M66.52,74.39H42.24a1,1,0,0,1-1-1A5.36,5.36,0,0,1,46.57,68H62.2a5.36,5.36,0,0,1,5.35,5.35A1,1,0,0,1,66.52,74.39ZM43.43,72.33h21.9a3.3,3.3,0,0,0-3.13-2.27H46.57A3.33,3.33,0,0,0,43.43,72.33Z"/>
    <path class="secondary" d="M54.35,55.17a1,1,0,0,1-1-1v-3a1,1,0,0,1,2,0v3A1,1,0,0,1,54.35,55.17Z"/>
    <path class="secondary" d="M56.94,52.06H51.78a1,1,0,0,1,0-2h5.16a1,1,0,0,1,0,2Z"/>
    <path class="secondary" d="M68.73,52.42a6.28,6.28,0,0,1-1.51-.18c-2.16-.48-3.43-2-4.71-4.42L58.1,45.89a1,1,0,1,1,.81-1.83l4.72,2.07a1,1,0,0,1,.48.45c1.3,2.47,2.2,3.41,3.56,3.71a3.82,3.82,0,0,0,2.78-.3,58.71,58.71,0,0,0-4.78-7.49c-1.36-1.51-6.59-6.57-7.76-7H43.3a3.34,3.34,0,0,1-2.69-1.19l-.12-.13a1,1,0,1,1,1.41-1.42l.17.18a1.38,1.38,0,0,0,1.23.56H58c1.89,0,9.08,7.63,9.15,7.7a56.56,56.56,0,0,1,5.43,8.68,1,1,0,0,1-.11,1A4.73,4.73,0,0,1,68.73,52.42ZM58,35.45h0Zm-.14,0Z"/>
    <path class="secondary" d="M46.49,49.16H41.23c-1.71,0-3.71-1.28-4.9-2.37-1.61-1.65-4.25-4.25-4.25-4.25l1.41-1.43s2.66,2.62,4.23,4.24a6.58,6.58,0,0,0,3.51,1.81h5.26a4.74,4.74,0,0,0,1.76-1,3.82,3.82,0,0,1,2.14-1.09h5.55c1.49,0,2.16-.82,2.16-1.63s-.67-1.63-2.16-1.63H47.53a1,1,0,0,1,0-2h8.41c2.73,0,4.16,1.83,4.16,3.63s-1.43,3.63-4.16,3.63H50.39a9,9,0,0,0-.92.67A5.29,5.29,0,0,1,46.49,49.16Z"/>
    <rect class="primary" x="25.48" y="31.27" width="17.85" height="7.46" transform="translate(-14.67 34.58) rotate(-45)"/>
    <path class="secondary" d="M30.73,45a1,1,0,0,1-.73-.3L24.73,39.4a1,1,0,0,1-.3-.73,1,1,0,0,1,.3-.72L37.35,25.32a1,1,0,0,1,1.45,0l5.28,5.27a1,1,0,0,1,0,1.46L31.45,44.67A1,1,0,0,1,30.73,45Zm-3.82-6.3,3.82,3.82L41.9,31.32,38.08,27.5Z"/>
    <path class="secondary" d="M30.67,39.68A1,1,0,0,1,30,38l2.11-2.11a1,1,0,0,1,1.41,1.41l-2.11,2.11A1,1,0,0,1,30.67,39.68Z"/>
    <path class="secondary" d="M52.15,70a1,1,0,0,1-1-1V65.92a1,1,0,0,1,2,0V69A1,1,0,0,1,52.15,70Z"/>
    <path class="secondary" d="M56.75,70a1,1,0,0,1-1-1V65.92a1,1,0,0,1,2,0V69A1,1,0,0,1,56.75,70Z"/>
  </g>
</svg>
