<svg class="triumph-svg-icon" xmlns="http://www.w3.org/2000/svg" width="1.38in" height="1.38in" viewBox="0 0 99.25 99.25">
  <defs>
    <style>
      .icon-accent {
        fill: #c8c9c7;
      }

      .icon-dark {
        fill: #000000;
      }
    </style>
  </defs>
  <g>
    <polygon class="icon-accent" points="33.07 48.08 19.07 48.08 27.07 35.08 41.07 35.08 33.07 48.08"/>
    <polygon class="icon-accent" points="60.07 48.08 46.07 48.08 54.07 35.08 68.07 35.08 60.07 48.08"/>
    <polygon class="icon-accent" points="82.07 48.08 73.07 48.08 81.07 35.08 82.07 48.08"/>
    <path class="icon-dark" d="M33.51,48.19H20.08l7.2-13.84H42.37Zm-11.78-1H33l7.58-11.84H27.89Z"/>
    <path class="icon-dark" d="M59.71,48.19H46.29l7.2-13.84H68.58Zm-11.78-1H59.17l7.58-11.84H54.09Z"/>
    <g>
      <path class="icon-dark" d="M81.79,49.1H19.36a1,1,0,0,1-1-1V34.8a1,1,0,0,1,1-1H81.79a1,1,0,0,1,1,1V48.1A1,1,0,0,1,81.79,49.1Zm-61.43-2H80.79V35.8H20.36Z"/>
      <path class="icon-dark" d="M20,49.05a1,1,0,0,1-.51-.14,1,1,0,0,1-.35-1.37l8-13.26a1,1,0,1,1,1.71,1l-8,13.26A1,1,0,0,1,20,49.05Z"/>
      <path class="icon-dark" d="M33.29,49.05a1,1,0,0,1-.52-.14,1,1,0,0,1-.34-1.37l8-13.26a1,1,0,0,1,1.71,1l-8,13.26A1,1,0,0,1,33.29,49.05Z"/>
      <path class="icon-dark" d="M46.59,49.05a1,1,0,0,1-.51-.14,1,1,0,0,1-.34-1.37l8-13.26a1,1,0,0,1,1.38-.34,1,1,0,0,1,.34,1.37l-8,13.26A1,1,0,0,1,46.59,49.05Z"/>
      <path class="icon-dark" d="M59.9,49.05a1,1,0,0,1-.51-.14,1,1,0,0,1-.34-1.37l8-13.26a1,1,0,0,1,1.72,1l-8,13.26A1,1,0,0,1,59.9,49.05Z"/>
      <path class="icon-dark" d="M33.49,77h-8a1,1,0,0,1-.77-.36,1,1,0,0,1-.21-.82l5.29-27.9a1,1,0,0,1,1-.82h8a1,1,0,0,1,.77.37,1,1,0,0,1,.21.82l-5.29,27.9A1,1,0,0,1,33.49,77Zm-6.75-2h5.93l4.91-25.9H31.65Z"/>
      <path class="icon-dark" d="M75.63,77h-8a1,1,0,0,1-1-.81l-5.29-27.9a1,1,0,0,1,.21-.82,1,1,0,0,1,.77-.37h8a1,1,0,0,1,1,.82l5.29,27.9a1,1,0,0,1-1,1.18Zm-7.14-2h5.93l-4.91-25.9H63.58Z"/>
    </g>
    <path class="icon-dark" d="M31,31.29a3.17,3.17,0,1,1,3.17-3.17A3.18,3.18,0,0,1,31,31.29ZM31,26a2.17,2.17,0,1,0,2.17,2.17A2.18,2.18,0,0,0,31,26Z"/>
    <g>
      <g>
        <circle class="icon-accent" cx="30.98" cy="28.12" r="2.67"/>
        <path class="icon-dark" d="M31,31.79a3.67,3.67,0,1,1,3.67-3.67A3.68,3.68,0,0,1,31,31.79Zm0-5.34a1.67,1.67,0,1,0,1.67,1.67A1.68,1.68,0,0,0,31,26.45Z"/>
      </g>
      <path class="icon-dark" d="M29.64,35.8a1,1,0,0,1-1-1v-4a1,1,0,0,1,2,0v4A1,1,0,0,1,29.64,35.8Z"/>
      <path class="icon-dark" d="M32.26,35.8a1,1,0,0,1-1-1v-4a1,1,0,1,1,2,0v4A1,1,0,0,1,32.26,35.8Z"/>
    </g>
    <path class="icon-dark" d="M70,31.29a3.17,3.17,0,1,1,3.18-3.17A3.18,3.18,0,0,1,70,31.29ZM70,26a2.17,2.17,0,1,0,2.18,2.17A2.17,2.17,0,0,0,70,26Z"/>
    <g>
      <g>
        <circle class="icon-accent" cx="69.97" cy="28.12" r="2.67"/>
        <path class="icon-dark" d="M70,31.79a3.67,3.67,0,1,1,3.68-3.67A3.68,3.68,0,0,1,70,31.79Zm0-5.34a1.67,1.67,0,1,0,1.68,1.67A1.67,1.67,0,0,0,70,26.45Z"/>
      </g>
      <path class="icon-dark" d="M68.69,35.8a1,1,0,0,1-1-1v-4a1,1,0,1,1,2,0v4A1,1,0,0,1,68.69,35.8Z"/>
      <path class="icon-dark" d="M71.31,35.8a1,1,0,0,1-1-1v-4a1,1,0,1,1,2,0v4A1,1,0,0,1,71.31,35.8Z"/>
    </g>
    <path class="icon-dark" d="M73.16,49.05a.94.94,0,0,1-.51-.14,1,1,0,0,1-.35-1.37l8-13.26a1,1,0,0,1,1.71,1L74,48.57A1,1,0,0,1,73.16,49.05Z"/>
  </g>
</svg>
