<svg class="triumph-svg-icon" xmlns="http://www.w3.org/2000/svg" width="1.38in" height="1.38in" viewBox="0 0 99.25 99.25">
  <defs>
    <style>
      .cls-1 {
        fill: #808080;
      }

      .cls-2 {
        fill: #000000;
      }
    </style>
  </defs>
  <g>
    <polygon class="cls-1" points="51.86 72.95 51.97 80.73 57.65 77.76 63.06 80.73 62.89 71.83 59.99 72.25 57.71 73.62 55.2 72.28 51.86 72.95"/>
    <path class="cls-2" d="M30.77,68.38a1,1,0,0,1-1-1V22.78a1,1,0,0,1,1-1H57.94a1,1,0,0,1,.7.3l6.42,6.42a1,1,0,0,1,.3.71V54.29a1,1,0,1,1-2,0V29.62l-5.84-5.84H31.77V66.36c2.36,0,8.5-.12,14.77-.17h0a1,1,0,0,1,0,2c-8,.07-15.78.19-15.78.19Z"/>
    <path class="cls-2" d="M61.73,32H56.32a1,1,0,0,1-1-1V25.52a1,1,0,0,1,2,0V30h4.41a1,1,0,0,1,0,2Z"/>
    <path class="cls-2" d="M45.44,42.17H36a1,1,0,1,1,0-2h9.42a1,1,0,0,1,0,2Z"/>
    <path class="cls-2" d="M51.73,36.91H36a1,1,0,0,1,0-2H51.73a1,1,0,0,1,0,2Z"/>
    <path class="cls-2" d="M45.17,47.39H36a1,1,0,1,1,0-2h9.15a1,1,0,0,1,0,2Z"/>
    <path class="cls-2" d="M63.37,82.35a1,1,0,0,1-.5-.13l-5.17-3-5.4,3a1,1,0,0,1-1,0,1,1,0,0,1-.5-.86V72.18a1,1,0,0,1,2,0v7.47l4.42-2.44a1,1,0,0,1,1,0l4.16,2.4V72a1,1,0,0,1,2,0v9.32a1,1,0,0,1-.5.87A1,1,0,0,1,63.37,82.35Z"/>
    <path class="cls-2" d="M57.71,79.07a1,1,0,0,1-1-1V73.62a1,1,0,0,1,2,0v4.46A1,1,0,0,1,57.71,79.07Z"/>
    <path class="cls-2" d="M57.91,74.62a1,1,0,0,1-.44-.1L55,73.3l-2.76.18a1,1,0,0,1-.89-.44l-1.54-2.29-2.47-1.22a1,1,0,0,1-.56-.84l-.18-2.75-1.53-2.29a1,1,0,0,1-.06-1l1.21-2.47L46,57.43a1,1,0,0,1,.45-.9L48.78,55,50,52.52a1,1,0,0,1,.83-.55l2.75-.18,2.29-1.54a1,1,0,0,1,1-.06l2.47,1.22,2.76-.18a1,1,0,0,1,.89.44L64.53,54,67,55.18a1,1,0,0,1,.56.83l.18,2.75,1.53,2.3a1,1,0,0,1,.07,1l-1.22,2.48.18,2.75a1,1,0,0,1-.45.9l-2.29,1.53-1.22,2.47a1,1,0,0,1-.83.56l-2.75.18-2.29,1.53A1,1,0,0,1,57.91,74.62ZM55.2,71.28a1,1,0,0,1,.44.11l2.2,1.08,2-1.36a1,1,0,0,1,.49-.17l2.44-.16,1.09-2.2a.89.89,0,0,1,.34-.38l2-1.37-.16-2.44a1.13,1.13,0,0,1,.1-.51l1.09-2.19-1.36-2a.93.93,0,0,1-.17-.49l-.16-2.44-2.2-1.08A1.07,1.07,0,0,1,63,55.3l-1.36-2-2.44.16a1.11,1.11,0,0,1-.51-.1l-2.2-1.08-2,1.36a1.11,1.11,0,0,1-.49.17l-2.44.16-1.09,2.19a.91.91,0,0,1-.34.39l-2,1.36.16,2.45a1.07,1.07,0,0,1-.1.5L47.05,63l1.37,2a1.09,1.09,0,0,1,.16.49L48.74,68l2.2,1.08a1.07,1.07,0,0,1,.39.34l1.36,2,2.44-.16Z"/>
    <g>
      <circle class="cls-1" cx="57.13" cy="62.45" r="6.49"/>
      <path class="cls-2" d="M57.13,69.94a7.49,7.49,0,1,1,7.48-7.49A7.5,7.5,0,0,1,57.13,69.94Zm0-13a5.49,5.49,0,1,0,5.48,5.49A5.49,5.49,0,0,0,57.13,57Z"/>
    </g>
  </g>
</svg>
