<svg class="triumph-svg-icon" xmlns="http://www.w3.org/2000/svg" width="1.38in" height="1.38in" viewBox="0 0 99.25 99.25">
  <defs>
    <style>
      .cls-1 {
        fill: #808080;
      }

      .cls-2 {
        fill: #000000;
      }
    </style>
  </defs>
  <g>
    <g>
      <path class="cls-1" d="M55.9,29.55A20.62,20.62,0,1,0,69.61,55.28,20.63,20.63,0,0,0,55.9,29.55Zm9,24.31A15.72,15.72,0,1,1,54.47,34.23,15.72,15.72,0,0,1,64.92,53.86Z"/>
      <path class="cls-2" d="M49.91,70.9a21.62,21.62,0,1,1,6.28-42.31h0a21.61,21.61,0,0,1,3.86,39.76A21.4,21.4,0,0,1,49.91,70.9Zm0-41.26a19.65,19.65,0,1,0,5.75.86h0A19.94,19.94,0,0,0,49.86,29.64Zm0,36.35A16.72,16.72,0,0,1,42,34.52,16.72,16.72,0,1,1,49.88,66Zm0-31.45a14.78,14.78,0,1,0,4.31.65A14.87,14.87,0,0,0,49.87,34.54Z"/>
    </g>
    <g>
      <circle class="cls-1" cx="49.89" cy="49.27" r="2.4"/>
      <path class="cls-2" d="M49.89,52.67a3.4,3.4,0,1,1,3.4-3.4A3.4,3.4,0,0,1,49.89,52.67Zm0-4.8a1.4,1.4,0,1,0,1.4,1.4A1.4,1.4,0,0,0,49.89,47.87Z"/>
    </g>
    <path class="cls-2" d="M63.86,44.38H35.32a1,1,0,0,1,0-2H63.86a1,1,0,0,1,0,2Z"/>
    <path class="cls-2" d="M46.85,65.57a1,1,0,0,1-1-1v-5.5A8.07,8.07,0,0,0,37.78,51H34.19a1,1,0,0,1,0-2h3.59A10.08,10.08,0,0,1,47.85,59.07v5.5A1,1,0,0,1,46.85,65.57Z"/>
    <path class="cls-2" d="M52.91,65.64a1,1,0,0,1-1-1V59.07A10.07,10.07,0,0,1,62,49h3.44a1,1,0,0,1,0,2H62a8.07,8.07,0,0,0-8.06,8.06v5.57A1,1,0,0,1,52.91,65.64Z"/>
  </g>
</svg>
