<svg class="triumph-svg-icon" xmlns="http://www.w3.org/2000/svg" width="1.38in" height="1.38in" viewBox="0 0 99.25 99.25">
  <defs>
    <style>
      .secondary {
        fill: #000000;
      }

      .primary {
        fill: #c8c9c7;
      }
    </style>
  </defs>
  <g>
    <path class="secondary" d="M55.92,57.72H29a4.84,4.84,0,0,1-4.84-4.83V35A4.84,4.84,0,0,1,29,30.13H68.39A4.84,4.84,0,0,1,73.23,35v7.8a1,1,0,0,1-2,0V35a2.84,2.84,0,0,0-2.84-2.84H29A2.84,2.84,0,0,0,26.11,35V52.89A2.84,2.84,0,0,0,29,55.72h27a1,1,0,0,1,0,2Z"/>
    <path class="secondary" d="M49.5,52.72H30.41a1,1,0,1,1,0-2H49.5a1,1,0,0,1,0,2Z"/>
    <path class="secondary" d="M33.42,47.41h-3a1,1,0,0,1,0-2h3a1,1,0,0,1,0,2Z"/>
    <path class="secondary" d="M41.37,47.41h-3a1,1,0,1,1,0-2h3a1,1,0,1,1,0,2Z"/>
    <path class="secondary" d="M49.35,47.41h-3a1,1,0,0,1,0-2h3a1,1,0,0,1,0,2Z"/>
    <g>
      <rect class="primary" x="29.21" y="35.58" width="13.28" height="5.6"/>
      <path class="secondary" d="M42.49,42.18H29.21a1,1,0,0,1-1-1v-5.6a1,1,0,0,1,1-1H42.49a1,1,0,0,1,1,1v5.6A1,1,0,0,1,42.49,42.18Zm-12.28-2H41.49v-3.6H30.21Z"/>
    </g>
    <g>
      <circle class="primary" cx="63.68" cy="49.24" r="10.38" transform="translate(-3.3 93.89) rotate(-71.4)"/>
      <path class="secondary" d="M63.67,60.62a11.37,11.37,0,0,1-10.88-14.7,11.38,11.38,0,1,1,10.88,14.7Zm0-20.76a9.39,9.39,0,1,0,2.74.41A9.58,9.58,0,0,0,63.67,39.86Z"/>
    </g>
    <path class="secondary" d="M76.11,71.65a1,1,0,0,1-.88-.53L68.74,58.94A1,1,0,1,1,70.5,58L77,70.18a1,1,0,0,1-.89,1.47Z"/>
    <path class="secondary" d="M63.77,54.64a4,4,0,0,1-4-3.32,1,1,0,1,1,1.92-.53c.47,1.66,1.4,1.85,2.07,1.85a1.34,1.34,0,0,0,1.54-1.46c0-1-.37-1.14-1.84-1.52-1.31-.33-3.27-.83-3.27-3.32,0-1.51,1-3.27,3.86-3.27a3.41,3.41,0,0,1,3.34,3.2,1,1,0,1,1-2,.14,1.45,1.45,0,0,0-1.35-1.34c-1.24,0-1.86.43-1.86,1.27s.35,1,1.76,1.38,3.35.86,3.35,3.46A3.31,3.31,0,0,1,63.77,54.64Z"/>
    <path class="secondary" d="M63.87,45a1,1,0,0,1-1-1V42.23a1,1,0,0,1,2,0V44A1,1,0,0,1,63.87,45Z"/>
    <path class="secondary" d="M63.87,56.71a1,1,0,0,1-1-1V54a1,1,0,0,1,2,0v1.75A1,1,0,0,1,63.87,56.71Z"/>
  </g>
</svg>
