<svg class="triumph-svg-icon" xmlns="http://www.w3.org/2000/svg" width="1.38in" height="1.38in" viewBox="0 0 99.25 99.25">
  <defs>
    <style>
      .icon-accent {
        fill: #c8c9c7;
      }

      .icon-dark {
        fill: #000000;
      }
    </style>
  </defs>
  <g>
    <rect class="icon-accent" x="24.29" y="39.52" width="49.67" height="6.14"/>
    <path class="icon-dark" d="M69.24,66.47H28.87a5.59,5.59,0,0,1-5.58-5.58V38.38a5.59,5.59,0,0,1,5.58-5.58H69.24a5.59,5.59,0,0,1,5.59,5.58V60.89A5.59,5.59,0,0,1,69.24,66.47ZM28.87,34.8a3.59,3.59,0,0,0-3.58,3.58V60.89a3.58,3.58,0,0,0,3.58,3.58H69.24a3.58,3.58,0,0,0,3.59-3.58V38.38a3.59,3.59,0,0,0-3.59-3.58Z"/>
    <g>
      <circle class="icon-accent" cx="31.27" cy="58.64" r="3.35"/>
      <path class="icon-dark" d="M31.27,63a4.35,4.35,0,1,1,4.35-4.34A4.35,4.35,0,0,1,31.27,63Zm0-6.69a2.35,2.35,0,1,0,2.35,2.35A2.35,2.35,0,0,0,31.27,56.29Z"/>
    </g>
    <g>
      <circle class="icon-accent" cx="35.68" cy="58.64" r="3.35"/>
      <path class="icon-dark" d="M35.68,63A4.35,4.35,0,1,1,40,58.64,4.35,4.35,0,0,1,35.68,63Zm0-6.69A2.35,2.35,0,1,0,38,58.64,2.35,2.35,0,0,0,35.68,56.29Z"/>
    </g>
    <path class="icon-dark" d="M54.2,59.71H45.27a1,1,0,0,1,0-2H54.2a1,1,0,0,1,0,2Z"/>
    <path class="icon-dark" d="M67.48,59.71H58.55a1,1,0,0,1,0-2h8.93a1,1,0,0,1,0,2Z"/>
  </g>
</svg>
