<svg class="triumph-svg-icon" xmlns="http://www.w3.org/2000/svg" width="1.38in" height="1.38in" viewBox="0 0 99.25 99.25">
  <defs>
    <style>
      .icon-dark {
        fill: #000000;
      }

      .icon-accent {
        fill: #c8c9c7;
      }

      .icon-empty {
        fill: none;
      }
    </style>
  </defs>
  <g>
    <path class="icon-dark" d="M38.3,58.05a1,1,0,0,1-.7-.29,1,1,0,0,1-.3-.71V48.29c0-3.16,6-5.93,12.87-5.93,5.27,0,9.58,1.54,12.78,4.59a1,1,0,0,1,0,1.42,1,1,0,0,1-1.41,0c-2.82-2.68-6.66-4-11.4-4-7.06,0-10.87,2.79-10.87,3.93V56L44,56h0a1,1,0,0,1,0,2l-5.67,0Z"/>
    <g>
      <circle class="icon-accent" cx="57.21" cy="60.16" r="10.38" transform="translate(-4.57 115.62) rotate(-88.36)"/>
      <path class="icon-dark" d="M57.21,71.54A11.38,11.38,0,1,1,68.59,60.16,11.39,11.39,0,0,1,57.21,71.54Zm0-20.76a9.38,9.38,0,1,0,9.38,9.38A9.39,9.39,0,0,0,57.21,50.78Z"/>
    </g>
    <path class="icon-dark" d="M51.34,61a1,1,0,0,1-1-1,6.72,6.72,0,0,1,6.71-6.71,1,1,0,0,1,0,2A4.71,4.71,0,0,0,52.34,60,1,1,0,0,1,51.34,61Z"/>
    <path class="icon-dark" d="M43.56,76.1a1,1,0,0,1-.7-1.71l6.55-6.56a1,1,0,0,1,1.42,0,1,1,0,0,1,0,1.41L44.27,75.8A1,1,0,0,1,43.56,76.1Z"/>
    <g>
      <path class="icon-empty" d="M33.39,43.78a4.61,4.61,0,0,0,4.67-4.67V37.25a4.67,4.67,0,1,0-9.33,0v1.86A4.6,4.6,0,0,0,33.39,43.78Z"/>
      <path class="icon-dark" d="M33.39,44.78a5.61,5.61,0,0,1-5.66-5.67V37.25a5.67,5.67,0,1,1,11.33,0v1.86A5.61,5.61,0,0,1,33.39,44.78Zm0-11.2a3.58,3.58,0,0,0-3.66,3.67v1.86a3.67,3.67,0,1,0,7.33,0V37.25A3.59,3.59,0,0,0,33.39,33.58Z"/>
    </g>
    <g>
      <path class="icon-empty" d="M50,39.67a6.14,6.14,0,0,0,6.23-6.22V31a6.23,6.23,0,0,0-12.46,0v2.49A6.14,6.14,0,0,0,50,39.67Z"/>
      <path class="icon-dark" d="M50,40.67a7.15,7.15,0,0,1-7.23-7.22V31a7.23,7.23,0,0,1,14.46,0v2.49A7.15,7.15,0,0,1,50,40.67Zm0-14.94A5.18,5.18,0,0,0,44.75,31v2.49a5.23,5.23,0,0,0,10.46,0V31A5.18,5.18,0,0,0,50,25.73Z"/>
    </g>
    <path class="icon-dark" d="M34.82,57.94H23.13a1,1,0,0,1-1-1V52.45c0-4.39,7.22-6.59,11.26-6.59a14.35,14.35,0,0,1,1.77.12,1,1,0,1,1-.25,2,12.08,12.08,0,0,0-1.52-.1c-3.18,0-9.26,1.79-9.26,4.59v3.49H34.82a1,1,0,0,1,0,2Z"/>
    <g>
      <path class="icon-empty" d="M67,43.78a4.61,4.61,0,0,1-4.67-4.67V37.25a4.67,4.67,0,1,1,9.33,0v1.86A4.6,4.6,0,0,1,67,43.78Z"/>
      <path class="icon-dark" d="M67,44.78a5.61,5.61,0,0,1-5.67-5.67V37.25a5.67,5.67,0,1,1,11.33,0v1.86A5.61,5.61,0,0,1,67,44.78Zm0-11.2a3.59,3.59,0,0,0-3.67,3.67v1.86a3.67,3.67,0,1,0,7.33,0V37.25A3.58,3.58,0,0,0,67,33.58Z"/>
    </g>
    <path class="icon-dark" d="M77.22,57.94H70.75a1,1,0,0,1,0-2h5.47V52.45c0-2.8-6.08-4.59-9.26-4.59a12.08,12.08,0,0,0-1.52.1,1,1,0,1,1-.25-2A14.22,14.22,0,0,1,67,45.86c4,0,11.26,2.2,11.26,6.59v4.49A1,1,0,0,1,77.22,57.94Z"/>
  </g>
</svg>
