<svg class="triumph-svg-icon" xmlns="http://www.w3.org/2000/svg" width="1.38in" height="1.38in" viewBox="0 0 99.25 99.25">
  <defs>
    <style>
      .icon-accent {
        fill: #c8c9c7;
      }

      .icon-dark {
        fill: #000000;
      }
    </style>
  </defs>
  <g>
    <g>
      <path class="icon-accent" d="M26,77.83V67a5.15,5.15,0,0,1,5.09-5.4h7.19A5.15,5.15,0,0,1,43.37,67V77.83Z"/>
      <path class="icon-dark" d="M43.37,78.83H26a1,1,0,0,1-1-1V67a6.11,6.11,0,0,1,6.09-6.4h7.19A6.11,6.11,0,0,1,44.37,67V77.83A1,1,0,0,1,43.37,78.83ZM27,76.83H42.37V67a4.16,4.16,0,0,0-4.09-4.4H31.09A4.16,4.16,0,0,0,27,67Z"/>
    </g>
    <path class="icon-dark" d="M34.69,62.26a7,7,0,0,1-7.12-6.81v-2a7.12,7.12,0,0,1,14.23,0v2A7,7,0,0,1,34.69,62.26Zm0-13.57a5,5,0,0,0-5.12,4.81v2a5.12,5.12,0,0,0,10.23,0v-2A4.92,4.92,0,0,0,34.69,48.69Z"/>
    <path class="icon-accent" d="M60.75,18.57c-9.14,0-16.59,5.5-16.59,12.31a10.46,10.46,0,0,0,3.49,7.55,42.07,42.07,0,0,1-1.72,6.8c-.28.89.32,1.82,1.07,1.59a18.88,18.88,0,0,0,7.83-4.48,21.59,21.59,0,0,0,5.92.84c9.18,0,16.59-5.5,16.59-12.3S69.93,18.57,60.75,18.57Z"/>
    <path class="icon-dark" d="M46.77,47.85a1.78,1.78,0,0,1-1.27-.54A2.38,2.38,0,0,1,45,44.93a43.53,43.53,0,0,0,1.62-6.15,11.23,11.23,0,0,1-3.43-7.9c0-7.34,7.89-13.31,17.59-13.31s17.59,6,17.59,13.31-7.89,13.3-17.59,13.3a22.39,22.39,0,0,1-5.64-.73,20.05,20.05,0,0,1-7.82,4.32A1.57,1.57,0,0,1,46.77,47.85Zm-.07-2Zm14-26.29c-8.6,0-15.59,5.07-15.59,11.31a9.42,9.42,0,0,0,3.18,6.82,1,1,0,0,1,.3.87,43.57,43.57,0,0,1-1.76,7,.49.49,0,0,0,0,.27,17.92,17.92,0,0,0,7.25-4.18,1,1,0,0,1,1-.25,20.94,20.94,0,0,0,5.65.8c8.6,0,15.59-5.07,15.59-11.3S69.35,19.57,60.75,19.57Z"/>
    <path class="icon-dark" d="M67.51,31.88H52.78a1,1,0,0,1,0-2H67.51a1,1,0,0,1,0,2Z"/>
    <path class="icon-dark" d="M67.51,26.94H52.78a1,1,0,0,1,0-2H67.51a1,1,0,0,1,0,2Z"/>
    <path class="icon-dark" d="M61.36,36.77H52.78a1,1,0,0,1,0-2h8.58a1,1,0,0,1,0,2Z"/>
    <g>
      <path class="icon-accent" d="M47.83,77.83V67a5.14,5.14,0,0,1,5.08-5.4h7.2A5.14,5.14,0,0,1,65.19,67V77.83Z"/>
      <path class="icon-dark" d="M65.19,78.83H47.83a1,1,0,0,1-1-1V67a6.11,6.11,0,0,1,6.08-6.4h7.2A6.11,6.11,0,0,1,66.19,67V77.83A1,1,0,0,1,65.19,78.83Zm-16.36-2H64.19V67a4.15,4.15,0,0,0-4.08-4.4h-7.2A4.15,4.15,0,0,0,48.83,67Z"/>
    </g>
    <path class="icon-dark" d="M56.51,62.54a7,7,0,0,1-7.11-6.81V53.78a7.12,7.12,0,0,1,14.23,0v1.95A7,7,0,0,1,56.51,62.54Zm0-13.57a5,5,0,0,0-5.11,4.81v1.95a5.12,5.12,0,0,0,10.23,0V53.78A4.92,4.92,0,0,0,56.51,49Z"/>
    <g>
      <path class="icon-accent" d="M44.06,54.24h.6a1.56,1.56,0,0,1,1.55,1.55v2a1.55,1.55,0,0,1-1.55,1.54h-.75"/>
      <path class="icon-dark" d="M44.66,60.29h-.75a1,1,0,0,1,0-2h.75a.55.55,0,0,0,.55-.54v-2a.55.55,0,0,0-.55-.55h-.6a1,1,0,0,1,0-2h.6a2.55,2.55,0,0,1,2.55,2.55v2A2.55,2.55,0,0,1,44.66,60.29Z"/>
    </g>
    <path class="icon-dark" d="M35.11,66.71a1,1,0,0,1,0-2,7.78,7.78,0,0,0,7.76-7.77V52.55a7.77,7.77,0,0,0-7.76-7.76h-.57a7.77,7.77,0,0,0-7.76,7.76l0,6.93a1,1,0,0,1-1,1H24.68a2.32,2.32,0,0,1-2.29-2.54V56a2.32,2.32,0,0,1,2.29-2.55h.1v-.86a9.77,9.77,0,0,1,9.76-9.76h.57a9.77,9.77,0,0,1,9.76,9.76v4.39A9.78,9.78,0,0,1,35.11,66.71ZM24.68,55.41c-.24,0-.29.3-.29.55v2c0,.25.05.54.29.54h.07l0-3.05Z"/>
    <g>
      <rect class="icon-accent" x="32.37" y="64.38" width="4.9" height="2.45" rx="1.23"/>
      <path class="icon-dark" d="M36.05,67.83H33.6a2.23,2.23,0,1,1,0-4.45h2.45a2.23,2.23,0,0,1,0,4.45ZM33.6,65.38a.23.23,0,1,0,0,.45h2.45a.22.22,0,0,0,.22-.23.22.22,0,0,0-.22-.22Z"/>
    </g>
  </g>
</svg>
