<svg class="triumph-svg-icon" xmlns="http://www.w3.org/2000/svg" width="1.38in" height="1.38in" viewBox="0 0 99.25 99.25">
  <defs>
    <style>
      .cls-1 {
        fill: #808080;
      }

      .cls-2 {
        fill: #000000;
      }
    </style>
  </defs>
  <g>
    <polygon class="cls-1" points="55.46 59.37 56.02 65.21 46.53 65.51 55.46 59.37"/>
    <path class="cls-2" d="M64.19,74.91H40.34c-9.12,0-16.27-4.14-16.27-9.43a1,1,0,0,1,2,0c0,4,6.53,7.43,14.27,7.43H63.19V66.05H40.34a1,1,0,0,1,0-2H64.19a1,1,0,0,1,1,1v8.86A1,1,0,0,1,64.19,74.91Z"/>
    <path class="cls-2" d="M40.34,66.08c-9.12,0-16.27-4.15-16.27-9.44s7.15-9.43,16.27-9.43S56.6,51.35,56.6,56.64,49.46,66.08,40.34,66.08Zm0-16.87c-7.74,0-14.27,3.4-14.27,7.43s6.53,7.44,14.27,7.44S54.6,60.67,54.6,56.64,48.07,49.21,40.34,49.21Z"/>
    <path class="cls-2" d="M25.07,66.44a1,1,0,0,1-1-1v-8.8a1,1,0,0,1,2,0v8.8A1,1,0,0,1,25.07,66.44Z"/>
    <path class="cls-2" d="M55.6,65.93a1,1,0,0,1-1-1V56.64a1,1,0,0,1,2,0v8.29A1,1,0,0,1,55.6,65.93Z"/>
    <path class="cls-2" d="M28.8,71.68a1,1,0,0,1-1-1v-5.4a1,1,0,0,1,2,0v5.4A1,1,0,0,1,28.8,71.68Z"/>
    <path class="cls-2" d="M39.4,74.73a1,1,0,0,1-1-1v-5.4a1,1,0,0,1,2,0v5.4A1,1,0,0,1,39.4,74.73Z"/>
    <path class="cls-2" d="M50,74.77a1,1,0,0,1-1-1v-5.4a1,1,0,0,1,2,0v5.4A1,1,0,0,1,50,74.77Z"/>
    <path class="cls-2" d="M60.2,74.73a1,1,0,0,1-1-1v-5.4a1,1,0,0,1,2,0v5.4A1,1,0,0,1,60.2,74.73Z"/>
    <path class="cls-2" d="M55.19,74.73a1,1,0,0,1-1-1V70.87a1,1,0,0,1,2,0v2.86A1,1,0,0,1,55.19,74.73Z"/>
    <path class="cls-2" d="M44.79,74.73a1,1,0,0,1-1-1V70.87a1,1,0,0,1,2,0v2.86A1,1,0,0,1,44.79,74.73Z"/>
    <path class="cls-2" d="M33.61,73.56a1,1,0,0,1-1-1V69.7a1,1,0,0,1,2,0v2.86A1,1,0,0,1,33.61,73.56Z"/>
    <g>
      <ellipse class="cls-1" cx="40.34" cy="56.64" rx="5.44" ry="1.98"/>
      <path class="cls-2" d="M40.34,59.62c-3.1,0-6.44-.93-6.44-3s3.34-3,6.44-3,6.43.94,6.43,3S43.44,59.62,40.34,59.62Zm-4.38-3c.37.35,1.86,1,4.38,1s4-.63,4.37-1c-.37-.35-1.86-1-4.37-1S36.33,56.29,36,56.64Zm8.83.09h0Z"/>
    </g>
    <g>
      <path class="cls-1" d="M66.32,50.84a1.54,1.54,0,0,1,1.24-1l5.94-.95a18.51,18.51,0,0,0,0-4l-5.94-.94a1.54,1.54,0,0,1-1.24-1,14,14,0,0,0-.69-1.66,1.61,1.61,0,0,1,.13-1.65l3.54-4.87a19.2,19.2,0,0,0-2.85-2.85l-4.89,3.56a1.58,1.58,0,0,1-1.65.1,11.58,11.58,0,0,0-1.62-.67,1.54,1.54,0,0,1-1-1.24l-.94-5.95a19.39,19.39,0,0,0-4,0l-.95,5.95a1.6,1.6,0,0,1-1.05,1.25,12.09,12.09,0,0,0-1.62.67,1.55,1.55,0,0,1-1.61-.11l-4.91-3.56a19.13,19.13,0,0,0-2.84,2.85l2.31,3.19a5.44,5.44,0,0,1,.67,5v0a1.55,1.55,0,0,1-1.22,1l-6,.94a19.46,19.46,0,0,0-.1,2c0,.53,0,1.06.06,1.58l0,.29a26.63,26.63,0,0,1,5.25-.52,26.17,26.17,0,0,1,6.17.72,8.06,8.06,0,1,1,8.65,5.73,4.92,4.92,0,0,1,.44,2c0,1,0,.78,0,.78v7.51l.89,0,0,0,.44-2.76a5.45,5.45,0,0,1,3-4l0,0a1.56,1.56,0,0,1,1.61.15l4.87,3.55A19.69,19.69,0,0,0,69.3,59l-3.54-4.88a1.61,1.61,0,0,1-.11-1.68A12.66,12.66,0,0,0,66.32,50.84Z"/>
      <path class="cls-2" d="M56.5,65.93l-.21,0-.7,0a1,1,0,0,1-1-1V57.42a1.9,1.9,0,0,1,0-.25c0-.1,0-.26,0-.53a3.92,3.92,0,0,0-.36-1.58,1.05,1.05,0,0,1,0-.9,1,1,0,0,1,.76-.49,7.07,7.07,0,1,0-7.58-5,1,1,0,0,1-.23,1,1,1,0,0,1-1,.28,25.58,25.58,0,0,0-11-.19,1,1,0,0,1-.79-.18,1,1,0,0,1-.41-.7l0-.3C34,48,34,47.44,34,46.86a18.46,18.46,0,0,1,.11-2.12,1,1,0,0,1,.84-.88l5.95-.94a.51.51,0,0,0,.43-.33,4.44,4.44,0,0,0-.52-4.09L38.5,35.31a1,1,0,0,1,0-1.22,20.19,20.19,0,0,1,3-3,1,1,0,0,1,1.21,0l4.92,3.56a.57.57,0,0,0,.58,0A14.32,14.32,0,0,1,50,33.92a.61.61,0,0,0,.39-.47l.94-5.94a1,1,0,0,1,.88-.83,20,20,0,0,1,4.24,0,1,1,0,0,1,.89.83l.94,5.95a.55.55,0,0,0,.34.45,11.25,11.25,0,0,1,1.77.73.6.6,0,0,0,.61,0l4.89-3.56a1,1,0,0,1,1.22,0,20.75,20.75,0,0,1,3,3,1,1,0,0,1,0,1.22l-3.54,4.87a.6.6,0,0,0,0,.62,14.63,14.63,0,0,1,.74,1.79.54.54,0,0,0,.44.33l6,.94a1,1,0,0,1,.84.88,20.58,20.58,0,0,1,0,4.25,1,1,0,0,1-.84.88l-6,.94a.56.56,0,0,0-.44.35,13.22,13.22,0,0,1-.73,1.74.63.63,0,0,0,0,.65l3.54,4.88a1,1,0,0,1,0,1.22,20.68,20.68,0,0,1-3,3,1,1,0,0,1-1.22,0L61,59.13a.58.58,0,0,0-.56-.07,4.47,4.47,0,0,0-2.51,3.26l-.43,2.77a1,1,0,0,1-.62.77A1,1,0,0,1,56.5,65.93ZM60.65,57a2.55,2.55,0,0,1,1.52.51l4.23,3.07A17.8,17.8,0,0,0,68,59L65,54.72a2.59,2.59,0,0,1-.2-2.7,12.82,12.82,0,0,0,.62-1.49h0a2.53,2.53,0,0,1,2-1.69L72.57,48c0-.38,0-.77,0-1.16s0-.77,0-1.14L67.4,44.9a2.54,2.54,0,0,1-2-1.69,12.13,12.13,0,0,0-.64-1.53A2.59,2.59,0,0,1,65,39L68,34.76a19.18,19.18,0,0,0-1.63-1.62l-4.26,3.1a2.56,2.56,0,0,1-2.67.19A9.3,9.3,0,0,0,58,35.82a2.54,2.54,0,0,1-1.72-2l-.82-5.18a17.65,17.65,0,0,0-2.3,0l-.82,5.18a2.58,2.58,0,0,1-1.72,2,11.5,11.5,0,0,0-1.5.63,2.56,2.56,0,0,1-2.64-.2l-4.27-3.1a19.29,19.29,0,0,0-1.63,1.63l1.86,2.55a6.5,6.5,0,0,1,.81,5.87,2.54,2.54,0,0,1-2,1.71L36,45.72c0,.37,0,.76,0,1.14s0,.46,0,.69a27.75,27.75,0,0,1,9.23.09,8.06,8.06,0,0,1-.06-1,9.06,9.06,0,1,1,11.28,8.78,4.92,4.92,0,0,1,.14,1.2,5.7,5.7,0,0,1,0,.84v2.66a6.58,6.58,0,0,1,2.92-2.84A2.56,2.56,0,0,1,60.65,57Z"/>
    </g>
  </g>
</svg>
