<svg class="triumph-svg-icon" xmlns="http://www.w3.org/2000/svg" width="1.38in" height="1.38in" viewBox="0 0 99.25 99.25">
  <defs>
    <style>
      .secondary {
        fill: #000000;
      }

      .primary {
        fill: #c8c9c7;
      }

      .c {
        fill: #fff;
      }
    </style>
  </defs>
  <g>
    <path class="secondary" d="M56.6,70.43H39a4.5,4.5,0,0,1-4.49-4.49V32.32A4.5,4.5,0,0,1,39,27.82H56.6a4.5,4.5,0,0,1,4.49,4.5V54.56a1,1,0,0,1-2,0V32.32a2.5,2.5,0,0,0-2.49-2.5H39a2.5,2.5,0,0,0-2.49,2.5V65.94A2.5,2.5,0,0,0,39,68.43H56.6a1,1,0,0,1,0,2Z"/>
    <path class="secondary" d="M60.09,35.45H35.52a1,1,0,1,1,0-2H60.09a1,1,0,0,1,0,2Z"/>
    <path class="secondary" d="M55.7,58.92H36.25a1,1,0,0,1,0-2H55.7a1,1,0,0,1,0,2Z"/>
    <path class="secondary" d="M47.81,66.89A3.16,3.16,0,1,1,51,63.73,3.16,3.16,0,0,1,47.81,66.89Zm0-4.32A1.16,1.16,0,1,0,49,63.73,1.16,1.16,0,0,0,47.81,62.57Z"/>
    <g>
      <path class="secondary" d="M67.77,75.47a1,1,0,0,1-.69-.29c-1.32-1.28-2.82-2.71-3.29-3.11a20,20,0,0,0-2.81.14l-.68.06h0c-1.38,0-8-5-8.37-6.07a1.8,1.8,0,0,1,.49-1.92,4.54,4.54,0,0,1,4.41-1.19,9.91,9.91,0,0,1,2,1L51,52.7a3.06,3.06,0,0,1-.49-2.3,3,3,0,0,1,1.29-2,3.08,3.08,0,0,1,4.24.75L59.44,54a3.49,3.49,0,0,1,3.48-.51,3.91,3.91,0,0,1,2-.71,3.63,3.63,0,0,1,1.82.33,3.57,3.57,0,0,1,2.49-.84,3,3,0,0,1,2.24,1.52l1.64,2.08a14.36,14.36,0,0,1,2,6.65,24.93,24.93,0,0,0,.66,3.69,7.77,7.77,0,0,0,1,2.42A1,1,0,0,1,76.48,70a1,1,0,0,1-1.37-.33,9.73,9.73,0,0,1-1.27-2.93,27.83,27.83,0,0,1-.72-4A12.42,12.42,0,0,0,71.44,57l-1.62-2-.06-.1a1.17,1.17,0,0,0-.78-.63,2.1,2.1,0,0,0-1.46.79,1,1,0,0,1-1.37.07A1.54,1.54,0,0,0,65,54.74a1.82,1.82,0,0,0-1.2.57,1,1,0,0,1-1.37.15c-.27-.19-1.27-.74-2.35.67a1,1,0,0,1-1.61,0l-4.1-5.76a1.08,1.08,0,0,0-1.48-.26,1,1,0,0,0-.45.69,1.08,1.08,0,0,0,.17.8l9.64,14A1,1,0,0,1,62,67c-1.09.77-2.42,0-3.83-.9a10.83,10.83,0,0,0-2-1,2.66,2.66,0,0,0-2.32.61,42.62,42.62,0,0,0,6.44,4.65l.47,0a10.69,10.69,0,0,1,3.75,0c.22.07.42.13,3.93,3.55a1,1,0,0,1,0,1.41A1,1,0,0,1,67.77,75.47Z"/>
      <g>
        <rect class="primary" x="67.04" y="71.83" width="12.17" height="3.99" transform="translate(-27.99 49.88) rotate(-31.95)"/>
        <path class="secondary" d="M69,79.76a1,1,0,0,1-.87-.48L66,75.9a1,1,0,0,1,.33-1.42L76.69,68a1,1,0,0,1,1.42.33l2.11,3.38a1,1,0,0,1-.33,1.42L69.56,79.61A1,1,0,0,1,69,79.76Zm-.69-4.08,1,1.64L77.93,72l-1-1.64Z"/>
      </g>
      <g>
        <line class="c" x1="59.32" y1="55.52" x2="61.85" y2="59.21"/>
        <path class="secondary" d="M61.85,60.21a1,1,0,0,1-.82-.43l-2.54-3.7A1,1,0,1,1,60.14,55l2.54,3.7A1,1,0,0,1,62.42,60,1,1,0,0,1,61.85,60.21Z"/>
      </g>
      <g>
        <line class="c" x1="63.07" y1="54.67" x2="65.46" y2="58.15"/>
        <path class="secondary" d="M65.46,59.15a1,1,0,0,1-.82-.43l-2.4-3.49a1,1,0,0,1,1.65-1.13l2.4,3.49A1,1,0,0,1,66,59,1.08,1.08,0,0,1,65.46,59.15Z"/>
      </g>
      <g>
        <line class="c" x1="66.8" y1="54.33" x2="68.93" y2="57.44"/>
        <path class="secondary" d="M68.93,58.44a1,1,0,0,1-.82-.43L66,54.9a1,1,0,1,1,1.65-1.13l2.14,3.11a1,1,0,0,1-.83,1.56Z"/>
      </g>
    </g>
    <g>
      <path class="secondary" d="M46.27,44.44a1.49,1.49,0,0,1-.47-.07A15.3,15.3,0,0,1,40,41.17a16.91,16.91,0,0,1-4.15.52c-7.4,0-13.43-4.58-13.43-10.21s6-10.22,13.43-10.22,13.42,4.59,13.42,10.22a8.64,8.64,0,0,1-2.55,6,36.13,36.13,0,0,0,1.18,4.45,2,2,0,0,1-.46,2A1.58,1.58,0,0,1,46.27,44.44Zm.11-2Zm-6.15-3.39a1,1,0,0,1,.7.28,13,13,0,0,0,4.92,2.94,33.17,33.17,0,0,1-1.23-5,1,1,0,0,1,.29-.86,6.79,6.79,0,0,0,2.31-4.93c0-4.53-5.12-8.22-11.42-8.22S24.37,27,24.37,31.48s5.13,8.21,11.43,8.21A15.42,15.42,0,0,0,40,39.1,1.24,1.24,0,0,1,40.23,39.07Z"/>
      <g>
        <path class="primary" d="M35.8,20.54c8,0,14.45,4.79,14.45,10.71a9.14,9.14,0,0,1-3,6.58,36.79,36.79,0,0,0,1.5,5.93c.24.77-.29,1.58-.94,1.38A16.59,16.59,0,0,1,41,41.24,18.84,18.84,0,0,1,35.8,42c-8,0-14.45-4.79-14.45-10.72S27.8,20.54,35.8,20.54Z"/>
        <path class="secondary" d="M48,46.17a1.69,1.69,0,0,1-.5-.08,17.49,17.49,0,0,1-6.8-3.74A20,20,0,0,1,35.8,43c-8.52,0-15.45-5.25-15.45-11.72S27.28,19.54,35.8,19.54s15.45,5.25,15.45,11.71a9.9,9.9,0,0,1-3,6.93,39,39,0,0,0,1.39,5.27,2.2,2.2,0,0,1-.49,2.21A1.69,1.69,0,0,1,48,46.17Zm.08-2ZM41,40.24a1,1,0,0,1,.7.28,15.33,15.33,0,0,0,6.11,3.57v0A38.72,38.72,0,0,1,46.22,38a1,1,0,0,1,.29-.86,8.11,8.11,0,0,0,2.74-5.86c0-5.35-6-9.71-13.45-9.71S22.35,25.9,22.35,31.25,28.38,41,35.8,41a18,18,0,0,0,4.88-.69A.84.84,0,0,1,41,40.24Z"/>
      </g>
    </g>
    <g>
      <path class="secondary" d="M35.64,36.39a3.65,3.65,0,0,1-3.62-3A1,1,0,0,1,34,32.85c.38,1.36,1.1,1.54,1.69,1.54.82,0,1.24-.39,1.24-1.17s-.2-.87-1.53-1.21c-1.11-.28-3-.75-3-3,0-1.38.92-3,3.51-3A3.13,3.13,0,0,1,39,28.91a1,1,0,0,1-2,.14A1.13,1.13,0,0,0,35.9,28c-1.51,0-1.51.74-1.51,1,0,.63.19.77,1.45,1.1s3,.77,3,3.14A3,3,0,0,1,35.64,36.39Z"/>
      <path class="secondary" d="M35.73,27.92a1,1,0,0,1-1-1V25.38a1,1,0,0,1,2,0v1.54A1,1,0,0,1,35.73,27.92Z"/>
      <path class="secondary" d="M35.73,38.21a1,1,0,0,1-1-1V35.66a1,1,0,0,1,2,0v1.55A1,1,0,0,1,35.73,38.21Z"/>
    </g>
  </g>
</svg>
