<svg class="triumph-svg-icon" xmlns="http://www.w3.org/2000/svg" width="1.38in" height="1.38in" viewBox="0 0 99.25 99.25">
  <defs>
    <style>
      .icon-accent
        fill: #c8c9c7;
      }

      .icon-dark {
        fill: #000000;
      }
    </style>
  </defs>
  <g>
    <g>
      <path class="icon-accent" d="M38.37,51.9a11.53,11.53,0,0,0,3.71,2.39,12,12,0,0,1-.66-3.81c0-4.09,3.77-7.12,3.77-7.12L42.4,41c-3.77.88-3.86,5.63-4.28,8.14A9.56,9.56,0,0,0,38.26,52Z"/>
      <path class="icon-accent" d="M59.93,56.66s-4.14,4.52-10.09,4.05a8.28,8.28,0,0,1-.87-.12v3.2a25,25,0,0,0,3.38.22,13.2,13.2,0,0,0,10.42-5Z"/>
    </g>
    <path class="icon-dark" d="M49.11,33.9a6.61,6.61,0,1,1,6.6-6.6A6.61,6.61,0,0,1,49.11,33.9Zm0-11.21a4.61,4.61,0,1,0,4.6,4.61A4.61,4.61,0,0,0,49.11,22.69Z"/>
    <path class="icon-dark" d="M71.53,59.43H66.35a1,1,0,0,1-.86-.49L60.81,51H48.9a1,1,0,0,1-1-1V34.3a1,1,0,0,1,2,0V49H61.38a1,1,0,0,1,.86.49l4.68,7.9h4.61a1,1,0,0,1,0,2Z"/>
    <path class="icon-dark" d="M60.71,40.89H50.15a1,1,0,1,1,0-2H60.71a1,1,0,0,1,0,2Z"/>
    <g>
      <path class="icon-dark" d="M38.35,78.63a1.09,1.09,0,0,1-.26,0C37.4,78.42,26.72,72.8,26.72,67V56.38a1,1,0,0,1,1-1c2.56,0,9.08-3,9.84-4.06a1,1,0,0,1,.81-.42h0a1,1,0,0,1,.81.42c.82,1.15,7.13,4.06,9.79,4.06a1,1,0,0,1,1,1V67.56c0,4.92-10.85,10.91-11.37,11A1.07,1.07,0,0,1,38.35,78.63ZM28.72,57.29V67c0,3.78,7.69,8.57,9.63,9.54,1.87-1,9.62-6,9.62-9V57.3a25.59,25.59,0,0,1-9.61-4A27.44,27.44,0,0,1,28.72,57.29Z"/>
      <path class="icon-dark" d="M36.22,70a1,1,0,0,1-.7-.29l-2.67-2.67a1,1,0,0,1,0-1.41,1,1,0,0,1,1.42,0l1.95,2,7-7a1,1,0,0,1,1.42,0,1,1,0,0,1,0,1.41l-7.7,7.7A1,1,0,0,1,36.22,70Z"/>
    </g>
    <path class="icon-dark" d="M38.2,53a1,1,0,0,1-1-.9c0-.2,0-.41-.05-.61a14.66,14.66,0,0,1,4.41-11.43A1,1,0,0,1,43,41.53a12.68,12.68,0,0,0-3.81,9.86c0,.18,0,.36.05.53a1,1,0,0,1-.89,1.1Z"/>
    <path class="icon-dark" d="M51.79,65.27a14.53,14.53,0,0,1-3-.31,1,1,0,0,1,.41-2A12.65,12.65,0,0,0,61.7,58.5a1,1,0,0,1,1.57,1.25,14.69,14.69,0,0,1-10.56,5.49Z"/>
    <path class="icon-dark" d="M51.71,61.67a11,11,0,0,1-3-.43,1,1,0,1,1,.55-1.92,9.08,9.08,0,0,0,3,.33,8.94,8.94,0,0,0,6.42-3.34,1,1,0,0,1,1.4-.16,1,1,0,0,1,.16,1.41,11,11,0,0,1-7.85,4.09Z"/>
    <path class="icon-dark" d="M42.51,55.41a1,1,0,0,1-.93-.63,10.66,10.66,0,0,1-.75-3.35,10.86,10.86,0,0,1,3.55-8.75,1,1,0,1,1,1.35,1.47,8.9,8.9,0,0,0-2.9,7.16A8.8,8.8,0,0,0,43.44,54a1,1,0,0,1-.57,1.3A1.15,1.15,0,0,1,42.51,55.41Z"/>
  </g>
</svg>
