<svg xmlns="http://www.w3.org/2000/svg" viewBox="0 0 99.25 99.25"><defs><style>.cls-1{fill:#c8c9c7;}.cls-2{fill:none;}.cls-2,.cls-3{stroke:#000;stroke-linecap:round;stroke-linejoin:round;stroke-width:2px;}.cls-3{fill:#fff;}</style></defs><g id="Icons"><path class="cls-1" d="M42.4,41l2.79,2.37s-3.77,3-3.77,7.12,2.47,9.77,8.42,10.23,10.09-4,10.09-4L62.77,59a13.2,13.2,0,0,1-10.42,5c-6.93,0-10.65-2.51-11.72-4.51S37.7,51.6,38.12,49.09,38.63,41.83,42.4,41Z"/><circle class="cls-2" cx="49.11" cy="27.26" r="5.6"/><polyline class="cls-2" points="48.9 34.26 48.9 50 61.38 50 66.35 58.39 71.53 58.39"/><line class="cls-2" x1="50.15" y1="39.85" x2="60.71" y2="39.85"/><path class="cls-2" d="M62.49,59.09A13.67,13.67,0,1,1,42.26,40.77"/><path class="cls-2" d="M45.06,43.38A9.91,9.91,0,1,0,59.48,56.9"/><path class="cls-3" d="M38.37,51.86c-1,1.47-7.94,4.49-10.65,4.49V67c0,5,10.05,10.47,10.63,10.63C39,77.44,49,71.58,49,67.53V56.35C46.05,56.35,39.41,53.33,38.37,51.86Z"/><polyline class="cls-2" points="33.56 66.33 36.22 68.99 43.92 61.3"/></g></svg>