<svg class="triumph-svg-icon" xmlns="http://www.w3.org/2000/svg" width="1.38in" height="1.38in" viewBox="0 0 99.25 99.25">
  <defs>
    <style>
      .cls-1 {
        fill: #000000;
      }

      .cls-2 {
        fill: #808080;
      }
    </style>
  </defs>
  <g>
    <path class="cls-1" d="M58.56,72h-15a2.69,2.69,0,0,1-1.91-.79l-4.51-5.13c-1.75-1.75-3.59-3.9-3.59-6.19v-1.8L31.6,56.2A1,1,0,0,1,33,54.76l2.23,2.17a1,1,0,0,1,.31.72v2.22c0,1.77,2.14,3.91,3.05,4.82l4.51,5.13a.66.66,0,0,0,.45.16h15a.71.71,0,0,0,.5-1.21c-2.77-3-8.08-8.77-8.58-9.26a3.68,3.68,0,0,1-.76-3.21,1.54,1.54,0,0,1,1.15-1.17c1.51-.34,3,.38,4.24,1a6.05,6.05,0,0,0,1.32.53,4.28,4.28,0,0,0,2.65-1.28,2,2,0,0,0-.9-.65,16.53,16.53,0,0,1-2-.82c-1.51-.68-3.57-1.61-5.32-2.22a6.75,6.75,0,0,0-4.23.11c-1.27.34-2.91-.67-3.38-1l-.11-.08L40,47.87a1,1,0,1,1,1.33-1.49l3.1,2.77a3.68,3.68,0,0,0,1.69.68,8.73,8.73,0,0,1,5.41-.07c1.83.64,3.94,1.59,5.48,2.28.69.31,1.48.67,1.65.72a3.39,3.39,0,0,1,2.25,2,1.89,1.89,0,0,1-.26,1.8,6.15,6.15,0,0,1-4.07,2.07,4.87,4.87,0,0,1-2.35-.71A6.25,6.25,0,0,0,51.61,57a1.89,1.89,0,0,0,.29,1.05c.65.65,8.28,9,8.61,9.3A2.71,2.71,0,0,1,58.56,72Z"/>
    <path class="cls-1" d="M40.07,69.76H25.68a1,1,0,0,1-1-1V56.58a1,1,0,0,1,2,0V67.76H40.07a1,1,0,1,1,0,2Z"/>
    <path class="cls-1" d="M75.51,69.76H61.11a1,1,0,0,1,0-2h13.4V31H32.32a1,1,0,0,1,0-2H75.51a1,1,0,0,1,1,1V68.76A1,1,0,0,1,75.51,69.76Z"/>
    <g>
      <path class="cls-2" d="M24.57,27.79,42.29,45.51,31.21,56.58c0-.09-6.64-6.64-6.64-6.64Z"/>
      <path class="cls-1" d="M31.21,57.58a1.06,1.06,0,0,1-.38-.07.94.94,0,0,1-.42-.34C30,56.7,26.2,53,23.87,50.65a1,1,0,0,1-.3-.71V27.79a1,1,0,0,1,1.71-.7L43,44.8a1,1,0,0,1,0,1.42L31.92,57.29A1,1,0,0,1,31.21,57.58Zm-5.64-8.06c3.13,3.08,4.78,4.72,5.66,5.64l9.64-9.65-15.3-15.3Z"/>
    </g>
    <path class="cls-1" d="M56.68,36.54H45.61a1,1,0,0,1-1-1V30a1,1,0,0,1,2,0v4.53h9.07V30a1,1,0,1,1,2,0v5.53A1,1,0,0,1,56.68,36.54Z"/>
    <path class="cls-1" d="M47.82,72a1,1,0,0,1-.7-.29L44.9,69.47a1,1,0,0,1,0-1.41,1,1,0,0,1,1.42,0l2.21,2.21A1,1,0,0,1,47.82,72Z"/>
    <path class="cls-1" d="M52.25,72a1,1,0,0,1-.7-.29l-2.22-2.22a1,1,0,0,1,0-1.41,1,1,0,0,1,1.42,0L53,70.27a1,1,0,0,1,0,1.42A1,1,0,0,1,52.25,72Z"/>
    <path class="cls-1" d="M56.68,72a1,1,0,0,1-.71-.29l-2.21-2.22a1,1,0,0,1,1.41-1.41l2.22,2.21a1,1,0,0,1,0,1.42A1,1,0,0,1,56.68,72Z"/>
  </g>
</svg>
