<svg class="triumph-svg-icon" xmlns="http://www.w3.org/2000/svg" width="1.38in" height="1.38in" viewBox="0 0 99.25 99.25">
  <defs>
    <style>
      .primary {
        fill: #c8c9c7;
      }

      .secondary {
        fill: #000000;
      }
    </style>
  </defs>
  <g>
    <g>
      <path class="primary" d="M57.62,60.45a12.66,12.66,0,0,0,.67-1.62,1.4,1.4,0,0,1,.15-.3A13.94,13.94,0,0,1,54,56.87a8.06,8.06,0,1,1-7.74-10.28,7.58,7.58,0,0,1,.84,0,13.83,13.83,0,0,1,1.59-8.75l-.35-2.23a19.39,19.39,0,0,0-4,0l-.95,6a1.6,1.6,0,0,1-1.05,1.25,12.66,12.66,0,0,0-1.62.67A1.55,1.55,0,0,1,39,43.42l-4.91-3.56a19.13,19.13,0,0,0-2.84,2.85l2.31,3.19a5.44,5.44,0,0,1,.67,5v0a1.54,1.54,0,0,1-1.22,1l-6,.94a18.51,18.51,0,0,0,0,4l5.93.94a1.55,1.55,0,0,1,1.25,1v0a5.41,5.41,0,0,1-.67,4.92L31.28,67a18.6,18.6,0,0,0,2.84,2.84L39,66.31a1.57,1.57,0,0,1,1.6-.15,11.33,11.33,0,0,0,1.66.7,1.6,1.6,0,0,1,1.05,1.24l.95,6a20.87,20.87,0,0,0,4,0l.62-3.9a5.45,5.45,0,0,1,3-4l0,0a1.56,1.56,0,0,1,1.61.15l4.87,3.54A19.13,19.13,0,0,0,61.27,67l-3.54-4.88A1.62,1.62,0,0,1,57.62,60.45Z"/>
      <path class="secondary" d="M46.28,75.16c-.71,0-1.42,0-2.12-.11a1,1,0,0,1-.89-.84l-.94-5.95a.61.61,0,0,0-.4-.45,14.14,14.14,0,0,1-1.79-.76.56.56,0,0,0-.55.07L34.7,70.66a1,1,0,0,1-1.21,0,20.61,20.61,0,0,1-3-3,1,1,0,0,1,0-1.22l2.32-3.21a4.41,4.41,0,0,0,.53-4,.58.58,0,0,0-.47-.38l-5.93-.94a1,1,0,0,1-.84-.88A18.4,18.4,0,0,1,26,54.85a21,21,0,0,1,.11-2.12,1,1,0,0,1,.84-.88l5.95-.94a.52.52,0,0,0,.43-.33,4.44,4.44,0,0,0-.52-4.09l-2.31-3.2a1,1,0,0,1,0-1.21,20.68,20.68,0,0,1,3-3,1,1,0,0,1,1.21,0l4.92,3.56a.57.57,0,0,0,.58,0,14.32,14.32,0,0,1,1.74-.72.61.61,0,0,0,.39-.47l.94-5.94a1,1,0,0,1,.88-.84,21.45,21.45,0,0,1,4.24,0,1,1,0,0,1,.89.84l.35,2.24a1,1,0,0,1-.11.64,13.07,13.07,0,0,0-1.62,6.3A14.29,14.29,0,0,0,48,46.5a1,1,0,0,1-.27.83,1,1,0,0,1-.82.3,6,6,0,0,0-.74,0,7.06,7.06,0,1,0,6.78,9,1,1,0,0,1,.59-.65,1,1,0,0,1,.87.06,12.86,12.86,0,0,0,4.17,1.53,1,1,0,0,1,.67,1.52.41.41,0,0,0,0,.09,13.22,13.22,0,0,1-.73,1.74h0a.63.63,0,0,0,0,.65l3.54,4.88a1,1,0,0,1,0,1.22,20.68,20.68,0,0,1-3,3,1,1,0,0,1-1.22,0L53,67.12a.55.55,0,0,0-.56-.07,4.42,4.42,0,0,0-2.5,3.26l-.62,3.9a1,1,0,0,1-.89.84C47.69,75.12,47,75.16,46.28,75.16Zm-1.16-2a17.81,17.81,0,0,0,2.31,0L47.92,70a6.4,6.4,0,0,1,3.53-4.71,2.54,2.54,0,0,1,2.69.22l4.24,3.07A19.05,19.05,0,0,0,60,67l-3.08-4.25a2.62,2.62,0,0,1-.2-2.7h0c.13-.26.25-.52.35-.77a14.19,14.19,0,0,1-2.57-1A9.05,9.05,0,1,1,45.94,45.6c0-.32,0-.63,0-.92a15.16,15.16,0,0,1,1.7-7l-.18-1.13a17.65,17.65,0,0,0-2.3,0l-.82,5.18a2.58,2.58,0,0,1-1.72,2,11.5,11.5,0,0,0-1.5.63,2.58,2.58,0,0,1-2.64-.2l-4.27-3.1a17.81,17.81,0,0,0-1.62,1.63l1.85,2.55a6.5,6.5,0,0,1,.81,5.87,2.52,2.52,0,0,1-2,1.71L28,53.71c0,.37,0,.76,0,1.14s0,.78,0,1.16l5.17.82a2.55,2.55,0,0,1,2,1.69,6.39,6.39,0,0,1-.8,5.86L32.55,67a17.69,17.69,0,0,0,1.62,1.62l4.24-3.08a2.54,2.54,0,0,1,2.65-.23,10.82,10.82,0,0,0,1.52.64,2.6,2.6,0,0,1,1.72,2Zm12.5-12.67h0Z"/>
    </g>
    <path class="secondary" d="M60.93,59.67A15,15,0,0,1,46.59,40.34,15,15,0,1,1,60.93,59.67Zm0-27.94A13,13,0,1,0,73.31,48.48h0A13,13,0,0,0,60.89,31.73Z"/>
    <path class="secondary" d="M61,31.25a1,1,0,0,1-1-1V25.48a1,1,0,1,1,2,0v4.77A1,1,0,0,1,61,31.25Z"/>
    <path class="secondary" d="M61,45.11a1,1,0,0,1-1-1V35.69a1,1,0,0,1,2,0v8.42A1,1,0,0,1,61,45.11Z"/>
    <path class="secondary" d="M65.11,26.48H56.53a1,1,0,0,1,0-2h8.58a1,1,0,0,1,0,2Z"/>
    <circle class="secondary" cx="61.05" cy="44.6" r="1.87"/>
  </g>
</svg>
