<svg class="triumph-svg-icon" xmlns="http://www.w3.org/2000/svg" width="1.38in" height="1.38in" viewBox="0 0 99.25 99.25">
  <defs>
    <style>
      .icon-dark {
        fill: #000000;
      }

      .icon-accent {
        fill: #c8c9c7;
      }
    </style>
  </defs>
  <g>
    <path class="icon-dark" d="M79.82,69.85H19.41a1,1,0,0,1-1-1V32.09a1,1,0,0,1,1-1H79.82a1,1,0,0,1,1,1V68.85A1,1,0,0,1,79.82,69.85Zm-59.41-2H78.82V33.09H20.41Z"/>
    <g>
      <polyline class="icon-accent" points="30.98 68.01 30.98 31.18 37.62 24.55 67.59 24.55 67.59 68.01"/>
      <path class="icon-dark" d="M67.6,69a1,1,0,0,1-1-1V25.55H38L32,31.6V68a1,1,0,0,1-2,0V31.18a1,1,0,0,1,.3-.7l6.64-6.64a1,1,0,0,1,.7-.29h30a1,1,0,0,1,1,1V68A1,1,0,0,1,67.6,69Z"/>
    </g>
    <path class="icon-dark" d="M40.29,35.8H33.6a1,1,0,0,1,0-2h5.69V28.16a1,1,0,0,1,2,0V34.8A1,1,0,0,1,40.29,35.8Z"/>
    <path class="icon-dark" d="M86.06,75.42H13.17a1,1,0,0,1-1-1V68.88a1,1,0,0,1,1-1H86.06a1,1,0,0,1,1,1v5.54A1,1,0,0,1,86.06,75.42Zm-71.89-2H85.06V69.88H14.17Z"/>
    <path class="icon-dark" d="M54.68,72.65H44.55a1,1,0,0,1,0-2H54.68a1,1,0,1,1,0,2Z"/>
    <path class="icon-dark" d="M57.23,50.67H41a1,1,0,0,1,0-2H57.23a1,1,0,1,1,0,2Z"/>
    <path class="icon-dark" d="M57.23,45.22H41a1,1,0,0,1,0-2H57.23a1,1,0,0,1,0,2Z"/>
    <path class="icon-dark" d="M50.45,56.06H41a1,1,0,0,1,0-2h9.45a1,1,0,0,1,0,2Z"/>
  </g>
</svg>
