<svg class="triumph-svg-icon" xmlns="http://www.w3.org/2000/svg" width="1.38in" height="1.38in" viewBox="0 0 99.25 99.25">
  <defs>
    <style>
      .icon-accent {
        fill: #c8c9c7;
      }

      .icon-dark {
        fill: #000000;
      }
    </style>
  </defs>
  <g>
    <g>
      <g>
        <path class="icon-accent" d="M27.34,61v4a1.36,1.36,0,0,0,1.33,1.34h4A1.37,1.37,0,0,0,34,65V61"/>
        <path class="icon-dark" d="M32.68,67.35h-4A2.37,2.37,0,0,1,26.34,65V61a1,1,0,0,1,2,0v4a.36.36,0,0,0,.33.34h4A.37.37,0,0,0,33,65V61a1,1,0,0,1,2,0v4A2.37,2.37,0,0,1,32.68,67.35Z"/>
      </g>
      <path class="icon-dark" d="M47.3,62.11H24.72a1,1,0,0,1-1-1v-5.4a1,1,0,0,1,1-1h1.67V50.37A4.74,4.74,0,0,1,28,47l1-1V26.48a1,1,0,0,1,.3-.72,1,1,0,0,1,.72-.28c8.68.18,22.74.36,24.73.12l.1-.05a1,1,0,0,1,1.08.22,1,1,0,0,1,.3.83V46l.57.57a1,1,0,0,1,0,1.41,1,1,0,0,1-1.42,0l-.86-.86a1,1,0,0,1-.29-.71V27.59c-2.51.21-8.49.21-23.23-.09V46.36a1,1,0,0,1-.29.71L29.43,48.4a2.8,2.8,0,0,0-1,2v5.34a1,1,0,0,1-1,1H25.72v3.4H47.3a1,1,0,0,1,0,2Z"/>
      <path class="icon-dark" d="M34,56.71H30a1,1,0,1,1,0-2h4a1,1,0,0,1,0,2Z"/>
      <path class="icon-dark" d="M30,46.08l-.25,0-5.29-1.34a1,1,0,0,1-.75-1V38.4a1,1,0,0,1,2,0V43l4.53,1.15A1,1,0,0,1,31,45.32,1,1,0,0,1,30,46.08Z"/>
      <path class="icon-dark" d="M36.69,58.05a1,1,0,0,1-1-1V50.37a1,1,0,0,1,1-1H47.75a1,1,0,0,1,0,2H37.69v5.68A1,1,0,0,1,36.69,58.05Z"/>
      <path class="icon-dark" d="M55.29,46.08a1,1,0,0,1-1-.76,1,1,0,0,1,.73-1.21L59.63,43V38.4a1,1,0,0,1,2,0v5.34a1,1,0,0,1-.76,1l-5.34,1.34A1,1,0,0,1,55.29,46.08Z"/>
      <path class="icon-dark" d="M32.68,66.85h-4A1.86,1.86,0,0,1,26.84,65V61h1v4a.86.86,0,0,0,.83.84h4a.86.86,0,0,0,.84-.84V61h1v4A1.86,1.86,0,0,1,32.68,66.85Z"/>
      <path class="icon-dark" d="M51.78,45.52H33.52V37.9H51.78Zm-17.26-1H50.78V38.9H34.52Z"/>
      <g>
        <rect class="icon-accent" x="34.02" y="38.4" width="17.26" height="6.63"/>
        <path class="icon-dark" d="M51.28,46H34a1,1,0,0,1-1-1V38.4a1,1,0,0,1,1-1H51.28a1,1,0,0,1,1,1V45A1,1,0,0,1,51.28,46ZM35,44H50.28V39.4H35Z"/>
      </g>
      <path class="icon-dark" d="M55.29,35.44a1,1,0,0,1-.69-.27L53,33.63l-.07-.08c-.65-.75-1.42-.78-3-.78H35.35c-1.53,0-2.29,0-2.94.78l-.07.08-1.65,1.54a1,1,0,0,1-1.36-1.46l1.6-1.51c1.27-1.43,2.87-1.43,4.42-1.43H49.94c1.55,0,3.16,0,4.42,1.43L56,33.71A1,1,0,0,1,56,35.12,1,1,0,0,1,55.29,35.44Z"/>
    </g>
    <g>
      <path class="icon-dark" d="M58.12,60.52c-8.19,0-11.1-2.94-11.21-3.06a1,1,0,0,1-.28-.69V51.65a1,1,0,0,1,1.88-.48h0s1.61,2.28,9.61,2.28,9.56-2.28,9.57-2.3a1,1,0,0,1,1.14-.44,1,1,0,0,1,.73.94v5.12a1,1,0,1,1-2,0v-3c-1.59.85-4.43,1.72-9.44,1.72s-7.9-.88-9.49-1.73V56.3c.82.6,3.59,2.22,9.49,2.22a1,1,0,0,1,0,2Z"/>
      <path class="icon-dark" d="M55.43,65.56h-.08c-6.21-.51-8.27-2.75-8.49-3a1,1,0,0,1-.23-.65V56.79a1,1,0,0,1,1.88-.47h0s1.61,2.27,9.61,2.27a1,1,0,1,1,0,2c-5,0-7.9-.87-9.49-1.73v2.61c.63.5,2.6,1.75,6.88,2.09a1,1,0,0,1,.92,1.08A1,1,0,0,1,55.43,65.56Z"/>
      <path class="icon-dark" d="M56.31,70.72h-.05c-7-.31-9.19-2.83-9.42-3.11a1,1,0,0,1-.21-.62V61.87a1,1,0,0,1,.83-1,1,1,0,0,1,1.12.67h0s1,1.81,7.23,2.12a1,1,0,0,1-.1,2,16.7,16.7,0,0,1-7.07-1.56v2.47c.63.52,2.77,1.93,7.72,2.15a1,1,0,0,1,0,2Z"/>
      <path class="icon-dark" d="M58.12,75.85c-8.19,0-11.1-2.93-11.21-3.06a1,1,0,0,1-.28-.69V67a1,1,0,0,1,1.88-.47h0s1.41,2,8.11,2.24a1,1,0,0,1,1,1,1,1,0,0,1-1,1c-4.07-.16-6.5-.94-7.92-1.7v2.58c.82.61,3.59,2.22,9.49,2.22a29.58,29.58,0,0,0,3.07-.17,1,1,0,1,1,.21,2C60.62,75.75,59.41,75.85,58.12,75.85Z"/>
      <path class="icon-dark" d="M58.1,55.56c-5.49,0-11.39-1.32-11.39-4.23s5.9-4.23,11.39-4.23,11.39,1.33,11.39,4.23S63.58,55.56,58.1,55.56Zm0-6.46c-6.46,0-9.39,1.71-9.39,2.23s2.93,2.23,9.39,2.23,9.39-1.71,9.39-2.23S64.56,49.1,58.1,49.1Z"/>
      <path class="icon-dark" d="M65.17,76.31A10.32,10.32,0,1,1,75.49,66,10.32,10.32,0,0,1,65.17,76.31Zm0-18.64A8.32,8.32,0,1,0,73.49,66,8.33,8.33,0,0,0,65.17,57.67Z"/>
      <g>
        <path class="icon-dark" d="M65.16,70.7a3.41,3.41,0,0,1-3.39-2.81,1,1,0,1,1,1.92-.54c.34,1.2,1,1.35,1.47,1.35.7,0,1-.32,1-1s-.17-.73-1.34-1-2.78-.7-2.78-2.86c0-1.3.87-2.82,3.31-2.82a3,3,0,0,1,2.88,2.75,1,1,0,0,1-2,.15c0-.18-.21-.9-.88-.9-1.31,0-1.31.62-1.31.82,0,.51.1.63,1.27.93s2.85.72,2.85,3A2.86,2.86,0,0,1,65.16,70.7Z"/>
        <path class="icon-dark" d="M65.24,63a1,1,0,0,1-1-1V60.54a1,1,0,0,1,2,0V62A1,1,0,0,1,65.24,63Z"/>
        <path class="icon-dark" d="M65.24,72.36a1,1,0,0,1-1-1V70a1,1,0,0,1,2,0v1.41A1,1,0,0,1,65.24,72.36Z"/>
      </g>
    </g>
  </g>
</svg>
