<svg class="triumph-svg-icon" xmlns="http://www.w3.org/2000/svg" width="1.38in" height="1.38in" viewBox="0 0 99.15 99.16">
  <defs>
    <style>
      .icon-dark {
        fill: #000000;
      }

      .icon-accent {
        fill: #c8c9c7;
      }
    </style>
  </defs>
  <g>
    <g>
      <path class="icon-dark" d="M35,56.68a1,1,0,0,1-1-1V55c0-2.58,0-3.76-3.15-6.73-4.06-3.8-4.22-5.66-4.22-9.87V22.85a3.66,3.66,0,0,1,7.32,0v14a1,1,0,0,1-2,0v-14a1.66,1.66,0,0,0-3.32,0V38.43c0,3.78,0,5,3.58,8.41S36,52,36,55.05v.63A1,1,0,0,1,35,56.68Z"/>
      <path class="icon-dark" d="M48.94,72.65H28.39a1,1,0,0,1-1-1V61c0-.12.32-5.26-3-7.9S21.18,47.57,21.3,45c0-.48.05-1,.05-1.44v-8.2a3.66,3.66,0,0,1,7.31,0,1,1,0,0,1-2,0,1.66,1.66,0,0,0-3.31,0v8.2c0,.51,0,1-.05,1.53-.11,2.4-.21,4.47,2.33,6.49,4.17,3.3,3.77,9.28,3.75,9.53v9.54H47.94v-42a1.66,1.66,0,0,0-3.31,0V40.33a1,1,0,0,1-2,0V28.67a3.66,3.66,0,0,1,7.31,0v43A1,1,0,0,1,48.94,72.65Z"/>
      <path class="icon-dark" d="M38.3,38.92a1,1,0,0,1-1-1V20.11a1.66,1.66,0,0,0-3.31,0V31.77a1,1,0,1,1-2,0V20.11a3.66,3.66,0,0,1,7.31,0V37.92A1,1,0,0,1,38.3,38.92Z"/>
      <path class="icon-dark" d="M43.61,41.6a1,1,0,0,1-1-1V22.79a1.66,1.66,0,0,0-3.32,0V34.45a1,1,0,0,1-2,0V22.79a3.66,3.66,0,0,1,7.32,0V40.6A1,1,0,0,1,43.61,41.6Z"/>
      <path class="icon-dark" d="M62.78,56.68a1,1,0,0,1-1-1v-.63c0-3,.13-4.8,3.78-8.21s3.58-4.63,3.58-8.41V22.85a1.66,1.66,0,0,0-3.31,0v14a1,1,0,0,1-2,0v-14a3.66,3.66,0,0,1,7.31,0V38.43c0,4.21-.16,6.07-4.21,9.87-3.18,3-3.17,4.15-3.15,6.74v.64A1,1,0,0,1,62.78,56.68Z"/>
      <path class="icon-dark" d="M69.38,72.65H48.82a1,1,0,0,1-1-1v-43a3.66,3.66,0,0,1,7.32,0V40.33a1,1,0,0,1-2,0V28.67a1.66,1.66,0,0,0-3.32,0v42H68.38V61c0-.18-.41-6.16,3.76-9.46,2.54-2,2.44-4.09,2.33-6.49,0-.51,0-1,0-1.53v-8.2a1.66,1.66,0,0,0-3.31,0,1,1,0,0,1-2,0,3.66,3.66,0,0,1,7.31,0v8.2c0,.48,0,1,0,1.44.12,2.57.26,5.49-3.09,8.14s-3,7.78-3,7.83V71.65A1,1,0,0,1,69.38,72.65Z"/>
      <path class="icon-dark" d="M59.46,38.92a1,1,0,0,1-1-1V20.11a3.66,3.66,0,0,1,7.32,0V31.77a1,1,0,0,1-2,0V20.11a1.66,1.66,0,0,0-3.32,0V37.92A1,1,0,0,1,59.46,38.92Z"/>
      <path class="icon-dark" d="M54.16,41.6a1,1,0,0,1-1-1V22.79a3.66,3.66,0,0,1,7.31,0V34.45a1,1,0,0,1-2,0V22.79a1.66,1.66,0,0,0-3.31,0V40.6A1,1,0,0,1,54.16,41.6Z"/>
    </g>
    <path class="icon-dark" d="M48.88,65.72a.69.69,0,0,1-.46-.17l-1.67-1.28c-1-.79-2.06-1.58-3.08-2.39a51.78,51.78,0,0,1-6.43-6,25.8,25.8,0,0,1-3.92-5.71,10.13,10.13,0,0,1-1-5.41,9.08,9.08,0,0,1,2.91-5.92A8.73,8.73,0,0,1,39,36.72a8.17,8.17,0,0,1,6,.65,10.53,10.53,0,0,1,3.55,3c.14.17.27.34.4.52.14-.19.28-.38.43-.56a9.94,9.94,0,0,1,5.15-3.61,8.07,8.07,0,0,1,3.85-.12,9.1,9.1,0,0,1,7,6.89A9.74,9.74,0,0,1,65,49a17,17,0,0,1-1.79,3.45,34,34,0,0,1-5.13,6,66.64,66.64,0,0,1-5.4,4.62l-1.88,1.43-1.4,1.07A.76.76,0,0,1,48.88,65.72ZM41.15,37.43a7.59,7.59,0,0,0-1.93.26,7.83,7.83,0,0,0-3.35,1.86,8,8,0,0,0-2.6,5.28,9.08,9.08,0,0,0,.94,4.87A24.68,24.68,0,0,0,38,55.19,50.61,50.61,0,0,0,44.3,61.1c1,.81,2,1.59,3.06,2.38.51.39,1,.77,1.52,1.17l1.26-1L52,62.26a68.5,68.5,0,0,0,5.32-4.55,33.57,33.57,0,0,0,5-5.83A15.75,15.75,0,0,0,64,48.64a8.72,8.72,0,0,0,.31-4.92,8.08,8.08,0,0,0-6.21-6.13,7,7,0,0,0-3.37.1A9.07,9.07,0,0,0,50.09,41c-.19.24-.37.49-.55.74l-.66.88-.63-.85L47.7,41a9.77,9.77,0,0,0-3.22-2.74A7.26,7.26,0,0,0,41.15,37.43Z"/>
    <g>
      <path class="icon-accent" d="M48.88,41.75c.28-.38.54-.75.82-1.1a9.52,9.52,0,0,1,4.89-3.44,7.6,7.6,0,0,1,3.61-.11A8.43,8.43,0,0,1,63,40a8.54,8.54,0,0,1,1.82,3.66,9.18,9.18,0,0,1-.33,5.19,16.1,16.1,0,0,1-1.73,3.35,33.58,33.58,0,0,1-5.05,5.92,66.89,66.89,0,0,1-5.37,4.58c-1.08.85-2.19,1.67-3.28,2.5a.22.22,0,0,1-.32,0c-1.57-1.23-3.18-2.42-4.74-3.67a50.57,50.57,0,0,1-6.36-6,25.32,25.32,0,0,1-3.86-5.59,9.55,9.55,0,0,1-1-5.14,8.56,8.56,0,0,1,2.75-5.6,8.17,8.17,0,0,1,3.58-2,7.65,7.65,0,0,1,5.61.6,10.31,10.31,0,0,1,3.38,2.88C48.36,41,48.61,41.38,48.88,41.75Z"/>
      <path class="icon-dark" d="M48.88,66.23a1.23,1.23,0,0,1-.77-.29l-1.66-1.27c-1-.79-2.07-1.58-3.09-2.4a52.05,52.05,0,0,1-6.49-6.08,26,26,0,0,1-4-5.82,10.49,10.49,0,0,1-1.09-5.67,9.42,9.42,0,0,1,3.06-6.24,9.22,9.22,0,0,1,4-2.22,8.67,8.67,0,0,1,6.32.68,11.19,11.19,0,0,1,3.72,3.15h0l0,0a10.43,10.43,0,0,1,5.4-3.78,8.44,8.44,0,0,1,4.09-.13,9.62,9.62,0,0,1,7.37,7.27,10.28,10.28,0,0,1-.36,5.75,17.68,17.68,0,0,1-1.84,3.55,34.19,34.19,0,0,1-5.2,6.1,69.42,69.42,0,0,1-5.44,4.65q-.94.73-1.89,1.44L49.65,66A1.3,1.3,0,0,1,48.88,66.23Zm.45-1.87h0ZM41.16,37.93a7.25,7.25,0,0,0-4.95,2,7.54,7.54,0,0,0-2.44,5,8.6,8.6,0,0,0,.89,4.6,24.23,24.23,0,0,0,3.7,5.38,50.34,50.34,0,0,0,6.25,5.85c1,.8,2,1.59,3,2.37.41.31.82.62,1.22.94l1-.73c.63-.47,1.25-.95,1.87-1.43A65.67,65.67,0,0,0,57,57.35a32.19,32.19,0,0,0,4.91-5.74,15.07,15.07,0,0,0,1.63-3.14,8.19,8.19,0,0,0,.3-4.64,7.63,7.63,0,0,0-1.61-3.23A7.36,7.36,0,0,0,58,38.08a6.66,6.66,0,0,0-3.14.09,8.53,8.53,0,0,0-4.38,3.11l-.54.71-.26.35a1,1,0,0,1-.8.41h0a1,1,0,0,1-.8-.41L47.85,42l-.54-.71a9.29,9.29,0,0,0-3.06-2.61A6.76,6.76,0,0,0,41.16,37.93Z"/>
    </g>
  </g>
</svg>
