<svg class="triumph-svg-icon" xmlns="http://www.w3.org/2000/svg" width="1.38in" height="1.38in" viewBox="0 0 99.25 99.25">
  <defs>
    <style>
      .icon-accent {
        fill: #c8c9c7;
      }

      .icon-dark {
        fill: #000000;
      }
    </style>
  </defs>
  <g>
    <path class="icon-accent" d="M62.3,30.82H58.05v3a1.89,1.89,0,1,1-3.77,0v-3H33.4v3a1.89,1.89,0,1,1-3.77,0v-3H24.69a3.92,3.92,0,0,0-3.91,3.91V39.2l45.42-.09V34.73A3.92,3.92,0,0,0,62.3,30.82Z"/>
    <path class="icon-dark" d="M66.47,55.21a1,1,0,0,1-1-1V34.73a2.91,2.91,0,0,0-2.9-2.91H58.05a1,1,0,0,1,0-2h4.52a4.91,4.91,0,0,1,4.9,4.91V54.21A1,1,0,0,1,66.47,55.21Z"/>
    <path class="icon-dark" d="M54.25,31.82H33.4a1,1,0,0,1,0-2H54.25a1,1,0,0,1,0,2Z"/>
    <path class="icon-dark" d="M39.07,67.46H25a4.91,4.91,0,0,1-4.91-4.91V34.73A4.91,4.91,0,0,1,25,29.82h4.59a1,1,0,1,1,0,2H25a2.92,2.92,0,0,0-2.91,2.91V62.55A2.92,2.92,0,0,0,25,65.46H39.07a1,1,0,1,1,0,2Z"/>
    <path class="icon-dark" d="M66,40.44h-45a1,1,0,1,1,0-2H66a1,1,0,0,1,0,2Z"/>
    <g>
      <rect class="icon-accent" x="27.39" y="44.22" width="8.15" height="6.67"/>
      <path class="icon-dark" d="M35.54,51.89H27.39a1,1,0,0,1-1-1V44.22a1,1,0,0,1,1-1h8.15a1,1,0,0,1,1,1v6.67A1,1,0,0,1,35.54,51.89Zm-7.15-2h6.15V45.22H28.39Z"/>
    </g>
    <g>
      <rect class="icon-accent" x="27.39" y="55.35" width="8.15" height="6.67"/>
      <path class="icon-dark" d="M35.54,63H27.39a1,1,0,0,1-1-1V55.35a1,1,0,0,1,1-1h8.15a1,1,0,0,1,1,1V62A1,1,0,0,1,35.54,63Zm-7.15-2h6.15V56.35H28.39Z"/>
    </g>
    <g>
      <rect class="icon-accent" x="39.85" y="44.22" width="8.15" height="6.67"/>
      <path class="icon-dark" d="M48,51.89H39.85a1,1,0,0,1-1-1V44.22a1,1,0,0,1,1-1H48a1,1,0,0,1,1,1v6.67A1,1,0,0,1,48,51.89Zm-7.15-2H47V45.22H40.85Z"/>
    </g>
    <g>
      <rect class="icon-accent" x="52.11" y="44.22" width="8.15" height="6.67"/>
      <path class="icon-dark" d="M60.25,51.89H52.11a1,1,0,0,1-1-1V44.22a1,1,0,0,1,1-1h8.14a1,1,0,0,1,1,1v6.67A1,1,0,0,1,60.25,51.89Zm-7.14-2h6.14V45.22H53.11Z"/>
    </g>
    <path class="icon-dark" d="M56.16,36.71a2.89,2.89,0,0,1-2.88-2.89V29.26a2.89,2.89,0,1,1,5.77,0v4.56A2.89,2.89,0,0,1,56.16,36.71Zm0-8.34a.88.88,0,0,0-.88.89v4.56a.89.89,0,1,0,1.77,0V29.26A.89.89,0,0,0,56.16,28.37ZM31.51,36.71a2.89,2.89,0,0,1-2.88-2.89V29.26a2.89,2.89,0,1,1,5.77,0v4.56A2.89,2.89,0,0,1,31.51,36.71Zm0-8.34a.88.88,0,0,0-.88.89v4.56a.89.89,0,1,0,1.77,0V29.26A.89.89,0,0,0,31.51,28.37Z"/>
    <path class="icon-dark" d="M79.93,72.48H39.29a1,1,0,0,1-1-1V54.27a1,1,0,0,1,1-1H79.93a1,1,0,0,1,1,1V71.48A1,1,0,0,1,79.93,72.48Zm-39.64-2H78.93V55.27H40.29Z"/>
    <path class="icon-dark" d="M61.87,69.27a.54.54,0,0,1,0-1.08A6.3,6.3,0,0,0,64,67.62c-.29-.25-.57-.53-.83-.79s-.45-.44-.67-.64a.66.66,0,0,1-.09-1C62.89,64.55,66,64,67,64.8c.2.15.79.75,0,1.78a7.36,7.36,0,0,1-1.07,1.09,2,2,0,0,0,.89.19,3.85,3.85,0,0,0,2.45-1.65.56.56,0,0,1,.44-.2.52.52,0,0,1,.42.25c.1.14.21.31.33.5s.42.66.65,1a9.7,9.7,0,0,1,5.52-.64.54.54,0,0,1,.43.63.54.54,0,0,1-.63.44,8.6,8.6,0,0,0-5.28.73.54.54,0,0,1-.66-.16c-.31-.42-.62-.9-.88-1.3a4.14,4.14,0,0,1-2.74,1.49,3.31,3.31,0,0,1-1.94-.58,7.3,7.3,0,0,1-3,.91Zm1.7-3.52c.1.11.21.2.31.31.35.34.7.69,1.05,1a5.51,5.51,0,0,0,1.18-1.13,1.1,1.1,0,0,0,.18-.29A5.28,5.28,0,0,0,63.57,65.75Z"/>
    <path class="icon-dark" d="M54.2,68.28H43a1,1,0,0,1,0-2H54.2a1,1,0,0,1,0,2Z"/>
    <path class="icon-dark" d="M48.61,63.92H43a1,1,0,1,1,0-2h5.59a1,1,0,0,1,0,2Z"/>
    <g>
      <rect class="icon-accent" x="39.28" y="54.31" width="40.6" height="3.66"/>
      <path class="icon-dark" d="M79.87,59H39.28a1,1,0,0,1-1-1V54.31a1,1,0,0,1,1-1H79.87a1,1,0,0,1,1,1V58A1,1,0,0,1,79.87,59ZM40.28,57H78.87V55.31H40.28Z"/>
    </g>
  </g>
</svg>
