<svg class="triumph-svg-icon" xmlns="http://www.w3.org/2000/svg" width="1.38in" height="1.38in" viewBox="0 0 99.25 99.25">
  <defs>
    <style>
      .cls-1 {
        fill: #000000;
      }

      .cls-2 {
        fill: #808080;
      }
    </style>
  </defs>
  <g>
    <path class="cls-1" d="M55.94,74.71a1,1,0,0,1-1-1V34.33a1,1,0,0,1,2,0V73.71A1,1,0,0,1,55.94,74.71Z"/>
    <path class="cls-2" d="M52.64,33.38l2.72,1.4V73.5s-2.86.77-3.35-1.82S52.64,33.38,52.64,33.38Z"/>
    <g>
      <path class="cls-1" d="M42.79,74.91c-5.78,0-10.17-3.76-11.47-6.79-4-.82-6.79-4.42-6.79-9v-.42c-2.58-1.61-4.22-5-4.22-8.83a11.14,11.14,0,0,1,2.6-7.15,11.8,11.8,0,0,1,2.38-9.23,8.51,8.51,0,0,1,6.92-2.75C35,25,40.19,23,48.31,24.48a1,1,0,0,1,.83,1v48.4a1,1,0,0,1-1,1C48.12,74.86,46.83,74.91,42.79,74.91Zm-11-42.12a6.34,6.34,0,0,0-5,2.08,9.87,9.87,0,0,0-1.83,8,1,1,0,0,1-.28.93,9,9,0,0,0-2.37,6.12c0,3.32,1.49,6.29,3.71,7.37a1,1,0,0,1,.55,1,5.84,5.84,0,0,0,0,.84c0,3.73,2.32,6.63,5.65,7.07a1,1,0,0,1,.83.7c.74,2.44,4.65,6,9.78,6l4.35,0V26.31c-7-1.08-11.12.77-13.4,5.93a1,1,0,0,1-1,.59C32.42,32.8,32.11,32.79,31.81,32.79Z"/>
      <path class="cls-1" d="M32.1,68.23a1,1,0,0,1-1-1c0-7.94,4.56-9,9-9a1,1,0,1,1,0,2c-4.55,0-7,1.12-7,7A1,1,0,0,1,32.1,68.23Z"/>
      <path class="cls-1" d="M43.92,55.42h0A6.77,6.77,0,0,1,39.09,53c-1.6-1.69-4.67-2.18-6.44-1a1,1,0,1,1-1.09-1.68c2.59-1.67,6.7-1.06,9,1.34a4.86,4.86,0,0,0,3.38,1.77h0a5.13,5.13,0,0,0,3.55-1.88,1,1,0,0,1,1.41,0,1,1,0,0,1,0,1.42A7,7,0,0,1,43.92,55.42Z"/>
      <path class="cls-1" d="M40.17,68.23a1,1,0,0,1-.37-.07,1,1,0,0,1-.56-1.29c1.33-3.34,5.32-4.73,9.3-3.24a1,1,0,0,1,.58,1.28,1,1,0,0,1-1.28.59c-2.94-1.1-5.83-.19-6.74,2.1A1,1,0,0,1,40.17,68.23Z"/>
      <path class="cls-1" d="M46.14,38.15a5.7,5.7,0,0,1-5.25-3.57,1,1,0,0,1,1.85-.77,3.74,3.74,0,0,0,5.1,2,1,1,0,1,1,.69,1.87A6.89,6.89,0,0,1,46.14,38.15Z"/>
      <path class="cls-1" d="M30.77,44.09a1,1,0,0,1-1-1c0-2.23,2.26-4.57,4.84-5a1,1,0,1,1,.33,2c-1.71.29-3.17,1.9-3.17,3A1,1,0,0,1,30.77,44.09Z"/>
      <path class="cls-1" d="M42.84,44.14c-7.16,0-10.91-6.17-10.91-12.26a1,1,0,0,1,2,0c0,3.55,1.86,10.26,8.91,10.26a1,1,0,0,1,0,2Z"/>
      <path class="cls-1" d="M28.1,56a1,1,0,0,1,0-2,2.84,2.84,0,0,0,3-2.8,3.34,3.34,0,0,0-2-3.07,1,1,0,1,1,.69-1.87,5.34,5.34,0,0,1,3.32,4.94A4.85,4.85,0,0,1,28.1,56Z"/>
    </g>
    <path class="cls-1" d="M74,75H54.91a3.74,3.74,0,0,1-3.74-3.74V28.77A3.75,3.75,0,0,1,54.91,25H76.4a1,1,0,0,1,0,2H54.91a1.74,1.74,0,0,0-1.74,1.74v2.76a1.8,1.8,0,0,0,2,1.57H76.69a1,1,0,0,1,1,1l0,37.15A3.74,3.74,0,0,1,74,75ZM53.17,34.65v36.6A1.74,1.74,0,0,0,54.91,73H74a1.74,1.74,0,0,0,1.74-1.74l0-36.15H55.14A4.39,4.39,0,0,1,53.17,34.65Z"/>
    <path class="cls-1" d="M76.62,29.73H55a1,1,0,0,1,0-2H76.62a1,1,0,0,1,0,2Z"/>
    <path class="cls-1" d="M76.62,32.27H55a1,1,0,1,1,0-2H76.62a1,1,0,1,1,0,2Z"/>
    <g>
      <rect class="cls-2" x="59.72" y="41.94" width="13.15" height="7.19" rx="3.4"/>
      <path class="cls-1" d="M69.47,50.13H63.11a4.4,4.4,0,0,1-4.39-4.4v-.39a4.4,4.4,0,0,1,4.39-4.4h6.36a4.4,4.4,0,0,1,4.4,4.4v.39A4.4,4.4,0,0,1,69.47,50.13Zm-6.36-7.19a2.4,2.4,0,0,0-2.39,2.4v.39a2.4,2.4,0,0,0,2.39,2.4h6.36a2.41,2.41,0,0,0,2.4-2.4v-.39a2.41,2.41,0,0,0-2.4-2.4Z"/>
    </g>
    <path class="cls-1" d="M69.52,46.5H63.13a1,1,0,1,1,0-2h6.39a1,1,0,0,1,0,2Z"/>
  </g>
</svg>
