<svg class="triumph-svg-icon" xmlns="http://www.w3.org/2000/svg" width="1.38in" height="1.38in" viewBox="0 0 99.25 99.25">
  <defs>
    <style>
      .icon-accent {
        fill: #c8c9c7;
      }

      .b {
        fill: #0a263c;
      }
    </style>
  </defs>
  <g>
    <g>
      <path class="icon-accent" d="M49.78,48.11a1.54,1.54,0,0,1-1.23-1,14,14,0,0,0-.69-1.66A1.61,1.61,0,0,1,48,43.79l3.54-4.87a19.69,19.69,0,0,0-2.85-2.85l-4.9,3.56a1.56,1.56,0,0,1-1.64.1,12.09,12.09,0,0,0-1.62-.67,1.54,1.54,0,0,1-1-1.24l-.94-5.95a19.48,19.48,0,0,0-4,0l-.94,5.95a1.6,1.6,0,0,1-1.06,1.25,12.55,12.55,0,0,0-1.61.67,1.55,1.55,0,0,1-1.61-.11l-4.91-3.56a19.69,19.69,0,0,0-2.85,2.85l2.32,3.19a5.46,5.46,0,0,1,.67,5v0a1.53,1.53,0,0,1-1.23,1l-6,.94a19.68,19.68,0,0,0-.11,2,19.19,19.19,0,0,0,.11,2l5.94.94a1.56,1.56,0,0,1,1.24,1v0A5.43,5.43,0,0,1,23.86,60l-2.33,3.21a19.69,19.69,0,0,0,2.85,2.85l4.88-3.55a1.56,1.56,0,0,1,1.6-.15,11.68,11.68,0,0,0,1.65.7,1.6,1.6,0,0,1,1.06,1.25l.94,6a21,21,0,0,0,4,0l.61-3.9a5.49,5.49,0,0,1,3-4l0,0a1.59,1.59,0,0,1,1.61.15l4.87,3.55a20.2,20.2,0,0,0,2.85-2.85L48,58.34a1.61,1.61,0,0,1-.11-1.68A12.66,12.66,0,0,0,48.55,55a1.54,1.54,0,0,1,1.23-1l5.95-1a19.49,19.49,0,0,0,.11-2,19.84,19.84,0,0,0-.11-2ZM36.47,58.92a8.06,8.06,0,1,1,8.06-8.06A8.06,8.06,0,0,1,36.47,58.92Z"/>
      <path class="icon-dark" d="M36.53,71.37c-.7,0-1.41,0-2.11-.11a1,1,0,0,1-.89-.84l-1-6a.58.58,0,0,0-.39-.45,12.82,12.82,0,0,1-1.79-.76.58.58,0,0,0-.56.07L25,66.88a1,1,0,0,1-1.22,0,20.55,20.55,0,0,1-3-3,1,1,0,0,1,0-1.22l2.33-3.21a4.44,4.44,0,0,0,.53-4,.58.58,0,0,0-.47-.38l-5.93-.94a1,1,0,0,1-.84-.87,18.66,18.66,0,0,1-.12-2.14,18.44,18.44,0,0,1,.12-2.12,1,1,0,0,1,.84-.87l5.95-1a.54.54,0,0,0,.43-.33A4.44,4.44,0,0,0,23,42.7l-2.32-3.19a1,1,0,0,1,0-1.22,20.06,20.06,0,0,1,3-3,1,1,0,0,1,1.22,0l4.91,3.56a.59.59,0,0,0,.59,0,13.12,13.12,0,0,1,1.74-.72.61.61,0,0,0,.39-.47l.94-5.94a1,1,0,0,1,.88-.83,20,20,0,0,1,4.24,0,1,1,0,0,1,.88.83l.95,6a.55.55,0,0,0,.34.44,12.09,12.09,0,0,1,1.77.73.58.58,0,0,0,.61,0l4.89-3.56a1,1,0,0,1,1.22,0,20.68,20.68,0,0,1,3,3,1,1,0,0,1,0,1.22L48.8,44.38a.58.58,0,0,0,0,.62,14.63,14.63,0,0,1,.74,1.79.54.54,0,0,0,.44.33l6,1a1,1,0,0,1,.83.87,18.57,18.57,0,0,1,.12,2.12,18.36,18.36,0,0,1-.12,2.13,1,1,0,0,1-.83.88l-6,.94a.56.56,0,0,0-.44.35,13.22,13.22,0,0,1-.73,1.74.63.63,0,0,0,0,.65l3.54,4.88a1,1,0,0,1,0,1.22,20.12,20.12,0,0,1-3,3,1,1,0,0,1-1.22,0l-4.87-3.54a.59.59,0,0,0-.57-.07,4.48,4.48,0,0,0-2.5,3.26l-.62,3.9a1,1,0,0,1-.88.84C38,71.33,37.24,71.37,36.53,71.37Zm-1.15-2a17.65,17.65,0,0,0,2.3,0l.5-3.12a6.38,6.38,0,0,1,3.53-4.71,2.54,2.54,0,0,1,2.68.21l4.24,3.09a19.29,19.29,0,0,0,1.63-1.63l-3.08-4.25a2.59,2.59,0,0,1-.2-2.7,12.82,12.82,0,0,0,.62-1.49,2.53,2.53,0,0,1,2-1.69l5.17-.82c0-.38,0-.77,0-1.16s0-.76,0-1.14l-5.17-.82h0a2.54,2.54,0,0,1-2-1.69A12.13,12.13,0,0,0,47,45.88a2.59,2.59,0,0,1,.22-2.67L50.26,39a19.18,19.18,0,0,0-1.63-1.62l-4.26,3.1a2.58,2.58,0,0,1-2.68.19A9.21,9.21,0,0,0,40.22,40a2.54,2.54,0,0,1-1.72-2l-.82-5.18a17.65,17.65,0,0,0-2.3,0L34.56,38a2.62,2.62,0,0,1-1.72,2,11.5,11.5,0,0,0-1.5.63,2.56,2.56,0,0,1-2.64-.2l-4.28-3.1A19.18,19.18,0,0,0,22.8,39l1.86,2.56a6.48,6.48,0,0,1,.81,5.86,2.54,2.54,0,0,1-2,1.71l-5.18.82c0,.37,0,.76,0,1.14s0,.78,0,1.16l5.16.82a2.52,2.52,0,0,1,2,1.69,6.39,6.39,0,0,1-.79,5.86L22.8,63.17a19.17,19.17,0,0,0,1.62,1.63l4.25-3.09a2.53,2.53,0,0,1,2.64-.23,11.47,11.47,0,0,0,1.53.64,2.63,2.63,0,0,1,1.72,2Zm1.09-9.41a9.06,9.06,0,1,1,9.06-9.06A9.08,9.08,0,0,1,36.47,59.92Zm0-16.12a7.06,7.06,0,1,0,7.06,7.06A7.07,7.07,0,0,0,36.47,43.8Z"/>
    </g>
    <path class="icon-dark" d="M68.57,70.53H61.84a1,1,0,0,1-1-1V32.64a1,1,0,0,1,1-1h6.73a1,1,0,0,1,0,2H62.84V68.53h5.73a1,1,0,0,1,0,2Z"/>
    <path class="icon-dark" d="M68.84,52.09h-6.4a1,1,0,0,1,0-2h6.4a1,1,0,0,1,0,2Z"/>
    <g>
      <circle class="icon-accent" cx="77.54" cy="32.27" r="4.28"/>
      <path class="icon-dark" d="M77.54,37.55a5.28,5.28,0,1,1,5.28-5.28A5.29,5.29,0,0,1,77.54,37.55Zm0-8.56a3.28,3.28,0,1,0,3.28,3.28A3.28,3.28,0,0,0,77.54,29Z"/>
    </g>
    <g>
      <circle class="icon-accent" cx="77.54" cy="51.24" r="4.28"/>
      <path class="icon-dark" d="M77.54,56.52a5.28,5.28,0,1,1,5.28-5.28A5.29,5.29,0,0,1,77.54,56.52Zm0-8.56a3.28,3.28,0,1,0,3.28,3.28A3.28,3.28,0,0,0,77.54,48Z"/>
    </g>
    <g>
      <circle class="icon-accent" cx="77.54" cy="69.63" r="4.28"/>
      <path class="icon-dark" d="M77.54,74.91a5.28,5.28,0,1,1,5.28-5.28A5.29,5.29,0,0,1,77.54,74.91Zm0-8.56a3.28,3.28,0,1,0,3.28,3.28A3.28,3.28,0,0,0,77.54,66.35Z"/>
    </g>
  </g>
</svg>
