<svg class="triumph-svg-icon" xmlns="http://www.w3.org/2000/svg" width="1.38in" height="1.38in" viewBox="0 0 99.25 99.25">
  <defs>
    <style>
      .secondary {
        fill: #000000;
      }
    </style>
  </defs>
  <g>
    <path class="secondary" d="M49.22,71.44a22,22,0,1,1,22-22A22,22,0,0,1,49.22,71.44Zm0-42a20,20,0,1,0,20,20A20,20,0,0,0,49.22,29.44Z"/>
    <path class="secondary" d="M46.43,48l.15-.16C50.51,47.71,52,46.68,52,45V45c0-1.4-1.06-2.21-2.87-2.21a6.41,6.41,0,0,0-4.68,2.15l-2.87-3.15a9.84,9.84,0,0,1,7.64-3.37c4.5,0,7.55,2.31,7.55,6.46v.06c0,4-2.74,5.59-6.14,6.27l-.35,1.9H47.14Z"/>
    <circle class="secondary" cx="48.7" cy="58.41" r="3"/>
  </g>
</svg>
