<svg class="triumph-svg-icon" xmlns="http://www.w3.org/2000/svg" width="1.38in" height="1.38in" viewBox="0 0 99.25 99.25">
  <defs>
    <style>
      .cls-1 {
        fill: #808080;
      }

      .cls-2 {
        fill: #000000;
      }
    </style>
  </defs>
  <g>
    <g>
      <path class="cls-1" d="M69,40.27a14.6,14.6,0,1,0,0,21.07Z"/>
      <path class="cls-2" d="M58.92,66.4a15.6,15.6,0,1,1,4.57-30.52,15.35,15.35,0,0,1,6.24,3.67,1,1,0,0,1,.31.72V61.34a1,1,0,0,1-.31.73A15.66,15.66,0,0,1,58.92,66.4Zm0-29.2a13.61,13.61,0,0,0-12,20A13.61,13.61,0,0,0,68,60.91V40.7a13.39,13.39,0,0,0-5.13-2.91A13.63,13.63,0,0,0,59,37.2Z"/>
    </g>
    <path class="cls-2" d="M69,66.84a1,1,0,0,1-1-1V35.15a1,1,0,1,1,2,0V65.84A1,1,0,0,1,69,66.84Z"/>
    <path class="cls-2" d="M59.05,57.06c-2.27,0-3.9-1.36-4.58-3.82a1,1,0,1,1,1.92-.54c.59,2.12,1.8,2.36,2.66,2.36a1.8,1.8,0,0,0,2-1.94c0-1.29-.61-1.56-2.35-2-1.5-.38-3.77-1-3.77-3.79,0-1.71,1.16-3.71,4.43-3.71a3.89,3.89,0,0,1,3.8,3.64,1,1,0,0,1-2,.15,1.93,1.93,0,0,0-1.8-1.79c-1.11,0-2.43.3-2.43,1.71,0,1.18.55,1.41,2.26,1.85,1.54.39,3.86,1,3.86,3.94A3.77,3.77,0,0,1,59.05,57.06Z"/>
    <path class="cls-2" d="M59.17,45.52a1,1,0,0,1-1-1V42.43a1,1,0,1,1,2,0v2.09A1,1,0,0,1,59.17,45.52Z"/>
    <path class="cls-2" d="M59.17,59.54a1,1,0,0,1-1-1v-2.1a1,1,0,0,1,2,0v2.1A1,1,0,0,1,59.17,59.54Z"/>
    <path class="cls-2" d="M42,43.58H31.8a1,1,0,1,1,0-2H42a1,1,0,0,1,0,2Z"/>
    <path class="cls-2" d="M40.19,51.45H28.57a1,1,0,0,1,0-2H40.19a1,1,0,0,1,0,2Z"/>
    <path class="cls-2" d="M41.68,59.33H32.19a1,1,0,1,1,0-2h9.49a1,1,0,0,1,0,2Z"/>
  </g>
</svg>
