<svg class="triumph-svg-icon" xmlns="http://www.w3.org/2000/svg" width="1.38in" height="1.38in" viewBox="0 0 99.25 99.25">
  <defs>
    <style>
      .secondary {
        fill: #000000;
      }

      .primary {
        fill: #c8c9c7;
      }
    </style>
  </defs>
  <g>
    <g>
      <path class="secondary" d="M64.4,79.19H24.77a1,1,0,0,1-1-1V31.13a1,1,0,0,1,.3-.71L31.5,23a1,1,0,0,1,.7-.29H64.4a1,1,0,0,1,1,1V41a1,1,0,1,1-2,0V24.7H32.62l-6.85,6.84V77.19H63.4V63.33a1,1,0,0,1,2,0V78.19A1,1,0,0,1,64.4,79.19Z"/>
      <path class="secondary" d="M34.68,34.61H27.25a1,1,0,0,1,0-2h6.43V26.18a1,1,0,0,1,2,0v7.43A1,1,0,0,1,34.68,34.61Z"/>
    </g>
    <g>
      <polygon class="primary" points="55.73 65.81 45.83 55.9 50.78 50.95 55.73 55.9 69.36 42.28 74.31 47.23 55.73 65.81"/>
      <path class="secondary" d="M55.74,66.81a1,1,0,0,1-.71-.29l-9.91-9.91a1,1,0,0,1-.29-.71,1,1,0,0,1,.29-.71l5-4.95a1,1,0,0,1,1.42,0l4.25,4.25L68.65,41.57a1,1,0,0,1,1.42,0l5,5a1,1,0,0,1,0,1.42L56.44,66.52A1,1,0,0,1,55.74,66.81ZM47.24,55.9l8.5,8.49L72.9,47.23l-3.54-3.54L56.44,56.61a1,1,0,0,1-1.41,0l-4.25-4.25Z"/>
    </g>
  </g>
</svg>
