<svg class="triumph-svg-icon" xmlns="http://www.w3.org/2000/svg" width="1.38in" height="1.38in" viewBox="0 0 99.25 99.25">
  <defs>
    <style>
      .cls-1 {
        fill: #808080;
      }

      .cls-2 {
        fill: #000000;
      }
    </style>
  </defs>
  <g id="Titles">
    <g>
      <g>
        <g>
          <path class="cls-1" d="M49.36,35A13.32,13.32,0,1,0,62.68,48.28,13.3,13.3,0,0,0,49.36,35Z"/>
          <path class="cls-2" d="M49.36,62.6A14.32,14.32,0,1,1,63.68,48.28,14.34,14.34,0,0,1,49.36,62.6Zm0-26.64A12.32,12.32,0,1,0,61.68,48.28,12.33,12.33,0,0,0,49.36,36Z"/>
        </g>
        <path class="cls-2" d="M39.82,39.74a1,1,0,0,1-.71-.3l-6.7-6.7a1,1,0,1,1,1.41-1.42L40.53,38a1,1,0,0,1-.71,1.71Z"/>
        <path class="cls-2" d="M59.08,39.56a1,1,0,0,1-.71-1.71L64,32.26a1,1,0,0,1,1.42,0,1,1,0,0,1,0,1.41l-5.63,5.6A1,1,0,0,1,59.08,39.56Z"/>
        <path class="cls-2" d="M46.85,69.27h-.11a1,1,0,0,1-.89-1.1l.73-6.51a1,1,0,0,1,1.11-.88,1,1,0,0,1,.88,1.1l-.73,6.51A1,1,0,0,1,46.85,69.27Z"/>
        <path class="cls-2" d="M68.06,56.43l-.23,0L62,55.08a1,1,0,0,1-.75-1.2,1,1,0,0,1,1.2-.75l5.83,1.33a1,1,0,0,1-.22,2Z"/>
      </g>
      <g>
        <path class="cls-2" d="M49.53,55.09c-2.26,0-3.87-1.36-4.56-3.81a1,1,0,0,1,.7-1.23,1,1,0,0,1,1.23.7c.58,2.09,1.78,2.34,2.63,2.34a1.78,1.78,0,0,0,2-1.93c0-1.27-.6-1.54-2.33-2-1.49-.38-3.74-1-3.74-3.76,0-1.71,1.15-3.7,4.4-3.7a3.87,3.87,0,0,1,3.78,3.62,1,1,0,0,1-.92,1.07,1,1,0,0,1-1.08-.92,1.91,1.91,0,0,0-1.78-1.77c-1.1,0-2.4.3-2.4,1.7,0,1.16.54,1.39,2.23,1.82,1.53.39,3.84,1,3.84,3.92A3.76,3.76,0,0,1,49.53,55.09Z"/>
        <path class="cls-2" d="M49.65,43.63a1,1,0,0,1-1-1V40.54a1,1,0,0,1,2,0v2.09A1,1,0,0,1,49.65,43.63Z"/>
        <path class="cls-2" d="M49.65,57.54a1,1,0,0,1-1-1V54.46a1,1,0,0,1,2,0v2.08A1,1,0,0,1,49.65,57.54Z"/>
      </g>
      <path class="cls-2" d="M30,33.93A4.92,4.92,0,1,1,34.87,29,4.91,4.91,0,0,1,30,33.93Zm0-7.83A2.92,2.92,0,1,0,32.87,29,2.91,2.91,0,0,0,30,26.1Z"/>
      <path class="cls-2" d="M68.11,35.08A6.06,6.06,0,1,1,74.17,29,6.07,6.07,0,0,1,68.11,35.08Zm0-10.12A4.06,4.06,0,1,0,72.17,29,4.06,4.06,0,0,0,68.11,25Z"/>
      <path class="cls-2" d="M71.61,61.41a4.59,4.59,0,1,1,4.59-4.59A4.6,4.6,0,0,1,71.61,61.41Zm0-7.18a2.59,2.59,0,1,0,2.59,2.59A2.59,2.59,0,0,0,71.61,54.23Z"/>
      <path class="cls-2" d="M46.13,79A5.88,5.88,0,1,1,52,73.07,5.88,5.88,0,0,1,46.13,79Zm0-9.75A3.88,3.88,0,1,0,50,73.07,3.88,3.88,0,0,0,46.13,69.2Z"/>
      <g>
        <line class="cls-1" x1="35.47" y1="50.88" x2="32.06" y2="51.8"/>
        <path class="cls-2" d="M32.06,52.8a1,1,0,0,1-.26-2l3.41-.93a1,1,0,1,1,.52,1.93l-3.41.93Z"/>
      </g>
      <path class="cls-2" d="M28.1,57.69A4.92,4.92,0,1,1,33,52.77,4.93,4.93,0,0,1,28.1,57.69Zm0-7.83A2.92,2.92,0,1,0,31,52.77,2.91,2.91,0,0,0,28.1,49.86Z"/>
    </g>
  </g>
</svg>
