<svg class="triumph-svg-icon" xmlns="http://www.w3.org/2000/svg" width="1.38in" height="1.38in" viewBox="0 0 99.25 99.25">
  <defs>
    <style>
      .icon-accent {
        fill: #c8c9c7;
      }

      .icon-dark {
        fill: #000000;
      }
    </style>
  </defs>
  <g>
    <g>
      <circle class="icon-accent" cx="53.4" cy="66.99" r="10.15" transform="translate(-27.12 96.24) rotate(-71.4)"/>
      <path class="icon-dark" d="M53.42,78.14a11.15,11.15,0,1,1,5.22-1.31A11.08,11.08,0,0,1,53.42,78.14Zm0-20.3a9.15,9.15,0,1,0,8.76,11.82h0a9.15,9.15,0,0,0-8.76-11.82Z"/>
    </g>
    <path class="icon-dark" d="M28,68.72a1,1,0,0,1-.7-.29,1,1,0,0,1-.3-.71V23.13a1,1,0,0,1,1-1H55.18a1,1,0,0,1,.7.29l6.43,6.42a1,1,0,0,1,.29.71V59.71a1,1,0,0,1-2,0V30l-5.84-5.83H29V66.7c2.24,0,7.89-.12,14.08-.17h0a1,1,0,0,1,0,2c-8,.07-15.08.19-15.08.19Z"/>
    <path class="icon-dark" d="M59,32.37H53.56a1,1,0,0,1-1-1V25.86a1,1,0,0,1,2,0v4.51H59a1,1,0,0,1,0,2Z"/>
    <path class="icon-dark" d="M42.68,42.52H33.27a1,1,0,0,1,0-2h9.41a1,1,0,0,1,0,2Z"/>
    <path class="icon-dark" d="M49,37.25H33.27a1,1,0,0,1,0-2H49a1,1,0,0,1,0,2Z"/>
    <path class="icon-dark" d="M42.41,47.73H33.27a1,1,0,0,1,0-2h9.14a1,1,0,0,1,0,2Z"/>
    <g>
      <path class="icon-dark" d="M55.27,74.3a1,1,0,0,1-1-1A16.19,16.19,0,0,1,70.44,57.13H72a1,1,0,0,1,0,2H70.44A14.19,14.19,0,0,0,56.27,73.3,1,1,0,0,1,55.27,74.3Z"/>
      <path class="icon-dark" d="M68.92,62.16a1,1,0,0,1-.7-.29,1,1,0,0,1,0-1.41l2.32-2.33L68.22,55.8a1,1,0,0,1,1.41-1.41l3,3a1,1,0,0,1,0,1.42l-3,3A1,1,0,0,1,68.92,62.16Z"/>
    </g>
    <g>
      <path class="icon-dark" d="M50.38,45.62a1,1,0,0,1-.71-.29,1,1,0,0,1,0-1.42l3-3a1,1,0,0,1,1.41,0l3,3a1,1,0,1,1-1.41,1.42L53.41,43l-2.32,2.33A1,1,0,0,1,50.38,45.62Z"/>
      <path class="icon-dark" d="M53.42,65.42a1,1,0,0,1-1-1V42a1,1,0,0,1,2,0V64.42A1,1,0,0,1,53.42,65.42Z"/>
    </g>
    <g>
      <path class="icon-dark" d="M51.56,74.3a1,1,0,0,1-1-1A14.18,14.18,0,0,0,36.4,59.13H34.88a1,1,0,0,1,0-2H36.4A16.18,16.18,0,0,1,52.56,73.3,1,1,0,0,1,51.56,74.3Z"/>
      <path class="icon-dark" d="M37.91,62.16a1,1,0,0,1-.7-.29l-3-3a1,1,0,0,1,0-1.42l3-3a1,1,0,0,1,1.41,1.41l-2.33,2.33,2.33,2.33a1,1,0,0,1,0,1.41A1,1,0,0,1,37.91,62.16Z"/>
    </g>
  </g>
</svg>
