<svg class="triumph-svg-icon" xmlns="http://www.w3.org/2000/svg" width="1.38in" height="1.38in" viewBox="0 0 99.25 99.25">
  <defs>
    <style>
      .primary {
        fill: #c8c9c7;
      }

      .secondary {
        fill: #000000;
      }
    </style>
  </defs>
  <g>
    <g>
      <circle class="primary" cx="50.93" cy="57.04" r="14.34" transform="translate(-7.8 106.03) rotate(-88.07)"/>
      <path class="secondary" d="M50.94,72.38h-.08a15.34,15.34,0,0,1,.07-30.67H51a15.34,15.34,0,0,1-.07,30.67Zm0-28.67a13.34,13.34,0,0,0-.06,26.67h.07A13.32,13.32,0,0,0,64.27,57.11h0A13.32,13.32,0,0,0,51,43.71Z"/>
    </g>
    <g>
      <path class="secondary" d="M53.08,68.58a1,1,0,0,1-1-1A19.66,19.66,0,0,1,71.71,48h1.86a1,1,0,0,1,0,2H71.71A17.65,17.65,0,0,0,54.08,67.58,1,1,0,0,1,53.08,68.58Z"/>
      <path class="secondary" d="M69.84,53.68a1,1,0,0,1-.7-.3,1,1,0,0,1,0-1.41l3-3-3-3a1,1,0,0,1,1.41-1.41l3.73,3.72a1,1,0,0,1,0,1.42l-3.73,3.72A1,1,0,0,1,69.84,53.68Z"/>
    </g>
    <g>
      <path class="secondary" d="M54.52,33.36a1,1,0,0,1-.71-.29l-3-3-3,3a1,1,0,0,1-1.42-1.42l3.73-3.72a1,1,0,0,1,1.41,0l3.73,3.72a1,1,0,0,1,0,1.42A1,1,0,0,1,54.52,33.36Z"/>
      <path class="secondary" d="M50.81,57.68a1,1,0,0,1-1-1V29.11a1,1,0,0,1,2,0V56.68A1,1,0,0,1,50.81,57.68Z"/>
    </g>
    <g>
      <path class="secondary" d="M48.52,68.58a1,1,0,0,1-1-1A17.64,17.64,0,0,0,29.9,50H28a1,1,0,0,1,0-2H29.9A19.65,19.65,0,0,1,49.52,67.58,1,1,0,0,1,48.52,68.58Z"/>
      <path class="secondary" d="M31.76,53.68a1,1,0,0,1-.71-.3l-3.72-3.72a1,1,0,0,1,0-1.42l3.72-3.72a1,1,0,0,1,1.42,0,1,1,0,0,1,0,1.41l-3,3,3,3a1,1,0,0,1,0,1.41A1,1,0,0,1,31.76,53.68Z"/>
    </g>
  </g>
</svg>
