<svg class="triumph-svg-icon" xmlns="http://www.w3.org/2000/svg" width="1.38in" height="1.38in" viewBox="0 0 99.25 99.25">
  <defs>
    <style>
      .icon-dark {
        fill: #000000;
      }

      .icon-accent {
        fill: #c8c9c7;
      }
    </style>
  </defs>
  <g>
    <g>
      <path class="icon-dark" d="M45.32,64a3.4,3.4,0,0,1-3.38-2.8,1,1,0,1,1,1.92-.54c.33,1.19,1,1.34,1.46,1.34.7,0,1-.32,1-1s-.17-.72-1.33-1-2.77-.7-2.77-2.85c0-1.3.86-2.82,3.29-2.82a2.94,2.94,0,0,1,2.88,2.74,1,1,0,1,1-2,.15c0-.18-.21-.89-.88-.89-1.29,0-1.29.62-1.29.82,0,.5.1.62,1.26.91s2.84.72,2.84,3A2.85,2.85,0,0,1,45.32,64Z"/>
      <path class="icon-dark" d="M45.4,56.3a1,1,0,0,1-1-1V53.89a1,1,0,0,1,2,0V55.3A1,1,0,0,1,45.4,56.3Z"/>
      <path class="icon-dark" d="M45.4,65.67a1,1,0,0,1-1-1v-1.4a1,1,0,0,1,2,0v1.4A1,1,0,0,1,45.4,65.67Z"/>
    </g>
    <g>
      <path class="icon-accent" d="M57.86,56.76a1.42,1.42,0,0,1-1.15-.94,13.19,13.19,0,0,0-.65-1.55,1.5,1.5,0,0,1,.12-1.54l3.31-4.56a17.67,17.67,0,0,0-2.66-2.67l-4.58,3.33a1.47,1.47,0,0,1-1.54.1,10.56,10.56,0,0,0-1.51-.63,1.45,1.45,0,0,1-1-1.16l-.88-5.57a18.27,18.27,0,0,0-3.77,0l-.88,5.57a1.51,1.51,0,0,1-1,1.16,12.72,12.72,0,0,0-1.52.64,1.45,1.45,0,0,1-1.5-.11l-4.6-3.33a19.18,19.18,0,0,0-2.66,2.67l2.17,3a5.11,5.11,0,0,1,.63,4.64v0a1.42,1.42,0,0,1-1.15.93l-5.56.89a16.79,16.79,0,0,0-.11,1.88,17.11,17.11,0,0,0,.11,1.89l5.55.88a1.44,1.44,0,0,1,1.16,1v0a5.07,5.07,0,0,1-.62,4.61l-2.18,3a19.11,19.11,0,0,0,2.66,2.66l4.57-3.31a1.43,1.43,0,0,1,1.5-.14,12.23,12.23,0,0,0,1.55.65,1.51,1.51,0,0,1,1,1.16l.88,5.57a18.27,18.27,0,0,0,3.77,0l.58-3.65a5.11,5.11,0,0,1,2.8-3.72l0,0a1.45,1.45,0,0,1,1.5.15l4.56,3.31a18.08,18.08,0,0,0,2.66-2.66l-3.31-4.57a1.5,1.5,0,0,1-.1-1.57,13.19,13.19,0,0,0,.63-1.51,1.43,1.43,0,0,1,1.15-1l5.56-.88a17.36,17.36,0,0,0,.1-1.89,17,17,0,0,0-.1-1.88ZM45.41,67.85a8.52,8.52,0,1,1,8.51-8.51A8.51,8.51,0,0,1,45.41,67.85Z"/>
      <path class="icon-dark" d="M45.47,78.58c-.67,0-1.33,0-2-.09a1,1,0,0,1-.89-.84l-.88-5.57a.51.51,0,0,0-.33-.38A13.82,13.82,0,0,1,39.7,71a.42.42,0,0,0-.45.06l-4.57,3.31a1,1,0,0,1-1.22,0,19.57,19.57,0,0,1-2.8-2.81,1,1,0,0,1,0-1.22l2.17-3a4,4,0,0,0,.48-3.7.45.45,0,0,0-.38-.32l-5.55-.88a1,1,0,0,1-.84-.87,18.71,18.71,0,0,1-.11-2,18.37,18.37,0,0,1,.11-2,1,1,0,0,1,.84-.88l5.57-.88a.45.45,0,0,0,.35-.27,4.08,4.08,0,0,0-.48-3.77l-2.16-3a1,1,0,0,1,0-1.22,19.5,19.5,0,0,1,2.8-2.8,1,1,0,0,1,1.22,0L39.27,48a.48.48,0,0,0,.48,0,12.74,12.74,0,0,1,1.64-.68.51.51,0,0,0,.32-.39l.88-5.55a1,1,0,0,1,.88-.84,19,19,0,0,1,4,0,1,1,0,0,1,.88.84L49.22,47a.46.46,0,0,0,.28.37,12.39,12.39,0,0,1,1.66.68.47.47,0,0,0,.5,0l4.58-3.33a1,1,0,0,1,1.22,0,18.66,18.66,0,0,1,2.81,2.81,1,1,0,0,1,0,1.21L57,53.31a.51.51,0,0,0,0,.52,13.8,13.8,0,0,1,.7,1.67.42.42,0,0,0,.36.27l5.56.89a1,1,0,0,1,.84.88,18.41,18.41,0,0,1,.1,2,18.73,18.73,0,0,1-.1,2,1,1,0,0,1-.84.87L58,63.29a.42.42,0,0,0-.36.27A12.62,12.62,0,0,1,57,65.21a.52.52,0,0,0,0,.53l3.31,4.57a1,1,0,0,1,0,1.22,19.64,19.64,0,0,1-2.81,2.81,1,1,0,0,1-1.22,0l-4.56-3.31a.46.46,0,0,0-.46-.07,4.1,4.1,0,0,0-2.3,3l-.58,3.65a1,1,0,0,1-.89.84Q46.46,78.58,45.47,78.58Zm-1-2c.68,0,1.37,0,2.05,0l.45-2.87a6.06,6.06,0,0,1,3.34-4.46,2.46,2.46,0,0,1,2.58.21l3.92,2.85a17.79,17.79,0,0,0,1.44-1.44l-2.85-3.93a2.53,2.53,0,0,1-.19-2.6,10.58,10.58,0,0,0,.58-1.39,2.44,2.44,0,0,1,2-1.62l4.78-.76c0-.33,0-.68,0-1s0-.69,0-1l-4.78-.76h0a2.42,2.42,0,0,1-2-1.62,11.39,11.39,0,0,0-.6-1.42,2.5,2.5,0,0,1,.21-2.57l2.85-3.93a16.31,16.31,0,0,0-1.44-1.44l-3.94,2.87a2.47,2.47,0,0,1-2.58.18,9.09,9.09,0,0,0-1.37-.57,2.41,2.41,0,0,1-1.65-2l-.75-4.8a17.53,17.53,0,0,0-2.05,0l-.76,4.8a2.5,2.5,0,0,1-1.65,2,11.18,11.18,0,0,0-1.39.58,2.46,2.46,0,0,1-2.54-.19l-4-2.87a17.67,17.67,0,0,0-1.43,1.44l1.7,2.36a6.15,6.15,0,0,1,.77,5.54,2.42,2.42,0,0,1-2,1.64l-4.8.76q0,.51,0,1t0,1l4.78.76a2.43,2.43,0,0,1,2,1.63,6,6,0,0,1-.75,5.54l-1.71,2.37a17.67,17.67,0,0,0,1.43,1.44l3.93-2.85a2.44,2.44,0,0,1,2.54-.23,9.91,9.91,0,0,0,1.42.6,2.52,2.52,0,0,1,1.65,1.94Zm1-7.71a9.52,9.52,0,1,1,9.51-9.51A9.52,9.52,0,0,1,45.41,68.85Zm0-17a7.52,7.52,0,1,0,7.51,7.52A7.52,7.52,0,0,0,45.41,51.82Z"/>
    </g>
    <g>
      <path class="icon-accent" d="M36.88,37.52a.89.89,0,0,1,0-.93,7.5,7.5,0,0,0,.45-.94.92.92,0,0,1,.76-.58l3.48-.36a11.35,11.35,0,0,0,.12-2.33l-3.43-.74a.89.89,0,0,1-.68-.67,7.69,7.69,0,0,0-.34-1,.87.87,0,0,1,.14-.92l2.2-2.72A11.69,11.69,0,0,0,38,24.63L35,26.53a1,1,0,0,1-.95,0,6.41,6.41,0,0,0-.91-.44.91.91,0,0,1-.58-.74l-.36-3.5a11.48,11.48,0,0,0-2.34-.12L29.42,24a3.16,3.16,0,0,1-1.88,2.22h0a.87.87,0,0,1-.91-.14l-2.71-2.2a10.77,10.77,0,0,0-.91.73,9.29,9.29,0,0,0-.83.83l1.89,2.93a.91.91,0,0,1,.05.93l0,0a3.14,3.14,0,0,1-2.38,1.62l-2.29.24a11.35,11.35,0,0,0-.13,2.33l3.42.74a.9.9,0,0,1,.69.63,5.81,5.81,0,0,0,.34,1,.94.94,0,0,1-.13.94l-2.21,2.71A11.28,11.28,0,0,0,23,41.25L24.88,40a3.15,3.15,0,0,1,2.88-.25h0a.92.92,0,0,1,.56.75L28.7,44a12.1,12.1,0,0,0,2.33.13l.74-3.42a.92.92,0,0,1,.68-.7,7.69,7.69,0,0,0,1-.34.89.89,0,0,1,.91.14L37,42a9.51,9.51,0,0,0,.92-.73c.28-.26.56-.53.83-.83Zm-9.33-2a4,4,0,1,1,5.66.31A4,4,0,0,1,27.55,35.51Z"/>
      <path class="icon-dark" d="M30.48,45.14A12.58,12.58,0,0,1,28.54,45a1,1,0,0,1-.84-.89l-.35-3.43a2.16,2.16,0,0,0-1.93.18L23.5,42.09a1,1,0,0,1-1.22-.1,12.68,12.68,0,0,1-1.69-1.89,1,1,0,0,1,0-1.22l2.2-2.72a3.92,3.92,0,0,1-.38-.95l-3.37-.73a1,1,0,0,1-.79-.93A12.82,12.82,0,0,1,18.42,31a1,1,0,0,1,.89-.83l2.28-.24a2.14,2.14,0,0,0,1.6-1.08L21.32,26a1,1,0,0,1,.09-1.21,11.07,11.07,0,0,1,.91-.9,10.44,10.44,0,0,1,1-.81,1,1,0,0,1,1.21,0l2.67,2.17a2.12,2.12,0,0,0,1.24-1.48l.49-2.24a1,1,0,0,1,.93-.78,12.56,12.56,0,0,1,2.53.13,1,1,0,0,1,.84.89l.37,3.5a3.25,3.25,0,0,1,1,.41l2.85-1.9a1,1,0,0,1,1.21.1,12.28,12.28,0,0,1,1.7,1.9,1,1,0,0,1,0,1.21l-2.18,2.68a6.9,6.9,0,0,1,.36,1l3.36.69a1,1,0,0,1,.79.93,11.89,11.89,0,0,1-.14,2.54,1,1,0,0,1-.88.84l-3.48.36a4.84,4.84,0,0,1-.4,1l1.87,2.89a1,1,0,0,1-.1,1.21,10.92,10.92,0,0,1-.9.9,11.84,11.84,0,0,1-1,.81,1,1,0,0,1-1.22,0l-2.67-2.17a8.1,8.1,0,0,1-1,.35L32,44.34a1,1,0,0,1-.93.78Zm-.87-2,.61,0,.57-2.65A2,2,0,0,1,32.18,39a5.75,5.75,0,0,0,.83-.29A1.86,1.86,0,0,1,35,39l2.1,1.7.23-.21.23-.2L36,38.06h0a1.89,1.89,0,0,1-.07-2,5.64,5.64,0,0,0,.39-.81,1.92,1.92,0,0,1,1.58-1.2l2.69-.28c0-.2,0-.41,0-.61L38,32.62a1.91,1.91,0,0,1-1.44-1.39,5.69,5.69,0,0,0-.28-.8,1.87,1.87,0,0,1,.27-2l1.7-2.1-.41-.46-2.26,1.47a2,2,0,0,1-2,.06,6.62,6.62,0,0,0-.8-.38,1.9,1.9,0,0,1-1.2-1.57l-.29-2.7a6.08,6.08,0,0,0-.61,0L30.4,24.2a4.19,4.19,0,0,1-2.46,2.92,1.89,1.89,0,0,1-2-.27l-2.09-1.7-.23.2-.23.2,1.46,2.26a1.91,1.91,0,0,1,.07,2,4.16,4.16,0,0,1-3.16,2.14l-1.49.15c0,.21,0,.41,0,.61l2.64.57a1.87,1.87,0,0,1,1.44,1.35,6.61,6.61,0,0,0,.3.85,2,2,0,0,1-.26,1.95l-1.72,2.11.41.46,1.26-.81a4.16,4.16,0,0,1,3.78-.34,1.89,1.89,0,0,1,1.21,1.59Zm-2.19-2.4ZM37.72,37ZM27.12,25.3Zm3.42,12.54a5,5,0,0,1-3.74-1.66h0a5,5,0,0,1,4-8.35,5,5,0,0,1,3.07,8.74A5,5,0,0,1,30.54,37.84Zm-2.25-3A3,3,0,0,0,33.54,33a3,3,0,0,0-2.84-3.17,2.93,2.93,0,0,0-2.18.76,3,3,0,0,0-.23,4.26Z"/>
    </g>
    <g>
      <path class="icon-accent" d="M77.52,50.29a.71.71,0,0,1-.33-.66,5.61,5.61,0,0,0,0-.83.74.74,0,0,1,.36-.67L80,46.73A8.57,8.57,0,0,0,79.31,45l-2.74.59a.72.72,0,0,1-.71-.27,6.2,6.2,0,0,0-.56-.58.71.71,0,0,1-.2-.72l.72-2.7a9,9,0,0,0-1.71-.75L72.59,42.9a.76.76,0,0,1-.68.33,5.34,5.34,0,0,0-.81,0,.73.73,0,0,1-.66-.35L69,40.43a9.53,9.53,0,0,0-1.73.67l.38,1.79A2.53,2.53,0,0,1,67,45.11v0a.71.71,0,0,1-.71.19l-2.69-.72a7.18,7.18,0,0,0-.42.83,9.4,9.4,0,0,0-.34.88l2.34,1.51a.71.71,0,0,1,.33.66v0a2.51,2.51,0,0,1-1.21,2l-1.58.92a8.57,8.57,0,0,0,.67,1.74l2.72-.58a.72.72,0,0,1,.71.23,6.45,6.45,0,0,0,.57.61.72.72,0,0,1,.21.72l-.71,2.7a8.88,8.88,0,0,0,1.7.75l1-1.53a2.54,2.54,0,0,1,2-1.12h0a.73.73,0,0,1,.65.37l1.4,2.41A8.85,8.85,0,0,0,75.42,57l-.58-2.73a.74.74,0,0,1,.27-.73A5.3,5.3,0,0,0,75.7,53a.74.74,0,0,1,.71-.2l2.69.72a9.33,9.33,0,0,0,.43-.83q.18-.42.33-.87Zm-7.12.87a2.41,2.41,0,1,1,3.17-1.23A2.4,2.4,0,0,1,70.4,51.16Z"/>
      <path class="icon-dark" d="M73.68,58.68a1,1,0,0,1-.86-.5l-1.31-2.26a1.48,1.48,0,0,0-1.07.64l-1,1.54a1,1,0,0,1-1.15.4,10.23,10.23,0,0,1-1.89-.83,1,1,0,0,1-.47-1.13L66.62,54a4.67,4.67,0,0,1-.44-.45l-2.57.55a1,1,0,0,1-1.1-.53,10,10,0,0,1-.74-1.93,1,1,0,0,1,.46-1.12l1.59-.93a1.45,1.45,0,0,0,.69-1l-2.19-1.42A1,1,0,0,1,61.91,46a8.78,8.78,0,0,1,.37-1,8.17,8.17,0,0,1,.48-.93,1,1,0,0,1,1.12-.47l2.52.68a1.49,1.49,0,0,0,.3-1.21l-.38-1.79a1,1,0,0,1,.52-1.1,10.52,10.52,0,0,1,1.93-.74,1,1,0,0,1,1.13.46l1.32,2.27c.21,0,.42,0,.62,0L73.27,40a1,1,0,0,1,1.15-.4,9.39,9.39,0,0,1,1.89.84,1,1,0,0,1,.47,1.12l-.67,2.54c.14.14.29.29.43.45L79.1,44a1,1,0,0,1,1.1.53A9.88,9.88,0,0,1,81,46.47a1,1,0,0,1-.47,1.13l-2.27,1.31c0,.22,0,.43,0,.63L80.4,51a1,1,0,0,1,.41,1.14,9.28,9.28,0,0,1-.37,1A10.12,10.12,0,0,1,80,54a1,1,0,0,1-1.13.47l-2.53-.68c-.14.14-.29.29-.46.43l.55,2.57a1,1,0,0,1-.52,1.1,10.52,10.52,0,0,1-1.93.74A.84.84,0,0,1,73.68,58.68Zm-2-4.78a1.71,1.71,0,0,1,1.49.87l1,1.71.13,0-.42-1.94a1.76,1.76,0,0,1,.61-1.71,5.5,5.5,0,0,0,.49-.46,1.7,1.7,0,0,1,1.71-.49l1.91.51,0-.07,0-.06L77,51.13a1.71,1.71,0,0,1-.79-1.6,3.89,3.89,0,0,0,0-.69,1.73,1.73,0,0,1,.86-1.58l1.72-1-.06-.13-2,.42A1.73,1.73,0,0,1,75.09,46a4.08,4.08,0,0,0-.45-.47,1.7,1.7,0,0,1-.51-1.73l.51-1.92-.13,0-1.08,1.66a1.73,1.73,0,0,1-1.61.78,5.07,5.07,0,0,0-.68,0,1.74,1.74,0,0,1-1.56-.85l-1-1.73-.13,0,.22,1a3.54,3.54,0,0,1-.89,3.11,1.68,1.68,0,0,1-1.71.49l-1.92-.51,0,.07,0,.06L65.74,47a1.71,1.71,0,0,1,.79,1.6,3.51,3.51,0,0,1-1.7,2.74l-.9.52L64,52l1.94-.41a1.71,1.71,0,0,1,1.69.58,3.67,3.67,0,0,0,.47.5,1.74,1.74,0,0,1,.5,1.71l-.51,1.92.13.06.55-.85a3.55,3.55,0,0,1,2.81-1.58Zm0,2Zm6.52-7.14ZM66.28,44.45ZM76,44Zm-4.59,8.38A3.32,3.32,0,0,1,70,52.07h0a3.42,3.42,0,0,1-1.73-4.49,3.4,3.4,0,0,1,6.29.15,3.39,3.39,0,0,1-2,4.4A3.27,3.27,0,0,1,71.37,52.36Zm0-4.81a1.41,1.41,0,0,0-.58,2.69h0a1.44,1.44,0,0,0,1.08,0,1.42,1.42,0,0,0,.78-.74,1.44,1.44,0,0,0,0-1.08,1.4,1.4,0,0,0-.75-.78A1.38,1.38,0,0,0,71.38,47.55Z"/>
    </g>
  </g>
</svg>
