<svg xmlns="http://www.w3.org/2000/svg" viewBox="0 0 99.25 99.25"><defs><style>.cls-1{fill:none;}.cls-1,.cls-2{stroke:#000;stroke-linecap:round;stroke-linejoin:round;stroke-width:2px;}.cls-2{fill:#c8c9c7;}</style></defs><g id="Icons"><path class="cls-1" d="M47.43,57.14a2,2,0,0,0-1.88-1.81c-1.67,0-2.29.87-2.29,1.81,0,2.77,4.1,1,4.1,3.87a1.87,1.87,0,0,1-2,2,2.44,2.44,0,0,1-2.42-2.07"/><line class="cls-1" x1="45.4" y1="53.86" x2="45.4" y2="55.26"/><line class="cls-1" x1="45.4" y1="63.23" x2="45.4" y2="64.64"/><path class="cls-2" d="M57.86,56.72a1.4,1.4,0,0,1-1.15-.94,13.19,13.19,0,0,0-.65-1.55,1.5,1.5,0,0,1,.12-1.54l3.31-4.56a17.67,17.67,0,0,0-2.66-2.67l-4.58,3.33a1.47,1.47,0,0,1-1.54.1,10.56,10.56,0,0,0-1.51-.63,1.44,1.44,0,0,1-1-1.16l-.88-5.57a18.27,18.27,0,0,0-3.77,0L42.7,47.1a1.54,1.54,0,0,1-1,1.17,11.16,11.16,0,0,0-1.52.63,1.45,1.45,0,0,1-1.5-.11l-4.6-3.33a19.18,19.18,0,0,0-2.66,2.67l2.17,3a5.12,5.12,0,0,1,.63,4.65v0a1.42,1.42,0,0,1-1.15.93l-5.56.89a16.21,16.21,0,0,0,0,3.77l5.55.88a1.44,1.44,0,0,1,1.16,1v0a5.06,5.06,0,0,1-.62,4.61l-2.18,3a19.11,19.11,0,0,0,2.66,2.66l4.57-3.31a1.43,1.43,0,0,1,1.5-.14,10.93,10.93,0,0,0,1.55.65,1.52,1.52,0,0,1,1,1.16l.88,5.57a18.27,18.27,0,0,0,3.77,0l.58-3.65a5.13,5.13,0,0,1,2.8-3.72h0a1.43,1.43,0,0,1,1.5.14l4.56,3.31a18.08,18.08,0,0,0,2.66-2.66l-3.31-4.57a1.5,1.5,0,0,1-.1-1.57,11.85,11.85,0,0,0,.63-1.51,1.43,1.43,0,0,1,1.15-1l5.56-.88a17.36,17.36,0,0,0,.1-1.89,17,17,0,0,0-.1-1.88ZM45.41,67.81a8.51,8.51,0,1,1,8.51-8.51A8.51,8.51,0,0,1,45.41,67.81Z"/><path class="cls-2" d="M36.88,37.48a.87.87,0,0,1,0-.92,9.14,9.14,0,0,0,.45-.94.93.93,0,0,1,.76-.59l3.48-.36a11.35,11.35,0,0,0,.12-2.33l-3.43-.74a.89.89,0,0,1-.68-.67,8.31,8.31,0,0,0-.34-1,.87.87,0,0,1,.14-.92l2.2-2.71A11.29,11.29,0,0,0,38,24.59L35,26.49a1,1,0,0,1-.95,0,6.41,6.41,0,0,0-.91-.44.91.91,0,0,1-.58-.74l-.36-3.5a11.48,11.48,0,0,0-2.34-.12L29.42,24a3.16,3.16,0,0,1-1.88,2.22h0a.89.89,0,0,1-.91-.15l-2.71-2.2a10.71,10.71,0,0,0-1.74,1.56l1.89,2.93a.91.91,0,0,1,.05.93l0,0a3.12,3.12,0,0,1-2.38,1.62l-2.29.24a11.35,11.35,0,0,0-.13,2.33l3.42.74a.9.9,0,0,1,.69.63,5.81,5.81,0,0,0,.34,1,.94.94,0,0,1-.13.94l-2.21,2.71A11.28,11.28,0,0,0,23,41.21L24.88,40a3.15,3.15,0,0,1,2.88-.25h0a.92.92,0,0,1,.56.75L28.7,44a11.35,11.35,0,0,0,2.33.13l.74-3.42a.92.92,0,0,1,.68-.7,7.69,7.69,0,0,0,1-.34.89.89,0,0,1,.91.14L37,42a9.6,9.6,0,0,0,.92-.74c.28-.26.56-.53.83-.83Zm-9.33-2a4,4,0,1,1,5.66.3A4,4,0,0,1,27.55,35.48Z"/><path class="cls-2" d="M77.52,50.25a.7.7,0,0,1-.33-.66,5.61,5.61,0,0,0,0-.83.74.74,0,0,1,.36-.67L80,46.69A8.57,8.57,0,0,0,79.31,45l-2.74.59a.73.73,0,0,1-.71-.26,5.3,5.3,0,0,0-.56-.59.71.71,0,0,1-.2-.72l.72-2.69a8.42,8.42,0,0,0-1.71-.76l-1.52,2.34a.74.74,0,0,1-.68.33,5.34,5.34,0,0,0-.81,0,.73.73,0,0,1-.66-.35L69,40.39a9.53,9.53,0,0,0-1.73.67l.38,1.79A2.53,2.53,0,0,1,67,45.07v0a.71.71,0,0,1-.71.19l-2.69-.72a7.18,7.18,0,0,0-.42.83,9.4,9.4,0,0,0-.34.88l2.34,1.51a.71.71,0,0,1,.33.66v0a2.51,2.51,0,0,1-1.21,2l-1.58.92a8.57,8.57,0,0,0,.67,1.74l2.72-.58a.72.72,0,0,1,.71.23,6.45,6.45,0,0,0,.57.61.72.72,0,0,1,.21.72l-.71,2.7a9.59,9.59,0,0,0,1.7.76l1-1.54a2.54,2.54,0,0,1,2-1.12h0a.75.75,0,0,1,.65.37l1.4,2.41A8.85,8.85,0,0,0,75.42,57l-.58-2.73a.74.74,0,0,1,.27-.73A5.3,5.3,0,0,0,75.7,53a.71.71,0,0,1,.71-.19l2.69.71a9.33,9.33,0,0,0,.43-.83q.18-.42.33-.87Zm-7.12.87a2.41,2.41,0,1,1,3.17-1.23A2.4,2.4,0,0,1,70.4,51.12Z"/></g></svg>