<svg class="triumph-svg-icon" xmlns="http://www.w3.org/2000/svg" width="1.38in" height="1.38in" viewBox="0 0 99.25 99.25">
  <defs>
    <style>
      .cls-1 {
        fill: #808080;
      }

      .cls-2 {
        fill: #000000;
      }
    </style>
  </defs>
  <g>
    <rect class="cls-1" x="21.07" y="48.5" width="3.48" height="7.82"/>
    <g>
      <path class="cls-1" d="M56.48,47.51h1a2.7,2.7,0,0,1,2.69,2.68v3.4a2.69,2.69,0,0,1-2.69,2.68H56.21"/>
      <path class="cls-2" d="M57.52,57.27H56.21a1,1,0,0,1,0-2h1.31a1.69,1.69,0,0,0,1.69-1.68v-3.4a1.69,1.69,0,0,0-1.69-1.68h-1a1,1,0,0,1,0-2h1a3.69,3.69,0,0,1,3.69,3.68v3.4A3.69,3.69,0,0,1,57.52,57.27Z"/>
    </g>
    <path class="cls-2" d="M40.94,68.41a1,1,0,0,1,0-2A14.23,14.23,0,0,0,55.15,52.2V44.57A14.22,14.22,0,0,0,40.94,30.36H40A14.23,14.23,0,0,0,25.74,44.57V52.2l-.06,4.39a1,1,0,0,1-1,1H22.84c-1.9,0-3.23-1.51-3.23-3.68v-3.4c0-2.17,1.33-3.68,3.23-3.68h.9V44.57A16.23,16.23,0,0,1,40,28.36h1A16.23,16.23,0,0,1,57.15,44.57V52.2A16.23,16.23,0,0,1,40.94,68.41Zm-18.1-19.6c-1.11,0-1.23,1.17-1.23,1.68v3.4c0,.5.12,1.68,1.23,1.68h.86l0-6.76Z"/>
    <path class="cls-2" d="M40.81,64h-.75a12.61,12.61,0,0,1-12.6-12.59V45.56c0-.28,0-.64-.06-1-.12-1.4-.23-2.72.57-3.42a1.48,1.48,0,0,1,1.34-.33c8.29,1.73,12.17-.29,15.14-2.72a1,1,0,0,1,1.62.61,3.89,3.89,0,0,0,1.74,2.55,6,6,0,0,0,4.15,1h0a1.27,1.27,0,0,1,1.16.31c.6.56.47,1.45.36,2.32a4.93,4.93,0,0,0-.08.68v5.82A12.61,12.61,0,0,1,40.81,64ZM29.33,42.84a13,13,0,0,0,.06,1.54c0,.44.07.85.07,1.18v5.82A10.61,10.61,0,0,0,40.06,62h.75A10.6,10.6,0,0,0,51.4,51.38V45.56c0-.26.05-.6.09-1a2.43,2.43,0,0,0,0-.3,8.24,8.24,0,0,1-4.85-1.42,6.19,6.19,0,0,1-2.11-2.38C41.41,42.78,37.16,44.39,29.33,42.84Z"/>
    <g>
      <path class="cls-2" d="M62.56,79.08a1,1,0,0,1-1-1A10.31,10.31,0,0,0,51.27,67.79a1,1,0,1,1,0-2A12.3,12.3,0,0,1,63.56,78.08,1,1,0,0,1,62.56,79.08Z"/>
      <path class="cls-2" d="M18.33,79.08a1,1,0,0,1-1-1,12.31,12.31,0,0,1,12.3-12.29h3.24a1,1,0,0,1,0,2H29.63a10.31,10.31,0,0,0-10.3,10.29A1,1,0,0,1,18.33,79.08Z"/>
    </g>
    <g>
      <rect class="cls-1" x="36.19" y="65.1" width="8.51" height="4.25" rx="2.13"/>
      <path class="cls-2" d="M42.58,70.35H38.32a3.13,3.13,0,1,1,0-6.25h4.26a3.13,3.13,0,0,1,0,6.25ZM38.32,66.1a1.13,1.13,0,1,0,0,2.25h4.26a1.13,1.13,0,0,0,0-2.25Z"/>
    </g>
    <g>
      <path class="cls-2" d="M59.55,43.21a1.59,1.59,0,0,1-1.1-.47,2,2,0,0,1-.44-2,33,33,0,0,0,1.09-4.09,8.09,8.09,0,0,1-2.37-5.6c0-5.28,5.64-9.57,12.56-9.57s12.55,4.29,12.55,9.57-5.63,9.57-12.55,9.57a16,16,0,0,1-3.85-.48,14.41,14.41,0,0,1-5.44,3A1.76,1.76,0,0,1,59.55,43.21Zm-.13-2h0Zm9.87-17.71c-5.82,0-10.56,3.39-10.56,7.57a6.28,6.28,0,0,0,2.13,4.53,1,1,0,0,1,.3.87A29.84,29.84,0,0,1,60,41a11.88,11.88,0,0,0,4.44-2.68,1,1,0,0,1,1-.24,14.27,14.27,0,0,0,3.85.55c5.82,0,10.55-3.4,10.55-7.57S75.11,23.51,69.29,23.51Z"/>
      <g>
        <path class="cls-1" d="M69.29,22.51c-6.36,0-11.56,3.83-11.56,8.57a7.29,7.29,0,0,0,2.44,5.26A30.63,30.63,0,0,1,59,41.07c-.2.62.22,1.27.74,1.11a13.23,13.23,0,0,0,5.46-3.12,15.07,15.07,0,0,0,4.12.59c6.39,0,11.55-3.83,11.55-8.57S75.68,22.51,69.29,22.51Z"/>
        <path class="cls-2" d="M59.55,43.21a1.59,1.59,0,0,1-1.1-.47,2,2,0,0,1-.44-2,33,33,0,0,0,1.09-4.09,8.09,8.09,0,0,1-2.37-5.6c0-5.28,5.64-9.57,12.56-9.57s12.55,4.29,12.55,9.57-5.63,9.57-12.55,9.57a16,16,0,0,1-3.85-.48,14.41,14.41,0,0,1-5.44,3A1.76,1.76,0,0,1,59.55,43.21Zm-.13-2h0Zm9.87-17.71c-5.82,0-10.56,3.39-10.56,7.57a6.28,6.28,0,0,0,2.13,4.53,1,1,0,0,1,.3.87A29.84,29.84,0,0,1,60,41a11.88,11.88,0,0,0,4.44-2.68,1,1,0,0,1,1-.24,14.27,14.27,0,0,0,3.85.55c5.82,0,10.55-3.4,10.55-7.57S75.11,23.51,69.29,23.51Z"/>
      </g>
      <g>
        <path class="cls-2" d="M74,32.08H63.74a1,1,0,1,1,0-2H74a1,1,0,0,1,0,2Z"/>
        <path class="cls-2" d="M74,28.64H63.74a1,1,0,1,1,0-2H74a1,1,0,0,1,0,2Z"/>
        <path class="cls-2" d="M69.71,35.49h-6a1,1,0,0,1,0-2h6a1,1,0,0,1,0,2Z"/>
      </g>
    </g>
  </g>
</svg>
