<svg class="triumph-svg-icon" xmlns="http://www.w3.org/2000/svg" width="1.38in" height="1.38in" viewBox="0 0 99.25 99.25">
  <defs>
    <style>
      .cls-1 {
        fill: #000000;
      }

      .cls-2 {
        fill: #808080;
      }
    </style>
  </defs>
  <g>
    <path class="cls-1" d="M31,57A4.05,4.05,0,0,1,27,52.91V39.24a9,9,0,0,1,2.68-6.45l3.85-3.86a1,1,0,0,1,1.41,0,1,1,0,0,1,0,1.42L31.06,34.2a7.08,7.08,0,0,0-2.09,5V52.91a2.06,2.06,0,0,0,4.11,0V47a5.32,5.32,0,0,1,4.82-5.29l.21,0h.28a1,1,0,0,1,0,2A3.31,3.31,0,0,0,35.08,47v6A4.05,4.05,0,0,1,31,57Z"/>
    <path class="cls-1" d="M28.27,42.06a1,1,0,0,1-.74-1.67l3.24-3.61V32.53a1,1,0,0,1,2,0v4.63a1,1,0,0,1-.26.67L29,41.73A1,1,0,0,1,28.27,42.06Z"/>
    <rect class="cls-1" x="41.64" y="33.77" width="11.57" height="8.91" rx="1.54" transform="translate(94.86 76.46) rotate(-180)"/>
    <rect class="cls-1" x="41.76" y="44.32" width="3.47" height="3.38" rx="0.52" transform="translate(89.51 2.52) rotate(90)"/>
    <rect class="cls-1" x="45.8" y="44.32" width="3.47" height="3.38" rx="0.52" transform="translate(93.55 -1.52) rotate(90)"/>
    <rect class="cls-2" x="43.2" y="53.97" width="28.47" height="3.71"/>
    <rect class="cls-1" x="49.82" y="44.32" width="3.47" height="3.38" rx="0.52" transform="translate(97.57 -5.54) rotate(90)"/>
    <path class="cls-1" d="M42.76,61.71H40.05a2.43,2.43,0,0,1-2.42-2.42V34a4.05,4.05,0,0,1,4-4H53.13a4.06,4.06,0,0,1,4,4v16.5a1,1,0,0,1-1,1H45.52a1.77,1.77,0,0,0-1.76,1.77v7.43A1,1,0,0,1,42.76,61.71ZM41.68,32a2.05,2.05,0,0,0-2,2V59.29a.42.42,0,0,0,.42.42h1.71V53.28a3.77,3.77,0,0,1,3.76-3.77h9.66V34a2.05,2.05,0,0,0-2-2Z"/>
    <path class="cls-1" d="M69.83,70.64H45.45a3.77,3.77,0,0,1-3.76-3.77V53.28a3.77,3.77,0,0,1,3.76-3.77H69.83a3.77,3.77,0,0,1,3.77,3.77V66.87A3.77,3.77,0,0,1,69.83,70.64ZM45.45,51.51a1.77,1.77,0,0,0-1.76,1.77V66.87a1.76,1.76,0,0,0,1.76,1.77H69.83a1.77,1.77,0,0,0,1.77-1.77V53.28a1.77,1.77,0,0,0-1.77-1.77Z"/>
    <path class="cls-1" d="M67.84,66.55H64.58a1,1,0,0,1,0-2h3.26a1,1,0,0,1,0,2Z"/>
    <path class="cls-1" d="M61.52,66.55H58.26a1,1,0,0,1,0-2h3.26a1,1,0,0,1,0,2Z"/>
  </g>
</svg>
