<svg class="triumph-svg-icon" xmlns="http://www.w3.org/2000/svg" width="1.38in" height="1.38in" viewBox="0 0 99.25 99.25">
  <defs>
    <style>
      .secondary {
        fill: #000000;
      }

      .primary {
        fill: #c8c9c7;
      }

      .c {
        fill: #0a263c;
      }
    </style>
  </defs>
  <g>
    <g>
      <path class="secondary" d="M64.57,78.19H24.94a1,1,0,0,1-1-1V30.13a1,1,0,0,1,.29-.71L31.66,22a1,1,0,0,1,.71-.29h32.2a1,1,0,0,1,1,1V40a1,1,0,0,1-2,0V23.7H32.78l-6.84,6.84V76.19H63.57V62.33a1,1,0,0,1,2,0V77.19A1,1,0,0,1,64.57,78.19Z"/>
      <path class="secondary" d="M34.85,33.61H27.42a1,1,0,0,1,0-2h6.43V25.18a1,1,0,0,1,2,0v7.43A1,1,0,0,1,34.85,33.61Z"/>
    </g>
    <g>
      <path class="primary" d="M69.18,39.05,49.51,58.71,48.27,65l6.29-1.24L74.23,44.1a2.52,2.52,0,0,0,0-3.57l-1.49-1.48A2.5,2.5,0,0,0,69.18,39.05Z"/>
      <path class="secondary" d="M48.27,66a1,1,0,0,1-1-1.2l1.24-6.29A1,1,0,0,1,48.8,58L68.47,38.34h0a3.53,3.53,0,0,1,5,0l1.49,1.49a3.53,3.53,0,0,1,0,5L55.27,64.47a1,1,0,0,1-.51.28L48.46,66Zm2.16-6.8-.89,4.53,4.53-.9L73.52,43.39a1.49,1.49,0,0,0,0-2.15L72,39.75a1.52,1.52,0,0,0-2.16,0Z"/>
    </g>
    <path class="secondary" d="M72.25,47.08a1,1,0,0,1-.71-.29l-5.05-5a1,1,0,0,1,0-1.42,1,1,0,0,1,1.41,0l5.06,5a1,1,0,0,1,0,1.42A1,1,0,0,1,72.25,47.08Z"/>
    <g>
      <path class="c" d="M35.88,70c-2.19,0-3.77-1.32-4.43-3.7a1,1,0,0,1,.7-1.23,1,1,0,0,1,1.23.7c.55,2,1.69,2.23,2.5,2.23a1.69,1.69,0,0,0,1.91-1.82c0-1.21-.58-1.46-2.22-1.88-1.45-.36-3.64-.92-3.64-3.66,0-1.66,1.12-3.6,4.28-3.6a3.76,3.76,0,0,1,3.68,3.53,1,1,0,1,1-2,.14,1.81,1.81,0,0,0-1.69-1.67c-1,0-2.28.28-2.28,1.6,0,1.09.52,1.32,2.13,1.72s3.73,1,3.73,3.82A3.66,3.66,0,0,1,35.88,70Z"/>
      <path class="c" d="M36,59a1,1,0,0,1-1-1V56a1,1,0,0,1,2,0v2A1,1,0,0,1,36,59Z"/>
      <path class="c" d="M36,72.41a1,1,0,0,1-1-1v-2a1,1,0,0,1,2,0v2A1,1,0,0,1,36,72.41Z"/>
    </g>
  </g>
</svg>
