<svg class="triumph-svg-icon" xmlns="http://www.w3.org/2000/svg" width="1.38in" height="1.38in" viewBox="0 0 99.25 99.25">
  <defs>
    <style>
      .icon-accent {
        fill: #c8c9c7;
      }

      .icon-dark {
        fill: #000000;
      }
    </style>
  </defs>
  <g>
    <rect class="icon-accent" x="24.76" y="39.52" width="49.67" height="6.14"/>
    <path class="icon-dark" d="M70.08,66.47H29.72a5.59,5.59,0,0,1-5.59-5.58V38.38a5.59,5.59,0,0,1,5.59-5.58H70.08a5.59,5.59,0,0,1,5.59,5.58V60.89A5.59,5.59,0,0,1,70.08,66.47ZM29.72,34.8a3.59,3.59,0,0,0-3.59,3.58V60.89a3.58,3.58,0,0,0,3.59,3.58H70.08a3.58,3.58,0,0,0,3.59-3.58V38.38a3.59,3.59,0,0,0-3.59-3.58Z"/>
    <path class="icon-dark" d="M45.18,61.71H30.76a1,1,0,1,1,0-2H45.18a1,1,0,0,1,0,2Z"/>
    <path class="icon-dark" d="M39.74,57.71h-9a1,1,0,1,1,0-2h9a1,1,0,0,1,0,2Z"/>
    <path class="icon-dark" d="M61,51.89a2,2,0,0,1-1.5-.57c-1.54-1.54.25-4.74,2.58-7.07s5.52-4.12,7.06-2.58h0c.42.42,1,1.43.09,3.42a13.39,13.39,0,0,1-2.67,3.65,13.13,13.13,0,0,1-3.65,2.66A4.61,4.61,0,0,1,61,51.89ZM67.6,43.1c-.55,0-2.2.63-4.14,2.57-2.14,2.14-2.69,3.93-2.55,4.28.27.07,2.07-.48,4.21-2.63s2.64-3.76,2.57-4.22Zm.07-.05Z"/>
    <path class="icon-dark" d="M58.82,51.89a4.57,4.57,0,0,1-1.9-.49,13.17,13.17,0,0,1-3.66-2.66,13.34,13.34,0,0,1-2.66-3.65c-.91-2-.34-3,.08-3.42,1.54-1.54,4.75.26,7.07,2.58a13.17,13.17,0,0,1,2.66,3.66c.91,2,.34,3-.08,3.41h0A2.05,2.05,0,0,1,58.82,51.89ZM52.2,43.1a.28.28,0,0,0-.14,0c-.08.28.48,2.06,2.62,4.2S58.46,50,58.9,49.89c.08-.45-.52-2.17-2.57-4.22S52.75,43.1,52.2,43.1ZM59,49.88Z"/>
    <path class="icon-dark" d="M54.87,56.71a1,1,0,0,1-.7-.3,1,1,0,0,1,0-1.41l4.88-4.88a1,1,0,0,1,1.42,0,1,1,0,0,1,0,1.41l-4.89,4.88A1,1,0,0,1,54.87,56.71Z"/>
    <path class="icon-dark" d="M64.71,56.71a1,1,0,0,1-.7-.3l-4.89-4.88a1,1,0,0,1,0-1.41,1,1,0,0,1,1.42,0L65.42,55a1,1,0,0,1-.71,1.71Z"/>
    <path class="icon-dark" d="M59.9,49.1a1,1,0,0,1-1-1V34.36a1,1,0,0,1,2,0V48.1A1,1,0,0,1,59.9,49.1Z"/>
    <path class="icon-dark" d="M59.83,66.26a1,1,0,0,1-1-1v-14a1,1,0,1,1,2,0v14A1,1,0,0,1,59.83,66.26Z"/>
    <path class="icon-dark" d="M74.27,52.56H60.87a1,1,0,0,1,0-2h13.4a1,1,0,0,1,0,2Z"/>
    <path class="icon-dark" d="M57.74,52.56H25.29a1,1,0,1,1,0-2H57.74a1,1,0,1,1,0,2Z"/>
  </g>
</svg>
