<svg class="triumph-svg-icon" xmlns="http://www.w3.org/2000/svg" width="1.38in" height="1.38in" viewBox="0 0 99.25 99.25">
  <defs>
    <style>
      .icon-accent {
        fill: #c8c9c7;
      }

      .icon-dark {
        fill: #000000;
      }
    </style>
  </defs>
  <g>
    <g>
      <path class="icon-accent" d="M46.51,57.43c-.06-2.5-.53-5.1-3.94-8a8.37,8.37,0,0,1-1.72-1.94c2.79,0,5.67-.13,8.92-4a8.06,8.06,0,0,1,2-1.73c.06,2.5.53,5.1,3.94,8a8.14,8.14,0,0,1,1.72,1.94c-2.76,0-5.67.12-8.92,4a8.28,8.28,0,0,1-2,1.73"/>
      <path class="icon-dark" d="M46,58.3l0-.86c0-2.29-.39-4.76-3.76-7.62a8.35,8.35,0,0,1-1.82-2.07L40,47h.88c2.5,0,5.34,0,8.54-3.78a8.5,8.5,0,0,1,2.09-1.84l.74-.44,0,.86c.06,2.29.4,4.76,3.77,7.62a8.72,8.72,0,0,1,1.82,2.06l.46.76H57.4c-2.5,0-5.33,0-8.54,3.78a8.32,8.32,0,0,1-2.09,1.84ZM41.82,48a9,9,0,0,0,1.07,1.06c3.23,2.74,3.92,5.25,4.08,7.45a8.6,8.6,0,0,0,1.13-1.13c3.08-3.63,5.93-4.07,8.33-4.12a9,9,0,0,0-1.07-1.07c-3.22-2.73-3.91-5.24-4.08-7.44a9.1,9.1,0,0,0-1.12,1.12C47.08,47.49,44.22,47.93,41.82,48Z"/>
    </g>
    <g>
      <path class="icon-dark" d="M33.49,43.67H24.33a3.2,3.2,0,0,1-3.2-3.2v-.56a3.2,3.2,0,0,1,3.2-3.2h5.5a1,1,0,0,1,0,2h-5.5a1.2,1.2,0,0,0-1.2,1.2v.56a1.2,1.2,0,0,0,1.2,1.2h9.16a1,1,0,0,1,0,2Z"/>
      <path class="icon-dark" d="M24.76,38.23a1,1,0,0,1-.62-.22,3.16,3.16,0,0,1-1.23-2.51v-.57a3.2,3.2,0,0,1,3.2-3.19h3.72a1,1,0,0,1,0,2H26.11a1.19,1.19,0,0,0-1.2,1.19v.57a1.17,1.17,0,0,0,.47.94,1,1,0,0,1,.17,1.4A1,1,0,0,1,24.76,38.23Z"/>
      <path class="icon-dark" d="M25.7,33.62a1.09,1.09,0,0,1-.39-.08,3.21,3.21,0,0,1-1.95-2.95V30a3.2,3.2,0,0,1,3.2-3.2h3.27a1,1,0,0,1,0,2H26.56a1.2,1.2,0,0,0-1.2,1.2v.56a1.19,1.19,0,0,0,.73,1.1,1,1,0,0,1-.39,1.93Z"/>
      <path class="icon-dark" d="M41.33,47.62H26.62a1,1,0,1,1,0-2H41.19c2.51,0,4.48,0,7-3a7.84,7.84,0,0,1,7.35-3V27.81a10.1,10.1,0,0,1-6-1.46,7.69,7.69,0,0,0-5.36-1.6H27.64a1.2,1.2,0,0,0-1.2,1.2v.56a1.21,1.21,0,0,0,.16.59,1,1,0,0,1-1.74,1,3.22,3.22,0,0,1-.42-1.58V26a3.21,3.21,0,0,1,3.2-3.2H44.17a9.54,9.54,0,0,1,6.48,1.95c1.71,1.15,3.91,1.12,5.37,1.1h.51a1,1,0,0,1,1,1V40.69a1,1,0,0,1-1,1c-.35,0-.7,0-1.07,0-1.87-.09-3.64-.19-5.75,2.3C46.65,47.55,43.94,47.62,41.33,47.62Z"/>
      <path class="icon-dark" d="M56.52,34.55a1,1,0,0,1-1-1V24.39a3.21,3.21,0,0,1,3.2-3.2h.57a3.2,3.2,0,0,1,3.19,3.2v5.5a1,1,0,1,1-2,0v-5.5a1.19,1.19,0,0,0-1.19-1.2h-.57a1.2,1.2,0,0,0-1.2,1.2v9.16A1,1,0,0,1,56.52,34.55Z"/>
      <path class="icon-dark" d="M66.45,30.89a1,1,0,0,1-1-1V26.17A1.19,1.19,0,0,0,64.26,25h-.57a1.16,1.16,0,0,0-.94.46,1,1,0,0,1-1.57-1.23A3.14,3.14,0,0,1,63.69,23h.57a3.19,3.19,0,0,1,3.19,3.19v3.72A1,1,0,0,1,66.45,30.89Z"/>
      <path class="icon-dark" d="M71.36,30.89a1,1,0,0,1-1-1V26.62a1.2,1.2,0,0,0-1.2-1.2H68.6a1.19,1.19,0,0,0-1.1.74,1,1,0,0,1-1.85-.79,3.21,3.21,0,0,1,2.95-1.95h.56a3.2,3.2,0,0,1,3.2,3.2v3.27A1,1,0,0,1,71.36,30.89Z"/>
      <path class="icon-dark" d="M72.39,57.59H58.5a1,1,0,0,1-1-1c0-.34,0-.7,0-1.06.09-1.88.19-3.65-2.3-5.76-3.67-3.12-3.67-5.87-3.67-8.52V26.69a1,1,0,0,1,2,0V41.25c0,2.5,0,4.48,3,7a7.85,7.85,0,0,1,3,7.34H71.38a10.48,10.48,0,0,1,1.46-6,7.68,7.68,0,0,0,1.6-5.36V27.7a1.2,1.2,0,0,0-1.2-1.2h-.56a1.21,1.21,0,0,0-.59.16,1,1,0,0,1-1.36-.37,1,1,0,0,1,.37-1.37,3.22,3.22,0,0,1,1.58-.42h.56a3.21,3.21,0,0,1,3.2,3.2V44.23a9.54,9.54,0,0,1-2,6.48c-1.15,1.71-1.12,3.91-1.1,5.37v.51A1,1,0,0,1,72.39,57.59Z"/>
      <path class="icon-dark" d="M73.93,62.53h-5.5a1,1,0,0,1,0-2h5.5a1.19,1.19,0,0,0,1.19-1.2v-.56a1.19,1.19,0,0,0-1.19-1.2H64.76a1,1,0,0,1,0-2h9.17a3.2,3.2,0,0,1,3.19,3.2v.56A3.19,3.19,0,0,1,73.93,62.53Z"/>
      <path class="icon-dark" d="M72.14,67.5H68.43a1,1,0,0,1,0-2h3.71a1.2,1.2,0,0,0,1.2-1.2v-.56a1.19,1.19,0,0,0-.46-.94,1,1,0,0,1,1.23-1.58,3.18,3.18,0,0,1,1.23,2.52v.56A3.2,3.2,0,0,1,72.14,67.5Z"/>
      <path class="icon-dark" d="M71.7,72.41H68.43a1,1,0,0,1,0-2H71.7a1.19,1.19,0,0,0,1.19-1.2v-.56a1.2,1.2,0,0,0-.73-1.11,1,1,0,1,1,.78-1.84,3.2,3.2,0,0,1,2,3v.56A3.2,3.2,0,0,1,71.7,72.41Z"/>
      <path class="icon-dark" d="M70.61,76.49H54.09a9.56,9.56,0,0,1-6.49-1.95c-1.7-1.15-3.91-1.13-5.36-1.1h-.52a1,1,0,0,1-1-1V58.55a1,1,0,0,1,1-1l1.07,0c1.87.1,3.64.2,5.76-2.29,3.11-3.67,5.89-3.66,8.52-3.67H71.63a1,1,0,0,1,0,2H57.07c-2.49,0-4.48,0-7,3a7.82,7.82,0,0,1-7.35,3V71.43a10.45,10.45,0,0,1,6,1.46,7.72,7.72,0,0,0,5.37,1.6H70.61a1.2,1.2,0,0,0,1.2-1.2v-.56a1.11,1.11,0,0,0-.16-.59A1,1,0,0,1,72,70.77a1,1,0,0,1,1.36.38,3.11,3.11,0,0,1,.42,1.58v.56A3.2,3.2,0,0,1,70.61,76.49Z"/>
      <path class="icon-dark" d="M39.53,78.05H39a3.21,3.21,0,0,1-3.2-3.2v-5.5a1,1,0,0,1,2,0v5.5a1.2,1.2,0,0,0,1.2,1.2h.56a1.2,1.2,0,0,0,1.2-1.2V65.68a1,1,0,0,1,2,0v9.17A3.2,3.2,0,0,1,39.53,78.05Z"/>
      <path class="icon-dark" d="M34.56,76.26H34a3.19,3.19,0,0,1-3.2-3.19V69.35a1,1,0,1,1,2,0v3.72A1.19,1.19,0,0,0,34,74.26h.56a1.19,1.19,0,0,0,.94-.46A1,1,0,0,1,37.08,75,3.19,3.19,0,0,1,34.56,76.26Z"/>
      <path class="icon-dark" d="M29.65,75.82h-.56a3.21,3.21,0,0,1-3.2-3.2V69.35a1,1,0,0,1,2,0v3.27a1.2,1.2,0,0,0,1.2,1.2h.56a1.2,1.2,0,0,0,1.11-.74,1,1,0,0,1,1.84.78A3.2,3.2,0,0,1,29.65,75.82Z"/>
      <path class="icon-dark" d="M25.58,74.73H25a3.19,3.19,0,0,1-3.19-3.19V55a9.57,9.57,0,0,1,1.94-6.49c1.15-1.7,1.12-3.9,1.11-5.36v-.51a1,1,0,0,1,1-1H39.75a1,1,0,0,1,1,1c0,.34,0,.7,0,1.06-.1,1.88-.19,3.65,2.29,5.76,3.67,3.11,3.67,5.86,3.67,8.52V72.55a1,1,0,0,1-2,0V58c0-2.5,0-4.48-3-7a7.86,7.86,0,0,1-3-7.35H26.87a10.37,10.37,0,0,1-1.46,6A7.71,7.71,0,0,0,23.82,55V71.54A1.19,1.19,0,0,0,25,72.73h.57a1.19,1.19,0,0,0,.58-.15,1,1,0,1,1,1,1.73A3.11,3.11,0,0,1,25.58,74.73Z"/>
    </g>
  </g>
</svg>
