<svg class="triumph-svg-icon" xmlns="http://www.w3.org/2000/svg" width="1.38in" height="1.38in" viewBox="0 0 99.25 99.25">
  <defs>
    <style>
      .secondary {
        fill: #000000;
      }

      .primary {
        fill: #c8c9c7;
      }
    </style>
  </defs>
  <g>
    <path class="secondary" d="M49.33,68.84a19,19,0,1,1,19-19A19,19,0,0,1,49.33,68.84Zm0-36a17,17,0,1,0,17,17A17,17,0,0,0,49.33,32.88Z"/>
    <path class="secondary" d="M49.33,76.36a26.51,26.51,0,1,1,26.51-26.5A26.53,26.53,0,0,1,49.33,76.36Zm0-51A24.51,24.51,0,1,0,73.84,49.86,24.54,24.54,0,0,0,49.33,25.35Z"/>
    <g>
      <polygon class="primary" points="70.54 29.32 49.46 49.69 42.99 43.21 37.8 48.35 49.26 60.22 75.73 34.51 70.54 29.32"/>
      <path class="secondary" d="M49.26,61.22h0a.93.93,0,0,1-.7-.31L37.08,49.05a1,1,0,0,1,0-1.41l5.19-5.14a1,1,0,0,1,1.41,0l5.78,5.78L69.85,28.6a1,1,0,0,1,1.4,0l5.19,5.19a1,1,0,0,1,0,1.43L50,60.94A1,1,0,0,1,49.26,61.22ZM39.2,48.37,49.28,58.8l25-24.3-3.78-3.78L50.16,50.41a1,1,0,0,1-1.41,0L43,44.62Z"/>
    </g>
  </g>
</svg>
