<svg class="triumph-svg-icon" xmlns="http://www.w3.org/2000/svg" width="1.38in" height="1.38in" viewBox="0 0 99.25 99.25">
  <defs>
    <style>
      .icon-accent {
        fill: #c8c9c7;
      }

      .icon-dark {
        fill: #000000;
      }
    </style>
  </defs>
  <g>
    <path class="icon-accent" d="M44.42,53.42l-.08-3.36,4.82-1.68,4-3.06,4.23.21,2.77,3.69L64,50.61l3.52,1.84-.42,2.69-5.94,2.57s-.89-1.57-2.23-1.53l-7.53.24-3.09-2Z"/>
    <g>
      <path class="icon-accent" d="M67.94,53s-2.34-2.5-4.67-2.67A5.75,5.75,0,0,1,58.43,47c-1.09-1.92-5.09-2.75-7.85-.25s-3.92,1.76-5.5,2.76-1.67,3.59-1.67,3.59"/>
      <path class="icon-dark" d="M43.41,54.12h0a1,1,0,0,1-1-1.06c0-.32.16-3.17,2.15-4.42a5.93,5.93,0,0,1,2-.77A6.72,6.72,0,0,0,49.89,46a7,7,0,0,1,5.79-1.74,5,5,0,0,1,3.64,2.25,4.74,4.74,0,0,0,4,2.82c2.71.19,5.25,2.88,5.35,3a1,1,0,0,1-1.5,1.4c-.58-.61-2.42-2.23-4-2.34a6.75,6.75,0,0,1-5.66-3.86,3,3,0,0,0-2.17-1.23,4.93,4.93,0,0,0-4.08,1.23A8.71,8.71,0,0,1,47,49.86a4.28,4.28,0,0,0-1.37.52c-.92.57-1.17,2.18-1.2,2.75A1,1,0,0,1,43.41,54.12Z"/>
    </g>
    <path class="icon-dark" d="M55,45.18h-.11a1,1,0,0,1-.88-1.1c.05-.45,1.31-11,9.43-16.73a1,1,0,0,1,1.39.24,1,1,0,0,1-.24,1.4C57.26,34.15,56.05,44.19,56,44.29A1,1,0,0,1,55,45.18Z"/>
    <path class="icon-dark" d="M59.8,40.84a1,1,0,0,1-.19-2c3.69-.72,6.27-2.41,7.67-5,2.2-4.11,1.08-9.58.25-12.42a17.5,17.5,0,0,1-5.11,2.68c-3.2,1.29-6.82,2.74-8,5.84-2.18,5.59,1.66,8.47,1.82,8.59A1,1,0,0,1,55,40.15s-5.27-3.87-2.52-10.94c1.53-3.9,5.58-5.53,9.15-7,2.49-1,4.83-1.94,5.17-3.34a1,1,0,0,1,.89-.76,1,1,0,0,1,1,.61c.16.39,3.85,9.43.31,16C67.35,38,64.3,40,60,40.82Z"/>
    <path class="icon-dark" d="M46.3,44.4a9,9,0,0,1-6.67-2.47c-3.22-3.24-2.75-8.41-2.73-8.63A1,1,0,0,1,38,32.4c4.28.28,7.36,1.63,9.16,4a9.32,9.32,0,0,1,1.52,7.11,1,1,0,0,1-.89.78C47.25,44.37,46.77,44.4,46.3,44.4Zm1.36-1.07h0Zm0,0h0Zm-8.78-8.84a9,9,0,0,0,2.17,6,7.37,7.37,0,0,0,5.73,1.86,7.14,7.14,0,0,0-1.27-4.77C44.21,35.9,42,34.85,38.88,34.49Z"/>
    <path class="icon-dark" d="M40.35,72.6a1,1,0,0,1-.7-.29,1,1,0,0,1,0-1.41l.15-.17a3.86,3.86,0,0,1,3.09-1.37H60.5c1.33-.46,7.75-6.68,9.44-8.54a71.67,71.67,0,0,0,5.86-9.21,4.66,4.66,0,0,0-3.65-.49c-1.71.38-2.82,1.53-4.42,4.57a1,1,0,0,1-.48.45l-5.68,2.49a1,1,0,0,1-1.32-.52,1,1,0,0,1,.52-1.31l5.36-2.36c1.56-2.9,3-4.7,5.58-5.27,2.85-.67,5.16.37,6.09,1.62a1,1,0,0,1,.12,1,67.84,67.84,0,0,1-6.5,10.38c-.08.09-8.7,9.19-10.85,9.19H42.89a1.83,1.83,0,0,0-1.63.75l-.2.2A1,1,0,0,1,40.35,72.6Zm20.11-3.23Z"/>
    <path class="icon-dark" d="M58.08,63.74H48a1,1,0,0,1,0-2H58.08c1.94,0,2.81-1.09,2.81-2.16s-.87-2.16-2.81-2.16H51.41A4.5,4.5,0,0,1,49,56.15a5.43,5.43,0,0,0-2.23-1.27H40.4c-1.26,0-3.17,1.14-4.4,2.27-1.84,1.89-5,5-5.05,5.06a1,1,0,1,1-1.41-1.43s3.2-3.15,5.07-5.06c1.44-1.33,3.79-2.84,5.79-2.84h6.33a6.18,6.18,0,0,1,3.45,1.69,6.43,6.43,0,0,0,1.27.85h6.63c3.16,0,4.81,2.09,4.81,4.16S61.24,63.74,58.08,63.74Z"/>
    <g>
      <rect class="icon-accent" x="27.71" y="58.97" width="8.96" height="21.46" transform="translate(-39.86 43.18) rotate(-45)"/>
      <path class="icon-dark" d="M36.61,81.49a1,1,0,0,1-.73-.3L20.71,66a1,1,0,0,1,0-1.45l6.34-6.34a1,1,0,0,1,1.45,0L43.67,73.4a1,1,0,0,1,0,1.45l-6.33,6.34A1,1,0,0,1,36.61,81.49ZM22.89,65.29,36.61,79l4.89-4.89L27.77,60.4Z"/>
    </g>
    <path class="icon-dark" d="M30.25,68.82a1,1,0,0,1-.71-.29L27,66a1,1,0,0,1,0-1.42,1,1,0,0,1,1.41,0L31,67.11a1,1,0,0,1-.7,1.71Z"/>
  </g>
</svg>
