<svg class="triumph-svg-icon" xmlns="http://www.w3.org/2000/svg" width="1.38in" height="1.38in" viewBox="0 0 99.25 99.25">
  <defs>
    <style>
      .cls-1 {
        fill: #000000;
      }

      .cls-2 {
        fill: #808080;
      }
    </style>
  </defs>
  <g>
    <path class="cls-1" d="M60.23,76.45H38.76a1,1,0,0,1-1-1V69.86a1,1,0,0,1,1-1H60.23a1,1,0,0,1,1,1v5.59A1,1,0,0,1,60.23,76.45Zm-20.47-2H59.23V70.86H39.76Z"/>
    <path class="cls-1" d="M52.4,70.63H46.25a1,1,0,0,1-1-1V27.88a4.08,4.08,0,0,1,8.15,0V69.63A1,1,0,0,1,52.4,70.63Zm-5.15-2H51.4V27.88a2.08,2.08,0,0,0-4.15,0Z"/>
    <g>
      <polygon class="cls-2" points="28.71 46.83 46.25 46.83 46.25 37.77 28.71 37.77 24.17 42.02 28.71 46.83"/>
      <path class="cls-1" d="M46.25,47.83H28.71a1,1,0,0,1-.73-.32l-4.54-4.8a1,1,0,0,1,0-1.42L28,37a1,1,0,0,1,.69-.27H46.25a1,1,0,0,1,1,1v9.06A1,1,0,0,1,46.25,47.83Zm-17.11-2H45.25V38.77H29.1l-3.52,3.29Z"/>
    </g>
    <g>
      <polygon class="cls-2" points="70.05 30.79 52.51 30.79 52.51 39.84 70.05 39.84 74.59 35.59 70.05 30.79"/>
      <path class="cls-1" d="M70.05,40.84H52.51a1,1,0,0,1-1-1V30.79a1,1,0,0,1,1-1H70.05a1,1,0,0,1,.73.31l4.54,4.81a1,1,0,0,1,.27.71,1,1,0,0,1-.31.7l-4.54,4.25A1,1,0,0,1,70.05,40.84Zm-16.54-2H69.66l3.52-3.29-3.56-3.76H53.51Z"/>
    </g>
    <g>
      <polygon class="cls-2" points="70.05 44.73 52.51 44.73 52.51 53.79 70.05 53.79 74.59 49.54 70.05 44.73"/>
      <path class="cls-1" d="M70.05,54.79H52.51a1,1,0,0,1-1-1V44.73a1,1,0,0,1,1-1H70.05a1,1,0,0,1,.73.31l4.54,4.81a1,1,0,0,1,0,1.42l-4.54,4.25A1,1,0,0,1,70.05,54.79Zm-16.54-2H69.66l3.52-3.29-3.56-3.77H53.51Z"/>
    </g>
  </g>
</svg>
