<svg xmlns="http://www.w3.org/2000/svg" viewBox="0 0 99.25 99.25"><defs><style>.cls-1{fill:#c8c9c7;}.cls-1,.cls-2,.cls-3{stroke:#000;stroke-linecap:round;stroke-linejoin:round;}.cls-1,.cls-3{stroke-width:2.06px;}.cls-2{fill:none;stroke-width:2px;}.cls-3{fill:#fff;}</style></defs><g id="Icons"><path class="cls-1" d="M68.86,44.48c-2.39-7.26-11-12.65-21.31-12.65a38.28,38.28,0,0,0-8.88,1.08S36.14,29,26.53,29.51a40.51,40.51,0,0,1,4.24,8.24,15.61,15.61,0,0,0-4.65,7.09H22v11h5.73a18.46,18.46,0,0,0,5.91,5.7l-2,8.24h9.44l1.44-4.94a29.38,29.38,0,0,0,5,.45,29.05,29.05,0,0,0,5.26-.5l1.45,5h9.45L61.65,61.4c4.82-3.07,7.75-7.68,7.9-12.84A14.22,14.22,0,0,0,68.86,44.48Z"/><path class="cls-2" d="M69.36,45.31s4.44,3.3,7.85-1.14"/><circle cx="33.88" cy="43.77" r="1.65"/><polygon class="cls-3" points="56.86 46.45 50.62 46.45 50.62 40.21 45.33 40.21 45.33 46.45 39.09 46.45 39.09 51.74 45.33 51.74 45.33 57.98 50.62 57.98 50.62 51.74 56.86 51.74 56.86 46.45"/></g></svg>