<svg class="triumph-svg-icon" xmlns="http://www.w3.org/2000/svg" viewBox="0 0 99.25 99.25">
  <defs>
    <style>
      .icon-accent
        fill: #c8c9c7;
      }

      .icon-dark {
        fill: #000000;
      }
    </style>
  </defs>
  <g>
    <g>
      <path class="icon-accent" d="M69.55,48.6a14.22,14.22,0,0,0-.69-4.08c-2.39-7.26-11-12.65-21.31-12.65A38.28,38.28,0,0,0,38.67,33s-2.53-3.87-12.14-3.41a40.73,40.73,0,0,1,4.24,8.25,15.56,15.56,0,0,0-4.65,7.09H22v11h5.73a18.46,18.46,0,0,0,5.91,5.7l-2,8.24h9.44l1.44-4.94a29.38,29.38,0,0,0,5,.45,29.05,29.05,0,0,0,5.26-.5l1.45,5h9.45l-2.06-8.38C66.47,58.37,69.4,53.76,69.55,48.6ZM56.86,51.78H50.62V58H45.33V51.78H39.09V46.49h6.24V40.25h5.29v6.24h6.24Z"/>
      <path class="icon-dark" d="M63.71,70.85H54.26a1,1,0,0,1-1-.74L52.08,66a29,29,0,0,1-8.82,0l-1.18,4.08a1,1,0,0,1-1,.74H31.65a1,1,0,0,1-.81-.39,1,1,0,0,1-.19-.88L32.5,62a19.58,19.58,0,0,1-5.28-5.13H22a1,1,0,0,1-1-1v-11a1,1,0,0,1,1-1h3.33a16.86,16.86,0,0,1,4.2-6.35,40.71,40.71,0,0,0-3.89-7.38,1,1,0,0,1,.8-1.6c7.93-.39,11.37,2.11,12.55,3.29a39.52,39.52,0,0,1,8.52-1c10.53,0,19.69,5.49,22.29,13.36a15.34,15.34,0,0,1,.74,4.43c-.15,5.18-3,10-7.76,13.26l1.89,7.69a1,1,0,0,1-.19.88A1,1,0,0,1,63.71,70.85ZM55,68.79H62.4l-1.75-7.11a1,1,0,0,1,.44-1.11c4.59-2.92,7.3-7.29,7.43-12h0a13.54,13.54,0,0,0-.63-3.73c-2.32-7-10.69-11.94-20.34-11.94a37.86,37.86,0,0,0-8.62,1,1,1,0,0,1-1.12-.43s-2.12-2.9-9.43-3a38.39,38.39,0,0,1,3.36,6.93,1.05,1.05,0,0,1-.28,1.1,14.57,14.57,0,0,0-4.36,6.62,1,1,0,0,1-1,.73H23.07v8.94h4.7a1,1,0,0,1,.86.48,17.66,17.66,0,0,0,5.59,5.37,1,1,0,0,1,.45,1.12l-1.71,7h7.36l1.22-4.2a1,1,0,0,1,1.17-.73,26.85,26.85,0,0,0,9.91,0,1,1,0,0,1,1.18.72ZM50.62,59H45.33a1,1,0,0,1-1-1V52.81H39.09a1,1,0,0,1-1-1V46.49a1,1,0,0,1,1-1H44.3V40.25a1,1,0,0,1,1-1h5.29a1,1,0,0,1,1,1v5.21h5.21a1,1,0,0,1,1,1v5.29a1,1,0,0,1-1,1H51.65V58A1,1,0,0,1,50.62,59Zm-4.26-2H49.6V51.78a1,1,0,0,1,1-1h5.21V47.51H50.62a1,1,0,0,1-1-1V41.28H46.36v5.21a1,1,0,0,1-1,1H40.12v3.24h5.21a1,1,0,0,1,1,1Z"/>
    </g>
    <path class="icon-dark" d="M72.93,47.54a7.31,7.31,0,0,1-4.17-1.39,1,1,0,0,1-.2-1.4A1,1,0,0,1,70,44.54a4.48,4.48,0,0,0,6.47-.94A1,1,0,1,1,78,44.82,6.24,6.24,0,0,1,72.93,47.54Z"/>
    <circle class="icon-dark" cx="33.88" cy="43.81" r="1.65"/>
  </g>
</svg>
