<svg class="triumph-svg-icon" xmlns="http://www.w3.org/2000/svg" width="1.38in" height="1.38in" viewBox="0 0 99.25 99.25">
  <defs>
    <style>
      .icon-dark {
        fill: #000000;
      }

      .icon-accent {
        fill: #c8c9c7;
      }
    </style>
  </defs>
  <g>
    <g>
      <path class="icon-dark" d="M59,68.27H22.05a1,1,0,1,1,0-2H59a1,1,0,1,1,0,2Z"/>
      <g>
        <path class="icon-accent" d="M58.92,67.21a9.67,9.67,0,0,1-.35-2.54,9.43,9.43,0,0,1,7.71-9.27V40.58L50.09,33.46,33.92,40.58V67.13l12.15,0V56.41h7.65V67.2ZM47.41,52.67H40.72V46.29h6.69Zm5.11,0V46.29h6.69v6.38Z"/>
        <path class="icon-dark" d="M58.93,68.21H53.72a1,1,0,0,1-1-1V57.41H47.07v9.76a1,1,0,0,1-1,1h0l-12.15,0a1,1,0,0,1-1-1V40.58a1,1,0,0,1,.6-.92l16.17-7.11a1,1,0,0,1,.8,0l16.19,7.11a1,1,0,0,1,.6.92V55.4a1,1,0,0,1-.82,1,8.39,8.39,0,0,0-6.57,10.55,1,1,0,0,1-.17.88A1,1,0,0,1,58.93,68.21Zm-4.21-2h3a10,10,0,0,1-.12-1.54A10.43,10.43,0,0,1,65.28,54.6V41.23L50.09,34.56,34.92,41.23v24.9l10.15,0V56.41a1,1,0,0,1,1-1h7.65a1,1,0,0,1,1,1Zm4.49-12.53H52.52a1,1,0,0,1-1-1V46.29a1,1,0,0,1,1-1h6.69a1,1,0,0,1,1,1v6.38A1,1,0,0,1,59.21,53.67Zm-5.69-2h4.69V47.29H53.52Zm-6.11,2H40.72a1,1,0,0,1-1-1V46.29a1,1,0,0,1,1-1h6.69a1,1,0,0,1,1,1v6.38A1,1,0,0,1,47.41,53.67Zm-5.69-2h4.69V47.29H41.72Z"/>
      </g>
    </g>
    <path class="icon-dark" d="M68,75.05A10.44,10.44,0,1,1,78.46,64.62,10.44,10.44,0,0,1,68,75.05Zm0-18.87a8.44,8.44,0,1,0,8.44,8.44A8.45,8.45,0,0,0,68,56.18Z"/>
    <g>
      <path class="icon-dark" d="M68,69.37a3.44,3.44,0,0,1-3.43-2.83A1,1,0,0,1,66.51,66c.34,1.22,1,1.37,1.5,1.37.72,0,1.07-.32,1.07-1s-.17-.75-1.36-1.05-2.8-.71-2.8-2.89c0-1.31.87-2.84,3.33-2.84a3,3,0,0,1,2.9,2.77,1,1,0,1,1-2,.15c0-.19-.22-.92-.91-.92-1.33,0-1.33.63-1.33.84,0,.52.1.65,1.29,1s2.87.73,2.87,3A2.87,2.87,0,0,1,68,69.37Z"/>
      <path class="icon-dark" d="M68.09,61.52a1,1,0,0,1-1-1V59.09a1,1,0,0,1,2,0v1.43A1,1,0,0,1,68.09,61.52Z"/>
      <path class="icon-dark" d="M68.09,71.06a1,1,0,0,1-1-1V68.63a1,1,0,0,1,2,0v1.43A1,1,0,0,1,68.09,71.06Z"/>
    </g>
    <path class="icon-dark" d="M69,39.5a1,1,0,0,1-.41-.09L50.14,31.12,31.85,39.41A1,1,0,1,1,31,37.59l18.71-8.48a1,1,0,0,1,.82,0L69.4,37.59A1,1,0,0,1,69,39.5Z"/>
    <path class="icon-dark" d="M24.74,67.72a1,1,0,0,1-1-1,5,5,0,0,1,1.52-3.87,5.87,5.87,0,0,1,3.38-1.42,5,5,0,0,1,1.42-3,5.5,5.5,0,0,1,3.58-1.45,1,1,0,0,1,0,2h0c-.51,0-3,.18-3,3.46a1,1,0,0,1-.32.73,1,1,0,0,1-.75.27,4.44,4.44,0,0,0-2.9.93,3.14,3.14,0,0,0-.87,2.4A1,1,0,0,1,24.74,67.72Z"/>
  </g>
</svg>
