<svg class="triumph-svg-icon" xmlns="http://www.w3.org/2000/svg" width="1.38in" height="1.38in" viewBox="0 0 99.15 99.16">
  <defs>
    <style>
      .secondary {
        fill: #000000;
      }

      .primary {
        fill: #c8c9c7;
      }
    </style>
  </defs>
  <g>
    <path class="secondary" d="M49.29,68.07A18.79,18.79,0,1,1,68.08,49.28,18.81,18.81,0,0,1,49.29,68.07Zm0-36.58A17.79,17.79,0,1,0,67.08,49.28,17.82,17.82,0,0,0,49.29,31.49ZM60.22,61.55H38.36V59.4c0-3.75,7.23-5.38,10.93-5.38s10.93,1.63,10.93,5.38Zm-20.86-1H59.22V59.4c0-2.83-6.56-4.38-9.93-4.38s-9.93,1.55-9.93,4.38Zm9.93-9.43a5.55,5.55,0,0,1-5.74-5.74V42.76A5.5,5.5,0,0,1,49.29,37,5.56,5.56,0,0,1,55,42.76v2.62A5.49,5.49,0,0,1,49.29,51.12Zm0-13.11a4.53,4.53,0,0,0-4.74,4.75v2.62a4.74,4.74,0,1,0,9.48,0V42.76A4.54,4.54,0,0,0,49.29,38Z"/>
    <g>
      <g>
        <path class="primary" d="M59.72,61.05H38.86V59.4c0-3.23,6.83-4.88,10.43-4.88s10.43,1.65,10.43,4.88ZM44.05,42.76a5.24,5.24,0,0,1,10.48,0v2.62a5.24,5.24,0,1,1-10.48,0ZM49.29,31A18.29,18.29,0,1,0,67.58,49.28,18.27,18.27,0,0,0,49.29,31Z"/>
        <path class="secondary" d="M49.29,68.57A19.29,19.29,0,1,1,68.58,49.28,19.32,19.32,0,0,1,49.29,68.57Zm0-36.58A17.29,17.29,0,1,0,66.58,49.28,17.32,17.32,0,0,0,49.29,32ZM59.72,62.05H38.86a1,1,0,0,1-1-1V59.4c0-4.15,7.44-5.88,11.43-5.88,3.05,0,11.43,1.4,11.43,5.88v1.65A1,1,0,0,1,59.72,62.05Zm-19.86-2H58.72V59.4c0-2.14-5.71-3.88-9.43-3.88s-9.43,1.74-9.43,3.88Zm9.43-8.43a6,6,0,0,1-6.24-6.24V42.76a6.24,6.24,0,1,1,12.48,0v2.62A6,6,0,0,1,49.29,51.62Zm0-13.11a4,4,0,0,0-4.24,4.25v2.62a4.24,4.24,0,1,0,8.48,0V42.76A4.07,4.07,0,0,0,49.29,38.51Z"/>
      </g>
      <path class="secondary" d="M49.29,29.37a1,1,0,0,1-1-1V19.22a1,1,0,1,1,2,0v9.15A1,1,0,0,1,49.29,29.37Z"/>
      <path class="secondary" d="M54.53,25.46a1,1,0,0,1-.71-.29l-4.53-4.53-4.54,4.53a1,1,0,1,1-1.41-1.41l5.24-5.24a1,1,0,0,1,1.41,0l5.24,5.24a1,1,0,0,1,0,1.41A1,1,0,0,1,54.53,25.46Z"/>
      <path class="secondary" d="M49.29,80.34a1,1,0,0,1-1-1V70.19a1,1,0,0,1,2,0v9.15A1,1,0,0,1,49.29,80.34Z"/>
      <path class="secondary" d="M49.29,80.34a1,1,0,0,1-.71-.29l-5.24-5.24a1,1,0,0,1,0-1.42,1,1,0,0,1,1.41,0l4.54,4.54,4.53-4.54a1,1,0,0,1,1.41,0,1,1,0,0,1,0,1.42L50,80.05A1,1,0,0,1,49.29,80.34Z"/>
      <path class="secondary" d="M28.37,50.28H19.23a1,1,0,0,1,0-2h9.14a1,1,0,1,1,0,2Z"/>
      <path class="secondary" d="M24.47,55.52a1,1,0,0,1-.71-.29L18.52,50a1,1,0,0,1,0-1.42l5.24-5.24a1,1,0,0,1,1.42,1.42l-4.54,4.53,4.54,4.54a1,1,0,0,1,0,1.41A1,1,0,0,1,24.47,55.52Z"/>
      <path class="secondary" d="M79.34,50.28H70.2a1,1,0,0,1,0-2h9.14a1,1,0,0,1,0,2Z"/>
      <path class="secondary" d="M74.1,55.52a1,1,0,0,1-.7-.29,1,1,0,0,1,0-1.41l4.53-4.54L73.4,44.75a1,1,0,0,1,0-1.42,1,1,0,0,1,1.41,0l5.24,5.24a1,1,0,0,1,0,1.42l-5.24,5.24A1,1,0,0,1,74.1,55.52Z"/>
      <path class="secondary" d="M33.61,34.61a1,1,0,0,1-.7-.29l-6.53-6.53a1,1,0,0,1,0-1.41,1,1,0,0,1,1.42,0l6.52,6.52a1,1,0,0,1-.71,1.71Z"/>
      <path class="secondary" d="M27.09,34.61a1,1,0,0,1-1-1V27.09a1,1,0,0,1,1-1h6.52a1,1,0,0,1,0,2H28.09v5.52A1,1,0,0,1,27.09,34.61Z"/>
      <path class="secondary" d="M65,34.61a1,1,0,0,1-.71-.29,1,1,0,0,1,0-1.42l6.53-6.52a1,1,0,0,1,1.41,1.41l-6.53,6.53A1,1,0,0,1,65,34.61Z"/>
      <path class="secondary" d="M71.48,34.61a1,1,0,0,1-1-1V28.09H65a1,1,0,0,1,0-2h6.52a1,1,0,0,1,1,1v6.52A1,1,0,0,1,71.48,34.61Z"/>
      <path class="secondary" d="M27.09,72.48a1,1,0,0,1-.71-.29,1,1,0,0,1,0-1.42l6.53-6.52a1,1,0,0,1,1.41,0,1,1,0,0,1,0,1.41L27.8,72.19A1,1,0,0,1,27.09,72.48Z"/>
      <path class="secondary" d="M33.61,72.48H27.09a1,1,0,0,1-1-1V65a1,1,0,0,1,2,0v5.53h5.52a1,1,0,0,1,0,2Z"/>
      <path class="secondary" d="M71.48,72.48a1,1,0,0,1-.7-.29l-6.53-6.53a1,1,0,0,1,0-1.41,1,1,0,0,1,1.41,0l6.53,6.52a1,1,0,0,1,0,1.42A1,1,0,0,1,71.48,72.48Z"/>
      <path class="secondary" d="M71.48,72.48H65a1,1,0,1,1,0-2h5.52V65a1,1,0,0,1,2,0v6.53A1,1,0,0,1,71.48,72.48Z"/>
    </g>
  </g>
</svg>
