<svg class="triumph-svg-icon" xmlns="http://www.w3.org/2000/svg" width="1.38in" height="1.38in" viewBox="0 0 99.25 99.25">
  <defs>
    <style>
      .secondary {
        fill: #000000;
      }

      .primary {
        fill: #c8c9c7;
      }
    </style>
  </defs>
  <g>
    <path class="secondary" d="M31.28,62a1,1,0,0,1-.84-.45,21.29,21.29,0,1,1,39-12.88,1,1,0,0,1-.94,1,1,1,0,0,1-1.05-.94A19.34,19.34,0,0,0,53.81,31.38a19.29,19.29,0,0,0-21.7,29.11,1,1,0,0,1-.28,1.38A.94.94,0,0,1,31.28,62Z"/>
    <g>
      <circle class="primary" cx="48.28" cy="49.68" r="14.6" transform="translate(-14.2 79.59) rotate(-71.4)"/>
      <path class="secondary" d="M48.3,65.29A15.62,15.62,0,1,1,63.2,54.23h0A15.63,15.63,0,0,1,48.3,65.29Zm0-29.22a13.6,13.6,0,1,0,4,.59A13.59,13.59,0,0,0,48.26,36.07Zm14,17.86h0Z"/>
    </g>
    <path class="secondary" d="M48.39,55.94c-2.27,0-3.9-1.36-4.59-3.83a1,1,0,0,1,.7-1.23,1,1,0,0,1,1.23.69c.59,2.12,1.8,2.37,2.66,2.37a1.8,1.8,0,0,0,2-1.95c0-1.29-.61-1.56-2.35-2-1.5-.38-3.77-1-3.77-3.78,0-1.72,1.16-3.71,4.43-3.71a3.89,3.89,0,0,1,3.8,3.63,1,1,0,0,1-2,.15,1.92,1.92,0,0,0-1.8-1.78c-1.11,0-2.43.29-2.43,1.71,0,1.17.55,1.41,2.26,1.84,1.53.39,3.86,1,3.86,3.94A3.79,3.79,0,0,1,48.39,55.94Z"/>
    <path class="secondary" d="M48.51,44.4a1,1,0,0,1-1-1V41.3a1,1,0,0,1,2,0v2.1A1,1,0,0,1,48.51,44.4Z"/>
    <path class="secondary" d="M48.51,58.41a1,1,0,0,1-1-1v-2.1a1,1,0,0,1,2,0v2.1A1,1,0,0,1,48.51,58.41Z"/>
    <path class="secondary" d="M26.69,72.35A1,1,0,0,1,26,70.64L40.33,56.29a1,1,0,0,1,1.41,0l11.8,11.8L70.73,51.18a1,1,0,0,1,1.41,0,1,1,0,0,1,0,1.42l-17.9,17.6a1,1,0,0,1-1.41,0L41,58.41,27.4,72.05A1,1,0,0,1,26.69,72.35Z"/>
    <path class="secondary" d="M71.43,58.13a1,1,0,0,1-1-1V52.9H65.76a1,1,0,0,1,0-2h5.67a1,1,0,0,1,1,1v5.23A1,1,0,0,1,71.43,58.13Z"/>
  </g>
</svg>
