<svg class="triumph-svg-icon" xmlns="http://www.w3.org/2000/svg" width="1.38in" height="1.38in" viewBox="0 0 99.25 99.25">
  <defs>
    <style>
      .primary {
        fill: #c8c9c7;
      }

      .secondary {
        fill: #000000;
      }
    </style>
  </defs>
  <g>
    <g>
      <path class="primary" d="M46.88,56.41c1.3,0,2.89,2,3.72,2h5.3a3.1,3.1,0,0,1,2.48,1l3.56-1.56a10.75,10.75,0,0,0,1.49-5.48A10.16,10.16,0,0,0,53.56,42,10.16,10.16,0,0,0,43.68,52.4a10.88,10.88,0,0,0,.76,4Z"/>
      <path class="secondary" d="M58.38,60.47a1,1,0,0,1-.79-.37,2.13,2.13,0,0,0-1.69-.65H50.6a3.78,3.78,0,0,1-2.09-1.05c-.5-.38-1.25-1-1.63-1H44.44a1,1,0,0,1-1-.65,11.88,11.88,0,0,1-.83-4.38A11.2,11.2,0,0,1,53.56,40.94c6,0,10.9,5.14,10.9,11.46a11.9,11.9,0,0,1-1.63,6,1,1,0,0,1-.47.42l-3.57,1.57A1.15,1.15,0,0,1,58.38,60.47ZM55.9,57.4a4.39,4.39,0,0,1,2.69.83l2.63-1.15A9.88,9.88,0,0,0,62.4,52.4,9.14,9.14,0,0,0,53.56,43a9.14,9.14,0,0,0-8.85,9.4,10,10,0,0,0,.45,3h1.72a5.1,5.1,0,0,1,2.88,1.39,6.58,6.58,0,0,0,.93.64Z"/>
    </g>
    <g>
      <path class="secondary" d="M53.41,55.3a3.31,3.31,0,0,1-3.29-2.72,1,1,0,1,1,1.93-.53c.31,1.1.86,1.25,1.36,1.25s1-.28,1-.89-.1-.64-1.24-.93-2.69-.69-2.69-2.78c0-1.26.84-2.74,3.2-2.74a2.86,2.86,0,0,1,2.8,2.67,1,1,0,0,1-.93,1.07,1,1,0,0,1-1.07-.93c0-.16-.19-.81-.8-.81-1.2,0-1.2.54-1.2.74,0,.44,0,.55,1.18.84s2.75.69,2.75,2.87A2.8,2.8,0,0,1,53.41,55.3Z"/>
      <path class="secondary" d="M53.49,47.9a1,1,0,0,1-1-1V45.56a1,1,0,0,1,2,0V46.9A1,1,0,0,1,53.49,47.9Z"/>
      <path class="secondary" d="M53.49,56.89a1,1,0,0,1-1-1V54.54a1,1,0,0,1,2,0v1.35A1,1,0,0,1,53.49,56.89Z"/>
    </g>
    <path class="secondary" d="M53.73,42.54h-.11a1,1,0,0,1-.88-1.1c0-.28.8-6.77,5.79-10.28a1,1,0,0,1,1.4.25,1,1,0,0,1-.25,1.39c-4.24,3-5,8.8-5,8.86A1,1,0,0,1,53.73,42.54Z"/>
    <path class="secondary" d="M57.84,39.86a1,1,0,0,1-.25-2,5.34,5.34,0,0,0,3.76-2.83c1.06-2.27.42-5.26-.16-7.08a15,15,0,0,1-2.79,1.57c-1.88.9-4,1.93-4.68,3.64-1.16,3,.73,4.5,1,4.66a1,1,0,0,1-1.17,1.62,5.86,5.86,0,0,1-1.65-7c1-2.46,3.58-3.71,5.69-4.72,1.32-.64,2.82-1.36,3-2A1,1,0,0,1,61.4,25a1,1,0,0,1,1,.57c.12.24,2.78,6.06.76,10.37a7.31,7.31,0,0,1-5.06,3.93A1.15,1.15,0,0,1,57.84,39.86Z"/>
    <path class="secondary" d="M41.72,71.5a1,1,0,0,1-.71-.29,1,1,0,0,1,0-1.42l.12-.13a3.24,3.24,0,0,1,2.61-1.15H57.69c1.13-.48,6.1-5.29,7.4-6.72a58.75,58.75,0,0,0,4.53-7.11A3.64,3.64,0,0,0,67,54.41c-1.29.29-2.14,1.18-3.38,3.53a1,1,0,0,1-.48.45l-4.51,2a1,1,0,0,1-.81-1.83l4.2-1.84c1.23-2.28,2.45-3.77,4.54-4.24a4.94,4.94,0,0,1,5.05,1.37,1,1,0,0,1,.12,1,54,54,0,0,1-5.2,8.3c-.07.08-6.92,7.38-8.78,7.38h-14a1.28,1.28,0,0,0-1.15.53l-.16.16A1,1,0,0,1,41.72,71.5Zm15.92-3Z"/>
    <path class="secondary" d="M55.81,64.45h-8a1,1,0,0,1,0-2h8c1.4,0,2-.76,2-1.51s-.63-1.52-2-1.52h-5.3a3.71,3.71,0,0,1-2.07-1,4.5,4.5,0,0,0-1.65-1h-5a6.27,6.27,0,0,0-3.36,1.75c-1.47,1.51-4,4-4,4L33,61.75s2.53-2.49,4-4c1.19-1.09,3.11-2.32,4.76-2.32h5a5.12,5.12,0,0,1,2.87,1.38,5,5,0,0,0,.93.64h5.22c2.65,0,4,1.77,4,3.52S58.46,64.45,55.81,64.45Z"/>
    <g>
      <rect class="primary" x="31.67" y="60.46" width="7.13" height="17.06" transform="translate(-38.46 45.12) rotate(-45)"/>
      <path class="secondary" d="M38.74,78.57h0a1,1,0,0,1-.72-.3L26,66.2a1,1,0,0,1,0-1.45l5-5a1,1,0,0,1,.73-.3h0a1,1,0,0,1,.72.3L44.51,71.78a1,1,0,0,1,0,1.45l-5,5A1,1,0,0,1,38.74,78.57ZM28.13,65.48,38.74,76.09l3.59-3.59L31.72,61.89Z"/>
    </g>
    <path class="secondary" d="M33.68,68.49a1,1,0,0,1-.7-.29l-2-2a1,1,0,0,1,0-1.42,1,1,0,0,1,1.41,0l2,2a1,1,0,0,1-.71,1.71Z"/>
  </g>
</svg>
