<svg class="triumph-svg-icon" xmlns="http://www.w3.org/2000/svg" width="1.38in" height="1.38in" viewBox="0 0 99.25 99.25">
  <defs>
    <style>
      .icon-accent {
        fill: #c8c9c7;
      }

      .icon-dark {
        fill: #000000;
      }
    </style>
  </defs>
  <g>
    <g>
      <circle class="icon-accent" cx="49.32" cy="73.27" r="3.77"/>
      <path class="icon-dark" d="M49.32,78.05a4.78,4.78,0,1,1,4.77-4.78A4.78,4.78,0,0,1,49.32,78.05Zm0-7.55a2.78,2.78,0,1,0,2.77,2.77A2.78,2.78,0,0,0,49.32,70.5Z"/>
    </g>
    <rect class="icon-accent" x="44.1" y="66.52" width="9.82" height="6.57"/>
    <path class="icon-dark" d="M44.24,74.47a1,1,0,0,1-1-1c0-8.14-.66-10.81-3.19-13A15.19,15.19,0,0,1,34.39,49a14.54,14.54,0,1,1,29.07,0c0,4.41-2.43,7.9-5.06,11C55.63,63.26,55,65.89,55,73.4a1,1,0,0,1-1,1c-2.65,0-5.71,0-7.71,0Zm4.69-38A12.55,12.55,0,0,0,36.39,49a13.22,13.22,0,0,0,5,10c3.2,2.75,3.84,6.3,3.89,13.49h1l6.73,0c.07-7.26.94-10.19,3.91-13.71,2.22-2.62,4.59-5.75,4.59-9.71A12.55,12.55,0,0,0,48.93,36.44Z"/>
    <path class="icon-dark" d="M57.6,67.5H40.68a1,1,0,0,1,0-2H57.6a1,1,0,0,1,0,2Z"/>
    <path class="icon-dark" d="M57.6,71.13H40.68a1,1,0,0,1,0-2H57.6a1,1,0,0,1,0,2Z"/>
    <path class="icon-dark" d="M49,32a1,1,0,0,1-1-1V23.22a1,1,0,1,1,2,0V31A1,1,0,0,1,49,32Z"/>
    <path class="icon-dark" d="M53.47,28.68a1,1,0,0,1-.71-.29L49,24.64l-3.75,3.75a1,1,0,0,1-1.42,0,1,1,0,0,1,0-1.41l4.46-4.46a1,1,0,0,1,1.42,0L54.18,27a1,1,0,0,1,0,1.41A1,1,0,0,1,53.47,28.68Z"/>
    <path class="icon-dark" d="M31.21,49.81H23.43a1,1,0,0,1,0-2h7.78a1,1,0,1,1,0,2Z"/>
    <path class="icon-dark" d="M27.89,54.27a1,1,0,0,1-.71-.3l-4.46-4.46a1,1,0,0,1,0-1.41l4.46-4.46a1,1,0,0,1,1.42,0,1,1,0,0,1,0,1.41l-3.76,3.76,3.76,3.75a1,1,0,0,1,0,1.41A1,1,0,0,1,27.89,54.27Z"/>
    <path class="icon-dark" d="M74.59,49.81H66.81a1,1,0,0,1,0-2h7.78a1,1,0,0,1,0,2Z"/>
    <path class="icon-dark" d="M70.13,54.27a1,1,0,0,1-.71-.3,1,1,0,0,1,0-1.41l3.76-3.75-3.76-3.76a1,1,0,0,1,0-1.41,1,1,0,0,1,1.42,0L75.3,48.1a1,1,0,0,1,0,1.41L70.84,54A1,1,0,0,1,70.13,54.27Z"/>
    <path class="icon-dark" d="M35.67,36.47a1,1,0,0,1-.7-.3l-5.56-5.55a1,1,0,0,1,0-1.41,1,1,0,0,1,1.42,0l5.55,5.55a1,1,0,0,1-.71,1.71Z"/>
    <path class="icon-dark" d="M30.12,36.47a1,1,0,0,1-1-1V29.91a1,1,0,0,1,1-1h5.55a1,1,0,0,1,0,2H31.12v4.56A1,1,0,0,1,30.12,36.47Z"/>
    <path class="icon-dark" d="M62.35,36.47a1,1,0,0,1-.71-1.71l5.55-5.55a1,1,0,0,1,1.42,0,1,1,0,0,1,0,1.41l-5.56,5.55A1,1,0,0,1,62.35,36.47Z"/>
    <path class="icon-dark" d="M67.9,36.47a1,1,0,0,1-1-1V30.91H62.35a1,1,0,0,1,0-2H67.9a1,1,0,0,1,1,1v5.56A1,1,0,0,1,67.9,36.47Z"/>
    <path class="icon-dark" d="M30.12,68.7A1,1,0,0,1,29.41,67L35,61.44a1,1,0,0,1,1.41,0,1,1,0,0,1,0,1.41L30.83,68.4A1,1,0,0,1,30.12,68.7Z"/>
    <path class="icon-dark" d="M35.67,68.7H30.12a1,1,0,0,1-1-1V62.14a1,1,0,0,1,2,0V66.7h4.55a1,1,0,0,1,0,2Z"/>
    <path class="icon-dark" d="M67.9,68.7a1,1,0,0,1-.71-.3l-5.55-5.55a1,1,0,0,1,0-1.41,1,1,0,0,1,1.41,0L68.61,67a1,1,0,0,1-.71,1.71Z"/>
    <path class="icon-dark" d="M67.9,68.7H62.35a1,1,0,0,1,0-2H66.9V62.14a1,1,0,0,1,2,0V67.7A1,1,0,0,1,67.9,68.7Z"/>
  </g>
</svg>
