<svg class="triumph-svg-icon" xmlns="http://www.w3.org/2000/svg" width="1.38in" height="1.38in" viewBox="0 0 99.25 99.25">
  <defs>
    <style>
      .cls-1 {
        fill: #808080;
      }

      .cls-2 {
        fill: #000000;
      }
    </style>
  </defs>
  <g>
    <path class="cls-1" d="M58.37,21C48.3,21,40.08,27,40.08,34.55a11.54,11.54,0,0,0,3.85,8.32,46,46,0,0,1-1.9,7.5c-.3,1,.36,2,1.19,1.75a23.32,23.32,0,0,0,4.14-1.7,6,6,0,0,1,6.08-5.15,6.14,6.14,0,0,1,5.25,2.83c10-.13,18-6.13,18-13.55S68.5,21,58.37,21Z"/>
    <path class="cls-2" d="M40.29,80.13H22.93a1,1,0,0,1-1-1V68.29A6.11,6.11,0,0,1,28,61.89h7.2a6.11,6.11,0,0,1,6.08,6.4V79.13A1,1,0,0,1,40.29,80.13Zm-16.36-2H39.29V68.29a4.15,4.15,0,0,0-4.08-4.4H28a4.15,4.15,0,0,0-4.08,4.4Z"/>
    <path class="cls-2" d="M31.61,59.84A7,7,0,0,1,24.5,53v-2a7.12,7.12,0,0,1,14.22,0v2A7,7,0,0,1,31.61,59.84Zm0-13.57a5,5,0,0,0-5.11,4.81v2a5.12,5.12,0,0,0,10.22,0v-2A4.91,4.91,0,0,0,31.61,46.27Z"/>
    <path class="cls-2" d="M65.82,35.55H49.59a1,1,0,0,1,0-2H65.82a1,1,0,0,1,0,2Z"/>
    <path class="cls-2" d="M65.82,30.1H49.59a1,1,0,0,1,0-2H65.82a1,1,0,0,1,0,2Z"/>
    <path class="cls-2" d="M59,40.94H49.59a1,1,0,0,1,0-2H59a1,1,0,0,1,0,2Z"/>
    <path class="cls-2" d="M62.12,80.13H44.75a1,1,0,0,1-1-1V68.29a6.11,6.11,0,0,1,6.09-6.4H57a6.11,6.11,0,0,1,6.09,6.4V79.13A1,1,0,0,1,62.12,80.13Zm-16.37-2H61.12V68.29A4.16,4.16,0,0,0,57,63.89H49.84a4.16,4.16,0,0,0-4.09,4.4Z"/>
    <path class="cls-2" d="M43,53.16a1.87,1.87,0,0,1-1.32-.57,2.5,2.5,0,0,1-.56-2.52,50.06,50.06,0,0,0,1.79-6.85,12.3,12.3,0,0,1-3.79-8.67c0-8,8.66-14.57,19.29-14.57s19.29,6.53,19.29,14.57S69.33,49,58.7,49.1a1,1,0,0,1-.86-.47,5.12,5.12,0,0,0-4.4-2.36,5,5,0,0,0-5.08,4.27,1,1,0,0,1-.53.76,23.87,23.87,0,0,1-4.32,1.77A1.76,1.76,0,0,1,43,53.16Zm0-2ZM58.37,22c-9.53,0-17.29,5.64-17.29,12.57a10.5,10.5,0,0,0,3.55,7.6,1,1,0,0,1,.3.86A48.18,48.18,0,0,1,43,50.67a.57.57,0,0,0,0,.46,22.22,22.22,0,0,0,3.44-1.37,7,7,0,0,1,7-5.49,7.12,7.12,0,0,1,5.76,2.82c9.13-.32,16.46-5.87,16.46-12.54C75.66,27.62,67.91,22,58.37,22Z"/>
    <path class="cls-2" d="M53.44,59.84A7,7,0,0,1,46.32,53v-2a7.12,7.12,0,0,1,14.23,0v2A7,7,0,0,1,53.44,59.84Zm0-13.57a5,5,0,0,0-5.12,4.81v2a5.12,5.12,0,0,0,10.23,0v-2A4.92,4.92,0,0,0,53.44,46.27Z"/>
  </g>
</svg>
