<svg class="triumph-svg-icon" xmlns="http://www.w3.org/2000/svg" width="1.38in" height="1.38in" viewBox="0 0 99.25 99.25">
  <defs>
    <style>
      .primary {
        fill: #c8c9c7;
      }

      .secondary {
        fill: #000000;
      }
    </style>
  </defs>
  <g>
    <g>
      <path class="primary" d="M68.58,75.1V40.39l-5.83-5.84H38V75.1S68.11,74.62,68.58,75.1Z"/>
      <path class="secondary" d="M68.58,76.1a.92.92,0,0,1-.36-.07c-1.72-.27-19.33-.1-30.16.07a1.09,1.09,0,0,1-.72-.29,1,1,0,0,1-.29-.71V34.55a1,1,0,0,1,1-1h24.7a1,1,0,0,1,.7.3l5.84,5.83a1,1,0,0,1,.29.71V75.1A1,1,0,0,1,69,76,1.09,1.09,0,0,1,68.58,76.1Zm-.7-.29Zm0,0Zm0,0ZM39.05,35.55V74.08c19-.29,25.92-.23,28.53-.06V40.81l-5.25-5.26Z"/>
    </g>
    <path class="secondary" d="M66.2,43.05H61.27a1,1,0,0,1-1-1V37a1,1,0,0,1,2,0v4H66.2a1,1,0,0,1,0,2Z"/>
    <path class="secondary" d="M63.1,62.6H48.82a1,1,0,0,1,0-2H63.1a1,1,0,0,1,0,2Z"/>
    <path class="secondary" d="M63.1,57.81H48.82a1,1,0,1,1,0-2H63.1a1,1,0,0,1,0,2Z"/>
    <path class="secondary" d="M63.1,67.34H54.79a1,1,0,1,1,0-2H63.1a1,1,0,0,1,0,2Z"/>
    <path class="secondary" d="M45.26,50.27a3.65,3.65,0,0,1-3.63-3,1,1,0,0,1,1.92-.54c.39,1.38,1.12,1.55,1.71,1.55.83,0,1.25-.39,1.25-1.17s-.2-.89-1.54-1.23c-1.12-.28-3-.75-3-3,0-1.39.92-3,3.53-3a3.14,3.14,0,0,1,3.07,2.93,1,1,0,0,1-2,.15,1.15,1.15,0,0,0-1.07-1.08c-1.53,0-1.53.76-1.53,1,0,.64.19.78,1.47,1.11s3,.77,3,3.16A3,3,0,0,1,45.26,50.27Z"/>
    <path class="secondary" d="M45.35,41.75a1,1,0,0,1-1-1V39.2a1,1,0,0,1,2,0v1.55A1,1,0,0,1,45.35,41.75Z"/>
    <path class="secondary" d="M45.35,52.1a1,1,0,0,1-1-1V49.55a1,1,0,0,1,2,0V51.1A1,1,0,0,1,45.35,52.1Z"/>
    <path class="secondary" d="M34,68.83a1,1,0,0,1-1-1V30.48a1,1,0,0,1,1-1H56.91a1,1,0,0,1,0,2H35V67.83A1,1,0,0,1,34,68.83Z"/>
    <path class="secondary" d="M30.13,65a1,1,0,0,1-1-1V26.68a1,1,0,0,1,1-1h23a1,1,0,0,1,0,2h-22V64A1,1,0,0,1,30.13,65Z"/>
  </g>
</svg>
