<svg class="triumph-svg-icon" xmlns="http://www.w3.org/2000/svg" width="1.38in" height="1.38in" viewBox="0 0 99.25 99.25">
  <defs>
    <style>
      .cls-1 {
        fill: #808080;
      }

      .cls-2 {
        fill: #000000;
      }
    </style>
  </defs>
  <g>
    <g>
      <g>
        <path class="cls-1" d="M49,70.39h0V55.05s.08,0,.08-.31c0-1.79,4.66-3.23,10.39-3.23a30.63,30.63,0,0,1,4.33.29V30.5l-6.85-6.85h-29V71.24S39.1,71.07,49,71Z"/>
        <path class="cls-2" d="M27.92,72.24a1,1,0,0,1-1-1V23.65a1,1,0,0,1,1-1h29a1,1,0,0,1,.71.29l6.85,6.85a1,1,0,0,1,.29.71V51.8a1,1,0,0,1-.34.76,1,1,0,0,1-.8.23,29.78,29.78,0,0,0-4.19-.28c-6.46,0-9.39,1.71-9.39,2.23a1.71,1.71,0,0,1-.08.54V71a1,1,0,0,1-1,1c-9.76.06-20.93.23-21,.23ZM49,71h0Zm-20-46.36V70.23c2.86,0,11.27-.16,19-.21v-15a.93.93,0,0,1,.09-.4c.12-2.85,6-4.14,11.38-4.14a32.73,32.73,0,0,1,3.33.16V30.91l-6.26-6.26Zm19.46,29.6Zm0,0,0,0Z"/>
      </g>
      <path class="cls-2" d="M61,33.45H55.19a1,1,0,0,1-1-1V26.56a1,1,0,0,1,2,0v4.89H61a1,1,0,0,1,0,2Z"/>
      <g>
        <path class="cls-2" d="M35.93,40.38a3.79,3.79,0,0,1-3.77-3.13,1,1,0,0,1,1.93-.54c.41,1.48,1.2,1.67,1.84,1.67.91,0,1.37-.43,1.37-1.29s-.32-1-1.66-1.33c-1.16-.29-3.09-.79-3.09-3.16,0-1.43,1-3.1,3.66-3.1a3.24,3.24,0,0,1,3.17,3,1,1,0,0,1-2,.15,1.28,1.28,0,0,0-1.18-1.18c-1.11,0-1.66.37-1.66,1.1s.22.87,1.58,1.22c1.19.3,3.17.8,3.17,3.27A3.15,3.15,0,0,1,35.93,40.38Z"/>
        <path class="cls-2" d="M36,31.42a1,1,0,0,1-1-1V28.79a1,1,0,1,1,2,0v1.63A1,1,0,0,1,36,31.42Z"/>
        <path class="cls-2" d="M36,42.31a1,1,0,0,1-1-1V39.68a1,1,0,0,1,2,0v1.63A1,1,0,0,1,36,42.31Z"/>
      </g>
      <path class="cls-2" d="M48.65,49.57a1,1,0,0,1-.72-.3L41,42.05a1,1,0,1,1,1.44-1.39l6.92,7.22a1,1,0,0,1,0,1.41A1,1,0,0,1,48.65,49.57Z"/>
      <path class="cls-2" d="M48.65,49.57h-4a1,1,0,0,1,0-2h3V44.15a1,1,0,0,1,2,0v4.42A1,1,0,0,1,48.65,49.57Z"/>
      <path class="cls-2" d="M48.29,61.57H32.86a1,1,0,0,1,0-2H48.29a1,1,0,0,1,0,2Z"/>
      <path class="cls-2" d="M48.29,67H32.86a1,1,0,0,1,0-2H48.29a1,1,0,1,1,0,2Z"/>
      <path class="cls-2" d="M42.31,56.17H32.86a1,1,0,0,1,0-2h9.45a1,1,0,0,1,0,2Z"/>
    </g>
    <g>
      <path class="cls-2" d="M59.38,64C51.19,64,48.29,61,48.17,60.89a1,1,0,0,1-.28-.69V55.08a1,1,0,0,1,1.88-.47h0s1.61,2.27,9.61,2.27,9.56-2.28,9.58-2.3a1,1,0,0,1,1.13-.44,1,1,0,0,1,.73.94V60.2a1,1,0,0,1-2,0v-3c-1.59.86-4.43,1.72-9.44,1.72s-7.89-.87-9.49-1.73v2.58c.83.61,3.59,2.22,9.49,2.22a1,1,0,1,1,0,2Z"/>
      <path class="cls-2" d="M56.7,69h-.09c-6.21-.5-8.27-2.75-8.48-3a1,1,0,0,1-.24-.65V60.22a1,1,0,0,1,.76-1,1,1,0,0,1,1.12.5h0S51.38,62,59.38,62a1,1,0,1,1,0,2c-5,0-7.89-.87-9.49-1.72v2.61c.63.49,2.61,1.74,6.89,2.09a1,1,0,0,1-.08,2Z"/>
      <path class="cls-2" d="M57.57,74.16h0c-7-.31-9.19-2.82-9.41-3.11a1,1,0,0,1-.22-.62V65.3a1,1,0,0,1,2-.32h0s1,1.81,7.22,2.12a1,1,0,0,1-.1,2,16.51,16.51,0,0,1-7.07-1.57V70c.64.53,2.77,1.94,7.72,2.16a1,1,0,0,1,0,2Z"/>
      <path class="cls-2" d="M59.38,79.28c-8.19,0-11.09-2.93-11.21-3a1,1,0,0,1-.28-.7V70.41a1,1,0,0,1,.76-1,1,1,0,0,1,1.12.5h0s1.41,2,8.12,2.24a1,1,0,0,1,1,1,1,1,0,0,1-1,1c-4.07-.16-6.5-.93-7.92-1.69v2.58c.83.6,3.59,2.21,9.49,2.21a29.24,29.24,0,0,0,3.07-.17,1,1,0,1,1,.21,2A30.15,30.15,0,0,1,59.38,79.28Z"/>
      <path class="cls-2" d="M59.36,59C53.88,59,48,57.67,48,54.77s5.91-4.23,11.39-4.23,11.39,1.32,11.39,4.23S64.85,59,59.36,59Zm0-6.46c-6.46,0-9.39,1.71-9.39,2.23S52.9,57,59.36,57s9.39-1.71,9.39-2.23S65.82,52.54,59.36,52.54Z"/>
      <path class="cls-2" d="M66.44,79.74A10.32,10.32,0,1,1,76.76,69.43,10.33,10.33,0,0,1,66.44,79.74Zm0-18.63a8.32,8.32,0,1,0,8.32,8.32A8.33,8.33,0,0,0,66.44,61.11Z"/>
      <g>
        <path class="cls-2" d="M66.43,74.13A3.41,3.41,0,0,1,63,71.32,1,1,0,0,1,65,70.79c.33,1.19,1,1.34,1.47,1.34.7,0,1-.32,1-1s-.16-.72-1.33-1-2.78-.71-2.78-2.86c0-1.3.86-2.82,3.3-2.82a2.93,2.93,0,0,1,2.88,2.74,1,1,0,1,1-2,.15c0-.18-.21-.89-.89-.89-1.3,0-1.3.61-1.3.82,0,.51.09.62,1.27.92s2.84.72,2.84,3A2.85,2.85,0,0,1,66.43,74.13Z"/>
        <path class="cls-2" d="M66.51,66.38a1,1,0,0,1-1-1V64a1,1,0,0,1,2,0v1.41A1,1,0,0,1,66.51,66.38Z"/>
        <path class="cls-2" d="M66.51,75.8a1,1,0,0,1-1-1V73.39a1,1,0,0,1,2,0V74.8A1,1,0,0,1,66.51,75.8Z"/>
      </g>
    </g>
    <path class="cls-2" d="M49.06,65.5m0,5.06"/>
  </g>
</svg>
