<svg class="triumph-svg-icon" xmlns="http://www.w3.org/2000/svg" width="1.38in" height="1.38in" viewBox="0 0 99.25 99.25">
  <defs>
    <style>
      .icon-dark {
        fill: #000000;
      }

      .icon-accent {
        fill: #c8c9c7;
      }
    </style>
  </defs>
  <g>
    <path class="icon-dark" d="M88.91,64.9h-.06l-19.52-.2a1,1,0,0,1-1-1V36.77H49a1,1,0,0,1,0-2H69.34a1,1,0,0,1,1,1v4.94H80.71a1,1,0,0,1,.88.54l4.75,9h2.57a1,1,0,0,1,1,1V63.64a2.11,2.11,0,0,1,0,.26A1,1,0,0,1,88.91,64.9ZM70.34,62.7l17.57.18V52.22H85.74a1,1,0,0,1-.88-.53l-4.75-9H70.34Z"/>
    <g>
      <circle class="icon-accent" cx="78.71" cy="65.39" r="4.85"/>
      <path class="icon-dark" d="M78.71,71.23a5.85,5.85,0,1,1,5.84-5.84A5.85,5.85,0,0,1,78.71,71.23Zm0-9.69a3.85,3.85,0,1,0,3.84,3.85A3.85,3.85,0,0,0,78.71,61.54Z"/>
    </g>
    <g>
      <polygon class="icon-accent" points="78.66 45.92 81.45 51.41 72.88 51.41 72.88 45.92 78.66 45.92"/>
      <path class="icon-dark" d="M81.45,52.41H72.88a1,1,0,0,1-1-1V45.92a1,1,0,0,1,1-1h5.78a1,1,0,0,1,.89.54L82.34,51a1,1,0,0,1-.89,1.46Zm-7.57-2h5.94l-1.77-3.49H73.88Z"/>
    </g>
    <path class="icon-dark" d="M65.19,64.9h0l-19.57-.21a1,1,0,0,1-1-1V31.77H25.3a1,1,0,0,1,0-2H45.62a1,1,0,0,1,1,1v9.94H57a1,1,0,0,1,.88.54l4.75,9h2.57a1,1,0,0,1,1,1V63.9a1,1,0,0,1-1,1ZM46.62,62.7l17.57.19V52.22H62a1,1,0,0,1-.88-.53l-4.75-9H46.62Z"/>
    <g>
      <circle class="icon-accent" cx="54.98" cy="65.39" r="4.85"/>
      <path class="icon-dark" d="M55,71.23a5.85,5.85,0,1,1,5.85-5.84A5.85,5.85,0,0,1,55,71.23Zm0-9.69a3.85,3.85,0,1,0,3.85,3.85A3.85,3.85,0,0,0,55,61.54Z"/>
    </g>
    <g>
      <polygon class="icon-accent" points="54.94 45.92 57.73 51.41 49.16 51.41 49.16 45.92 54.94 45.92"/>
      <path class="icon-dark" d="M57.73,52.41H49.16a1,1,0,0,1-1-1V45.92a1,1,0,0,1,1-1h5.78a1,1,0,0,1,.89.54L58.62,51a1,1,0,0,1-.89,1.46Zm-7.57-2H56.1l-1.78-3.49H50.16Z"/>
    </g>
    <path class="icon-dark" d="M40.81,64.9h0l-19.57-.21a1,1,0,0,1-1-1V27.77H10.85a1,1,0,1,1,0-2H21.24a1,1,0,0,1,1,1V40.71H32.61a1,1,0,0,1,.88.54l4.75,9h2.57a1,1,0,0,1,1,1V63.9a1,1,0,0,1-.3.71A1,1,0,0,1,40.81,64.9ZM22.24,62.7l17.57.19V52.22H37.64a1,1,0,0,1-.88-.53l-4.75-9H22.24Z"/>
    <g>
      <circle class="icon-accent" cx="30.6" cy="65.39" r="4.85"/>
      <path class="icon-dark" d="M30.6,71.23a5.85,5.85,0,1,1,5.85-5.84A5.85,5.85,0,0,1,30.6,71.23Zm0-9.69a3.85,3.85,0,1,0,3.85,3.85A3.85,3.85,0,0,0,30.6,61.54Z"/>
    </g>
    <g>
      <polygon class="icon-accent" points="30.56 45.92 33.35 51.41 24.78 51.41 24.78 45.92 30.56 45.92"/>
      <path class="icon-dark" d="M33.35,52.41H24.78a1,1,0,0,1-1-1V45.92a1,1,0,0,1,1-1h5.78a1,1,0,0,1,.89.54L34.24,51a1,1,0,0,1-.89,1.46Zm-7.57-2h5.94l-1.78-3.49H25.78Z"/>
    </g>
  </g>
</svg>
