<svg class="triumph-svg-icon" xmlns="http://www.w3.org/2000/svg" width="1.38in" height="1.38in" viewBox="0 0 99.25 99.25">
  <defs>
    <style>
      .icon-dark {
        fill: #000000;
      }

      .icon-accent {
        fill: #c8c9c7;
      }
    </style>
  </defs>
  <g>
    <g>
      <polygon class="icon-dark" points="64.47 80.15 27.05 80.15 27.05 73.38 28.05 73.38 28.05 79.15 63.47 79.15 63.47 32.42 34.02 32.42 28.05 38.39 28.05 48.26 27.05 48.26 27.05 37.98 33.61 31.42 64.47 31.42 64.47 80.15"/>
      <g>
        <path class="icon-accent" d="M33.81,31.92l-6.27,6.27V52.1a10.08,10.08,0,1,1,0,17.49V79.65H64V31.92Z"/>
        <path class="icon-dark" d="M64,80.65H27.54a1,1,0,0,1-1-1V73.38a1,1,0,0,1,2,0v5.27H63V32.92H34.23L28.54,38.6v9.66a1,1,0,0,1-2,0V38.19a1,1,0,0,1,.3-.71l6.27-6.27a1,1,0,0,1,.7-.29H64a1,1,0,0,1,1,1V79.65A1,1,0,0,1,64,80.65Z"/>
        <path class="icon-dark" d="M69,76.9a1,1,0,0,1-1-1v-48H38.85a1,1,0,0,1,0-2H69a1,1,0,0,1,1,1v49A1,1,0,0,1,69,76.9Z"/>
        <path class="icon-dark" d="M74,71.86a1,1,0,0,1-1-1v-48H43.83a1,1,0,0,1,0-2H74a1,1,0,0,1,1,1v49A1,1,0,0,1,74,71.86Z"/>
        <path class="icon-dark" d="M36.33,41.7H30a1,1,0,0,1,0-2h5.32V34.43a1,1,0,1,1,2,0V40.7A1,1,0,0,1,36.33,41.7Z"/>
        <path class="icon-dark" d="M46.35,76.9a1,1,0,0,1-.7-.29l-7.4-7.24a1,1,0,0,1,1.4-1.43l7.4,7.24a1,1,0,0,1-.7,1.72Z"/>
      </g>
    </g>
    <path class="icon-dark" d="M32.49,71.9A11.07,11.07,0,1,1,43.56,60.83,11.07,11.07,0,0,1,32.49,71.9Zm0-20.14a9.07,9.07,0,1,0,9.07,9.07A9.08,9.08,0,0,0,32.49,51.76Z"/>
  </g>
</svg>
