<svg class="triumph-svg-icon" xmlns="http://www.w3.org/2000/svg" width="1.38in" height="1.38in" viewBox="0 0 99.25 99.25">
  <defs>
    <style>
      .icon-accent {
        fill: #c8c9c7;
      }

      .icon-dark {
        fill: #000000;
      }
    </style>
  </defs>
  <g>
    <g>
      <polyline class="icon-accent" points="57.89 70.98 57.89 63.37 50.34 55.82 47.77 55.82 40.22 63.37 40.22 70.98"/>
      <path class="icon-dark" d="M57.89,72a1,1,0,0,1-1-1V63.79l-7-7H48.18l-7,7V71a1,1,0,0,1-2,0V63.37a1,1,0,0,1,.29-.7l7.55-7.56a1.05,1.05,0,0,1,.71-.29h2.57a1,1,0,0,1,.71.29l7.55,7.56a1,1,0,0,1,.29.7V71A1,1,0,0,1,57.89,72Z"/>
    </g>
    <g>
      <path class="icon-dark" d="M68,79.53H30.15a1,1,0,0,1-1-1v-5A3.52,3.52,0,0,1,32.67,70h1.51V60.86a1,1,0,0,1,.3-.71L45.12,49.5,34.48,38.85a1,1,0,0,1-.3-.7V29H32.67a3.51,3.51,0,0,1-3.52-3.51v-5a1,1,0,0,1,1-1H68a1,1,0,0,1,1,1v5A3.51,3.51,0,0,1,65.45,29H63.93v9.13a1,1,0,0,1-.29.7L53,49.5,63.64,60.15a1,1,0,0,1,.29.71V70h1.52A3.52,3.52,0,0,1,69,73.5v5A1,1,0,0,1,68,79.53Zm-36.81-2H67v-4A1.52,1.52,0,0,0,65.45,72H62.93a1,1,0,0,1-1-1V61.27L50.87,50.21a1,1,0,0,1,0-1.42L61.93,37.73V28a1,1,0,0,1,1-1h2.52A1.52,1.52,0,0,0,67,25.51v-4H31.15v4A1.52,1.52,0,0,0,32.67,27h2.51a1,1,0,0,1,1,1v9.71L47.24,48.79a1,1,0,0,1,0,1.42L36.18,61.27V71a1,1,0,0,1-1,1H32.67a1.52,1.52,0,0,0-1.52,1.52Z"/>
      <path class="icon-dark" d="M62.93,29H35.18a1,1,0,0,1,0-2H62.93a1,1,0,0,1,0,2Z"/>
      <path class="icon-dark" d="M62.93,72H35.18a1,1,0,1,1,0-2H62.93a1,1,0,0,1,0,2Z"/>
    </g>
    <path class="icon-dark" d="M46.54,44.18a1,1,0,0,1-.71-.29l-7.6-7.55a1,1,0,0,1-.3-.71v-5a1,1,0,1,1,2,0v4.62l7.31,7.26a1,1,0,0,1,0,1.42A1,1,0,0,1,46.54,44.18Z"/>
  </g>
</svg>
