<svg class="triumph-svg-icon" xmlns="http://www.w3.org/2000/svg" width="1.38in" height="1.38in" viewBox="0 0 99.25 99.25">
  <defs>
    <style>
      .icon-accent {
        fill: #c8c9c7;
      }

      .icon-dark {
        fill: #000000;
      }
    </style>
  </defs>
  <g>
    <g>
      <polyline class="icon-accent" points="58.32 70.97 58.32 63.37 50.77 55.81 48.2 55.81 40.65 63.37 40.65 70.97"/>
      <path class="icon-dark" d="M58.32,72a1,1,0,0,1-1-1V63.78l-7-7H48.61l-7,7V71a1,1,0,0,1-2,0v-7.6a1,1,0,0,1,.29-.71l7.55-7.55a1,1,0,0,1,.71-.3h2.57a1,1,0,0,1,.71.3L59,62.66a1,1,0,0,1,.29.71V71A1,1,0,0,1,58.32,72Z"/>
    </g>
    <g>
      <path class="icon-dark" d="M68.39,79.52H30.58a1,1,0,0,1-1-1v-5A3.52,3.52,0,0,1,33.09,70h1.52V60.85a1,1,0,0,1,.29-.71L45.55,49.49,34.9,38.85a1.05,1.05,0,0,1-.29-.71V29H33.09a3.52,3.52,0,0,1-3.51-3.52v-5a1,1,0,0,1,1-1H68.39a1,1,0,0,1,1,1v5A3.52,3.52,0,0,1,65.88,29H64.36v9.12a1,1,0,0,1-.3.71L53.42,49.49,64.06,60.14a1,1,0,0,1,.3.71V70h1.52a3.52,3.52,0,0,1,3.51,3.52v5A1,1,0,0,1,68.39,79.52Zm-36.81-2H67.39v-4A1.52,1.52,0,0,0,65.88,72H63.36a1,1,0,0,1-1-1V61.26L51.3,50.2a1,1,0,0,1-.3-.71,1,1,0,0,1,.3-.7L62.36,37.72V28a1,1,0,0,1,1-1h2.52a1.52,1.52,0,0,0,1.51-1.52v-4H31.58v4A1.52,1.52,0,0,0,33.09,27h2.52a1,1,0,0,1,1,1v9.7L47.67,48.79a1,1,0,0,1,.3.7,1,1,0,0,1-.3.71L36.61,61.26V71a1,1,0,0,1-1,1H33.09a1.52,1.52,0,0,0-1.51,1.52Z"/>
      <path class="icon-dark" d="M63.36,29H35.61a1,1,0,0,1,0-2H63.36a1,1,0,0,1,0,2Z"/>
      <path class="icon-dark" d="M63.36,72H35.61a1,1,0,0,1,0-2H63.36a1,1,0,0,1,0,2Z"/>
    </g>
    <path class="icon-dark" d="M47,44.17a1,1,0,0,1-.71-.29l-7.6-7.55a1,1,0,0,1-.3-.71v-5a1,1,0,0,1,2,0V35.2l7.31,7.26a1,1,0,0,1,0,1.42A1,1,0,0,1,47,44.17Z"/>
  </g>
</svg>
