<svg xmlns="http://www.w3.org/2000/svg" viewBox="0 0 99.25 99.25"><defs><style>.cls-1{fill:#c8c9c7;}.cls-1,.cls-2,.cls-3{stroke:#000;stroke-linecap:round;stroke-linejoin:round;stroke-width:2px;}.cls-2{fill:#fff;}.cls-3{fill:none;}</style></defs><g id="Icons"><path class="cls-1" d="M50.83,31.13c.4-.54.76-1.05,1.16-1.54a13.32,13.32,0,0,1,6.88-4.84A10.52,10.52,0,0,1,64,24.59a12.13,12.13,0,0,1,9.28,9.16,13,13,0,0,1-.46,7.31,22.8,22.8,0,0,1-2.44,4.7,47.11,47.11,0,0,1-7.11,8.33,94.76,94.76,0,0,1-7.55,6.45c-1.52,1.18-3.08,2.34-4.61,3.52a.31.31,0,0,1-.45,0c-2.22-1.72-4.48-3.4-6.67-5.16a72.55,72.55,0,0,1-9-8.39,35.61,35.61,0,0,1-5.42-7.88,13.38,13.38,0,0,1-1.39-7.22A12,12,0,0,1,32,27.53a11.56,11.56,0,0,1,5-2.79,10.84,10.84,0,0,1,7.9.85,14.51,14.51,0,0,1,4.76,4.05C50.1,30.11,50.45,30.61,50.83,31.13Z"/><path class="cls-2" d="M37.43,49.17c-1,1.46-7.94,4.48-10.65,4.48V64.27c0,5,10,10.47,10.63,10.63C38,74.74,48,68.89,48,64.83V53.65C45.1,53.65,38.47,50.63,37.43,49.17Z"/><polyline class="cls-3" points="32.62 63.63 35.28 66.3 42.98 58.6"/><polyline class="cls-3" points="21.23 44.82 37.42 44.82 40.07 36.72 43.28 49.12 45.93 41.05 47.46 44.82 53.3 44.82 56.53 36.72 59.46 49.12 61.97 41.05 63.93 44.82 78.02 44.82"/></g></svg>