<svg class="triumph-svg-icon" xmlns="http://www.w3.org/2000/svg" width="1.38in" height="1.38in" viewBox="0 0 99.25 99.25">
  <defs>
    <style>
      .icon-accent
        fill: #c8c9c7;
      }

      .icon-dark {
        fill: #000000;
      }
    </style>
  </defs>
  <g>
    <g>
      <path class="icon-accent" d="M50.83,31.16c.4-.53.76-1,1.16-1.53a13.32,13.32,0,0,1,6.88-4.84A10.4,10.4,0,0,1,64,24.63a11.74,11.74,0,0,1,6.71,4,11.88,11.88,0,0,1,2.57,5.15,13,13,0,0,1-.46,7.31,22.8,22.8,0,0,1-2.44,4.7,47.11,47.11,0,0,1-7.11,8.33,94.76,94.76,0,0,1-7.55,6.45c-1.52,1.18-3.08,2.34-4.61,3.52a.32.32,0,0,1-.45,0c-2.22-1.72-4.48-3.4-6.67-5.16a72.55,72.55,0,0,1-9-8.39,35.85,35.85,0,0,1-5.42-7.88,13.42,13.42,0,0,1-1.39-7.23A12,12,0,0,1,32,27.57a11.56,11.56,0,0,1,5-2.79,10.79,10.79,0,0,1,7.9.85,14.51,14.51,0,0,1,4.76,4.05C50.1,30.15,50.45,30.65,50.83,31.16Z"/>
      <path class="icon-dark" d="M50.83,65.2a1.38,1.38,0,0,1-.83-.31L47.66,63.1c-1.45-1.12-2.91-2.23-4.34-3.38a72.53,72.53,0,0,1-9.08-8.51,36.15,36.15,0,0,1-5.57-8.1,14.33,14.33,0,0,1-1.5-7.76,13,13,0,0,1,4.19-8.52,12.62,12.62,0,0,1,5.45-3,11.79,11.79,0,0,1,8.6.93,15.26,15.26,0,0,1,5.09,4.32c.12.14.22.28.33.42L51.2,29a14.35,14.35,0,0,1,7.39-5.18,11.61,11.61,0,0,1,5.56-.17,13.16,13.16,0,0,1,10.06,9.91,14,14,0,0,1-.5,7.87,24.15,24.15,0,0,1-2.54,4.92,47.9,47.9,0,0,1-7.26,8.5,94.84,94.84,0,0,1-7.62,6.52c-.89.69-1.8,1.37-2.7,2.05l-1.92,1.47A1.41,1.41,0,0,1,50.83,65.2ZM40,25.39a10.45,10.45,0,0,0-2.63.35,10.66,10.66,0,0,0-4.6,2.56,11,11,0,0,0-3.55,7.24,12.36,12.36,0,0,0,1.29,6.69,34.59,34.59,0,0,0,5.27,7.66,70.77,70.77,0,0,0,8.84,8.27c1.42,1.14,2.86,2.24,4.31,3.35L50.83,63l1.56-1.18c.89-.68,1.79-1.35,2.67-2a94.92,94.92,0,0,0,7.47-6.38,46.19,46.19,0,0,0,7-8.15,22.4,22.4,0,0,0,2.34-4.5A12,12,0,0,0,72.25,34a11.07,11.07,0,0,0-8.51-8.4,9.53,9.53,0,0,0-4.6.14,12.35,12.35,0,0,0-6.37,4.5c-.26.32-.5.65-.75,1l-.38.51a1,1,0,0,1-.81.4h0a1,1,0,0,1-.8-.4l-.33-.45c-.25-.35-.5-.68-.76-1a13.46,13.46,0,0,0-4.44-3.78A9.91,9.91,0,0,0,40,25.39Z"/>
    </g>
    <path class="icon-dark" d="M59.46,50.16h0a1,1,0,0,1-.94-.77l-2.2-9.32-2.06,5.16a1,1,0,0,1-.93.63H47.46a1,1,0,0,1-.92-.63L46,44l-1.8,5.48a1,1,0,0,1-1.92-.06L40,40.32l-1.58,4.85a1,1,0,0,1-.95.69H21.23a1,1,0,0,1,0-2H36.69l2.43-7.41a1,1,0,0,1,1-.69,1,1,0,0,1,.93.75l2.36,9.1L45,40.78a1,1,0,0,1,.91-.69,1,1,0,0,1,1,.62l1.28,3.15h4.49l3-7.47a1,1,0,0,1,1-.62,1,1,0,0,1,.9.76l2.08,8.84L61,40.79a1,1,0,0,1,.87-.7,1,1,0,0,1,1,.54l1.67,3.23H78a1,1,0,0,1,0,2H63.93a1,1,0,0,1-.89-.54l-.83-1.61-1.79,5.74A1,1,0,0,1,59.46,50.16Z"/>
  </g>
</svg>
