<svg class="triumph-svg-icon" xmlns="http://www.w3.org/2000/svg" width="1.38in" height="1.38in" viewBox="0 0 99.25 99.25">
  <defs>
    <style>
      .primary {
        fill: #c8c9c7;
      }

      .secondary {
        fill: #000000;
      }
    </style>
  </defs>
  <g>
    <ellipse class="primary" cx="36.29" cy="45.82" rx="5.23" ry="2.3"/>
    <ellipse class="primary" cx="38.64" cy="72.38" rx="5.23" ry="2.3"/>
    <ellipse class="primary" cx="62.34" cy="55.68" rx="5.23" ry="2.3"/>
    <g>
      <path class="primary" d="M36.24,25.85a7.07,7.07,0,0,0-7.07,7.07c0,3.9,4.29,9.87,7.07,12.65,2.92-2.92,7.07-8.75,7.07-12.65A7.06,7.06,0,0,0,36.24,25.85Zm.15,10.35a3.29,3.29,0,1,1,3.29-3.28A3.28,3.28,0,0,1,36.39,36.2Z"/>
      <path class="secondary" d="M36.24,46.57a1,1,0,0,1-.7-.3c-3.06-3.05-7.37-9.22-7.37-13.35a8.07,8.07,0,0,1,16.14,0c0,4.36-4.51,10.51-7.36,13.35A1,1,0,0,1,36.24,46.57Zm0-19.72a6.08,6.08,0,0,0-6.07,6.07c0,3.23,3.4,8.28,6.07,11.2,2.67-2.93,6.07-8,6.07-11.2A6.07,6.07,0,0,0,36.24,26.85Zm.15,10.35a4.29,4.29,0,1,1,4.29-4.28A4.28,4.28,0,0,1,36.39,37.2Zm0-6.57a2.29,2.29,0,1,0,2.29,2.29A2.29,2.29,0,0,0,36.39,30.63Z"/>
    </g>
    <g>
      <path class="primary" d="M62.48,34.92A7.06,7.06,0,0,0,55.41,42c0,3.9,4.29,9.87,7.07,12.65,2.91-2.92,7.07-8.75,7.07-12.65A7.07,7.07,0,0,0,62.48,34.92Zm.15,10.54A3.47,3.47,0,1,1,66.1,42,3.47,3.47,0,0,1,62.63,45.46Z"/>
      <path class="secondary" d="M62.48,55.64a1,1,0,0,1-.71-.3c-3.06-3.05-7.36-9.22-7.36-13.35a8.07,8.07,0,0,1,16.14,0c0,4.36-4.52,10.51-7.37,13.35A1,1,0,0,1,62.48,55.64Zm0-19.72A6.07,6.07,0,0,0,56.41,42c0,3.23,3.39,8.28,6.07,11.2,2.67-2.93,6.07-8,6.07-11.2A6.08,6.08,0,0,0,62.48,35.92Zm.15,10.54A4.47,4.47,0,1,1,67.1,42,4.47,4.47,0,0,1,62.63,46.46Zm0-6.94A2.47,2.47,0,1,0,65.1,42,2.47,2.47,0,0,0,62.63,39.52Z"/>
    </g>
    <g>
      <path class="primary" d="M38.68,51.94A7.07,7.07,0,0,0,31.61,59c0,3.9,4.29,9.87,7.07,12.65,2.92-2.91,7.07-8.75,7.07-12.65A7.06,7.06,0,0,0,38.68,51.94Zm.15,10.37a3.3,3.3,0,1,1,3.3-3.3A3.29,3.29,0,0,1,38.83,62.31Z"/>
      <path class="secondary" d="M38.68,72.66a1,1,0,0,1-.7-.29c-3.06-3.06-7.37-9.23-7.37-13.36a8.07,8.07,0,0,1,16.14,0c0,4.37-4.51,10.51-7.36,13.36A1,1,0,0,1,38.68,72.66Zm0-19.72A6.08,6.08,0,0,0,32.61,59c0,3.23,3.4,8.28,6.07,11.2,2.67-2.92,6.07-8,6.07-11.2A6.07,6.07,0,0,0,38.68,52.94Zm.15,10.37a4.3,4.3,0,1,1,4.3-4.3A4.3,4.3,0,0,1,38.83,63.31Zm0-6.6a2.3,2.3,0,1,0,2.3,2.3A2.3,2.3,0,0,0,38.83,56.71Z"/>
    </g>
    <g>
      <line class="primary" x1="42.96" y1="46.69" x2="55.62" y2="53.71"/>
      <path class="secondary" d="M55.2,54.48a.94.94,0,0,1-.48-.13l-1.75-1a1,1,0,0,1,1-1.75l1.75,1A1,1,0,0,1,56.08,54,1,1,0,0,1,55.2,54.48ZM50,51.57a1,1,0,0,1-.49-.13l-1.75-1a1,1,0,0,1,1-1.75l1.75,1A1,1,0,0,1,50,51.57Zm-5.25-2.91a.94.94,0,0,1-.48-.13l-1.75-1a1,1,0,0,1,1-1.75l1.75,1a1,1,0,0,1-.49,1.88Z"/>
    </g>
    <g>
      <line class="primary" x1="61.24" y1="59.66" x2="45.61" y2="71.76"/>
      <path class="secondary" d="M45.61,72.76A1,1,0,0,1,45,71l1.39-1.07a1,1,0,1,1,1.23,1.58l-1.39,1.08A1,1,0,0,1,45.61,72.76Zm4.56-3.53a1,1,0,0,1-.79-.39,1,1,0,0,1,.18-1.4l1.58-1.23a1,1,0,0,1,1.22,1.59L50.78,69A1,1,0,0,1,50.17,69.23Zm4.74-3.67a1,1,0,0,1-.79-.39,1,1,0,0,1,.18-1.4l1.58-1.23a1,1,0,1,1,1.23,1.59l-1.59,1.22A1,1,0,0,1,54.91,65.56Zm4.75-3.67a1,1,0,0,1-.61-1.8l1.58-1.22a1,1,0,0,1,1.22,1.58l-1.58,1.23A1,1,0,0,1,59.66,61.89Z"/>
    </g>
  </g>
</svg>
