<svg class="triumph-svg-icon" xmlns="http://www.w3.org/2000/svg" width="1.38in" height="1.38in" viewBox="0 0 99.25 99.25">
  <defs>
    <style>
      .icon-accent {
        fill: #c8c9c7;
      }

      .icon-dark {
        fill: #000000;
      }
    </style>
  </defs>
  <g>
    <g>
      <g>
        <rect class="icon-accent" x="19.11" y="52.05" width="14.35" height="12.12"/>
        <path class="icon-dark" d="M33.45,65.17H19.11a1,1,0,0,1-1-1V52.05a1,1,0,0,1,1-1H33.45a1,1,0,0,1,1,1V64.17A1,1,0,0,1,33.45,65.17Zm-13.34-2H32.45V53.05H20.11Z"/>
      </g>
      <g>
        <rect class="icon-accent" x="42.5" y="52.05" width="14.35" height="12.12"/>
        <path class="icon-dark" d="M56.85,65.17H42.5a1,1,0,0,1-1-1V52.05a1,1,0,0,1,1-1H56.85a1,1,0,0,1,1,1V64.17A1,1,0,0,1,56.85,65.17Zm-13.35-2H55.85V53.05H43.5Z"/>
      </g>
      <g>
        <rect class="icon-accent" x="65.89" y="52.05" width="14.35" height="12.12"/>
        <path class="icon-dark" d="M80.24,65.17H65.89a1,1,0,0,1-1-1V52.05a1,1,0,0,1,1-1H80.24a1,1,0,0,1,1,1V64.17A1,1,0,0,1,80.24,65.17Zm-13.35-2H79.24V53.05H66.89Z"/>
      </g>
    </g>
    <path class="icon-dark" d="M68.51,79.57H30.83a5.53,5.53,0,0,1,0-11H68.51a5.53,5.53,0,0,1,0,11Zm-37.68-9a3.53,3.53,0,0,0,0,7H68.51a3.53,3.53,0,0,0,0-7Z"/>
    <g>
      <path class="icon-dark" d="M40.72,75H38a1,1,0,0,1,0-2h2.75a1,1,0,0,1,0,2Z"/>
      <path class="icon-dark" d="M33.83,75H31.08a1,1,0,0,1,0-2h2.75a1,1,0,0,1,0,2Z"/>
      <path class="icon-dark" d="M54.49,75H51.74a1,1,0,1,1,0-2h2.75a1,1,0,0,1,0,2Z"/>
      <path class="icon-dark" d="M47.61,75H44.85a1,1,0,0,1,0-2h2.76a1,1,0,0,1,0,2Z"/>
      <path class="icon-dark" d="M68.27,75H65.51a1,1,0,0,1,0-2h2.76a1,1,0,0,1,0,2Z"/>
      <path class="icon-dark" d="M61.38,75H58.63a1,1,0,0,1,0-2h2.75a1,1,0,1,1,0,2Z"/>
    </g>
    <path class="icon-dark" d="M49.67,64.41a1,1,0,0,1-1-1V52.69a1,1,0,0,1,2,0V63.41A1,1,0,0,1,49.67,64.41Z"/>
    <path class="icon-dark" d="M61.36,60.18a1,1,0,0,1-1-1V48.34A4.16,4.16,0,0,0,56.27,44H43.08A4.16,4.16,0,0,0,39,48.34V59.18a1,1,0,0,1-2,0V48.34A6.11,6.11,0,0,1,43.08,42H56.27a6.11,6.11,0,0,1,6.09,6.39V59.18A1,1,0,0,1,61.36,60.18Z"/>
    <path class="icon-dark" d="M49.67,39.89a7,7,0,0,1-7.11-6.81,1,1,0,0,1,2,0,5.12,5.12,0,0,0,10.23,0,1,1,0,0,1,2,0A7,7,0,0,1,49.67,39.89Z"/>
    <path class="icon-dark" d="M55.79,30.13a1,1,0,0,1-1-1,4.92,4.92,0,0,0-5.12-4.81,5,5,0,0,0-5.11,4.81,1,1,0,0,1-2,0,7.12,7.12,0,0,1,14.23,0A1,1,0,0,1,55.79,30.13Z"/>
    <path class="icon-dark" d="M58.23,30.92H41.11a1,1,0,0,1,0-2H58.23a1,1,0,1,1,0,2Z"/>
    <path class="icon-dark" d="M49.67,30.55a1,1,0,0,1-1-1V23.69a1,1,0,1,1,2,0v5.86A1,1,0,0,1,49.67,30.55Z"/>
  </g>
</svg>
