<svg class="triumph-svg-icon" xmlns="http://www.w3.org/2000/svg" width="1.38in" height="1.38in" viewBox="0 0 99.25 99.25">
  <defs>
    <style>
      .cls-1 {
        fill: #808080;
      }

      .cls-2 {
        fill: #000000;
      }
    </style>
  </defs>
  <g>
    <g>
      <rect class="cls-1" x="34.82" y="45.61" width="19.35" height="19.35"/>
      <path class="cls-2" d="M54.17,66H34.82a1,1,0,0,1-1-1V45.61a1,1,0,0,1,1-1H54.17a1,1,0,0,1,1,1V65A1,1,0,0,1,54.17,66ZM35.82,64H53.17V46.61H35.82Z"/>
    </g>
    <path class="cls-2" d="M42.07,58.82a1,1,0,0,1-.71-.3,1,1,0,0,1,0-1.42L69.25,29.5a1,1,0,0,1,1.42,0,1,1,0,0,1,0,1.41L42.78,58.53A1,1,0,0,1,42.07,58.82Z"/>
    <path class="cls-2" d="M70,37.6a1,1,0,0,1-1-1V31.21H63a1,1,0,0,1,0-2H70a1,1,0,0,1,1,1V36.6A1,1,0,0,1,70,37.6Z"/>
    <path class="cls-2" d="M63.45,70.42H30.35a1,1,0,0,1-1-1V36.6a1,1,0,0,1,1-1h33.1a1,1,0,0,1,1,1V69.42A1,1,0,0,1,63.45,70.42Zm-32.1-2h31.1V37.6H31.35Z"/>
  </g>
</svg>
