<svg class="triumph-svg-icon" xmlns="http://www.w3.org/2000/svg" viewBox="0 0 99.25 99.25">
  <defs>
    <style>
      .icon-accent
        fill: #c8c9c7;
      }

      .icon-dark {
        fill: #000000;
      }
    </style>
  </defs>
  <g>
    <g>
      <g>
        <path class="icon-accent" d="M38.08,27.75c-5,0-8.82,3.39-9.6,6-3.48.46-5.82,3.49-5.82,7.21a6.71,6.71,0,0,0,0,.87c-2.25,1.1-3.81,4-3.81,7.39a8.89,8.89,0,0,0,2.39,6.1c-.78,3.58.59,10.7,7.89,10,2.11,4.78,6.06,7.07,13.68,5.69V27.79S41.7,27.75,38.08,27.75Z"/>
        <path class="icon-dark" d="M38.78,72.42c-4.89,0-8.2-2-10.23-6a7.59,7.59,0,0,1-6.19-2.49A10.68,10.68,0,0,1,20.2,55.6a10.13,10.13,0,0,1-2.31-6.42c0-3.44,1.46-6.48,3.77-8v-.31c0-4.09,2.47-7.33,6.09-8.1C29,30.1,32.9,26.75,38.08,26.75c3.6,0,4.76,0,4.81,0a1,1,0,0,1,1,1V71A1,1,0,0,1,43,72,23.68,23.68,0,0,1,38.78,72.42Zm-9.61-8.09a1,1,0,0,1,.92.6c2,4.53,5.64,6.17,11.76,5.25V28.77l-3.77,0c-4.54,0-8,3.1-8.64,5.25a1,1,0,0,1-.83.7c-2.92.39-4.95,2.94-4.95,6.22a4.64,4.64,0,0,0,0,.73,1,1,0,0,1-.55,1c-1.94,1-3.25,3.56-3.25,6.49A8,8,0,0,0,22,54.57a1,1,0,0,1,.29.93,8.68,8.68,0,0,0,1.6,7,5.87,5.87,0,0,0,5.22,1.79Zm-.69-30.62h0Z"/>
      </g>
      <g>
        <path class="icon-accent" d="M35.69,40.87c-4.13,0-7.16-1-7.16-7.16"/>
        <path class="icon-dark" d="M35.69,41.87c-4,0-8.16-1-8.16-8.16a1,1,0,0,1,2,0c0,5.21,2.07,6.16,6.16,6.16a1,1,0,0,1,0,2Z"/>
      </g>
      <g>
        <path class="icon-accent" d="M28.53,48.08A5.83,5.83,0,0,0,35.41,47c2.3-2.38,4.87-2.61,7.48.09"/>
        <path class="icon-dark" d="M31.12,49.77A5.77,5.77,0,0,1,28,48.92a1,1,0,0,1,1.08-1.68,4.86,4.86,0,0,0,5.62-.91,6.13,6.13,0,0,1,4.39-2.17h0a6.36,6.36,0,0,1,4.53,2.26,1,1,0,1,1-1.43,1.39,4.48,4.48,0,0,0-3.1-1.65h0a4.24,4.24,0,0,0-2.95,1.56A7,7,0,0,1,31.12,49.77Z"/>
      </g>
      <g>
        <path class="icon-accent" d="M42.89,36.1c-2.93,1.1-6.1.27-7.15-2.39"/>
        <path class="icon-dark" d="M40.37,37.57a5.74,5.74,0,0,1-5.56-3.49,1,1,0,1,1,1.85-.74c.92,2.3,3.66,2.66,5.88,1.82A1,1,0,0,1,43.25,37,8.34,8.34,0,0,1,40.37,37.57Z"/>
      </g>
      <g>
        <path class="icon-accent" d="M42.89,60.93a4.24,4.24,0,0,0-5.69,2.29"/>
        <path class="icon-dark" d="M37.2,64.22a1,1,0,0,1-.38-.07,1,1,0,0,1-.54-1.31,5.25,5.25,0,0,1,7-2.85,1,1,0,0,1-.69,1.88,3.23,3.23,0,0,0-4.42,1.74A1,1,0,0,1,37.2,64.22Z"/>
      </g>
      <g>
        <path class="icon-accent" d="M30.92,58.86c-1.93-.32-3.58-2.11-3.58-3.58"/>
        <path class="icon-dark" d="M30.92,59.86h-.17c-2.35-.39-4.41-2.53-4.41-4.57a1,1,0,0,1,2,0,3.35,3.35,0,0,0,2.74,2.6A1,1,0,0,1,31.9,59,1,1,0,0,1,30.92,59.86Z"/>
      </g>
      <g>
        <path class="icon-accent" d="M29.26,65.29c0-4.36,2.48-10.05,8.86-10.05"/>
        <path class="icon-dark" d="M29.26,66.29a1,1,0,0,1-1-1c0-5.49,3.39-11.05,9.86-11.05a1,1,0,0,1,0,2c-6.21,0-7.86,5.92-7.86,9.05A1,1,0,0,1,29.26,66.29Z"/>
      </g>
      <g>
        <path class="icon-accent" d="M25,44.68a3.43,3.43,0,0,1,3.58,3.4,3.89,3.89,0,0,1-2.39,3.58"/>
        <path class="icon-dark" d="M26.14,52.66a1,1,0,0,1-.34-1.94,2.88,2.88,0,0,0,1.73-2.64A2.44,2.44,0,0,0,25,45.68a1,1,0,1,1,0-2,4.44,4.44,0,0,1,4.58,4.4,4.91,4.91,0,0,1-3,4.52A1.07,1.07,0,0,1,26.14,52.66Z"/>
      </g>
    </g>
    <path class="icon-dark" d="M64,41.08c-9.08,0-16.93-8.19-17.25-8.54a1,1,0,0,1,0-1.35c.3-.34,7.6-8.37,17.27-8.37s16.78,8,17.08,8.38a1,1,0,0,1,0,1.33C80.77,32.88,73.11,41.08,64,41.08ZM48.92,31.84c2,1.91,8.34,7.24,15.11,7.24S77,33.75,79,31.84c-1.89-1.87-7.74-7-14.93-7S50.86,30,48.92,31.84Z"/>
    <g>
      <circle class="icon-accent" cx="63.93" cy="31.95" r="4.67"/>
      <path class="icon-dark" d="M63.93,37.62A5.67,5.67,0,1,1,69.6,32,5.68,5.68,0,0,1,63.93,37.62Zm0-9.33A3.67,3.67,0,1,0,67.6,32,3.67,3.67,0,0,0,63.93,28.29Z"/>
    </g>
    <circle class="icon-dark" cx="63.93" cy="31.95" r="1.9"/>
    <path class="icon-dark" d="M70.58,76.5c-2.18,0-3.09-2.67-4.06-5.5-.75-2.21-1.68-5-3-5.21-1.34.26-2.28,3-3,5.21-1,2.83-1.87,5.5-4.05,5.5-2.83,0-5.22-4.84-5.22-10.56a15.57,15.57,0,0,1,.38-3.77,10,10,0,0,0,.27-2.45,7.62,7.62,0,0,0-1-3.12,12.25,12.25,0,0,1-1.62-5.69,7.2,7.2,0,0,1,7-6.9,14.84,14.84,0,0,1,7.35,1.75A14.88,14.88,0,0,1,70.85,44a7.2,7.2,0,0,1,6.94,6.9,12.25,12.25,0,0,1-1.61,5.69,7.5,7.5,0,0,0-1,3.12,10.53,10.53,0,0,0,.27,2.45,15.57,15.57,0,0,1,.38,3.77C75.79,71.66,73.4,76.5,70.58,76.5ZM63.49,63.78h.1c2.68.26,3.82,3.61,4.83,6.57C69,72,69.83,74.5,70.58,74.5c1.12,0,3.21-3.53,3.21-8.56a14.21,14.21,0,0,0-.33-3.36,11.79,11.79,0,0,1-.32-2.86,9,9,0,0,1,1.24-4,10.44,10.44,0,0,0,1.41-4.81A5.19,5.19,0,0,0,70.85,46a12.23,12.23,0,0,0-6.79,1.75,1,1,0,0,1-1.13,0A12.26,12.26,0,0,0,56.14,46a5.2,5.2,0,0,0-5,4.9,10.56,10.56,0,0,0,1.41,4.81,9,9,0,0,1,1.24,4,12.43,12.43,0,0,1-.31,2.86,13.54,13.54,0,0,0-.34,3.36c0,5,2.09,8.56,3.22,8.56.75,0,1.6-2.49,2.16-4.14,1-3,2.14-6.31,4.82-6.57Z"/>
  </g>
</svg>
