<svg xmlns="http://www.w3.org/2000/svg" viewBox="0 0 99.25 99.25"><defs><style>.cls-1{fill:#c8c9c7;}.cls-1,.cls-2{stroke:#000;stroke-linecap:round;stroke-linejoin:round;stroke-width:2px;}.cls-2{fill:none;}</style></defs><g id="Titles"><path class="cls-1" d="M38.08,27.71c-5,0-8.82,3.39-9.6,6-3.48.46-5.82,3.49-5.82,7.21a6.71,6.71,0,0,0,0,.87c-2.25,1.1-3.81,4-3.81,7.39a8.88,8.88,0,0,0,2.39,6.1c-.78,3.58.59,10.7,7.89,10.06,2.11,4.77,6.06,7.06,13.68,5.69V27.75S41.7,27.71,38.08,27.71Z"/><path class="cls-1" d="M35.69,40.83c-4.13,0-7.16-1-7.16-7.16"/><path class="cls-1" d="M28.53,48A5.83,5.83,0,0,0,35.41,47c2.3-2.38,4.87-2.61,7.48.1"/><path class="cls-1" d="M42.89,36.06c-2.93,1.1-6.1.28-7.15-2.39"/><path class="cls-1" d="M42.89,60.89a4.24,4.24,0,0,0-5.69,2.29"/><path class="cls-1" d="M30.92,58.82c-1.93-.32-3.58-2.11-3.58-3.58"/><path class="cls-1" d="M29.26,65.25c0-4.36,2.48-10,8.86-10"/><path class="cls-1" d="M25,44.64A3.44,3.44,0,0,1,28.53,48a3.89,3.89,0,0,1-2.39,3.58"/><path class="cls-2" d="M47.5,31.82s7.2-8,16.53-8,16.33,8,16.33,8S72.78,40.05,64,40.05,47.5,31.82,47.5,31.82Z"/><circle class="cls-1" cx="63.93" cy="31.92" r="4.67"/><circle cx="63.93" cy="31.92" r="1.9"/><path class="cls-2" d="M76.79,50.87A6.21,6.21,0,0,0,70.85,45a13.21,13.21,0,0,0-7.36,1.93A13.19,13.19,0,0,0,56.14,45a6.22,6.22,0,0,0-6,5.9c0,3.94,2.65,6.11,2.65,8.81s-.65,2.7-.65,6.22c0,5.19,2.17,9.57,4.22,9.57,3.08,0,3.2-10.34,7.08-10.73,3.89.39,4,10.73,7.08,10.73,2.06,0,4.22-4.38,4.22-9.57,0-3.52-.65-3.52-.65-6.22S76.79,54.81,76.79,50.87Z"/></g></svg>