<svg class="triumph-svg-icon" xmlns="http://www.w3.org/2000/svg" width="1.38in" height="1.38in" viewBox="0 0 99.25 99.25">
  <defs>
    <style>
      .cls-1 {
        fill: #808080;
      }

      .cls-2 {
        fill: #000000;
      }
    </style>
  </defs>
  <g>
    <path class="cls-1" d="M49.79,51.1A4.06,4.06,0,1,1,53.85,47,4,4,0,0,1,49.79,51.1ZM62,49.66V44.31H59.14a4.24,4.24,0,0,0-.92-2.21l2.41-2.41L57,36.09l-2.32,2.42a4.28,4.28,0,0,0-2.16-.93V34.91H47.22v2.67a4.75,4.75,0,0,0-2.26.93l-2.41-2.42L39,39.69l2.41,2.36a4.44,4.44,0,0,0-.92,2.21h-4v5.4h4a4.24,4.24,0,0,0,.92,2.16L39,54.18l3.6,3.6L45,55.36a4.49,4.49,0,0,0,2.26.93v4.16h5.4V56.29a4.24,4.24,0,0,0,2.15-.93l2.37,2.42,3.59-3.6-2.41-2.31a4.2,4.2,0,0,0,.92-2.16H62Z"/>
    <g>
      <path class="cls-2" d="M52.62,61.45h-5.4a1,1,0,0,1-1-1V57.11a4.19,4.19,0,0,1-1.12-.48l-1.85,1.85a1,1,0,0,1-1.41,0l-3.6-3.59a1,1,0,0,1,0-1.43l1.83-1.79a3.52,3.52,0,0,1-.45-1h-3.2a1,1,0,0,1-1-1v-5.4a1,1,0,0,1,1-1h3.2a3.85,3.85,0,0,1,.46-1.06l-1.84-1.8a1,1,0,0,1-.3-.7,1,1,0,0,1,.29-.72l3.6-3.59a1,1,0,0,1,1.41,0l1.86,1.85a4.26,4.26,0,0,1,1.11-.47V34.91a1,1,0,0,1,1-1h5.34a1,1,0,0,1,1,1v1.86a4.17,4.17,0,0,1,1,.45l1.74-1.82a1.07,1.07,0,0,1,.71-.31,1.13,1.13,0,0,1,.72.3L61.34,39a1,1,0,0,1,0,1.42L59.5,42.24A4.29,4.29,0,0,1,60,43.31H62a1,1,0,0,1,1,1v5.4a1,1,0,0,1-1,1h-2a3.82,3.82,0,0,1-.44,1l1.82,1.74a1,1,0,0,1,0,1.43l-3.59,3.59a1,1,0,0,1-.71.3.87.87,0,0,1-.72-.3l-1.79-1.84a3.81,3.81,0,0,1-1,.46v3.35A1,1,0,0,1,52.62,61.45Zm-4.4-2h3.4V56.29a1,1,0,0,1,.85-1,2.46,2.46,0,0,0,1.28-.47c.16-.11.32-.22.53-.34a1,1,0,0,1,1.21.17l1.66,1.69,2.15-2.16-1.67-1.6a1,1,0,0,1-.18-1.22,5.24,5.24,0,0,1,.34-.52,2.51,2.51,0,0,0,.47-1.29,1,1,0,0,1,1-.85H61v-3.4H59.14a1,1,0,0,1-1-.84A2.72,2.72,0,0,0,57.62,43c-.08-.12-.17-.25-.25-.39a1,1,0,0,1,.14-1.23l1.71-1.71-2.17-2.17-1.6,1.68a1,1,0,0,1-1.22.18A5.49,5.49,0,0,1,53.7,39a2.47,2.47,0,0,0-1.29-.47,1,1,0,0,1-.85-1V35.91H48.22v1.67a1,1,0,0,1-.85,1,2.91,2.91,0,0,0-1.46.53l-.45.28a1,1,0,0,1-1.21-.16l-1.7-1.71-2.18,2.17,1.69,1.66a1,1,0,0,1,.17,1.21c-.11.19-.21.34-.3.49a2.6,2.6,0,0,0-.5,1.38,1,1,0,0,1-1,.84h-3v3.4h3a1,1,0,0,1,1,.85,2.46,2.46,0,0,0,.47,1.29c.1.15.21.31.33.52a1,1,0,0,1-.17,1.21l-1.69,1.66,2.18,2.17,1.7-1.71a1,1,0,0,1,1.21-.16l.47.3a2.88,2.88,0,0,0,1.44.51,1,1,0,0,1,.85,1Zm1.57-7.35A5.06,5.06,0,1,1,54.85,47,5.07,5.07,0,0,1,49.79,52.1Zm0-8.12a3.06,3.06,0,0,0,0,6.12A3.07,3.07,0,0,0,52.85,47,3,3,0,0,0,49.79,44Z"/>
      <path class="cls-2" d="M56.62,73.52a1,1,0,0,1-1-1V69.8c0-4.21,2-6,4.57-8.32.64-.57,1.33-1.19,2.05-1.9a18.8,18.8,0,0,0,5.61-13.52c0-9.09-8.22-16.78-18-16.78s-18,7.69-18,16.78a18.84,18.84,0,0,0,5.61,13.52c.67.64,1.31,1.21,1.9,1.74,2.64,2.34,4.72,4.19,4.72,8.48v2.72a1,1,0,0,1-2,0V69.8c0-3.39-1.44-4.67-4-7-.62-.54-1.28-1.13-2-1.79a20.82,20.82,0,0,1-6.22-15c0-10.18,9.14-18.78,20-18.78s20,8.6,20,18.78A20.77,20.77,0,0,1,63.64,61c-.74.73-1.45,1.37-2.11,2-2.43,2.19-3.91,3.51-3.91,6.83v2.72A1,1,0,0,1,56.62,73.52Z"/>
      <path class="cls-2" d="M58,76.25H41.83a1,1,0,0,1,0-2H58a1,1,0,1,1,0,2Z"/>
      <path class="cls-2" d="M52.56,81.59H47.22a1,1,0,0,1-.69-.28l-1.1-1.06H43.16a1,1,0,0,1,0-2h2.67a1,1,0,0,1,.7.28l1.09,1.06h4.54l1.1-1.06a1,1,0,0,1,.69-.28h2.67a1,1,0,1,1,0,2H54.36l-1.1,1.06A1,1,0,0,1,52.56,81.59Z"/>
      <path class="cls-2" d="M54,72.19H45.83a1,1,0,0,1,0-2H54a1,1,0,0,1,0,2Z"/>
      <path class="cls-2" d="M43.62,24.61a1,1,0,0,1-1-.74l-1.39-5.19A1,1,0,0,1,42,17.45a1,1,0,0,1,1.22.71l1.39,5.19a1,1,0,0,1-.71,1.22A.75.75,0,0,1,43.62,24.61Z"/>
      <path class="cls-2" d="M32.78,30.88a1,1,0,0,1-.7-.3l-3.81-3.8a1,1,0,0,1,0-1.41,1,1,0,0,1,1.42,0l3.8,3.8a1,1,0,0,1,0,1.41A1,1,0,0,1,32.78,30.88Z"/>
      <path class="cls-2" d="M26.52,41.72a.75.75,0,0,1-.26,0L21.07,40.3a1,1,0,0,1,.51-1.94l5.19,1.39a1,1,0,0,1-.25,2Z"/>
      <path class="cls-2" d="M21.32,55.64a1,1,0,0,1-.25-2l5.19-1.39a1,1,0,0,1,.51,1.93l-5.19,1.39A1.09,1.09,0,0,1,21.32,55.64Z"/>
      <path class="cls-2" d="M29,68.9a1,1,0,0,1-.71-.29,1,1,0,0,1,0-1.42l3.81-3.8a1,1,0,0,1,1.41,1.41l-3.8,3.81A1,1,0,0,1,29,68.9Z"/>
      <path class="cls-2" d="M70.8,68.9a1,1,0,0,1-.7-.29L66.3,64.8a1,1,0,0,1,1.41-1.41l3.8,3.8a1,1,0,0,1-.71,1.71Z"/>
      <path class="cls-2" d="M78.46,55.64l-.26,0L73,54.22a1,1,0,0,1,.52-1.93l5.19,1.39a1,1,0,0,1-.26,2Z"/>
      <path class="cls-2" d="M73.27,41.72a1,1,0,0,1-.26-2l5.19-1.39a1,1,0,1,1,.52,1.94l-5.19,1.38A.78.78,0,0,1,73.27,41.72Z"/>
      <path class="cls-2" d="M67,30.88a1,1,0,0,1-.7-.3,1,1,0,0,1,0-1.41l3.8-3.8a1,1,0,1,1,1.41,1.41l-3.8,3.8A1,1,0,0,1,67,30.88Z"/>
      <path class="cls-2" d="M56.16,24.61a.82.82,0,0,1-.26,0,1,1,0,0,1-.7-1.22l1.38-5.19a1,1,0,0,1,1.23-.71,1,1,0,0,1,.7,1.23l-1.38,5.19A1,1,0,0,1,56.16,24.61Z"/>
    </g>
  </g>
</svg>
