<svg class="triumph-svg-icon" xmlns="http://www.w3.org/2000/svg" width="1.38in" height="1.38in" viewBox="0 0 99.25 99.25">
  <defs>
    <style>
      .icon-dark {
        fill: #000000;
      }

      .icon-accent {
        fill: #c8c9c7;
      }
    </style>
  </defs>
  <g>
    <path class="icon-dark" d="M52.23,77.87H32.53A4.93,4.93,0,0,1,27.61,73V35.27a4.92,4.92,0,0,1,4.92-4.91h19.7a4.92,4.92,0,0,1,4.92,4.91V73A4.93,4.93,0,0,1,52.23,77.87ZM32.53,32.36a2.92,2.92,0,0,0-2.92,2.91V73a2.92,2.92,0,0,0,2.92,2.92h19.7A2.92,2.92,0,0,0,55.15,73V35.27a2.92,2.92,0,0,0-2.92-2.91Z"/>
    <path class="icon-dark" d="M56.15,38.66H28.61a1,1,0,0,1,0-2H56.15a1,1,0,1,1,0,2Z"/>
    <path class="icon-dark" d="M55.38,65H29.24a1,1,0,0,1,0-2H55.38a1,1,0,1,1,0,2Z"/>
    <path class="icon-dark" d="M42.38,73.89a3.42,3.42,0,1,1,3.42-3.41A3.42,3.42,0,0,1,42.38,73.89Zm0-4.83a1.42,1.42,0,1,0,1.42,1.42A1.42,1.42,0,0,0,42.38,69.06Z"/>
    <g>
      <circle class="icon-accent" cx="57.71" cy="36.91" r="14.33"/>
      <path class="icon-dark" d="M57.71,52.23A15.33,15.33,0,1,1,73,36.91,15.34,15.34,0,0,1,57.71,52.23Zm0-28.65A13.33,13.33,0,1,0,71,36.91,13.35,13.35,0,0,0,57.71,23.58Z"/>
    </g>
    <circle class="icon-dark" cx="57.69" cy="44.06" r="2.11"/>
    <polygon class="icon-dark" points="58.84 39.87 56.54 39.87 55.13 28.99 60.24 28.99 58.84 39.87"/>
  </g>
</svg>
