<svg class="triumph-svg-icon" xmlns="http://www.w3.org/2000/svg" width="1.38in" height="1.38in" viewBox="0 0 99.25 99.25">
  <defs>
    <style>
      .icon-dark {
        fill: #000000;
      }
    </style>
  </defs>
  <g>
    <path class="icon-dark" d="M60.75,74H41A4.93,4.93,0,0,1,36.12,69V31.35A4.92,4.92,0,0,1,41,26.44H60.75a4.91,4.91,0,0,1,4.91,4.91V69A4.92,4.92,0,0,1,60.75,74ZM41,28.44a2.92,2.92,0,0,0-2.92,2.91V69A2.92,2.92,0,0,0,41,72H60.75A2.92,2.92,0,0,0,63.66,69V31.35a2.92,2.92,0,0,0-2.91-2.91Z"/>
    <path class="icon-dark" d="M64.66,34.74H37.12a1,1,0,0,1,0-2H64.66a1,1,0,0,1,0,2Z"/>
    <path class="icon-dark" d="M64.84,61H36.94a1,1,0,0,1,0-2h27.9a1,1,0,0,1,0,2Z"/>
    <path class="icon-dark" d="M50.89,70a3.42,3.42,0,1,1,3.42-3.41A3.42,3.42,0,0,1,50.89,70Zm0-4.83a1.42,1.42,0,1,0,1.42,1.42A1.42,1.42,0,0,0,50.89,65.14Z"/>
    <path class="icon-dark" d="M46.66,46.09H30.43a1,1,0,0,1,0-2H46.66a1,1,0,0,1,0,2Z"/>
    <path class="icon-dark" d="M46.66,40.64H30.43a1,1,0,1,1,0-2H46.66a1,1,0,0,1,0,2Z"/>
    <path class="icon-dark" d="M39.88,51.49H30.43a1,1,0,0,1,0-2h9.45a1,1,0,0,1,0,2Z"/>
  </g>
</svg>
