<svg class="triumph-svg-icon" xmlns="http://www.w3.org/2000/svg" width="1.38in" height="1.38in" viewBox="0 0 99.25 99.25">
  <defs>
    <style>
      .icon-accent {
        fill: #c8c9c7;
      }

      .icon-dark {
        fill: #000000;
      }
    </style>
  </defs>
  <g>
    <g>
      <path class="icon-accent" d="M70.31,51.92a14,14,0,0,0-.67-4A15,15,0,0,0,67,43.17a9.88,9.88,0,0,1-18-7.68H48.7A37.34,37.34,0,0,0,40,36.55s-2.48-3.81-11.92-3.35a40.13,40.13,0,0,1,4.16,8.11,15.3,15.3,0,0,0-4.57,7h-4v10.8h5.62a18.14,18.14,0,0,0,5.81,5.6l-2,8.1h9.29l1.41-4.86a27.38,27.38,0,0,0,10.1,0l1.42,4.9h9.29l-2-8.24C67.29,61.52,70.17,57,70.31,51.92Z"/>
      <path class="icon-dark" d="M64.58,73.77H55.29a1,1,0,0,1-1-.72l-1.17-4a28.08,28.08,0,0,1-8.68,0l-1.16,4a1,1,0,0,1-1,.72H33.07a1,1,0,0,1-1-1.24l1.83-7.4a19.35,19.35,0,0,1-5.21-5.06H23.63a1,1,0,0,1-1-1V48.27a1,1,0,0,1,1-1h3.29A16.41,16.41,0,0,1,31.05,41a40.13,40.13,0,0,0-3.83-7.26,1,1,0,0,1-.07-1A1,1,0,0,1,28,32.2c7.78-.37,11.17,2.08,12.32,3.23a39.26,39.26,0,0,1,8.38-1h.19a1.12,1.12,0,0,1,.84.39,1.06,1.06,0,0,1,.22.87,8.88,8.88,0,0,0,16.15,6.9,1,1,0,0,1,1.63-.12,15.89,15.89,0,0,1,2.86,5.07A15.23,15.23,0,0,1,71.31,52h0c-.14,5.09-2.91,9.8-7.62,13l1.86,7.55a1,1,0,0,1-.19.86A1,1,0,0,1,64.58,73.77Zm-8.54-2H63.3l-1.72-7A1,1,0,0,1,62,63.69c4.51-2.87,7.17-7.17,7.3-11.8h0a13.54,13.54,0,0,0-.62-3.66A13.39,13.39,0,0,0,67,44.86,10.87,10.87,0,0,1,47.76,36.5a36.52,36.52,0,0,0-7.53,1,1,1,0,0,1-1.1-.42S37,34.24,29.84,34.16A37.45,37.45,0,0,1,33.16,41a1,1,0,0,1-.28,1.07,14.32,14.32,0,0,0-4.28,6.51,1,1,0,0,1-1,.71h-3v8.8h4.63a1,1,0,0,1,.84.47,17.37,17.37,0,0,0,5.49,5.28A1,1,0,0,1,36,64.91l-1.69,6.86H41.6l1.21-4.14a1,1,0,0,1,1.13-.7,26.58,26.58,0,0,0,9.74-.05,1,1,0,0,1,1.15.71ZM70.31,51.92h0Z"/>
    </g>
    <path class="icon-dark" d="M73.63,50.9a7.17,7.17,0,0,1-4.1-1.37,1,1,0,1,1,1.19-1.61h0A4.38,4.38,0,0,0,77,47a1,1,0,0,1,1.59,1.22A6.16,6.16,0,0,1,73.63,50.9Z"/>
    <circle class="icon-dark" cx="35.27" cy="47.22" r="1.62"/>
    <g>
      <path class="icon-dark" d="M58.53,48.84a10.89,10.89,0,1,1,10.4-7.72h0a10.94,10.94,0,0,1-10.4,7.72Zm0-19.79A8.89,8.89,0,1,0,67,40.53h0a8.91,8.91,0,0,0-8.5-11.48Z"/>
      <path class="icon-dark" d="M58.6,42.62a3.45,3.45,0,0,1-3.43-2.85,1,1,0,1,1,1.92-.53c.34,1.22,1,1.38,1.51,1.38.73,0,1.08-.33,1.08-1s-.16-.76-1.37-1.06c-1.05-.27-2.81-.72-2.81-2.9,0-1.31.88-2.85,3.34-2.85a3,3,0,0,1,2.92,2.78,1,1,0,0,1-.93,1.07,1,1,0,0,1-1.07-.92c0-.19-.22-.93-.92-.93-1.34,0-1.34.64-1.34.85,0,.52.1.65,1.3,1s2.88.73,2.88,3A2.88,2.88,0,0,1,58.6,42.62Z"/>
      <path class="icon-dark" d="M58.69,34.73a1,1,0,0,1-1-1V32.3a1,1,0,0,1,2,0v1.43A1,1,0,0,1,58.69,34.73Z"/>
      <path class="icon-dark" d="M58.69,44.31a1,1,0,0,1-1-1V41.88a1,1,0,1,1,2,0v1.43A1,1,0,0,1,58.69,44.31Z"/>
    </g>
  </g>
</svg>
