<svg xmlns="http://www.w3.org/2000/svg" viewBox="0 0 99.25 99.25"><defs><style>.cls-1,.cls-3{fill:none;}.cls-1,.cls-2,.cls-4{stroke:#000;}.cls-1,.cls-2,.cls-3,.cls-4{stroke-linecap:round;stroke-linejoin:round;stroke-width:2px;}.cls-2{fill:#c8c9c7;}.cls-3{stroke:#00263e;}.cls-4{fill:#fff;}</style></defs><g id="Icons"><polyline class="cls-1" points="28.14 65.75 28.14 36.38 46.19 28.43 64.26 36.38 64.26 65.88"/><polygon class="cls-2" points="43.19 49.88 35.73 49.88 35.73 46.3 35.73 42.75 43.19 42.75 43.19 49.88"/><rect class="cls-2" x="48.9" y="42.75" width="7.46" height="7.13"/><polyline class="cls-2" points="41.7 65.46 41.7 54.05 50.24 54.05 50.24 65.46"/><line class="cls-3" x1="21.69" y1="66.18" x2="73.85" y2="66.18"/><polyline class="cls-1" points="23.09 35.01 46.24 24.59 69.36 35.01"/><circle class="cls-4" cx="66.82" cy="63.92" r="10.74"/><path class="cls-1" d="M69.25,61.43a2.26,2.26,0,0,0-2.17-2.1c-1.94,0-2.66,1-2.66,2.1,0,3.21,4.74,1.14,4.74,4.48a2.15,2.15,0,0,1-2.35,2.28A2.83,2.83,0,0,1,64,65.8"/><line class="cls-1" x1="66.9" y1="57.63" x2="66.9" y2="59.25"/><line class="cls-1" x1="66.9" y1="68.48" x2="66.9" y2="70.11"/></g></svg>