<svg class="triumph-svg-icon" xmlns="http://www.w3.org/2000/svg" viewBox="0 0 99.25 99.25">
  <defs>
    <style>
      .icon-dark {
        fill: #000000;
      }

      .icon-accent {
        fill: #c8c9c7;
      }
    </style>
  </defs>
  <g>
    <path class="icon-dark" d="M28.14,66.79a1,1,0,0,1-1-1V36.42a1,1,0,0,1,.59-.92l18.06-7.94a.93.93,0,0,1,.8,0L64.66,35.5a1,1,0,0,1,.6.92V53.53a1,1,0,0,1-2,0V37.07L46.19,29.56l-17,7.51V65.79A1,1,0,0,1,28.14,66.79Z"/>
    <g>
      <polygon class="icon-accent" points="43.19 49.92 35.73 49.92 35.73 46.34 35.73 42.79 43.19 42.79 43.19 49.92"/>
      <path class="icon-dark" d="M43.19,50.92H35.73a1,1,0,0,1-1-1V42.79a1,1,0,0,1,1-1h7.46a1,1,0,0,1,1,1v7.13A1,1,0,0,1,43.19,50.92Zm-6.46-2h5.46V43.79H36.73Z"/>
    </g>
    <g>
      <rect class="icon-accent" x="48.9" y="42.79" width="7.46" height="7.13"/>
      <path class="icon-dark" d="M56.37,50.92H48.9a1,1,0,0,1-1-1V42.79a1,1,0,0,1,1-1h7.47a1,1,0,0,1,1,1v7.13A1,1,0,0,1,56.37,50.92Zm-6.47-2h5.47V43.79H49.9Z"/>
    </g>
    <g>
      <polyline class="icon-accent" points="41.7 65.5 41.7 54.09 50.24 54.09 50.24 65.5"/>
      <path class="icon-dark" d="M50.24,66.5a1,1,0,0,1-1-1V55.09H42.7V65.5a1,1,0,0,1-2,0V54.09a1,1,0,0,1,1-1h8.54a1,1,0,0,1,1,1V65.5A1,1,0,0,1,50.24,66.5Z"/>
    </g>
    <path class="icon-dark" d="M56.32,67.22H21.69a1,1,0,1,1,0-2H56.32a1,1,0,0,1,0,2Z"/>
    <path class="icon-dark" d="M69.36,36.05A1,1,0,0,1,69,36L46.24,25.73,23.5,36a1,1,0,1,1-.82-1.82L45.83,23.72a1,1,0,0,1,.82,0L69.77,34.14a1,1,0,0,1-.41,1.91Z"/>
    <g>
      <path class="icon-dark" d="M66.82,75.7A11.74,11.74,0,1,1,78.56,64,11.75,11.75,0,0,1,66.82,75.7Zm0-21.48A9.74,9.74,0,1,0,76.56,64,9.75,9.75,0,0,0,66.82,54.22Z"/>
      <g>
        <path class="icon-dark" d="M66.8,69.23A3.79,3.79,0,0,1,63,66.1,1,1,0,1,1,65,65.57c.41,1.47,1.19,1.66,1.83,1.66.91,0,1.36-.43,1.36-1.28s-.31-1-1.65-1.33c-1.16-.29-3.09-.79-3.09-3.15,0-1.43,1-3.1,3.66-3.1a3.24,3.24,0,0,1,3.17,3,1,1,0,0,1-2,.14,1.26,1.26,0,0,0-1.17-1.17c-1.1,0-1.66.37-1.66,1.1s.22.87,1.58,1.21c1.18.3,3.16.8,3.16,3.27A3.14,3.14,0,0,1,66.8,69.23Z"/>
        <path class="icon-dark" d="M66.9,60.29a1,1,0,0,1-1-1V57.67a1,1,0,0,1,2,0v1.62A1,1,0,0,1,66.9,60.29Z"/>
        <path class="icon-dark" d="M66.9,71.15a1,1,0,0,1-1-1V68.52a1,1,0,0,1,2,0v1.63A1,1,0,0,1,66.9,71.15Z"/>
      </g>
    </g>
  </g>
</svg>
