<svg class="triumph-svg-icon" xmlns="http://www.w3.org/2000/svg" width="1.38in" height="1.38in" viewBox="0 0 99.25 99.25">
  <defs>
    <style>
      .icon-dark {
        fill: #000000;
      }

      .icon-accent {
        fill: #c8c9c7;
      }
    </style>
  </defs>
  <g>
    <path class="icon-dark" d="M39.28,70.73A21.2,21.2,0,0,1,18.16,49.58,21.17,21.17,0,0,1,39.28,28.37h0A21.25,21.25,0,0,1,60.45,49.58,21.15,21.15,0,0,1,39.28,70.73Zm0-40.36A19.19,19.19,0,1,0,58.45,49.58,19.25,19.25,0,0,0,39.28,30.37Z"/>
    <g>
      <g>
        <path class="icon-accent" d="M56.79,69.73A20.18,20.18,0,1,0,36.67,49.58,20.15,20.15,0,0,0,56.79,69.73Z"/>
        <path class="icon-dark" d="M56.79,70.73A21.18,21.18,0,0,1,41.86,34.58a20.91,20.91,0,0,1,14.93-6.21h0A21.25,21.25,0,0,1,78,49.58,21.17,21.17,0,0,1,56.79,70.73Zm0-40.36A19.18,19.18,0,1,0,76,49.58,19.25,19.25,0,0,0,56.79,30.37Z"/>
      </g>
      <path class="icon-dark" d="M56.79,70.73c-5.76,0-10.27-9.31-10.27-21.18S51,28.37,56.81,28.37,67.1,37.68,67.1,49.55,62.57,70.73,56.79,70.73Zm0-40.36c-4.49,0-8.29,8.79-8.29,19.18s3.79,19.18,8.27,19.18S65.1,60,65.1,49.55,61.3,30.37,56.81,30.37Z"/>
      <path class="icon-dark" d="M75.42,44.34H38.17a1,1,0,0,1,0-2H75.42a1,1,0,0,1,0,2Z"/>
      <path class="icon-dark" d="M56.79,70.73a1,1,0,0,1-1-1V29.37a1,1,0,1,1,2,0V69.73A1,1,0,0,1,56.79,70.73Z"/>
      <path class="icon-dark" d="M75.42,56.76H38.17a1,1,0,0,1,0-2H75.42a1,1,0,0,1,0,2Z"/>
    </g>
  </g>
</svg>
