<svg class="triumph-svg-icon" xmlns="http://www.w3.org/2000/svg" width="1.38in" height="1.38in" viewBox="0 0 99.25 99.25">
  <defs>
    <style>
      .secondary {
        fill: #000000;
      }

      .primary {
        fill: #c8c9c7;
      }
    </style>
  </defs>
  <g>
    <path class="secondary" d="M49.37,71.54a22,22,0,1,1,22-22A22,22,0,0,1,49.37,71.54Zm0-42a20,20,0,1,0,20,20A20,20,0,0,0,49.37,29.54Z"/>
    <g>
      <rect class="primary" x="38.21" y="45.35" width="22.33" height="8.37"/>
      <path class="secondary" d="M60.54,54.73H38.21a1,1,0,0,1-1-1V45.35a1,1,0,0,1,1-1H60.54a1,1,0,0,1,1,1v8.38A1,1,0,0,1,60.54,54.73Zm-21.33-2H59.54V46.35H39.21Z"/>
    </g>
  </g>
</svg>
