<svg class="triumph-svg-icon" xmlns="http://www.w3.org/2000/svg" width="1.38in" height="1.38in" viewBox="0 0 99.25 99.25">
  <defs>
    <style>
      .cls-1 {
        fill: #808080;
      }

      .cls-2 {
        fill: #000000;
      }
    </style>
  </defs>
  <g>
    <polygon class="cls-1" points="56.85 81.15 42.34 81.15 45.68 51.57 54.06 51.57 56.85 81.15"/>
    <g>
      <path class="cls-2" d="M33.62,73.13a2.74,2.74,0,0,1-1.93-.8l-5.14-5.14a2.74,2.74,0,0,1,0-3.86l.9-.9a.91.91,0,0,0,.2-1l-2.2-5.32a.9.9,0,0,0-.84-.56H23.33a2.74,2.74,0,0,1-2.73-2.73V45.56a2.74,2.74,0,0,1,2.73-2.73h1.28a.9.9,0,0,0,.84-.56L27.65,37a.91.91,0,0,0-.2-1l-.9-.9a2.74,2.74,0,0,1,0-3.86l5.14-5.14a2.74,2.74,0,0,1,3.86,0l.9.9a.91.91,0,0,0,1,.2L42.76,25a.9.9,0,0,0,.56-.84V22.84a2.74,2.74,0,0,1,2.73-2.73h7.27a2.74,2.74,0,0,1,2.73,2.73v1.28a.9.9,0,0,0,.56.84l5.32,2.2a.91.91,0,0,0,1-.2l.9-.9a2.74,2.74,0,0,1,3.86,0l5.14,5.14a2.74,2.74,0,0,1,0,3.86l-.91.9a.91.91,0,0,0-.19,1l2.2,5.32a.9.9,0,0,0,.84.56H76a2.74,2.74,0,0,1,2.73,2.73v7.27A2.74,2.74,0,0,1,76,55.56H74.76a.9.9,0,0,0-.84.56l-2.2,5.32a.91.91,0,0,0,.19,1l.91.9a2.74,2.74,0,0,1,0,3.86l-5.14,5.14a2.74,2.74,0,0,1-3.86,0l-.9-.91a.91.91,0,0,0-1-.19.91.91,0,1,1-.7-1.68,2.71,2.71,0,0,1,3,.59l.91.9a.89.89,0,0,0,1.28,0l5.14-5.14a.89.89,0,0,0,0-1.28l-.9-.91a2.72,2.72,0,0,1-.59-3l2.2-5.32a2.72,2.72,0,0,1,2.52-1.68H76a.91.91,0,0,0,.91-.91V45.56a.91.91,0,0,0-.91-.91H74.76A2.72,2.72,0,0,1,72.24,43L70,37.65a2.74,2.74,0,0,1,.59-3l.9-.9a.89.89,0,0,0,0-1.28l-5.14-5.15a.91.91,0,0,0-1.28,0l-.91.91a2.73,2.73,0,0,1-3,.59l-5.32-2.2a2.73,2.73,0,0,1-1.68-2.52V22.84a.91.91,0,0,0-.91-.91H46.05a.91.91,0,0,0-.91.91v1.28a2.73,2.73,0,0,1-1.68,2.52l-5.32,2.2a2.73,2.73,0,0,1-3-.59l-.91-.91a.91.91,0,0,0-1.28,0l-5.14,5.15a.89.89,0,0,0,0,1.28l.9.9a2.74,2.74,0,0,1,.59,3L27.13,43a2.73,2.73,0,0,1-2.52,1.68H23.33a.91.91,0,0,0-.91.91v7.27a.91.91,0,0,0,.91.91h1.28a2.73,2.73,0,0,1,2.52,1.68l2.2,5.32a2.72,2.72,0,0,1-.59,3l-.9.91a.89.89,0,0,0,0,1.28L33,71a.91.91,0,0,0,1.28,0l.91-.9a2.71,2.71,0,0,1,3-.59.91.91,0,0,1-.7,1.68.91.91,0,0,0-1,.19l-.9.91A2.74,2.74,0,0,1,33.62,73.13Z"/>
      <path class="cls-2" d="M37.69,63.87a1,1,0,0,1-.67-.25,19,19,0,1,1,25.33,0,1,1,0,0,1-1.41-.07A1,1,0,0,1,61,62.12a17,17,0,1,0-22.67,0,1,1,0,0,1-.66,1.74Z"/>
    </g>
    <g>
      <path class="cls-2" d="M42.52,81.45H34.68a1,1,0,1,1,0-2h6.94l3.07-28.11a1,1,0,0,1,2,.22l-3.17,29A1,1,0,0,1,42.52,81.45Z"/>
      <path class="cls-2" d="M64.68,81.45H56.85a1,1,0,0,1-1-.89l-3.17-29a1,1,0,0,1,2-.22l3.07,28.11h6.93a1,1,0,0,1,0,2Z"/>
    </g>
    <path class="cls-2" d="M56.68,81.45a1,1,0,0,1-.73-.32l-12-13a1,1,0,0,1,0-1.39l9-9a1,1,0,0,1,1.41,0,1,1,0,0,1,0,1.42l-8.32,8.32L57.42,79.77a1,1,0,0,1-.74,1.68Z"/>
    <g>
      <path class="cls-1" d="M53.45,46.36a6.54,6.54,0,0,0,1-3.14c0-2.63-4.77-7.94-4.77-7.94s-4.76,5.31-4.76,7.94a6.19,6.19,0,0,0,1,3.3C47.23,48.61,52.25,48.71,53.45,46.36Z"/>
      <path class="cls-2" d="M49.68,49.1a5.37,5.37,0,0,1-4.61-2.05,7.1,7.1,0,0,1-1.15-3.83c0-2.93,4.51-8,5-8.61a1,1,0,0,1,1.49,0c.51.57,5,5.68,5,8.61a7.34,7.34,0,0,1-1.07,3.53l-.93-.39.89.46A4.89,4.89,0,0,1,50,49.09Zm0-12.29c-1.69,2-3.76,5-3.76,6.41A5.13,5.13,0,0,0,46.77,46a3.74,3.74,0,0,0,3.16,1.11,3.06,3.06,0,0,0,2.63-1.2l0-.07a5.44,5.44,0,0,0,.85-2.61C53.45,41.81,51.37,38.84,49.68,36.81Zm3.77,9.55h0Z"/>
    </g>
    <path class="cls-2" d="M56.68,52.45h-14a1,1,0,1,1,0-2h14a1,1,0,0,1,0,2Z"/>
  </g>
</svg>
