<svg class="triumph-svg-icon" xmlns="http://www.w3.org/2000/svg" width="1.38in" height="1.38in" viewBox="0 0 99.25 99.25">
  <defs>
    <style>
      .icon-accent {
        fill: #c8c9c7;
      }

      .icon-dark {
        fill: #000000;
      }
    </style>
  </defs>
  <g>
    <path class="icon-accent" d="M57.55,19.87c-10.07,0-18.29,6.06-18.29,13.56a11.52,11.52,0,0,0,3.85,8.33,47.64,47.64,0,0,1-1.9,7.5c-.31,1,.36,2,1.18,1.74A20.77,20.77,0,0,0,51,46.07a24,24,0,0,0,6.53.93c10.12,0,18.29-6.07,18.29-13.57S67.67,19.87,57.55,19.87Z"/>
    <path class="icon-dark" d="M42.14,52.05a1.87,1.87,0,0,1-1.33-.57A2.55,2.55,0,0,1,40.25,49,49,49,0,0,0,42,42.11a12.29,12.29,0,0,1-3.78-8.68c0-8,8.65-14.56,19.29-14.56S76.84,25.4,76.84,33.43,68.18,48,57.55,48a24.9,24.9,0,0,1-6.25-.82A22,22,0,0,1,42.68,52,1.7,1.7,0,0,1,42.14,52.05Zm0-2ZM57.55,20.87c-9.54,0-17.29,5.63-17.29,12.56A10.47,10.47,0,0,0,43.8,41a1,1,0,0,1,.3.87,48.46,48.46,0,0,1-1.94,7.66.61.61,0,0,0,0,.46,19.76,19.76,0,0,0,8.13-4.66,1,1,0,0,1,1-.25,23,23,0,0,0,6.26.89c9.53,0,17.29-5.64,17.29-12.57S67.08,20.87,57.55,20.87Z"/>
    <g>
      <path class="icon-dark" d="M74.5,77.75H35.2a1,1,0,0,1,0-2H74.5a1,1,0,0,1,0,2Z"/>
      <path class="icon-dark" d="M23,80.47a1,1,0,0,1-1-1V68.63a6.11,6.11,0,0,1,6.09-6.4H33.5a1,1,0,0,1,.77.36l6.48,7.76h9a1,1,0,0,1,1,.86,6.26,6.26,0,0,1-1.3,4.59,6.41,6.41,0,0,1-5.09,2H36.27a1,1,0,0,1-.71-.31l-5.24-5.39a1,1,0,1,1,1.43-1.39l5,5.09h7.69A4.55,4.55,0,0,0,48,74.5a3.78,3.78,0,0,0,.84-2.15H40.28a1,1,0,0,1-.76-.36L33,64.23H28.11A4.16,4.16,0,0,0,24,68.63V79.47A1,1,0,0,1,23,80.47Z"/>
      <path class="icon-dark" d="M30.47,60.17a7,7,0,0,1-7.12-6.8V51.42a7.12,7.12,0,0,1,14.23,0v1.95A7,7,0,0,1,30.47,60.17Zm0-13.56a5,5,0,0,0-5.12,4.81v1.95a5.13,5.13,0,0,0,10.23,0V51.42A4.91,4.91,0,0,0,30.47,46.61Z"/>
      <path class="icon-dark" d="M69,73.69H54.16a1,1,0,0,1,0-2H68.33L74,57.45H51.81L47.9,67.65A1,1,0,1,1,46,66.93l4.16-10.84a1,1,0,0,1,.93-.64H75.48a1,1,0,0,1,.93,1.37L69.93,73.06A1,1,0,0,1,69,73.69Z"/>
      <path class="icon-dark" d="M65,34.43H48.76a1,1,0,0,1,0-2H65a1,1,0,0,1,0,2Z"/>
      <path class="icon-dark" d="M65,29H48.76a1,1,0,0,1,0-2H65a1,1,0,0,1,0,2Z"/>
      <path class="icon-dark" d="M58.22,39.83H48.76a1,1,0,0,1,0-2h9.46a1,1,0,0,1,0,2Z"/>
    </g>
  </g>
</svg>
