<svg class="triumph-svg-icon" xmlns="http://www.w3.org/2000/svg" width="1.38in" height="1.38in" viewBox="0 0 99.25 99.25">
  <defs>
    <style>
      .secondary {
        fill: #000000;
      }

      .b {
        fill: #c8c9c7;
      }
    </style>
  </defs>
  <g>
    <path class="primary" d="M79.44,68.63H19a1,1,0,0,1-1-1V30.87a1,1,0,0,1,1-1h60.4a1,1,0,0,1,1,1V67.63A1,1,0,0,1,79.44,68.63Zm-59.4-2h58.4V31.87H20Z"/>
    <path class="primary" d="M85.76,74.2H12.86a1,1,0,0,1-1-1V67.66a1,1,0,0,1,1-1h72.9a1,1,0,0,1,1,1V73.2A1,1,0,0,1,85.76,74.2Zm-71.9-2h70.9V68.66H13.86Z"/>
    <g>
      <rect class="secondary" x="27.75" y="62.17" width="43.12" height="5.54"/>
      <path class="primary" d="M70.87,68.71H27.75a1,1,0,0,1-1-1V62.17a1,1,0,0,1,1-1H70.87a1,1,0,0,1,1,1v5.54A1,1,0,0,1,70.87,68.71Zm-42.12-2H69.87V63.17H28.75Z"/>
    </g>
    <path class="primary" d="M54.38,71.31H44.25a1,1,0,0,1,0-2H54.38a1,1,0,0,1,0,2Z"/>
    <g>
      <polygon class="secondary" points="66.69 62.13 31.89 62.13 31.89 36.58 49.29 23.8 66.69 36.58 66.69 62.13"/>
      <path class="primary" d="M66.68,63.13H31.89a1,1,0,0,1-1-1V36.58a1,1,0,0,1,.41-.81L48.7,23a1,1,0,0,1,1.18,0l17.4,12.77a1,1,0,0,1,.4.81V62.13A1,1,0,0,1,66.68,63.13Zm-33.79-2H65.68V37.08L49.29,25l-16.4,12Z"/>
    </g>
    <path class="primary" d="M49.31,52.55c-2.34,0-4-1.4-4.72-3.94a1,1,0,0,1,.7-1.23,1,1,0,0,1,1.23.69c.61,2.22,1.88,2.48,2.79,2.48a1.9,1.9,0,0,0,2.15-2.06c0-1.36-.64-1.64-2.47-2.11-1.54-.39-3.87-1-3.87-3.88,0-1.76,1.19-3.82,4.55-3.82a4,4,0,0,1,3.9,3.74,1,1,0,0,1-2,.15,2,2,0,0,0-1.91-1.89c-1.17,0-2.55.32-2.55,1.82,0,1.23.61,1.5,2.37,2,1.58.4,4,1,4,4A3.89,3.89,0,0,1,49.31,52.55Z"/>
    <path class="primary" d="M49.43,40.58a1,1,0,0,1-1-1V37.41a1,1,0,0,1,2,0v2.17A1,1,0,0,1,49.43,40.58Z"/>
    <path class="primary" d="M49.43,55.12a1,1,0,0,1-1-1V51.94a1,1,0,0,1,2,0v2.18A1,1,0,0,1,49.43,55.12Z"/>
  </g>
</svg>
