<svg class="triumph-svg-icon" xmlns="http://www.w3.org/2000/svg" width="1.38in" height="1.38in" viewBox="0 0 99.25 99.25">
  <defs>
    <style>
      .cls-1 {
        fill: #000000;
      }

      .cls-2 {
        fill: #808080;
      }
    </style>
  </defs>
  <g id="Titles">
    <g>
      <path class="cls-1" d="M79.15,66.87H18.75a1,1,0,0,1-1-1V29.11a1,1,0,0,1,1-1h60.4a1,1,0,0,1,1,1V65.87A1,1,0,0,1,79.15,66.87Zm-59.4-2h58.4V30.11H19.75Z"/>
      <path class="cls-1" d="M85.46,72.43H12.57a1,1,0,0,1-1-1V65.9a1,1,0,0,1,1-1H85.46a1,1,0,0,1,1,1v5.53A1,1,0,0,1,85.46,72.43Zm-71.89-2H84.46V66.9H13.57Z"/>
      <path class="cls-1" d="M51.87,49.19H27.75a1,1,0,0,1,0-2H51.87a1,1,0,1,1,0,2Z"/>
      <path class="cls-1" d="M51.87,44.15H27.75a1,1,0,0,1,0-2H51.87a1,1,0,0,1,0,2Z"/>
      <path class="cls-1" d="M51.87,54.19H34a1,1,0,0,1,0-2H51.87a1,1,0,1,1,0,2Z"/>
      <path class="cls-1" d="M54.08,69.55H44a1,1,0,0,1,0-2H54.08a1,1,0,0,1,0,2Z"/>
      <g>
        <rect class="cls-2" x="57.54" y="42.89" width="10.6" height="10.6"/>
        <path class="cls-1" d="M68.15,54.5H57.54a1,1,0,0,1-1-1V42.89a1,1,0,0,1,1-1H68.15a1,1,0,0,1,1,1V53.5A1,1,0,0,1,68.15,54.5Zm-9.61-2h8.61V43.89H58.54Z"/>
      </g>
      <path class="cls-1" d="M64,51.46h0a1,1,0,0,1-.71-.3L60,47.77a1,1,0,1,1,1.43-1.4L64,49,84,29.28a1,1,0,1,1,1.41,1.42L64.73,51.17A1,1,0,0,1,64,51.46Z"/>
    </g>
  </g>
</svg>
