<svg class="triumph-svg-icon" xmlns="http://www.w3.org/2000/svg" width="1.38in" height="1.38in" viewBox="0 0 99.25 99.25">
  <defs>
    <style>
      .secondary {
        fill: #000000;
      }

      .primary {
        fill: #c8c9c7;
      }
    </style>
  </defs>
  <g>
    <path class="secondary" d="M79.56,69.63H19.16a1,1,0,0,1-1-1V31.87a1,1,0,0,1,1-1h60.4a1,1,0,0,1,1,1V68.63A1,1,0,0,1,79.56,69.63Zm-59.4-2h58.4V32.87H20.16Z"/>
    <path class="secondary" d="M85.88,75.2H13a1,1,0,0,1-1-1V68.66a1,1,0,0,1,1-1h72.9a1,1,0,0,1,1,1V74.2A1,1,0,0,1,85.88,75.2ZM14,73.2h70.9V69.66H14Z"/>
    <g>
      <path class="primary" d="M65.26,68.52V32l-6.14-6.15h-26V68.52S64.76,68,65.26,68.52Z"/>
      <path class="secondary" d="M65.26,69.52a1.1,1.1,0,0,1-.36-.07c-1.79-.29-20.35-.11-31.77.07a1,1,0,0,1-.72-.29,1,1,0,0,1-.3-.71V25.83a1,1,0,0,1,1-1h26a1,1,0,0,1,.7.29L66,31.27a1,1,0,0,1,.29.71V68.52a1,1,0,0,1-.61.92A1.09,1.09,0,0,1,65.26,69.52Zm-.7-.29Zm0,0ZM34.11,26.83V67.5c20.24-.31,27.47-.25,30.15-.06v-35L58.7,26.83Z"/>
    </g>
    <path class="secondary" d="M62.75,34.72H57.57a1,1,0,0,1-1-1V28.45a1,1,0,1,1,2,0v4.27h4.18a1,1,0,0,1,0,2Z"/>
    <path class="secondary" d="M59.49,55.31h-15a1,1,0,0,1,0-2h15a1,1,0,1,1,0,2Z"/>
    <path class="secondary" d="M59.49,50.26h-15a1,1,0,0,1,0-2h15a1,1,0,0,1,0,2Z"/>
    <path class="secondary" d="M59.49,60.3H50.74a1,1,0,1,1,0-2h8.75a1,1,0,0,1,0,2Z"/>
    <path class="secondary" d="M40.71,42.33a3.81,3.81,0,0,1-3.78-3.14,1,1,0,1,1,1.93-.53c.41,1.48,1.21,1.67,1.85,1.67.91,0,1.37-.43,1.37-1.29s-.32-1-1.67-1.34c-1.15-.3-3.09-.79-3.09-3.16,0-1.43,1-3.11,3.66-3.11a3.25,3.25,0,0,1,3.18,3,1,1,0,1,1-2,.14A1.28,1.28,0,0,0,41,33.43c-1.1,0-1.66.38-1.66,1.11s.22.87,1.59,1.22c1.18.3,3.17.81,3.17,3.28A3.16,3.16,0,0,1,40.71,42.33Z"/>
    <path class="secondary" d="M40.81,33.36a1,1,0,0,1-1-1V30.72a1,1,0,0,1,2,0v1.64A1,1,0,0,1,40.81,33.36Z"/>
    <path class="secondary" d="M40.81,44.26a1,1,0,0,1-1-1V41.62a1,1,0,0,1,2,0v1.64A1,1,0,0,1,40.81,44.26Z"/>
    <path class="secondary" d="M54.49,72.32H44.37a1,1,0,0,1,0-2H54.49a1,1,0,1,1,0,2Z"/>
  </g>
</svg>
