<svg class="triumph-svg-icon" xmlns="http://www.w3.org/2000/svg" width="1.38in" height="1.38in" viewBox="0 0 99.25 99.25">
  <defs>
    <style>
      .icon-accent
        fill: #c8c9c7;
      }

      .icon-dark {
        fill: #000000;
      }
    </style>
  </defs>
  <g>
    <g>
      <path class="icon-accent" d="M49.48,29.62c.32-.43.62-.86.94-1.26a11.07,11.07,0,0,1,5.65-4,8.65,8.65,0,0,1,4.17-.13,9.89,9.89,0,0,1,7.61,7.51,10.58,10.58,0,0,1-.37,6,18.89,18.89,0,0,1-2,3.86,38.79,38.79,0,0,1-5.83,6.83,76.08,76.08,0,0,1-6.19,5.29c-1.25,1-2.53,1.92-3.79,2.89a.25.25,0,0,1-.36,0c-1.83-1.41-3.68-2.79-5.48-4.23a59,59,0,0,1-7.34-6.88A29.07,29.07,0,0,1,32,39.06a11,11,0,0,1-1.14-5.93,9.78,9.78,0,0,1,3.17-6.46,9.45,9.45,0,0,1,4.12-2.29,8.9,8.9,0,0,1,6.48.7,11.91,11.91,0,0,1,3.91,3.32C48.87,28.79,49.16,29.2,49.48,29.62Z"/>
      <path class="icon-dark" d="M49.48,57.75a1.34,1.34,0,0,1-.81-.29L46.74,56c-1.2-.91-2.39-1.82-3.56-2.76a60,60,0,0,1-7.47-7,30.13,30.13,0,0,1-4.6-6.69A12,12,0,0,1,29.86,33a10.85,10.85,0,0,1,3.5-7.12,10.51,10.51,0,0,1,4.56-2.53,9.82,9.82,0,0,1,7.21.78,12.84,12.84,0,0,1,4.24,3.59l.11.14.14-.18a12,12,0,0,1,6.17-4.32,9.65,9.65,0,0,1,4.66-.15,11,11,0,0,1,8.41,8.29,11.8,11.8,0,0,1-.41,6.57,19.54,19.54,0,0,1-2.12,4.08,39.25,39.25,0,0,1-6,7,78.11,78.11,0,0,1-6.27,5.37l-2.2,1.68-1.59,1.2A1.31,1.31,0,0,1,49.48,57.75ZM40.55,25.09a8.48,8.48,0,0,0-2.1.28,8.6,8.6,0,0,0-3.69,2.05,8.86,8.86,0,0,0-2.85,5.81,10,10,0,0,0,1,5.38,28,28,0,0,0,4.29,6.23,58.33,58.33,0,0,0,7.23,6.77c1.15.93,2.33,1.83,3.51,2.73l1.5,1.15,1.16-.88,2.18-1.67a78,78,0,0,0,6.11-5.22,37.22,37.22,0,0,0,5.68-6.65,18.12,18.12,0,0,0,1.9-3.64A9.7,9.7,0,0,0,66.85,32,8.7,8.7,0,0,0,65,28.22,8.61,8.61,0,0,0,60,25.27a7.5,7.5,0,0,0-3.68.11A9.93,9.93,0,0,0,51.23,29c-.21.26-.41.53-.61.81l-.32.43a1,1,0,0,1-.82.41h0a1,1,0,0,1-.82-.41l-.29-.39c-.21-.28-.4-.55-.61-.81a10.75,10.75,0,0,0-3.57-3A7.91,7.91,0,0,0,40.55,25.09Z"/>
    </g>
    <path class="icon-dark" d="M65,69.49H64.9A1,1,0,0,1,64,68.43v-.17a3.1,3.1,0,0,1,1.13-2.47l9.77-8.62c.49-1.07,1-7.47,1-9.25a53.38,53.38,0,0,0-1.21-7.72,3.44,3.44,0,0,0-1.87,1.38c-.72,1-.76,2.12-.17,4.51a1,1,0,0,1-.07.66l-1.93,4.18a1,1,0,0,1-1.82-.84l1.79-3.87c-.54-2.36-.61-4.18.58-5.81a4.7,4.7,0,0,1,4.45-2.2,1,1,0,0,1,.75.68A51.86,51.86,0,0,1,77.88,48c0,.09-.29,9.48-1.61,10.64l-9.84,8.7a1.15,1.15,0,0,0-.46,1v.22A1,1,0,0,1,65,69.49Zm9.88-12.27Z"/>
    <path class="icon-dark" d="M55.36,67.9l-2-.14s.23-3.3.33-5.3a7.65,7.65,0,0,1,1.92-4.62l3.52-3.11A4.77,4.77,0,0,1,62,53.91a7,7,0,0,0,1-.12l3.66-3.23c1.88-1.67,4-1.28,5.09,0A3.18,3.18,0,0,1,72.57,53a4,4,0,0,1-1.43,2.61l-5.63,5-1.33-1.5,5.63-5a2.07,2.07,0,0,0,.77-1.3,1.19,1.19,0,0,0-1.17-1.33,2.11,2.11,0,0,0-1.39.6l-3.71,3.29a3.57,3.57,0,0,1-2.14.56,4.24,4.24,0,0,0-1.72.33l-3.52,3.11a5.83,5.83,0,0,0-1.25,3.27C55.59,64.57,55.36,67.9,55.36,67.9Z"/>
    <g>
      <rect class="icon-accent" x="56.15" y="63.47" width="6.66" height="15.95" transform="translate(-15.5 126.41) rotate(-86.46)"/>
      <path class="icon-dark" d="M67.24,76.29h-.07l-15.92-1a1,1,0,0,1-1-1.09l.41-6.65a1,1,0,0,1,.35-.71,1.05,1.05,0,0,1,.74-.26l15.92,1a1,1,0,0,1,1,1.09l-.41,6.65a1,1,0,0,1-.34.7A1,1,0,0,1,67.24,76.29Zm-14.83-3,13.87.85.28-4.59-13.87-.86Z"/>
    </g>
    <path class="icon-dark" d="M57.47,72.35h-.06l-2.66-.16a1,1,0,0,1-.94-1.06,1,1,0,0,1,1.06-.94l2.66.17a1,1,0,0,1-.06,2Z"/>
    <path class="icon-dark" d="M34.29,69.49a1,1,0,0,1-1-.94v-.22a1.13,1.13,0,0,0-.46-1L23,58.59C21.66,57.43,21.37,48,21.37,48a51.81,51.81,0,0,1,1.5-9.07,1,1,0,0,1,.75-.67,4.72,4.72,0,0,1,4.46,2.21c1.18,1.63,1.12,3.44.57,5.8l1.79,3.87a1,1,0,0,1-1.82.84l-1.93-4.18a1,1,0,0,1-.07-.66c.59-2.39.55-3.53-.16-4.5a3.52,3.52,0,0,0-1.88-1.39,53.38,53.38,0,0,0-1.21,7.72c0,1.78.52,8.18,1,9.25l9.77,8.62a3.1,3.1,0,0,1,1.13,2.47v.17a1,1,0,0,1-.94,1.06Z"/>
    <path class="icon-dark" d="M43.89,67.9s-.23-3.33-.33-5.35a5.73,5.73,0,0,0-1.24-3.21L38.8,56.23a4.24,4.24,0,0,0-1.72-.33,3.55,3.55,0,0,1-2.14-.56l-3.71-3.29a1.87,1.87,0,0,0-1.76-.54,1.22,1.22,0,0,0-.79.9,1.82,1.82,0,0,0,.76,1.67l5.63,5-1.33,1.5-5.63-5A3.8,3.8,0,0,1,26.72,52a3.2,3.2,0,0,1,2.12-2.39,3.75,3.75,0,0,1,3.71.94l3.66,3.23a7.19,7.19,0,0,0,1,.12,4.76,4.76,0,0,1,2.9.82l3.52,3.11a7.64,7.64,0,0,1,1.92,4.56c.1,2.06.33,5.36.33,5.36Z"/>
    <g>
      <rect class="icon-accent" x="31.79" y="68.12" width="15.95" height="6.66" transform="translate(-4.33 2.59) rotate(-3.54)"/>
      <path class="icon-dark" d="M32,76.29a1,1,0,0,1-1-1l-.41-6.65a1,1,0,0,1,.25-.75,1.06,1.06,0,0,1,.71-.34l15.92-1a1.05,1.05,0,0,1,.74.26,1,1,0,0,1,.35.71L49,74.22a1,1,0,0,1-1,1.09l-15.91,1Zm.68-6.71L33,74.17l13.87-.85-.28-4.6Z"/>
    </g>
    <path class="icon-dark" d="M41.78,72.35a1,1,0,0,1-.06-2l2.66-.17a1,1,0,0,1,.12,2l-2.66.16Z"/>
  </g>
</svg>
