<svg xmlns="http://www.w3.org/2000/svg" viewBox="0 0 99.25 99.25"><defs><style>.cls-1{fill:#c8c9c7;}.cls-1,.cls-2,.cls-3,.cls-4{stroke:#000;stroke-linecap:round;stroke-linejoin:round;stroke-width:2px;}.cls-2{fill:none;}.cls-3{fill:#fff;}.cls-4{fill:#9d2235;}</style></defs><g id="Titles"><path class="cls-1" d="M22.31,35.4V30.93A3.92,3.92,0,0,1,26.21,27H63.82a3.92,3.92,0,0,1,3.91,3.91v4.38"/><path class="cls-2" d="M52.32,62.66H26.48a3.91,3.91,0,0,1-3.9-3.91V30.93A3.91,3.91,0,0,1,26.48,27H64.09A3.92,3.92,0,0,1,68,30.93v21"/><line class="cls-2" x1="22.58" y1="35.63" x2="67.56" y2="35.63"/><rect class="cls-1" x="28.92" y="40.42" width="8.15" height="6.67"/><rect class="cls-1" x="28.92" y="51.55" width="8.15" height="6.67"/><rect class="cls-1" x="41.38" y="40.42" width="8.15" height="6.67"/><rect class="cls-1" x="41.38" y="51.55" width="8.15" height="6.67"/><rect class="cls-1" x="53.63" y="40.42" width="8.15" height="6.67"/><rect class="cls-3" x="31.15" y="23.57" width="3.77" height="8.34" rx="1.89"/><rect class="cls-3" x="55.8" y="23.57" width="3.77" height="8.34" rx="1.89"/><path class="cls-3" d="M57.62,53.9A12.1,12.1,0,1,0,61,52.15"/><line class="cls-4" x1="64.92" y1="55.68" x2="64.92" y2="62.85"/><line class="cls-4" x1="65.29" y1="63.57" x2="68.97" y2="67.13"/><circle cx="64.97" cy="63.27" r="1.51"/><polyline class="cls-2" points="54.57 53.39 57.91 53.58 57.72 56.92"/></g></svg>