<svg xmlns="http://www.w3.org/2000/svg" viewBox="0 0 99.25 99.25"><defs><style>.cls-1{fill:#c8c9c7;stroke-width:2.06px;}.cls-1,.cls-2,.cls-3{stroke:#000;stroke-linecap:round;stroke-linejoin:round;}.cls-2{fill:#fff;}.cls-2,.cls-3{stroke-width:2px;}.cls-3{fill:none;}</style></defs><g id="Icons"><path class="cls-1" d="M49.48,29.58c.32-.43.62-.86.94-1.26a11.07,11.07,0,0,1,5.65-4,8.65,8.65,0,0,1,4.17-.13,9.93,9.93,0,0,1,7.61,7.51,10.58,10.58,0,0,1-.37,6,18.63,18.63,0,0,1-2,3.86,38.43,38.43,0,0,1-5.83,6.83,76.08,76.08,0,0,1-6.19,5.29c-1.25,1-2.53,1.92-3.79,2.89a.24.24,0,0,1-.36,0c-1.83-1.41-3.68-2.79-5.48-4.23a59,59,0,0,1-7.34-6.88A29.07,29.07,0,0,1,32,39a11,11,0,0,1-1.14-5.93,9.78,9.78,0,0,1,3.17-6.46,9.45,9.45,0,0,1,4.12-2.29,8.9,8.9,0,0,1,6.48.7,11.91,11.91,0,0,1,3.91,3.32C48.87,28.75,49.16,29.16,49.48,29.58Z"/><path class="cls-2" d="M65,68.45a2.27,2.27,0,0,1,.81-1.94l9.84-8.7c.78-.69,1.25-8.81,1.27-9.91a51.43,51.43,0,0,0-1.45-8.75A3.81,3.81,0,0,0,72,41c-1,1.38-.91,2.93-.33,5.33l-1.93,4.18"/><path class="cls-2" d="M64.84,59.76l5.63-5c2.83-2.5-.28-6-3.11-3.52l-3.71,3.28c-.59.51-2.95.08-3.86.89l-3.52,3.11a6.63,6.63,0,0,0-1.58,3.92c-.1,2-.33,5.32-.33,5.32"/><rect class="cls-1" x="56.15" y="63.43" width="6.66" height="15.95" transform="translate(-15.46 126.37) rotate(-86.46)"/><line class="cls-3" x1="54.81" y1="71.15" x2="57.47" y2="71.32"/><path class="cls-2" d="M34.29,68.45a2.27,2.27,0,0,0-.81-1.94l-9.84-8.7c-.78-.69-1.25-8.81-1.27-9.91a51.43,51.43,0,0,1,1.45-8.75A3.81,3.81,0,0,1,27.27,41c1,1.38.91,2.93.33,5.33l1.93,4.18"/><path class="cls-2" d="M34.41,59.76l-5.63-5c-2.83-2.5.28-6,3.11-3.52l3.71,3.28c.59.51,2.95.08,3.86.89L43,58.55a6.63,6.63,0,0,1,1.58,3.92c.1,2,.33,5.32.33,5.32"/><rect class="cls-1" x="31.79" y="68.08" width="15.95" height="6.66" transform="translate(-4.33 2.59) rotate(-3.54)"/><line class="cls-3" x1="44.44" y1="71.15" x2="41.78" y2="71.32"/></g></svg>