<svg class="triumph-svg-icon" xmlns="http://www.w3.org/2000/svg" width="1.38in" height="1.38in" viewBox="0 0 99.2 99.2">
  <defs>
    <style>
      .icon-accent
        fill: #c8c9c7;
      }

      .icon-dark {
        fill: #000000;
      }

      .icon-empty {
        fill: none;
      }
    </style>
  </defs>
  <path class="icon-accent" d="M63.8,27.1H59.6v3A1.9,1.9,0,0,1,57.7,32a1.84,1.84,0,0,1-1.9-1.9v-3H34.9v3a1.9,1.9,0,0,1-3.8,0v-3H26.2A3.9,3.9,0,0,0,22.3,31v4.4l45.4-.1V31A3.84,3.84,0,0,0,63.8,27.1Z"/>
  <path class="icon-dark" d="M67.6,36.7h-45a1,1,0,0,1,0-2h45a.94.94,0,0,1,1,1A1,1,0,0,1,67.6,36.7Z"/>
  <g>
    <rect class="icon-accent" x="28.9" y="40.5" width="8.1" height="6.7"/>
    <path class="icon-dark" d="M37.1,48.1H29a.94.94,0,0,1-1-1V40.4a.94.94,0,0,1,1-1h8.1a.94.94,0,0,1,1,1v6.7a1,1,0,0,1-1,1Zm-7.2-2H36V41.4H29.9Z"/>
  </g>
  <g>
    <rect class="icon-accent" x="28.9" y="51.6" width="8.1" height="6.7"/>
    <path class="icon-dark" d="M37.1,59.3H29a.94.94,0,0,1-1-1V51.6a.94.94,0,0,1,1-1h8.1a.94.94,0,0,1,1,1v6.7A1.08,1.08,0,0,1,37.1,59.3Zm-7.2-2H36V52.6H29.9Z"/>
  </g>
  <g>
    <rect class="icon-accent" x="41.4" y="40.5" width="8.1" height="6.7"/>
    <path class="icon-dark" d="M49.5,48.1H41.4a.94.94,0,0,1-1-1V40.4a.94.94,0,0,1,1-1h8.1a.94.94,0,0,1,1,1v6.7a.94.94,0,0,1-1,1Zm-7.1-2h6.1V41.4H42.4Z"/>
  </g>
  <g>
    <rect class="icon-accent" x="41.4" y="51.6" width="8.1" height="6.7"/>
    <path class="icon-dark" d="M49.5,59.3H41.4a.94.94,0,0,1-1-1V51.6a.94.94,0,0,1,1-1h8.1a.94.94,0,0,1,1,1v6.7A1,1,0,0,1,49.5,59.3Zm-7.1-2h6.1V52.6H42.4Z"/>
  </g>
  <g>
    <rect class="icon-accent" x="53.6" y="40.5" width="8.1" height="6.7"/>
    <path class="icon-dark" d="M61.8,48.1H53.7a.94.94,0,0,1-1-1V40.4a.94.94,0,0,1,1-1h8.1a.94.94,0,0,1,1,1v6.7a1,1,0,0,1-1,1Zm-7.2-2h6.2V41.4H54.7Z"/>
  </g>
  <g>
    <path class="icon-empty" d="M33,23.6h0a1.9,1.9,0,0,1,1.9,1.9v4.6A1.9,1.9,0,0,1,33,32h0a1.9,1.9,0,0,1-1.9-1.9V25.5A2,2,0,0,1,33,23.6Z"/>
    <path class="icon-dark" d="M33,32.9A2.9,2.9,0,0,1,30.1,30V25.4a2.9,2.9,0,0,1,5.8,0V30A2.84,2.84,0,0,1,33,32.9Zm0-8.3a.9.9,0,0,0-.9.9h0v4.6a.9.9,0,0,0,1.8,0V25.5a.9.9,0,0,0-.9-.9Z"/>
  </g>
  <g>
    <path class="icon-empty" d="M57.7,23.6h0a1.9,1.9,0,0,1,1.9,1.9v4.6A1.9,1.9,0,0,1,57.7,32h0a1.9,1.9,0,0,1-1.9-1.9V25.5A1.9,1.9,0,0,1,57.7,23.6Z"/>
    <path class="icon-dark" d="M57.7,32.9A2.9,2.9,0,0,1,54.8,30V25.4a2.9,2.9,0,0,1,5.8,0V30A2.84,2.84,0,0,1,57.7,32.9Zm0-8.3a.9.9,0,0,0-.9.9h0v4.6a.9.9,0,0,0,1.8,0V25.5a.9.9,0,0,0-.9-.9Z"/>
  </g>
  <path class="icon-dark" d="M64.9,76.7a13.19,13.19,0,0,1-12.6-17A12.64,12.64,0,0,1,57,53.1a1,1,0,1,1,1.2,1.6h0a11.2,11.2,0,1,0,3.1-1.6.89.89,0,0,1-1.2-.7.93.93,0,0,1,.6-1.2,13.16,13.16,0,0,1,16.6,8.2A13.36,13.36,0,0,1,69,76.1a14,14,0,0,1-4.1.6Z"/>
  <path class="icon-dark" d="M64.9,63.9a.94.94,0,0,1-1-1V55.7a1,1,0,0,1,2,0v7.2A1,1,0,0,1,64.9,63.9Z"/>
  <g>
    <line class="icon-empty" x1="65.3" y1="63.6" x2="69" y2="67.2"/>
    <path class="icon-dark" d="M69,68.2a.91.91,0,0,1-.7-.3l-3.7-3.6A1,1,0,1,1,66,62.9l3.7,3.6a1,1,0,0,1,0,1.4.91.91,0,0,1-.7.3Z"/>
  </g>
  <circle class="icon-dark" cx="65" cy="63.3" r="1.5"/>
  <path class="icon-dark" d="M57.7,58h0a1,1,0,0,1-1-1.1h0l.1-2.3-2.3-.1a.9.9,0,0,1-.9-1.1.94.94,0,0,1,1.1-.9l3.3.2a.9.9,0,0,1,.9,1.1h0L58.7,57A1,1,0,0,1,57.7,58Z"/>
  <g>
    <rect class="icon-dark" x="34.9" y="26.1" width="20.9" height="2"/>
    <path class="icon-dark" d="M64.1,26.1H59.6v2h4.5A2.9,2.9,0,0,1,67,31V52a1,1,0,0,0,2,0V31A4.91,4.91,0,0,0,64.1,26.1Z"/>
    <path class="icon-dark" d="M52.3,61.7H26.5a2.9,2.9,0,0,1-2.9-2.9V31h0a2.9,2.9,0,0,1,2.9-2.9h4.7v-2H26.5A4.91,4.91,0,0,0,21.6,31V58.8a4.91,4.91,0,0,0,4.9,4.9H52.3a1,1,0,0,0,0-2Z"/>
  </g>
</svg>
