<svg class="triumph-svg-icon" xmlns="http://www.w3.org/2000/svg" width="1.38in" height="1.38in" viewBox="0 0 99.25 99.25">
  <defs>
    <style>
      .cls-1 {
        fill: #000000;
      }

      .cls-2 {
        fill: #808080;
      }
    </style>
  </defs>
  <g>
    <path class="cls-1" d="M80.56,70.4H20.16a1,1,0,0,1-1-1V32.64a1,1,0,0,1,1-1h60.4a1,1,0,0,1,1,1V69.4A1,1,0,0,1,80.56,70.4Zm-59.4-2h58.4V33.64H21.16Z"/>
    <path class="cls-1" d="M86.88,76H14a1,1,0,0,1-1-1V69.43a1,1,0,0,1,1-1h72.9a1,1,0,0,1,1,1V75A1,1,0,0,1,86.88,76ZM15,74h70.9V70.43H15Z"/>
    <g>
      <path class="cls-2" d="M34.11,69.29V32.74l6.15-6.14h26V69.29S34.61,68.79,34.11,69.29Z"/>
      <path class="cls-1" d="M34.11,70.29a1,1,0,0,1-1-1V32.74a1,1,0,0,1,.3-.7l6.14-6.15a1,1,0,0,1,.71-.29h26a1,1,0,0,1,1,1V69.29A1,1,0,0,1,67,70a1,1,0,0,1-.72.29c-11.42-.18-30-.36-31.77-.07A1.16,1.16,0,0,1,34.11,70.29Zm.71-.29Zm0,0Zm8.74-1.94c4.67,0,11.55.06,21.7.22V27.6H40.67l-5.56,5.56V68.21C36.45,68.11,38.92,68.05,43.56,68.05Z"/>
    </g>
    <path class="cls-1" d="M41.81,35.49H36.62a1,1,0,0,1,0-2h4.19V29.21a1,1,0,0,1,2,0v5.28A1,1,0,0,1,41.81,35.49Z"/>
    <path class="cls-1" d="M55.49,73.08H45.37a1,1,0,1,1,0-2H55.49a1,1,0,0,1,0,2Z"/>
    <path class="cls-1" d="M43.72,63.57h-.11a1,1,0,0,1-.88-1.11C42.78,62,44.09,51,52.51,45.11a1,1,0,0,1,1.15,1.64C46,52.13,44.73,62.58,44.72,62.68A1,1,0,0,1,43.72,63.57Z"/>
    <path class="cls-1" d="M48.66,59.07a1,1,0,0,1-1-.81,1,1,0,0,1,.79-1.18c3.85-.75,6.54-2.51,8-5.22,2.35-4.39,1.06-10.3.18-13.19a17.73,17.73,0,0,1-5.76,3.16c-3.25,1.32-6.61,2.68-7.88,5.94-2.29,5.88,1.86,8.93,1.9,9a1,1,0,0,1-1.16,1.63c-.06,0-5.46-4-2.61-11.32,1.59-4.06,5.52-5.66,9-7.06,2.59-1,5-2,6-3.86a.94.94,0,0,1,.93-.55,1,1,0,0,1,.89.62c.16.39,4,9.78.32,16.61-1.75,3.27-4.91,5.37-9.38,6.25Z"/>
  </g>
</svg>
