<svg class="triumph-svg-icon" xmlns="http://www.w3.org/2000/svg" width="1.38in" height="1.38in" viewBox="0 0 99.25 99.25">
  <defs>
    <style>
      .cls-1 {
        fill: #808080;
      }

      .cls-2 {
        fill: #000000;
      }
    </style>
  </defs>
  <g>
    <g>
      <path class="cls-1" d="M53.74,31.14v1.37a4.15,4.15,0,1,1-8.3,0V31.14a19.29,19.29,0,0,0-1.27,37.35v-10a4.38,4.38,0,0,1-4-4.13V45.05c0-3.43,5.73-5.19,9.34-5.19s9.33,1.76,9.33,5.19v9.33a4.37,4.37,0,0,1-4.1,4.15v10a19.28,19.28,0,0,0-1-37.41Z"/>
      <path class="cls-2" d="M54.78,69.55a1,1,0,0,1-.61-.2,1,1,0,0,1-.39-.8v-10a1,1,0,0,1,1-1,3.39,3.39,0,0,0,3.11-3.15V45.05c0-2.56-4.94-4.19-8.33-4.19s-8.34,1.63-8.34,4.19v9.33a3.38,3.38,0,0,0,3,3.13,1,1,0,0,1,1,1v10a1,1,0,0,1-.4.8,1,1,0,0,1-.89.16,20.29,20.29,0,0,1,1.35-39.29,1,1,0,0,1,.84.2,1,1,0,0,1,.37.78v1.37a3.15,3.15,0,1,0,6.3,0V31.14a1,1,0,0,1,.37-.78,1,1,0,0,1,.85-.2,20.28,20.28,0,0,1,1.09,39.35A.84.84,0,0,1,54.78,69.55Zm1-10.15v7.78a18.28,18.28,0,0,0-1-34.75v.08a5.15,5.15,0,1,1-10.3,0v-.08A18.29,18.29,0,0,0,43.17,67.1V59.36a5.39,5.39,0,0,1-4-5V45.05c0-4.37,6.73-6.19,10.34-6.19,4.33,0,10.33,2.15,10.33,6.19v9.33A5.4,5.4,0,0,1,55.78,59.4Z"/>
    </g>
    <path class="cls-2" d="M54.78,75a1,1,0,0,1-1-1V47a1,1,0,1,1,2,0V74A1,1,0,0,1,54.78,75Z"/>
    <path class="cls-2" d="M44.41,75a1,1,0,0,1-1-1V47a1,1,0,1,1,2,0V74A1,1,0,0,1,44.41,75Z"/>
    <path class="cls-2" d="M49.59,75a1,1,0,0,1-1-1V57.41a1,1,0,0,1,2,0V74A1,1,0,0,1,49.59,75Z"/>
    <g>
      <g>
        <path class="cls-2" d="M34.47,51.15H22.84a1,1,0,1,1,0-2H34.47a1,1,0,0,1,0,2Z"/>
        <path class="cls-2" d="M27.5,55.8a1,1,0,0,1-.71-.29l-4.65-4.66a1,1,0,0,1-.3-.7,1,1,0,0,1,.3-.71l4.65-4.65A1,1,0,0,1,28.2,46.2l-3.94,3.95,3.94,3.94a1,1,0,0,1-.7,1.71Z"/>
      </g>
      <g>
        <path class="cls-2" d="M35.64,40.68a1,1,0,0,1-.71-.29l-8.14-8.14a1,1,0,0,1,0-1.42,1,1,0,0,1,1.41,0L36.34,39a1,1,0,0,1-.7,1.71Z"/>
        <path class="cls-2" d="M27.5,38.35a1,1,0,0,1-1-1V31.54a1,1,0,0,1,1-1h5.81a1,1,0,0,1,0,2H28.5v4.81A1,1,0,0,1,27.5,38.35Z"/>
      </g>
      <g>
        <path class="cls-2" d="M27.5,69.76a1,1,0,0,1-.71-.3,1,1,0,0,1,0-1.41l8.14-8.14a1,1,0,1,1,1.41,1.41L28.2,69.46A1,1,0,0,1,27.5,69.76Z"/>
        <path class="cls-2" d="M33.31,69.76H27.5a1,1,0,0,1-1-1V62.94a1,1,0,0,1,2,0v4.82h4.81a1,1,0,0,1,0,2Z"/>
      </g>
      <g>
        <path class="cls-2" d="M76.34,51.15H64.71a1,1,0,1,1,0-2H76.34a1,1,0,0,1,0,2Z"/>
        <path class="cls-2" d="M71.69,55.8a1,1,0,0,1-.71-.29,1,1,0,0,1,0-1.42l4-3.94L71,46.2a1,1,0,0,1,0-1.41,1,1,0,0,1,1.42,0l4.65,4.65a1,1,0,0,1,.29.71,1,1,0,0,1-.29.7L72.4,55.51A1,1,0,0,1,71.69,55.8Z"/>
      </g>
      <g>
        <path class="cls-2" d="M63.55,40.68a1,1,0,0,1-.71-.29,1,1,0,0,1,0-1.42L71,30.83a1,1,0,0,1,1.42,1.42l-8.14,8.14A1,1,0,0,1,63.55,40.68Z"/>
        <path class="cls-2" d="M71.69,38.35a1,1,0,0,1-1-1V32.54H65.88a1,1,0,0,1,0-2h5.81a1,1,0,0,1,1,1v5.81A1,1,0,0,1,71.69,38.35Z"/>
      </g>
      <g>
        <path class="cls-2" d="M71.69,69.76a1,1,0,0,1-.71-.3l-8.14-8.14a1,1,0,0,1,0-1.41,1,1,0,0,1,1.42,0l8.14,8.14a1,1,0,0,1-.71,1.71Z"/>
        <path class="cls-2" d="M71.69,69.76H65.88a1,1,0,0,1,0-2h4.81V62.94a1,1,0,0,1,2,0v5.82A1,1,0,0,1,71.69,69.76Z"/>
      </g>
    </g>
    <path class="cls-2" d="M49.59,37.66a5,5,0,0,1-5.15-5.15V30.44a5.15,5.15,0,1,1,10.3,0v2.07A5,5,0,0,1,49.59,37.66Zm0-10.37a3,3,0,0,0-3.15,3.15v2.07a3.15,3.15,0,1,0,6.3,0V30.44A3,3,0,0,0,49.59,27.29Z"/>
  </g>
</svg>
