<svg class="triumph-svg-icon" xmlns="http://www.w3.org/2000/svg" width="1.38in" height="1.38in" viewBox="0 0 99.25 99.25">
  <defs>
    <style>
      .secondary {
        fill: #000000;
      }

      .primary {
        fill: #c8c9c7;
      }
    </style>
  </defs>
  <g>
    <path class="secondary" d="M66.78,68.49A2.13,2.13,0,0,1,65.35,68c-2.27-2-6.29-6.12-9.22-9.12l-2.38-2.43c-.58-.57-3.5.06-5.24.44-1,.21-2,.44-3,.56a7,7,0,0,1-6.28-2.92,2.33,2.33,0,0,1-.25-2.6c1.1-1.79,12.6-5.3,13.93-5a22.11,22.11,0,0,1,2.39.9,30.87,30.87,0,0,0,4.82,1.7c.58-.4,2.46-2,4-3.4a1,1,0,0,1,1.42.08,1,1,0,0,1-.08,1.41c-4.24,3.8-4.64,3.85-5,3.89-.91.16-2.58-.44-6-1.83-.89-.36-1.81-.74-2.1-.81h0c-1.36,0-10.52,3-11.72,4.07a2.25,2.25,0,0,0,.7,1,5,5,0,0,0,3.85,1.45c.83-.11,1.79-.32,2.81-.54,2.95-.64,5.73-1.23,7.07.11l2.4,2.44c2.75,2.81,6.9,7.06,9.11,9,0,0,.06,0,.19,0,1.79-.26,5.89-5.49,8.23-9.12a1,1,0,1,1,1.68,1.08c-1,1.59-6.29,9.55-9.64,10Z"/>
    <path class="secondary" d="M51.42,80.18a1,1,0,0,1-.72-.3l-3.54-3.65a1,1,0,1,1,1.43-1.39l3.55,3.65a1,1,0,0,1-.72,1.69Z"/>
    <path class="secondary" d="M57.38,78.23a1,1,0,0,1-.74-.32l-6.26-6.84a1,1,0,0,1,1.47-1.35l6.27,6.83A1,1,0,0,1,58.06,78,1,1,0,0,1,57.38,78.23Z"/>
    <path class="secondary" d="M62.83,75a1,1,0,0,1-.72-.3L54.61,67a1,1,0,0,1,0-1.42,1,1,0,0,1,1.41,0l7.51,7.71A1,1,0,0,1,62.83,75Z"/>
    <path class="secondary" d="M40.35,80.78a3.2,3.2,0,0,1-2.28-.94h0l-11-11a3.21,3.21,0,0,1,0-4.55L29,62.29a2.77,2.77,0,0,1,2.36-.78,3.87,3.87,0,0,1,2.24,1.14A3.82,3.82,0,0,1,34.73,65l.16,0a3.87,3.87,0,0,1,2.24,1.14,3.8,3.8,0,0,1,1.13,2.23.88.88,0,0,1,0,.16h.16A4.06,4.06,0,0,1,41.81,72s0,.1,0,.16a3.82,3.82,0,0,1,2.39,1.15,3.91,3.91,0,0,1,1.14,2.23,2.82,2.82,0,0,1-.78,2.37l-2,2A3.22,3.22,0,0,1,40.35,80.78Zm-.86-2.36a1.19,1.19,0,0,0,1.72,0l1.95-2a.77.77,0,0,0,.21-.7,1.89,1.89,0,0,0-.57-1.07c-.6-.6-1.37-.75-1.77-.36a1,1,0,0,1-1.41,0,1,1,0,0,1,0-1.41c.39-.4.23-1.18-.36-1.77a1.89,1.89,0,0,0-1.07-.57.79.79,0,0,0-.71.21,1,1,0,0,1-1.41,0,1,1,0,0,1-.29-.71,1,1,0,0,1,.29-.71.77.77,0,0,0,.21-.7,1.89,1.89,0,0,0-.57-1.07c-.6-.6-1.37-.75-1.77-.36a1,1,0,0,1-1.71-.71,1,1,0,0,1,.3-.7c.39-.4.23-1.18-.36-1.78a1.93,1.93,0,0,0-1.07-.56.77.77,0,0,0-.7.21l-2,1.95a1.21,1.21,0,0,0,0,1.72Z"/>
    <path class="secondary" d="M47.77,82.91a4.56,4.56,0,0,1-3.27-1.53l-2.39-2.44a1,1,0,0,1,0-1.42,1,1,0,0,1,1.41.06l.67.72L45.91,80A2.58,2.58,0,0,0,48,80.9a4.06,4.06,0,0,0,2.58-2.17,1,1,0,0,1,1.32-.38,3.2,3.2,0,0,0,2.48.19,3.69,3.69,0,0,0,2.13-1.71,1,1,0,0,1,1.34-.44,2.52,2.52,0,0,0,2.72-.25,2.69,2.69,0,0,0,1.24-1.86,1,1,0,0,1,.21-.77,1,1,0,0,1,.71-.36,3.37,3.37,0,0,0,2.86-1.94,3.17,3.17,0,0,0-.41-3.3,1,1,0,0,1,1.61-1.19,5.19,5.19,0,0,1,.62,5.33,5.37,5.37,0,0,1-3.7,3,5.09,5.09,0,0,1-2,2.75,4.55,4.55,0,0,1-3.93.74A5.91,5.91,0,0,1,55,80.45a5.24,5.24,0,0,1-3.16,0,5.47,5.47,0,0,1-3.57,2.41A3.59,3.59,0,0,1,47.77,82.91Z"/>
    <path class="secondary" d="M28.71,65a1,1,0,0,1-.76-.35A8.46,8.46,0,0,1,26.39,62l-2.2-2.3a1,1,0,0,1,1.44-1.38L28,60.82a.82.82,0,0,1,.24.41,6.24,6.24,0,0,0,1.24,2.14,1,1,0,0,1-.11,1.41A1,1,0,0,1,28.71,65Z"/>
    <path class="secondary" d="M40,53.21a1,1,0,0,1-.7-.29l-4-4a1,1,0,0,1,0-1.42,1,1,0,0,1,1.41,0l4,4A1,1,0,0,1,40,53.21Z"/>
    <path class="secondary" d="M29.79,71.17a1,1,0,0,1-.73-1.75l3.49-3.55A1,1,0,0,1,34,67.32l-3.5,3.54A1,1,0,0,1,29.79,71.17Z"/>
    <path class="secondary" d="M29.79,71.14a1,1,0,0,1-.7-.29,1,1,0,0,1,0-1.41l3.49-3.55A1,1,0,0,1,34,67.3l-3.5,3.54A1,1,0,0,1,29.79,71.14Z"/>
    <path class="secondary" d="M33.34,74.69a1,1,0,0,1-.72-1.7l3.49-3.6a1,1,0,1,1,1.44,1.4l-3.5,3.59A1,1,0,0,1,33.34,74.69Z"/>
    <path class="secondary" d="M36.88,78.23a1,1,0,0,1-.72-1.7l3.5-3.59a1,1,0,0,1,1.43,1.39l-3.49,3.6A1,1,0,0,1,36.88,78.23Z"/>
    <path class="secondary" d="M23,61.4,17.52,56,32.65,40.84l5.44,5.43Zm-4-5.43,4,4L36.67,46.27l-4-4Z"/>
    <g>
      <rect class="primary" x="17.61" y="47.78" width="20.4" height="6.68" transform="translate(-28 34.63) rotate(-45)"/>
      <path class="secondary" d="M23,61.72a1,1,0,0,1-.72-.3L17.5,56.7a1,1,0,0,1,0-1.46L31.93,40.82a1,1,0,0,1,1.45,0l4.72,4.72a1,1,0,0,1,0,1.46L23.68,61.42A1,1,0,0,1,23,61.72ZM19.68,56,23,59.24l13-13L32.65,43Z"/>
    </g>
    <path class="secondary" d="M77.44,60.07,62.31,44.94l5.43-5.43L82.87,54.64ZM63.72,44.94,77.44,58.66l4-4L67.74,40.92Z"/>
    <g>
      <rect class="primary" x="69.25" y="39.59" width="6.68" height="20.4" transform="translate(-13.95 65.91) rotate(-45)"/>
      <path class="secondary" d="M77.44,60.39a1,1,0,0,1-.73-.3L62.29,45.67a1,1,0,0,1,0-1.46L67,39.49a1,1,0,0,1,1.45,0L82.89,53.91a1,1,0,0,1,0,1.46l-4.73,4.72A1,1,0,0,1,77.44,60.39Zm-13-15.45,13,13,3.27-3.27-13-13Z"/>
    </g>
    <path class="secondary" d="M49.48,42.5a1.7,1.7,0,0,1-1.35-.66L44.5,37.19h-1a3.26,3.26,0,0,1-3.25-3.26V23.63a3.26,3.26,0,0,1,3.25-3.25h12.3a1,1,0,0,1,0,2H43.48a1.25,1.25,0,0,0-1.25,1.25V33.94a1.26,1.26,0,0,0,1.25,1.26H45a1,1,0,0,1,.79.38L49.24,40V36.19a1,1,0,0,1,1-1H57a1.26,1.26,0,0,0,1.25-1.26V26.08a1,1,0,0,1,2,0v7.85A3.26,3.26,0,0,1,57,37.19H51.24v3.56a1.73,1.73,0,0,1-1.17,1.65A1.7,1.7,0,0,1,49.48,42.5Z"/>
    <path class="secondary" d="M50.05,32.19h0a1,1,0,0,1-.72-.33l-4.09-4.55a1,1,0,0,1,.08-1.42,1,1,0,0,1,1.41.08l3.38,3.77L61.3,18.53a1,1,0,0,1,1.42,0,1,1,0,0,1,0,1.41l-12,12A1,1,0,0,1,50.05,32.19Z"/>
  </g>
</svg>
