<svg class="triumph-svg-icon" xmlns="http://www.w3.org/2000/svg" width="1.38in" height="1.38in" viewBox="0 0 99.23 99.25">
  <defs>
    <style>
      .icon-dark {
        fill: #000000;
      }

      .icon-accent {
        fill: #c8c9c7;
      }
    </style>
  </defs>
  <g>
    <g>
      <path class="icon-dark" d="M75.41,70a1.05,1.05,0,0,1-.49-.13l-7.48-4.2-4,2.2A1,1,0,0,1,62,67.5a1,1,0,0,1,.4-1.36L67,63.68a1,1,0,0,1,1,0l6,3.37-1.5-6.64a1,1,0,0,1,.3-1l5.21-4.79L71,54.2a1,1,0,0,1-.85-.62L67.44,47l-2.77,6.62a1,1,0,0,1-.86.61l-3.7.25a1,1,0,0,1-.14-2l3.09-.22L66.52,44a1.06,1.06,0,0,1,.92-.62,1,1,0,0,1,.93.62l3.41,8.26,8.63.58a1,1,0,0,1,.87.66A1,1,0,0,1,81,54.55l-6.51,6,1.87,8.27a1,1,0,0,1-.38,1A1,1,0,0,1,75.41,70Z"/>
      <path class="icon-dark" d="M23.51,70a1,1,0,0,1-.6-.2,1,1,0,0,1-.37-1l1.87-8.27-6.51-6a1,1,0,0,1,.61-1.73l8.63-.58L30.55,44a1,1,0,0,1,.92-.62,1,1,0,0,1,.93.62l3.46,8.26,3.08.22a1,1,0,1,1-.14,2l-3.69-.25a1,1,0,0,1-.86-.61L31.48,47l-2.73,6.61a1,1,0,0,1-.86.62L21,54.66l5.22,4.79a1,1,0,0,1,.3,1L25,67.05l6-3.37a1,1,0,0,1,1,0l4.53,2.46a1,1,0,0,1,.39,1.36,1,1,0,0,1-1.35.4l-4-2.2L24,69.9A1.05,1.05,0,0,1,23.51,70Z"/>
      <path class="icon-dark" d="M59.84,50.19a1,1,0,0,1-1-1V41.43c0-1.2-4.55-3.93-8.87-3.93s-8.86,2.73-8.86,3.93v7.76a1,1,0,0,1-2,0V41.43c0-3,6.22-5.93,10.86-5.93s10.87,2.93,10.87,5.93v7.76A1,1,0,0,1,59.84,50.19Z"/>
      <path class="icon-dark" d="M50,33.24c-3.6,0-6.65-2.56-6.65-5.58V24.12c0-3,3-5.58,6.65-5.58s6.59,2.55,6.65,5.56v3.56C56.62,30.68,53.58,33.24,50,33.24Zm0-12.7c-2.43,0-4.65,1.71-4.65,3.58v3.54c0,1.87,2.22,3.58,4.65,3.58s4.65-1.71,4.65-3.58V24.12C54.59,22.26,52.37,20.54,50,20.54Z"/>
    </g>
    <g>
      <polygon class="icon-accent" points="50.02 47.65 54.49 58.29 65.69 59.01 57.22 66.76 59.68 77.4 50.02 72 40.36 77.4 42.83 66.76 34.4 59.01 45.6 58.29 50.02 47.65"/>
      <path class="icon-dark" d="M59.68,78.4a.94.94,0,0,1-.48-.13L50,73.15l-9.17,5.12a1,1,0,0,1-1.09-.07,1,1,0,0,1-.37-1l2.34-10.06-8-7.37A1,1,0,0,1,34.34,58l10.58-.68L49.1,47.27a1,1,0,0,1,.92-.62h0a1,1,0,0,1,.93.61l4.23,10.07L65.76,58a1,1,0,0,1,.61,1.73l-8.05,7.37,2.34,10.06a1,1,0,0,1-.38,1A1,1,0,0,1,59.68,78.4ZM50,71a1.05,1.05,0,0,1,.49.13l7.69,4.3-2-8.44a1,1,0,0,1,.3-1l6.75-6.18-8.86-.57a1,1,0,0,1-.86-.61L50,50.24l-3.5,8.43a1,1,0,0,1-.86.61l-8.87.57L43.51,66a1,1,0,0,1,.29,1l-1.95,8.44,7.69-4.3A1,1,0,0,1,50,71ZM45.61,58.29h0Z"/>
    </g>
  </g>
</svg>
