<svg xmlns="http://www.w3.org/2000/svg" viewBox="0 0 99.25 99.25"><defs><style>.cls-1{fill:#c8c9c7;}.cls-1,.cls-2,.cls-3{stroke:#000;stroke-linecap:round;stroke-linejoin:round;stroke-width:2px;}.cls-2{fill:#fff;}.cls-3{fill:none;}</style></defs><g id="Icons"><path class="cls-1" d="M46.44,44.51a6.78,6.78,0,0,0,6.88-6.87V34.88a6.88,6.88,0,0,0-13.76,0v2.76A6.78,6.78,0,0,0,46.44,44.51Z"/><path class="cls-1" d="M54.64,50.2a25.91,25.91,0,0,0-8.2-1.56c-5.15,0-15.13,2.81-15.13,8.25V63.5H46.22"/><circle class="cls-2" cx="57.2" cy="60.87" r="10.74"/><path class="cls-3" d="M59.63,58.39a2.25,2.25,0,0,0-2.17-2.1c-1.94,0-2.66,1-2.66,2.1,0,3.21,4.74,1.13,4.74,4.48a2.15,2.15,0,0,1-2.35,2.28,2.84,2.84,0,0,1-2.81-2.4"/><line class="cls-3" x1="57.28" y1="54.58" x2="57.28" y2="56.21"/><line class="cls-3" x1="57.28" y1="65.44" x2="57.28" y2="67.07"/></g></svg>