<svg class="triumph-svg-icon" xmlns="http://www.w3.org/2000/svg" viewBox="0 0 99.25 99.25">
  <defs>
    <style>
      .icon-accent
        fill: #c8c9c7;
      }

      .icon-dark {
        fill: #000000;
      }
    </style>
  </defs>
  <g>
    <g>
      <g>
        <path class="icon-accent" d="M46.48,61.65a10.76,10.76,0,0,1,8-11.12l.19-.29a25.63,25.63,0,0,0-8.2-1.56c-5.15,0-15.13,2.81-15.13,8.25v6.61H46.22l.42-.67C46.57,62.47,46.51,62.06,46.48,61.65Z"/>
        <path class="icon-dark" d="M46.21,64.54H31.31a1,1,0,0,1-1-1V56.93c0-6.16,10.34-9.25,16.13-9.25A26.84,26.84,0,0,1,55,49.3a1,1,0,0,1,.5,1.48l-.18.29a1,1,0,0,1-.59.43,9.75,9.75,0,0,0-7.23,10.08h0a9.31,9.31,0,0,0,.15,1.1,1.06,1.06,0,0,1-.14.72l-.43.68A1,1,0,0,1,46.21,64.54Zm-13.9-2H45.58a5.87,5.87,0,0,1-.09-.82,11.75,11.75,0,0,1,6.4-11.28,23.14,23.14,0,0,0-5.45-.76c-5,0-14.13,2.75-14.13,7.25Z"/>
      </g>
      <g>
        <path class="icon-accent" d="M46.44,44.55a6.79,6.79,0,0,0,6.88-6.88V34.92a6.88,6.88,0,0,0-13.76,0v2.75A6.79,6.79,0,0,0,46.44,44.55Z"/>
        <path class="icon-dark" d="M46.44,45.55a7.79,7.79,0,0,1-7.88-7.88V34.92a7.88,7.88,0,0,1,15.76,0v2.75A7.79,7.79,0,0,1,46.44,45.55Zm0-16.5a5.81,5.81,0,0,0-5.88,5.87v2.75a5.88,5.88,0,0,0,11.76,0V34.92A5.81,5.81,0,0,0,46.44,29.05Z"/>
      </g>
    </g>
    <path class="icon-dark" d="M57.18,72.66A11.74,11.74,0,1,1,68.91,60.11h0A11.75,11.75,0,0,1,58,72.63C57.73,72.65,57.46,72.66,57.18,72.66Zm0-21.49-.68,0a9.74,9.74,0,1,0,10.39,9.05h0A9.76,9.76,0,0,0,57.21,51.17Z"/>
    <g>
      <path class="icon-dark" d="M57.19,66.19a3.79,3.79,0,0,1-3.77-3.13,1,1,0,0,1,1.93-.54c.41,1.48,1.19,1.67,1.84,1.67.9,0,1.35-.43,1.35-1.28s-.31-1-1.65-1.33c-1.15-.3-3.09-.79-3.09-3.15,0-1.44,1-3.1,3.66-3.1a3.24,3.24,0,0,1,3.17,3,1,1,0,0,1-.93,1.07,1,1,0,0,1-1.07-.92,1.26,1.26,0,0,0-1.17-1.17c-1.1,0-1.66.37-1.66,1.1s.22.86,1.58,1.21c1.18.3,3.16.8,3.16,3.27A3.14,3.14,0,0,1,57.19,66.19Z"/>
      <path class="icon-dark" d="M57.28,57.25a1,1,0,0,1-1-1V54.62a1,1,0,0,1,2,0v1.63A1,1,0,0,1,57.28,57.25Z"/>
      <path class="icon-dark" d="M57.28,68.11a1,1,0,0,1-1-1V65.48a1,1,0,0,1,2,0v1.63A1,1,0,0,1,57.28,68.11Z"/>
    </g>
  </g>
</svg>
