<svg class="triumph-svg-icon" xmlns="http://www.w3.org/2000/svg" width="1.38in" height="1.38in" viewBox="0 0 99.25 99.25">
  <defs>
    <style>
      .icon-dark {
        fill: #000000;
      }

      .icon-accent {
        fill: #c8c9c7;
      }
    </style>
  </defs>
  <g>
    <path class="icon-dark" d="M66.93,69.55H33.79a5.15,5.15,0,0,1-5.14-5.14V42.23a5.15,5.15,0,0,1,5.14-5.14H66.93a5.14,5.14,0,0,1,5.13,5.14V64.41A5.14,5.14,0,0,1,66.93,69.55ZM33.79,39.09a3.15,3.15,0,0,0-3.14,3.14V64.41a3.15,3.15,0,0,0,3.14,3.14H66.93a3.14,3.14,0,0,0,3.13-3.14V42.23a3.14,3.14,0,0,0-3.13-3.14Z"/>
    <g>
      <polygon class="icon-accent" points="35.55 43.69 48.78 26.99 62.45 37.79 35.55 43.69"/>
      <path class="icon-dark" d="M35.55,44.69a1,1,0,0,1-.78-1.62L48,26.37a1,1,0,0,1,1.4-.17L63.07,37a1,1,0,0,1,.36,1,1,1,0,0,1-.76.75l-26.91,5.9ZM49,28.39,38.08,42.11l22.1-4.84Z"/>
    </g>
    <path class="icon-dark" d="M71.06,48.55a1,1,0,0,1-1-1,2.84,2.84,0,0,0-2.84-2.84H36.63a1,1,0,0,1,0-2H67.22a4.84,4.84,0,0,1,4.84,4.84A1,1,0,0,1,71.06,48.55Z"/>
    <g>
      <polygon class="icon-accent" points="35.6 43.68 59.03 30.39 66.84 43.62 35.6 43.68"/>
      <path class="icon-dark" d="M35.6,44.68a1,1,0,0,1-1-.74,1,1,0,0,1,.47-1.13L58.53,29.52a1,1,0,0,1,1.36.36l7.82,13.23a1,1,0,0,1-.86,1.51l-31.25.06ZM58.66,31.74,39.4,42.68l25.69-.06Z"/>
    </g>
    <g>
      <path class="icon-accent" d="M62.39,50.07H71a0,0,0,0,1,0,0V59a0,0,0,0,1,0,0H62.39a4.47,4.47,0,0,1-4.47-4.47v0A4.47,4.47,0,0,1,62.39,50.07Z"/>
      <path class="icon-dark" d="M71,60H62.39a5.47,5.47,0,0,1,0-10.94H71a1,1,0,0,1,1,1V59A1,1,0,0,1,71,60Zm-8.62-8.94a3.47,3.47,0,0,0,0,6.94H70V51.07Z"/>
    </g>
  </g>
</svg>
