<svg class="triumph-svg-icon" xmlns="http://www.w3.org/2000/svg" width="1.38in" height="1.38in" viewBox="0 0 99.25 99.25">
  <defs>
    <style>
      .icon-dark {
        fill: #000000;
      }

      .icon-accent {
        fill: #c8c9c7;
      }
    </style>
  </defs>
  <g>
    <path class="icon-dark" d="M46.89,79.46H27.18a4.93,4.93,0,0,1-4.91-4.92V36.86A4.92,4.92,0,0,1,27.18,32H46.89a4.92,4.92,0,0,1,4.92,4.91V74.54A4.93,4.93,0,0,1,46.89,79.46ZM27.18,34a2.92,2.92,0,0,0-2.91,2.91V74.54a2.92,2.92,0,0,0,2.91,2.92H46.89a2.92,2.92,0,0,0,2.92-2.92V36.86A2.92,2.92,0,0,0,46.89,34Z"/>
    <path class="icon-dark" d="M50.81,40.25H23.27a1,1,0,1,1,0-2H50.81a1,1,0,0,1,0,2Z"/>
    <path class="icon-dark" d="M51,66.56H23.09a1,1,0,0,1,0-2H51a1,1,0,1,1,0,2Z"/>
    <path class="icon-dark" d="M37,75.49a3.42,3.42,0,1,1,3.42-3.42A3.42,3.42,0,0,1,37,75.49Zm0-4.84a1.42,1.42,0,1,0,1.42,1.42A1.42,1.42,0,0,0,37,70.65Z"/>
    <path class="icon-accent" d="M58.29,22.9C48.22,22.9,40,29,40,36.46a11.56,11.56,0,0,0,3.85,8.33,47.64,47.64,0,0,1-1.9,7.5c-.31,1,.36,2,1.18,1.74a20.71,20.71,0,0,0,8.63-4.93,24,24,0,0,0,6.53.93C68.41,50,76.58,44,76.58,36.46S68.41,22.9,58.29,22.9Z"/>
    <path class="icon-dark" d="M42.88,55.08a1.85,1.85,0,0,1-1.32-.57A2.5,2.5,0,0,1,41,52a50.06,50.06,0,0,0,1.79-6.85A12.3,12.3,0,0,1,39,36.46c0-8,8.65-14.56,19.29-14.56s19.29,6.53,19.29,14.56S68.93,51,58.29,51A25,25,0,0,1,52,50.21,21.89,21.89,0,0,1,43.42,55,1.7,1.7,0,0,1,42.88,55.08Zm0-2h0ZM58.29,23.9C48.75,23.9,41,29.53,41,36.46a10.49,10.49,0,0,0,3.54,7.6,1,1,0,0,1,.3.87,48.18,48.18,0,0,1-1.94,7.66.6.6,0,0,0,0,.46,19.89,19.89,0,0,0,8.13-4.66,1,1,0,0,1,1-.25,23,23,0,0,0,6.25.89c9.53,0,17.29-5.64,17.29-12.57S67.82,23.9,58.29,23.9Z"/>
    <path class="icon-dark" d="M65.74,37.46H49.5a1,1,0,0,1,0-2H65.74a1,1,0,0,1,0,2Z"/>
    <path class="icon-dark" d="M65.74,32H49.5a1,1,0,1,1,0-2H65.74a1,1,0,1,1,0,2Z"/>
    <path class="icon-dark" d="M59,42.86H49.5a1,1,0,0,1,0-2H59a1,1,0,0,1,0,2Z"/>
  </g>
</svg>
