<svg class="triumph-svg-icon" xmlns="http://www.w3.org/2000/svg" width="1.38in" height="1.38in" viewBox="0 0 99.25 99.25">
  <defs>
    <style>
      .icon-dark {
        fill: #000000;
      }

      .icon-accent {
        fill: #c8c9c7;
      }
    </style>
  </defs>
  <g>
    <path class="icon-dark" d="M47,79.32H27.31A4.92,4.92,0,0,1,22.4,74.4V36.73a4.92,4.92,0,0,1,4.91-4.92H47a4.93,4.93,0,0,1,4.92,4.92V74.4A4.93,4.93,0,0,1,47,79.32ZM27.31,33.81a2.92,2.92,0,0,0-2.91,2.92V74.4a2.92,2.92,0,0,0,2.91,2.92H47a2.92,2.92,0,0,0,2.92-2.92V36.73A2.92,2.92,0,0,0,47,33.81Z"/>
    <path class="icon-dark" d="M50.93,40.11H23.4a1,1,0,0,1,0-2H50.93a1,1,0,0,1,0,2Z"/>
    <path class="icon-dark" d="M51.12,66.42H23.21a1,1,0,1,1,0-2H51.12a1,1,0,0,1,0,2Z"/>
    <path class="icon-dark" d="M37.17,75.35a3.42,3.42,0,1,1,3.42-3.42A3.42,3.42,0,0,1,37.17,75.35Zm0-4.84a1.42,1.42,0,1,0,1.42,1.42A1.42,1.42,0,0,0,37.17,70.51Z"/>
    <path class="icon-accent" d="M58.42,22.76c-10.07,0-18.29,6.06-18.29,13.56A11.5,11.5,0,0,0,44,44.65a47.64,47.64,0,0,1-1.9,7.5c-.31,1,.36,2,1.18,1.75A20.82,20.82,0,0,0,51.89,49a24,24,0,0,0,6.53.93c10.12,0,18.29-6.06,18.29-13.57S68.54,22.76,58.42,22.76Z"/>
    <path class="icon-dark" d="M43,54.94a1.87,1.87,0,0,1-1.33-.57,2.52,2.52,0,0,1-.55-2.52A50.06,50.06,0,0,0,42.91,45a12.29,12.29,0,0,1-3.78-8.68c0-8,8.65-14.56,19.29-14.56s19.29,6.53,19.29,14.56S69.06,50.89,58.42,50.89a25,25,0,0,1-6.25-.82,22,22,0,0,1-8.62,4.78A1.7,1.7,0,0,1,43,54.94Zm0-2ZM58.42,23.76c-9.54,0-17.29,5.64-17.29,12.56a10.49,10.49,0,0,0,3.54,7.6,1,1,0,0,1,.3.87A47.91,47.91,0,0,1,43,52.45a.66.66,0,0,0,0,.46,19.76,19.76,0,0,0,8.13-4.66,1,1,0,0,1,1-.25,23.09,23.09,0,0,0,6.26.89c9.53,0,17.29-5.64,17.29-12.57S68,23.76,58.42,23.76Z"/>
    <path class="icon-dark" d="M65.87,37.32H49.63a1,1,0,0,1,0-2H65.87a1,1,0,0,1,0,2Z"/>
    <path class="icon-dark" d="M65.87,31.88H49.63a1,1,0,0,1,0-2H65.87a1,1,0,0,1,0,2Z"/>
    <path class="icon-dark" d="M59.09,42.72H49.63a1,1,0,1,1,0-2h9.46a1,1,0,0,1,0,2Z"/>
  </g>
</svg>
