<svg class="triumph-svg-icon" xmlns="http://www.w3.org/2000/svg" width="1.38in" height="1.38in" viewBox="0 0 99.25 99.25">
  <defs>
    <style>
      .icon-accent {
        fill: #c8c9c7;
      }

      .icon-dark {
        fill: #000000;
      }
    </style>
  </defs>
  <g>
    <g>
      <path class="icon-accent" d="M48.19,29.83C46.05,32.83,31.91,39,26.37,39V60.79C26.37,71,47,82.25,48.14,82.56c1.23-.31,21.77-12.32,21.77-20.63V39C63.91,39,50.32,32.83,48.19,29.83Z"/>
      <path class="icon-dark" d="M48.14,83.56a1.15,1.15,0,0,1-.26,0C46.67,83.2,25.37,71.9,25.37,60.79V39a1,1,0,0,1,1-1c5.34,0,19.07-6.05,21-8.77a1,1,0,0,1,.82-.42h0a1,1,0,0,1,.81.42C50.81,31.79,64.08,38,69.91,38a1,1,0,0,1,1,1V61.93c0,9.09-21.55,21.35-22.52,21.6A1.07,1.07,0,0,1,48.14,83.56ZM27.37,40V60.79c0,9,18,19.41,20.78,20.7C51,80.15,68.91,69.07,68.91,61.93V40c-6.09-.53-17.14-5.44-20.73-8.68C44.5,34.58,33,39.4,27.37,40Z"/>
    </g>
    <g>
      <path class="icon-dark" d="M58.72,36.22,46,50.31l8.57,10.13L47.4,69.82l5.77-9.47-9.81-9.92L55,34.7S58.37,36.22,58.72,36.22Z"/>
      <path class="icon-dark" d="M47.4,70.82a1,1,0,0,1-.56-.17,1,1,0,0,1-.29-1.35l5.36-8.8-9.26-9.37a1,1,0,0,1-.09-1.3L54.18,34.11a1,1,0,0,1,1.21-.32c1.38.62,3.07,1.34,3.45,1.44a1,1,0,0,1,.62,1.67L47.34,50.33l8,9.47a1,1,0,0,1,0,1.25L48.2,70.43A1,1,0,0,1,47.4,70.82ZM44.67,50.33l.48.49a1,1,0,0,1,.12-1.18L57,36.66c-.44-.18-1-.41-1.67-.72Z"/>
    </g>
    <g>
      <path class="icon-dark" d="M48.26,24.81h0a1,1,0,0,1-1-1L47.38,17a1,1,0,0,1,1-1h0a1,1,0,0,1,1,1l-.12,6.78A1,1,0,0,1,48.26,24.81Z"/>
      <path class="icon-dark" d="M33,32.43a1,1,0,0,1-.88-.51L28.8,26a1,1,0,0,1,1.75-1L33.84,31a1,1,0,0,1-.39,1.36A1,1,0,0,1,33,32.43Z"/>
      <path class="icon-dark" d="M63.49,33a1,1,0,0,1-.52-.14,1,1,0,0,1-.34-1.37l3.48-5.81a1,1,0,1,1,1.72,1l-3.49,5.81A1,1,0,0,1,63.49,33Z"/>
    </g>
  </g>
</svg>
