<svg class="triumph-svg-icon" xmlns="http://www.w3.org/2000/svg" width="1.38in" height="1.38in" viewBox="0 0 99.25 99.25">
  <defs>
    <style>
      .secondary {
        fill: #000000;
      }

      .primary {
        fill: #c8c9c7;
      }
    </style>
  </defs>
  <g>
    <path class="secondary" d="M43.66,46.33H27.42a1,1,0,0,1,0-2H43.66a1,1,0,0,1,0,2Z"/>
    <path class="secondary" d="M43.66,40.88H27.42a1,1,0,0,1,0-2H43.66a1,1,0,0,1,0,2Z"/>
    <path class="secondary" d="M43.66,51.72H34.21a1,1,0,0,1,0-2h9.45a1,1,0,0,1,0,2Z"/>
    <g>
      <path class="secondary" d="M53.37,50.67a3.79,3.79,0,0,1-3.77-3.13A1,1,0,1,1,51.52,47c.42,1.48,1.21,1.67,1.85,1.67.9,0,1.36-.43,1.36-1.28s-.31-1-1.66-1.34c-1.15-.29-3.09-.79-3.09-3.16,0-1.43,1-3.1,3.66-3.1a3.25,3.25,0,0,1,3.18,3,1,1,0,0,1-2,.15,1.27,1.27,0,0,0-1.18-1.18c-1.1,0-1.66.37-1.66,1.1s.22.88,1.59,1.22c1.18.3,3.16.8,3.16,3.28A3.14,3.14,0,0,1,53.37,50.67Z"/>
      <path class="secondary" d="M53.47,41.71a1,1,0,0,1-1-1V39.08a1,1,0,0,1,2,0v1.63A1,1,0,0,1,53.47,41.71Z"/>
      <path class="secondary" d="M53.47,52.6a1,1,0,0,1-1-1V50a1,1,0,0,1,2,0V51.6A1,1,0,0,1,53.47,52.6Z"/>
    </g>
    <path class="secondary" d="M67.52,60.25H41.94a1,1,0,0,1-1-.8l-5.32-26H30.87a1,1,0,1,1,0-2h5.58a1,1,0,0,1,1,.8l5.33,26H67.52a1,1,0,0,1,0,2Z"/>
    <path class="secondary" d="M66.27,55.41H41.11a1,1,0,0,1-1-.8L36.31,36.19a1,1,0,0,1,.21-.83,1,1,0,0,1,.77-.37h31.3a1,1,0,0,1,.75.34,1,1,0,0,1,.25.79L67.26,54.53A1,1,0,0,1,66.27,55.41Zm-24.35-2H65.39L67.46,37H38.52Z"/>
    <g>
      <circle class="primary" cx="46.04" cy="65.01" r="2.6"/>
      <path class="secondary" d="M46,68.62A3.61,3.61,0,1,1,49.64,65,3.61,3.61,0,0,1,46,68.62Zm0-5.21A1.61,1.61,0,1,0,47.64,65,1.6,1.6,0,0,0,46,63.41Z"/>
    </g>
    <g>
      <circle class="primary" cx="62.97" cy="65.01" r="2.6"/>
      <path class="secondary" d="M63,68.62A3.61,3.61,0,1,1,66.58,65,3.61,3.61,0,0,1,63,68.62Zm0-5.21A1.61,1.61,0,1,0,64.58,65,1.6,1.6,0,0,0,63,63.41Z"/>
    </g>
  </g>
</svg>
