<svg class="triumph-svg-icon" xmlns="http://www.w3.org/2000/svg" width="1.38in" height="1.38in" viewBox="0 0 99.25 99.25">
  <defs>
    <style>
      .icon-dark {
        fill: #000000;
      }

      .icon-accent {
        fill: #c8c9c7;
      }
    </style>
  </defs>
  <g>
    <path class="icon-dark" d="M49.2,72.18a22,22,0,1,1,22-22A22,22,0,0,1,49.2,72.18Zm0-42a20,20,0,1,0,20,20A20,20,0,0,0,49.2,30.18Z"/>
    <g>
      <polygon class="icon-accent" points="66.19 33.31 49.33 50.01 42.86 43.53 37.67 48.67 49.13 60.54 71.38 38.5 66.19 33.31"/>
      <path class="icon-dark" d="M49.13,61.54h0a1,1,0,0,1-.71-.31L37,49.37A1,1,0,0,1,37,48l5.18-5.14a1,1,0,0,1,1.42,0l5.77,5.77,16.14-16a1,1,0,0,1,1.41,0l5.19,5.19a1,1,0,0,1,.29.71,1,1,0,0,1-.29.71l-22.25,22A1,1,0,0,1,49.13,61.54ZM39.07,48.69,49.14,59.12,70,38.5l-3.78-3.78L50,50.72a1,1,0,0,1-1.42,0l-5.77-5.77Z"/>
    </g>
  </g>
</svg>
