<svg class="triumph-svg-icon" xmlns="http://www.w3.org/2000/svg" width="1.38in" height="1.38in" viewBox="0 0 99.25 99.25">
  <defs>
    <style>
      .secondary {
        fill: #000000;
      }

      .primary {
        fill: #c8c9c7;
      }
    </style>
  </defs>
  <g>
    <path class="secondary" d="M43.23,48.43H25.41a1,1,0,0,1-1-1V29.6a1,1,0,0,1,1-1H43.23a1,1,0,0,1,1,1V47.43A1,1,0,0,1,43.23,48.43Zm-16.82-2H42.23V30.6H26.41Z"/>
    <path class="secondary" d="M68.2,48.43H50.37a1,1,0,0,1-1-1V29.6a1,1,0,0,1,1-1H68.2a1,1,0,0,1,1,1V47.43A1,1,0,0,1,68.2,48.43Zm-16.83-2H67.2V30.6H51.37Z"/>
    <path class="secondary" d="M43.23,71.88H25.41a1,1,0,0,1-1-1V53.05a1,1,0,0,1,1-1H43.23a1,1,0,0,1,1,1V70.88A1,1,0,0,1,43.23,71.88Zm-16.82-2H42.23V54.05H26.41Z"/>
    <g>
      <rect class="primary" x="50.37" y="53.05" width="17.83" height="17.83"/>
      <path class="secondary" d="M68.2,71.88H50.37a1,1,0,0,1-1-1V53.05a1,1,0,0,1,1-1H68.2a1,1,0,0,1,1,1V70.88A1,1,0,0,1,68.2,71.88Zm-16.83-2H67.2V54.05H51.37Z"/>
    </g>
    <path class="secondary" d="M60.27,66.69a1,1,0,0,1-.71-.29L54.18,61a1,1,0,0,1,1.41-1.41l4.68,4.67,13.8-13.8a1,1,0,0,1,1.41,0,1,1,0,0,1,0,1.42L61,66.4A1,1,0,0,1,60.27,66.69Z"/>
  </g>
</svg>
