<svg class="triumph-svg-icon" xmlns="http://www.w3.org/2000/svg" width="1.38in" height="1.38in" viewBox="0 0 99.25 99.25">
  <defs>
    <style>
      .icon-accent {
        fill: #c8c9c7;
      }

      .icon-dark {
        fill: #000000;
      }
    </style>
  </defs>
  <g>
    <g>
      <path class="icon-accent" d="M59.34,20.92,42.45,41.54l-.3.38c1,.52,1.82,1,2.2,1.26,3.37,2.28.87,6.08-2.24,4.65-.55-.26-1.85-.86-3.29-1.64l-.77.93c4.61,3.13,13.13,9.88,13.24,10L72.62,31.75Z"/>
      <path class="icon-dark" d="M51.29,58.12a1,1,0,0,1-.66-.24c-.07-.06-8.58-6.81-13.16-9.91a1,1,0,0,1-.21-1.5l.77-.93a1,1,0,0,1,1.28-.25c1.45.78,2.74,1.38,3.23,1.61a1.64,1.64,0,0,0,2.22-.5c.34-.6.25-1.53-1-2.37-.21-.14-.74-.46-2.11-1.2a1,1,0,0,1-.51-.7,1,1,0,0,1,.19-.84l.3-.38,16.9-20.64A1,1,0,0,1,60,20.13L73.27,31a1,1,0,0,1,.37.7,1,1,0,0,1-.23.76L52.07,57.75A1,1,0,0,1,51.29,58.12Zm-8.77-9.06c3.38,2.5,7,5.36,8.62,6.6l20-23.78L59.48,22.37,43.72,41.61q.86.48,1.2.72c2.25,1.52,2.44,3.64,1.63,5.08A3.59,3.59,0,0,1,42.52,49.06Z"/>
    </g>
    <path class="icon-dark" d="M64.84,74.18a1,1,0,0,1-.71-.3L64,73.71a1.38,1.38,0,0,0-1.23-.57H48c-1.88,0-9.08-7.62-9.14-7.7a55.77,55.77,0,0,1-5.44-8.68,1,1,0,0,1,.11-1,5.16,5.16,0,0,1,5.26-1.41c2.16.48,3.43,2,4.71,4.42l4.41,1.94a1,1,0,0,1-.81,1.83L42.4,60.47a.94.94,0,0,1-.48-.46c-1.3-2.47-2.2-3.41-3.56-3.71a3.87,3.87,0,0,0-2.78.3,59.71,59.71,0,0,0,4.78,7.5c1.36,1.5,6.59,6.57,7.76,7H62.73a3.34,3.34,0,0,1,2.69,1.2l.13.13a1,1,0,0,1,0,1.41A1,1,0,0,1,64.84,74.18Zm-16.68-3Z"/>
    <path class="icon-dark" d="M58.5,66.8H50.09c-2.73,0-4.16-1.82-4.16-3.63s1.43-3.63,4.16-3.63h5.55a9,9,0,0,0,.92-.67,5.35,5.35,0,0,1,3-1.44H64.8c1.71,0,3.71,1.28,4.9,2.38C71.3,61.46,74,64.06,74,64.06l-1.4,1.42s-2.67-2.62-4.25-4.24a6.52,6.52,0,0,0-3.5-1.81H59.54a4.65,4.65,0,0,0-1.76,1,3.86,3.86,0,0,1-2.14,1.08H50.09c-1.49,0-2.16.82-2.16,1.63s.67,1.63,2.16,1.63H58.5a1,1,0,0,1,0,2Z"/>
    <g>
      <rect class="icon-accent" x="62.7" y="67.87" width="17.85" height="7.46" transform="translate(-29.65 71.62) rotate(-45)"/>
      <path class="icon-dark" d="M68,81.57a1,1,0,0,1-.72-.3L62,76a1,1,0,0,1,0-1.45L74.58,61.92a1.06,1.06,0,0,1,1.45,0L81.3,67.2a1,1,0,0,1,0,1.45L68.68,81.27A1,1,0,0,1,68,81.57Zm-3.82-6.3L68,79.09,79.12,67.92,75.3,64.1Z"/>
    </g>
    <path class="icon-dark" d="M73.25,71a1,1,0,0,1-.71-1.71l2.11-2.11a1,1,0,0,1,1.42,0,1,1,0,0,1,0,1.41L74,70.74A1,1,0,0,1,73.25,71Z"/>
    <path class="icon-dark" d="M28.09,33.58a3.34,3.34,0,0,1-2.69-1.19l-.13-.14a1,1,0,0,1,1.41-1.41l.17.17a1.4,1.4,0,0,0,1.24.57,34.89,34.89,0,0,0,3.72-.93c2.94-.81,6.6-1.82,8.5-1.82a26.82,26.82,0,0,1,7.82,1.22,1,1,0,0,1-.7,1.88,24.38,24.38,0,0,0-7.12-1.1c-1.63,0-5.29,1-8,1.75A23.68,23.68,0,0,1,28.09,33.58Z"/>
    <path class="icon-dark" d="M43.5,49.19a4.1,4.1,0,0,1-1.77-.41c-.47-.22-1.35-.69-2.45-1.29-1.9-1-4.51-2.45-6.21-3.16-.68-.27-2.53.29-3.76.66a10.28,10.28,0,0,1-2.6.59,1,1,0,1,1,0-2,10.41,10.41,0,0,0,2-.5c1.77-.54,3.77-1.15,5.11-.59,1.8.74,4.46,2.19,6.41,3.24,1,.56,1.91,1.05,2.33,1.24a1.66,1.66,0,0,0,2.25-.51c.34-.61.26-1.56-1-2.41-.81-.54-4.33-2.39-5.62-3a1,1,0,0,1-.54-1,3.13,3.13,0,0,1,1.18-2.2A3.64,3.64,0,0,1,42,37.44a1,1,0,0,1-.47,1.94,1.91,1.91,0,0,0-1.49.08,1.06,1.06,0,0,0-.15.15c1.39.73,4.24,2.23,5.06,2.78,2.23,1.51,2.42,3.62,1.62,5A3.49,3.49,0,0,1,43.5,49.19Z"/>
    <g>
      <rect class="icon-accent" x="18.53" y="29.78" width="7.46" height="17.85"/>
      <path class="icon-dark" d="M26,48.66H18.53a1,1,0,0,1-1-1V29.78a1,1,0,0,1,1-1H26a1,1,0,0,1,1,1V47.63A1,1,0,0,1,26,48.66ZM19.55,46.6H25V30.81H19.55Z"/>
    </g>
    <path class="icon-dark" d="M22.22,45a1,1,0,0,1-1-1V41a1,1,0,0,1,2,0v3A1,1,0,0,1,22.22,45Z"/>
    <path class="icon-dark" d="M56.77,43.07A4.2,4.2,0,0,1,55,42.66a1,1,0,1,1,.82-1.82c1.06.47,1.54.14,1.86-.25a.82.82,0,0,0-.08-1.33c-.41-.35-.57-.35-1.54.36s-2.25,1.64-3.88.29a2.59,2.59,0,0,1-1-1.88,3.35,3.35,0,0,1,.91-2.36A2.87,2.87,0,0,1,56,35.22a1,1,0,1,1-1.16,1.63.89.89,0,0,0-1.16.1,1.59,1.59,0,0,0-.46,1,.65.65,0,0,0,.26.45c.34.29.46.33,1.42-.37s2.32-1.68,4-.28a2.79,2.79,0,0,1,.34,4.15A3.13,3.13,0,0,1,56.77,43.07Z"/>
    <path class="icon-dark" d="M52.76,37.38a.94.94,0,0,1-.63-.23l-1.05-.87a1,1,0,0,1,1.28-1.54l1,.87A1,1,0,0,1,53.53,37,1,1,0,0,1,52.76,37.38Z"/>
    <path class="icon-dark" d="M59.75,43.19a.94.94,0,0,1-.63-.23l-1-.87a1,1,0,1,1,1.28-1.54l1,.87a1,1,0,0,1,.13,1.41A1,1,0,0,1,59.75,43.19Z"/>
    <g>
      <line class="icon-accent" x1="66.71" y1="31.97" x2="63.03" y2="36.34"/>
      <path class="icon-dark" d="M63,37.37a1,1,0,0,1-.78-1.69l3.67-4.37a1,1,0,1,1,1.57,1.32L63.82,37A1,1,0,0,1,63,37.37Z"/>
    </g>
    <g>
      <line class="icon-accent" x1="60.08" y1="26.94" x2="58.78" y2="28.6"/>
      <path class="icon-dark" d="M58.78,29.62A1,1,0,0,1,58,28l1.3-1.65a1,1,0,0,1,1.62,1.27l-1.31,1.65A1,1,0,0,1,58.78,29.62Z"/>
    </g>
    <g>
      <line class="icon-accent" x1="47.06" y1="42.13" x2="45.57" y2="43.81"/>
      <path class="icon-dark" d="M45.57,44.83a1,1,0,0,1-.68-.26,1,1,0,0,1-.09-1.45l1.49-1.67a1,1,0,1,1,1.53,1.36l-1.48,1.68A1,1,0,0,1,45.57,44.83Z"/>
    </g>
    <g>
      <line class="icon-accent" x1="54.29" y1="47.22" x2="50.61" y2="51.6"/>
      <path class="icon-dark" d="M50.61,52.62a1,1,0,0,1-.78-1.69l3.67-4.37a1,1,0,0,1,1.58,1.33L51.4,52.26A1,1,0,0,1,50.61,52.62Z"/>
    </g>
  </g>
</svg>
