<svg xmlns="http://www.w3.org/2000/svg" viewBox="0 0 99.25 99.25"><defs><style>.cls-1{fill:#c8c9c7;}.cls-1,.cls-2,.cls-3{stroke:#000;stroke-linecap:round;stroke-linejoin:round;stroke-width:2px;}.cls-2{fill:#fff;}.cls-3{fill:none;}</style></defs><g id="Icons"><path class="cls-1" d="M49.46,33.9c-3.33,0-4.64,1-7,1.19-2.33-.2-3.63-1.19-7-1.19-3.93,0-9.46,3.21-9.46,10.38S31,63.81,36.59,63.81c2.88,0,2.48-1.59,5.9-1.81,3.42.22,3,1.81,5.91,1.81,5.64,0,10.52-12.36,10.52-19.53S53.39,33.9,49.46,33.9Z"/><path class="cls-2" d="M46,51.4v5.19s2.67,2.78,10.63,2.78,10.57-2.78,10.57-2.78V51.4s-1.47,2.83-10.57,2.83S46,51.4,46,51.4Z"/><path class="cls-2" d="M46,56.61v5.18s2.67,2.79,10.63,2.79,10.57-2.79,10.57-2.79V56.61s-1.47,2.83-10.57,2.83S46,56.61,46,56.61Z"/><path class="cls-2" d="M46,61.75v5.19s2.67,2.78,10.63,2.78,10.57-2.78,10.57-2.78V61.75s-1.47,2.84-10.57,2.84S46,61.75,46,61.75Z"/><path class="cls-2" d="M46,66.93v5.18s2.67,2.79,10.63,2.79,10.57-2.79,10.57-2.79V66.93s-1.47,2.83-10.57,2.83S46,66.93,46,66.93Z"/><ellipse class="cls-2" cx="56.59" cy="51.08" rx="10.52" ry="3.27"/><circle class="cls-2" cx="63.75" cy="65.93" r="9.44"/><path class="cls-3" d="M65.88,63.74A2,2,0,0,0,64,61.9c-1.7,0-2.34.89-2.34,1.84,0,2.82,4.17,1,4.17,3.94a1.89,1.89,0,0,1-2.07,2,2.47,2.47,0,0,1-2.46-2.1"/><line class="cls-3" x1="63.82" y1="60.4" x2="63.82" y2="61.83"/><line class="cls-3" x1="63.82" y1="69.94" x2="63.82" y2="71.37"/><path class="cls-3" d="M37.76,24.45s5.83,3.78,4.73,10.2"/><path class="cls-3" d="M49.51,23.89s-7.38,2-6.06,10.32C43.45,34.21,50.33,33.39,49.51,23.89Z"/><path class="cls-3" d="M35.35,38.22s-5.4.33-5.24,7.2"/></g></svg>