<svg class="triumph-svg-icon" xmlns="http://www.w3.org/2000/svg" viewBox="0 0 99.25 99.25">
  <defs>
    <style>
      .icon-accent
        fill: #c8c9c7;
      }

      .icon-dark {
        fill: #000000;
      }
    </style>
  </defs>
  <g>
    <g>
      <path class="icon-accent" d="M45.48,61.83V56.65h0V51.44a.55.55,0,0,1,.09-.28s0,0,0,0c0-2.45,5.68-3.77,11-3.77.69,0,1.39,0,2.08.07a20.48,20.48,0,0,0,.25-3.1c0-7.17-5.53-10.38-9.46-10.38-3.33,0-4.64,1-7,1.19-2.33-.2-3.63-1.19-7-1.19-3.93,0-9.46,3.21-9.46,10.38S31,63.85,36.59,63.85c2.88,0,2.48-1.59,5.9-1.81a5.87,5.87,0,0,1,3,.88Z"/>
      <path class="icon-dark" d="M36.59,64.85c-6.66,0-11.53-13.51-11.53-20.53,0-7.85,6.12-11.38,10.46-11.38a16.1,16.1,0,0,1,4.68.7,12.59,12.59,0,0,0,2.29.48,12.7,12.7,0,0,0,2.3-.48,16,16,0,0,1,4.68-.7c4.34,0,10.45,3.53,10.45,11.38a21.43,21.43,0,0,1-.26,3.24,1,1,0,0,1-1,.86c-.68-.05-1.36-.07-2-.07-5.68,0-9.93,1.43-10,2.73v.08a.91.91,0,0,1-.09.41V62.92a1,1,0,0,1-.51.87,1,1,0,0,1-1,0A4.84,4.84,0,0,0,42.49,63a4.9,4.9,0,0,0-2.66.86A5.4,5.4,0,0,1,36.59,64.85ZM35.52,34.94c-3.51,0-8.46,2.91-8.46,9.38,0,6.8,4.71,18.53,9.53,18.53a3.44,3.44,0,0,0,2.19-.66A7,7,0,0,1,42.43,61h.13a8.07,8.07,0,0,1,1.92.33V56.65h0V51.44a1.43,1.43,0,0,1,.09-.5c.23-3.62,7.62-4.59,12-4.59l1.21,0a19,19,0,0,0,.12-2c0-6.47-4.94-9.38-8.45-9.38a14.1,14.1,0,0,0-4.15.63,14.74,14.74,0,0,1-2.74.55.49.49,0,0,1-.17,0,14.42,14.42,0,0,1-2.74-.55A14.16,14.16,0,0,0,35.52,34.94Z"/>
    </g>
    <g>
      <path class="icon-dark" d="M56.05,54.92c-5.55,0-11.53-1.34-11.53-4.27s6-4.27,11.53-4.27,11.52,1.34,11.52,4.27S61.59,54.92,56.05,54.92Zm0-6.54c-6.19,0-9.53,1.61-9.53,2.27s3.34,2.27,9.53,2.27,9.52-1.61,9.52-2.27S62.23,48.38,56.05,48.38Z"/>
      <path class="icon-dark" d="M63.21,75.93A10.44,10.44,0,1,1,73.65,65.5,10.44,10.44,0,0,1,63.21,75.93Zm0-18.87a8.44,8.44,0,1,0,8.44,8.44A8.44,8.44,0,0,0,63.21,57.06Z"/>
      <g>
        <path class="icon-dark" d="M63.2,70.25a3.45,3.45,0,0,1-3.43-2.84,1,1,0,0,1,.7-1.23,1,1,0,0,1,1.23.7c.34,1.21,1,1.37,1.5,1.37.72,0,1.07-.33,1.07-1s-.17-.75-1.36-1.06-2.8-.71-2.8-2.88c0-1.31.87-2.85,3.33-2.85a3,3,0,0,1,2.9,2.78,1,1,0,1,1-2,.14c0-.18-.22-.92-.91-.92-1.33,0-1.33.64-1.33.85,0,.52.1.64,1.29,1s2.87.72,2.87,3A2.87,2.87,0,0,1,63.2,70.25Z"/>
        <path class="icon-dark" d="M63.28,62.4a1,1,0,0,1-1-1V60a1,1,0,0,1,2,0V61.4A1,1,0,0,1,63.28,62.4Z"/>
        <path class="icon-dark" d="M63.28,71.93a1,1,0,0,1-1-1V69.51a1,1,0,0,1,2,0v1.42A1,1,0,0,1,63.28,71.93Z"/>
      </g>
      <path class="icon-dark" d="M56.07,59.94c-8.3,0-11.23-3-11.35-3.09a1,1,0,0,1-.28-.69V51a1,1,0,0,1,1.88-.47h0s1.63,2.3,9.75,2.3,9.69-2.31,9.7-2.33A1,1,0,0,1,66.91,50a1,1,0,0,1,.73.94v5.19a1,1,0,0,1-.28.69,4.86,4.86,0,0,1-.6.5,1,1,0,0,1-.9.14,8.4,8.4,0,0,0-8.7,2.14,1,1,0,0,1-.71.3Zm.37-1h0Zm-10-3.24c.83.61,3.62,2.24,9.58,2.25a10.35,10.35,0,0,1,7.19-2.88,10.49,10.49,0,0,1,2.43.29V53.06c-1.6.86-4.48,1.74-9.57,1.74s-8-.89-9.63-1.75Z"/>
      <g>
        <path class="icon-dark" d="M66.64,57.71a.89.89,0,0,1-.36-.07L66,57.53a1,1,0,0,1-.37-1.66,1.13,1.13,0,0,0,.18-.2,1,1,0,0,1,1.13-.43,1,1,0,0,1,.73.94v.53a1,1,0,0,1-1,1Z"/>
        <path class="icon-dark" d="M53.9,65.07h-.08c-6.57-.46-9-2.9-9.1-3a1,1,0,0,1-.28-.7V56.18a1,1,0,0,1,.76-1,1,1,0,0,1,1.12.49h0S48,58,56.07,58h.31a1,1,0,0,1,.91.61,1,1,0,0,1-.19,1.08,8.37,8.37,0,0,0-2.22,4.53A1,1,0,0,1,53.9,65.07Zm-7.46-4.18c.69.5,2.69,1.69,6.65,2.1a10.14,10.14,0,0,1,1.27-3c-4.07-.18-6.5-1-7.92-1.73Z"/>
      </g>
      <path class="icon-dark" d="M54.56,70.26h-.05c-7.11-.33-9.68-2.94-9.79-3a1,1,0,0,1-.28-.69V61.32a1,1,0,0,1,1.88-.48h0s1.35,1.89,7.63,2.25a1,1,0,0,1,.72.37,1,1,0,0,1,.21.78,8.38,8.38,0,0,0-.1,1.26,8.3,8.3,0,0,0,.7,3.36,1,1,0,0,1-.92,1.4ZM46.44,66c.69.5,2.69,1.69,6.68,2.1a10.17,10.17,0,0,1-.34-2.64c0-.16,0-.32,0-.49a16.52,16.52,0,0,1-6.35-1.62Z"/>
      <path class="icon-dark" d="M56.07,75.47c-8.3,0-11.23-3-11.35-3.1a1,1,0,0,1-.28-.69V66.5a1,1,0,0,1,.76-1,1,1,0,0,1,1.12.49h0s1.44,2,8.3,2.28a1,1,0,0,1,.88.6,8.54,8.54,0,0,0,4.56,4.42,1,1,0,0,1,.62,1.05,1,1,0,0,1-.86.87A30.33,30.33,0,0,1,56.07,75.47Zm-9.63-4.26c.84.61,3.64,2.26,9.63,2.26h.42a10.39,10.39,0,0,1-2.55-3.19,17.77,17.77,0,0,1-7.5-1.7Z"/>
    </g>
    <path class="icon-dark" d="M42.5,35.69h-.17a1,1,0,0,1-.82-1.16c1-5.67-4.08-9.06-4.29-9.2a1,1,0,1,1,1.09-1.67c.26.16,6.36,4.22,5.17,11.21A1,1,0,0,1,42.5,35.69Z"/>
    <path class="icon-dark" d="M43.44,35.25a1,1,0,0,1-1-.85A9.81,9.81,0,0,1,49.25,23a1,1,0,0,1,.83.15,1,1,0,0,1,.42.73c.9,10.35-6.86,11.39-6.94,11.4Zm5.14-9.88A7.54,7.54,0,0,0,44.31,33C45.84,32.4,48.6,30.62,48.58,25.37Z"/>
    <path class="icon-dark" d="M30.11,46.46a1,1,0,0,1-1-1c-.18-7.74,6.11-8.21,6.18-8.22a1,1,0,0,1,.12,2c-.45,0-4.43.49-4.3,6.17a1,1,0,0,1-1,1Z"/>
  </g>
</svg>
