<svg class="triumph-svg-icon" xmlns="http://www.w3.org/2000/svg" width="1.38in" height="1.38in" viewBox="0 0 99.25 99.25">
  <defs>
    <style>
      .cls-1 {
        fill: #808080;
      }

      .cls-2 {
        fill: #000000;
      }
    </style>
  </defs>
  <g>
    <g>
      <path class="cls-1" d="M69.45,22.67H25.58a3.64,3.64,0,0,0-3.64,3.66V47.05a3.64,3.64,0,0,0,3.66,3.66l2.43,0,6.35,8.16a1.22,1.22,0,0,0,2.17-.76v-7.4h7.31a6.1,6.1,0,0,1,12.19,0h13.4A3.66,3.66,0,0,0,73.1,47V26.33A3.66,3.66,0,0,0,69.45,22.67Z"/>
      <path class="cls-2" d="M35.32,60.31a2.21,2.21,0,0,1-1.72-.83l-6.06-7.79-1.93,0h0a4.66,4.66,0,0,1-4.65-4.66V26.33a4.65,4.65,0,0,1,4.64-4.66H69.45a4.66,4.66,0,0,1,4.65,4.66V47a4.66,4.66,0,0,1-4.65,4.66H59.7a1,1,0,0,1,0-2h9.75A2.66,2.66,0,0,0,72.1,47V26.33a2.66,2.66,0,0,0-2.65-2.66H25.58a2.65,2.65,0,0,0-2.64,2.66V47.05a2.61,2.61,0,0,0,.78,1.89,2.65,2.65,0,0,0,1.86.77h0l2.43,0h0a1,1,0,0,1,.79.38l6.35,8.17a.21.21,0,0,0,.24.06.2.2,0,0,0,.14-.21v-7.4a1,1,0,0,1,1-1h3.66a1,1,0,1,1,0,2H37.55v6.4a2.23,2.23,0,0,1-2.23,2.22Z"/>
      <path class="cls-2" d="M50,60.22a7,7,0,0,1-7.09-7.09V50.69a7.1,7.1,0,0,1,14.19,0v2.44A7,7,0,0,1,50,60.22ZM50,45.6a5,5,0,0,0-5.09,5.09v2.44a5.1,5.1,0,0,0,10.19,0V50.69A5,5,0,0,0,50,45.6Z"/>
      <path class="cls-2" d="M63.35,79.71a1,1,0,0,1-1-1V70.18c0-3.91-8-6.31-12.4-6.31s-12.4,2.4-12.4,6.31v8.53a1,1,0,0,1-2,0V70.18c0-5.53,9.24-8.31,14.4-8.31s14.4,2.78,14.4,8.31v8.53A1,1,0,0,1,63.35,79.71Z"/>
      <path class="cls-2" d="M57.26,79.71a1,1,0,0,1-1-1V72.62a1,1,0,0,1,2,0v6.09A1,1,0,0,1,57.26,79.71Z"/>
      <path class="cls-2" d="M42.65,79.71a1,1,0,0,1-1-1V72.62a1,1,0,0,1,2,0v6.09A1,1,0,0,1,42.65,79.71Z"/>
      <path class="cls-2" d="M67,79.71H32.9a1,1,0,1,1,0-2H67a1,1,0,0,1,0,2Z"/>
    </g>
    <path class="cls-2" d="M58.26,39.59a1,1,0,0,1-.7-.29l-7.2-7.2a1,1,0,0,1,0-1.42,1,1,0,0,1,1.41,0l6.49,6.49L77,18.49a1,1,0,0,1,1.41,0,1,1,0,0,1,0,1.41L59,39.3A1,1,0,0,1,58.26,39.59Z"/>
    <path class="cls-2" d="M41.38,30.71H28.54a1,1,0,0,1,0-2H41.38a1,1,0,0,1,0,2Z"/>
    <path class="cls-2" d="M41.38,36H28.54a1,1,0,0,1,0-2H41.38a1,1,0,0,1,0,2Z"/>
    <path class="cls-2" d="M41.38,41.31H28.54a1,1,0,1,1,0-2H41.38a1,1,0,0,1,0,2Z"/>
  </g>
</svg>
