<svg class="triumph-svg-icon" xmlns="http://www.w3.org/2000/svg" width="1.38in" height="1.38in" viewBox="0 0 99.25 99.25">
  <defs>
    <style>
      .cls-1 {
        fill: #000000;
      }

      .cls-2 {
        fill: #808080;
      }
    </style>
  </defs>
  <g>
    <path class="cls-1" d="M79.93,70.67H19.53a1,1,0,0,1-1-1V32.92a1,1,0,0,1,1-1h60.4a1,1,0,0,1,1,1V69.67A1,1,0,0,1,79.93,70.67Zm-59.4-2h58.4V33.92H20.53Z"/>
    <path class="cls-1" d="M86.25,76.24H13.35a1,1,0,0,1-1-1V69.7a1,1,0,0,1,1-1h72.9a1,1,0,0,1,1,1v5.54A1,1,0,0,1,86.25,76.24Zm-71.9-2h70.9V70.7H14.35Z"/>
    <g>
      <rect class="cls-2" x="68.52" y="51.57" width="5.54" height="18.09"/>
      <path class="cls-1" d="M74.06,70.66H68.52a1,1,0,0,1-1-1V51.57a1,1,0,0,1,1-1h5.54a1,1,0,0,1,1,1V69.66A1,1,0,0,1,74.06,70.66Zm-4.54-2h3.54V52.57H69.52Z"/>
    </g>
    <g>
      <rect class="cls-2" x="40.99" y="55.95" width="5.54" height="13.71"/>
      <path class="cls-1" d="M46.52,70.66H41a1,1,0,0,1-1-1V56a1,1,0,0,1,1-1h5.53a1,1,0,0,1,1,1V69.66A1,1,0,0,1,46.52,70.66Zm-4.53-2h3.53V57H42Z"/>
    </g>
    <g>
      <rect class="cls-2" x="54.85" y="62.36" width="5.54" height="7.3"/>
      <path class="cls-1" d="M60.38,70.66H54.85a1,1,0,0,1-1-1v-7.3a1,1,0,0,1,1-1h5.53a1,1,0,0,1,1,1v7.3A1,1,0,0,1,60.38,70.66Zm-4.53-2h3.53v-5.3H55.85Z"/>
    </g>
    <g>
      <rect class="cls-2" x="28.24" y="65.33" width="5.54" height="4.32"/>
      <path class="cls-1" d="M33.78,70.66H28.24a1,1,0,0,1-1-1V65.33a1,1,0,0,1,1-1h5.54a1,1,0,0,1,1,1v4.33A1,1,0,0,1,33.78,70.66Zm-4.54-2h3.54V66.33H29.24Z"/>
    </g>
    <path class="cls-1" d="M54.86,73.36H44.74a1,1,0,1,1,0-2H54.86a1,1,0,0,1,0,2Z"/>
    <path class="cls-1" d="M25.17,62.45a1,1,0,0,1-.7-1.71l17.9-17.9a1,1,0,0,1,.71-.29h0a1,1,0,0,1,.7.29L56.27,55.32,84.71,27.17a1,1,0,1,1,1.41,1.42L57,57.45a1,1,0,0,1-1.41,0L43.08,45l-17.2,17.2A1,1,0,0,1,25.17,62.45Z"/>
    <path class="cls-1" d="M85.42,34.11a1,1,0,0,1-1-1V28.88H79.74a1,1,0,0,1,0-2h5.68a1,1,0,0,1,1,1v5.23A1,1,0,0,1,85.42,34.11Z"/>
  </g>
</svg>
