<svg class="triumph-svg-icon" xmlns="http://www.w3.org/2000/svg" width="1.38in" height="1.38in" viewBox="0 0 99.25 99.25">
  <defs>
    <style>
      .secondary {
        fill: #000000;
      }

      .primary {
        fill: #c8c9c7;
      }
    </style>
  </defs>
  <g>
    <path class="secondary" d="M66.54,64.32a2.12,2.12,0,0,1-1.42-.53c-2.28-2-6.3-6.13-9.23-9.13-1-1-1.82-1.87-2.38-2.42s-3.49.06-5.23.44c-1,.21-2.06.44-3,.56A7,7,0,0,1,39,50.32a2.31,2.31,0,0,1-.25-2.6c1.09-1.79,12.61-5.29,13.92-5a21.33,21.33,0,0,1,2.39.9,30.58,30.58,0,0,0,4.83,1.7c.58-.4,2.46-2,4-3.4a1,1,0,0,1,1.41.07,1,1,0,0,1-.07,1.42c-4.24,3.8-4.64,3.85-5,3.89-.9.15-2.57-.44-6-1.83-.88-.36-1.8-.74-2.09-.81h0c-1.36,0-10.53,3-11.72,4.07a2.28,2.28,0,0,0,.69,1.05,5,5,0,0,0,3.86,1.45c.83-.11,1.79-.32,2.81-.54,2.94-.64,5.73-1.24,7.07.1.56.56,1.4,1.42,2.39,2.44,2.75,2.82,6.9,7.07,9.12,9,0,0,0,0,.18,0,1.8-.26,5.9-5.49,8.24-9.12a1,1,0,0,1,1.38-.3,1,1,0,0,1,.3,1.38c-1,1.59-6.29,9.55-9.64,10Z"/>
    <path class="secondary" d="M51.19,76a1,1,0,0,1-.72-.3l-3.54-3.65a1,1,0,0,1,1.43-1.39l3.55,3.64a1,1,0,0,1,0,1.42A1,1,0,0,1,51.19,76Z"/>
    <path class="secondary" d="M57.15,74.06a1,1,0,0,1-.74-.33L50.14,66.9a1,1,0,0,1,1.48-1.35l6.26,6.83a1,1,0,0,1-.73,1.68Z"/>
    <path class="secondary" d="M62.59,70.87a1,1,0,0,1-.71-.3l-7.5-7.71a1,1,0,1,1,1.43-1.39l7.5,7.71a1,1,0,0,1,0,1.41A1,1,0,0,1,62.59,70.87Z"/>
    <path class="secondary" d="M40.12,76.61a3.24,3.24,0,0,1-2.28-.94l-11.05-11a3.23,3.23,0,0,1,0-4.55l2-2a3.25,3.25,0,0,1,4.6.36,3.91,3.91,0,0,1,1.14,2.23c0,.06,0,.11,0,.17A4,4,0,0,1,38,64.41l.16,0a3.87,3.87,0,0,1,2.24,1.14A3.82,3.82,0,0,1,41.59,68,3.76,3.76,0,0,1,44,69.12a3.82,3.82,0,0,1,1.14,2.23,2.79,2.79,0,0,1-.78,2.37l-2,2A3.24,3.24,0,0,1,40.12,76.61ZM30.73,59.32a.82.82,0,0,0-.57.21l-1.95,2a1.21,1.21,0,0,0,0,1.72l11,11h0a1.19,1.19,0,0,0,1.72,0l2-2a.83.83,0,0,0,.21-.7,1.92,1.92,0,0,0-.57-1.07A2,2,0,0,0,41.5,70a.8.8,0,0,0-.7.21,1,1,0,0,1-1.42,0,1,1,0,0,1-.29-.71,1,1,0,0,1,.29-.7c.4-.4.24-1.18-.36-1.78A1.87,1.87,0,0,0,38,66.42a.85.85,0,0,0-.71.2,1,1,0,0,1-1.71-.7,1,1,0,0,1,.3-.71c.39-.4.23-1.17-.36-1.77s-1.38-.76-1.77-.36a1,1,0,0,1-1.42,0,1,1,0,0,1,0-1.42.77.77,0,0,0,.21-.7,1.89,1.89,0,0,0-.57-1.07A1.79,1.79,0,0,0,30.73,59.32Z"/>
    <path class="secondary" d="M47.53,78.74a4.58,4.58,0,0,1-3.27-1.53l-2.39-2.44a1,1,0,0,1,.06-1.42,1,1,0,0,1,1.41.06l.67.72,1.67,1.66a2.57,2.57,0,0,0,2.07.94,4,4,0,0,0,2.57-2.17,1,1,0,0,1,1.33-.38,3.2,3.2,0,0,0,2.48.19,3.67,3.67,0,0,0,2.13-1.72,1,1,0,0,1,1.34-.43A2.55,2.55,0,0,0,60.32,72a2.63,2.63,0,0,0,1.23-1.86A1,1,0,0,1,62.48,69,3.38,3.38,0,0,0,65.34,67a3.17,3.17,0,0,0-.41-3.3,1,1,0,1,1,1.6-1.19,5.17,5.17,0,0,1,.62,5.33,5.33,5.33,0,0,1-3.69,3,5.09,5.09,0,0,1-2,2.75,4.52,4.52,0,0,1-3.93.73,5.75,5.75,0,0,1-2.82,1.94,5.25,5.25,0,0,1-3.16,0A5.47,5.47,0,0,1,48,78.71,3.38,3.38,0,0,1,47.53,78.74Z"/>
    <path class="secondary" d="M28.48,60.85a1,1,0,0,1-.76-.34,8.46,8.46,0,0,1-1.56-2.65L24,55.56a1,1,0,0,1,0-1.41,1,1,0,0,1,1.42,0l2.36,2.46a1.14,1.14,0,0,1,.24.41,6.19,6.19,0,0,0,1.24,2.15,1,1,0,0,1-.76,1.65Z"/>
    <path class="secondary" d="M39.78,49a1,1,0,0,1-.71-.3l-4-4a1,1,0,0,1,0-1.42,1,1,0,0,1,1.41,0l4,4A1,1,0,0,1,39.78,49Z"/>
    <path class="secondary" d="M29.56,67a1,1,0,0,1-.72-.3,1,1,0,0,1,0-1.45l3.5-3.55a1,1,0,1,1,1.46,1.44l-3.49,3.55A1,1,0,0,1,29.56,67Z"/>
    <path class="secondary" d="M29.56,67a1,1,0,0,1-.71-.29,1,1,0,0,1,0-1.41l3.5-3.55a1,1,0,1,1,1.42,1.41l-3.49,3.54A1,1,0,0,1,29.56,67Z"/>
    <path class="secondary" d="M33.1,70.51a1,1,0,0,1-.69-.28,1,1,0,0,1,0-1.41l3.5-3.6a1,1,0,1,1,1.43,1.39l-3.49,3.6A1,1,0,0,1,33.1,70.51Z"/>
    <path class="secondary" d="M36.65,74.06a1,1,0,0,1-.72-1.7l3.49-3.59a1,1,0,0,1,1.44,1.39l-3.5,3.6A1,1,0,0,1,36.65,74.06Z"/>
    <path class="secondary" d="M22.72,57.23,17.29,51.8,32.42,36.67l5.43,5.43Zm-4-5.43,4,4L36.44,42.1l-4-4Z"/>
    <g>
      <rect class="primary" x="17.37" y="43.61" width="20.4" height="6.68" transform="translate(-25.12 33.25) rotate(-45)"/>
      <path class="secondary" d="M22.72,57.55a1,1,0,0,1-.73-.3l-4.72-4.72a1,1,0,0,1,0-1.46L31.69,36.65a1.06,1.06,0,0,1,1.46,0l4.72,4.72a1,1,0,0,1,0,1.46L23.45,57.25A1,1,0,0,1,22.72,57.55ZM19.45,51.8l3.27,3.27,13-13-3.27-3.27Z"/>
    </g>
    <path class="secondary" d="M77.2,55.9,62.07,40.77l5.43-5.43L82.63,50.47ZM63.49,40.77,77.2,54.48l4-4L67.5,36.75Z"/>
    <g>
      <rect class="primary" x="69.01" y="35.42" width="6.68" height="20.4" transform="translate(-11.07 64.52) rotate(-45)"/>
      <path class="secondary" d="M77.2,56.22a1,1,0,0,1-.72-.3L62.05,41.49a1,1,0,0,1-.3-.72,1,1,0,0,1,.3-.73l4.73-4.72a1,1,0,0,1,1.45,0L82.65,49.74a1,1,0,0,1,.3.73,1,1,0,0,1-.3.73l-4.72,4.72A1,1,0,0,1,77.2,56.22Zm-13-15.45,13,13,3.27-3.27-13-13Z"/>
    </g>
    <g>
      <polygon class="primary" points="49.85 24.97 51.29 28.46 54.99 28.72 52.22 31.23 53.04 34.73 49.85 32.98 46.67 34.73 47.44 31.23 44.66 28.72 48.36 28.46 49.85 24.97"/>
      <path class="secondary" d="M46.67,35.73a1,1,0,0,1-.6-.2,1,1,0,0,1-.38-1l.65-2.92L44,29.46a1,1,0,0,1,.6-1.74l3.09-.21,1.25-2.94a1,1,0,0,1,.93-.6,1,1,0,0,1,.92.62L52,27.51l3.08.21a1,1,0,0,1,.87.67,1,1,0,0,1-.27,1.07l-2.34,2.12L54,34.5a1,1,0,0,1-.37,1,1,1,0,0,1-1.08.09l-2.71-1.49-2.7,1.49A1,1,0,0,1,46.67,35.73Zm.4-6.18,1,.94a1,1,0,0,1,.3,1l-.29,1.34,1.25-.69a1,1,0,0,1,1,0l1.22.67-.31-1.31a1,1,0,0,1,.3-1l1-.94-1.36-.09a1,1,0,0,1-.85-.62l-.53-1.29-.56,1.3a1,1,0,0,1-.85.61Z"/>
    </g>
    <g>
      <polygon class="primary" points="39.58 24.3 40.3 26.1 42.15 26.2 40.76 27.48 41.17 29.23 39.58 28.36 37.98 29.23 38.34 27.48 36.95 26.2 38.8 26.1 39.58 24.3"/>
      <path class="secondary" d="M41.17,30.23a1,1,0,0,1-.48-.12l-1.11-.61-1.12.61A1,1,0,0,1,37,29l.25-1.2-1-.9a1,1,0,0,1,.62-1.73l1.23-.07.53-1.23a1,1,0,0,1,.92-.6h0a1,1,0,0,1,.91.63l.49,1.2,1.21.07a1,1,0,0,1,.62,1.73l-1,.89L42.14,29a1,1,0,0,1-1,1.23Zm-2-3.22a1.13,1.13,0,0,1,.12.38.85.85,0,0,1,.42,0,1.15,1.15,0,0,1,.12-.37.9.9,0,0,1-.33-.25A.9.9,0,0,1,39.22,27Z"/>
    </g>
    <g>
      <polygon class="primary" points="60.13 24.3 60.85 26.1 62.7 26.2 61.31 27.48 61.72 29.23 60.13 28.36 58.53 29.23 58.9 27.48 57.51 26.2 59.36 26.1 60.13 24.3"/>
      <path class="secondary" d="M61.72,30.23a1,1,0,0,1-.48-.12l-1.11-.61L59,30.11A1,1,0,0,1,57.94,30a1,1,0,0,1-.38-1l.24-1.2-1-.9a1,1,0,0,1,.62-1.73l1.23-.07.53-1.23a1,1,0,0,1,.93-.6,1,1,0,0,1,.92.63l.48,1.2,1.21.07a1,1,0,0,1,.63,1.73l-1,.89L62.69,29a1,1,0,0,1-.36,1A1,1,0,0,1,61.72,30.23ZM59.77,27a.81.81,0,0,1,.12.38.89.89,0,0,1,.43,0,.94.94,0,0,1,.11-.37,1,1,0,0,1-.33-.25A.9.9,0,0,1,59.77,27Z"/>
    </g>
  </g>
</svg>
