<svg class="triumph-svg-icon" xmlns="http://www.w3.org/2000/svg" width="1.38in" height="1.38in" viewBox="0 0 99.25 99.25">
  <defs>
    <style>
      .icon-dark {
        fill: #000000;
      }

      .icon-accent {
        fill: #c8c9c7;
      }
    </style>
  </defs>
  <g>
    <path class="icon-dark" d="M55.87,83.4a1,1,0,0,1-.71-.3L26.55,54.49a1.09,1.09,0,0,1-.27-.48L22.35,37a1,1,0,0,1,.26-.93l8.14-8.14a1,1,0,0,1,.95-.26l16.8,4.2a1.06,1.06,0,0,1,.46.26L77.57,60.69a1,1,0,0,1,.29.71,1,1,0,0,1-.29.71l-21,21A1,1,0,0,1,55.87,83.4ZM28.17,53.28,55.87,81,75.45,61.4,47.74,33.69l-16-4L24.42,37Z"/>
    <g>
      <rect class="icon-accent" x="42.67" y="43.32" width="16.93" height="26.7" transform="translate(-25.1 52.76) rotate(-45)"/>
      <path class="icon-dark" d="M54.59,73.1a1,1,0,0,1-.7-.29L35,53.93a1,1,0,0,1,0-1.41l12-12a1,1,0,0,1,1.42,0L67.28,59.42a1,1,0,0,1,0,1.41l-12,12A1,1,0,0,1,54.59,73.1ZM37.13,53.22,54.59,70.69,65.15,60.13,47.69,42.66Z"/>
    </g>
    <path class="icon-dark" d="M41.43,55.49a1,1,0,0,1-.71-1.71l7.53-7.52a1,1,0,0,1,1.41,1.41l-7.52,7.52A1,1,0,0,1,41.43,55.49Z"/>
    <path class="icon-dark" d="M43.79,57.85a1,1,0,0,1-.7-1.71l7.52-7.52A1,1,0,0,1,52,50L44.5,57.56A1,1,0,0,1,43.79,57.85Z"/>
    <path class="icon-dark" d="M46.15,60.21a1,1,0,0,1-.7-1.71L53,51a1,1,0,0,1,1.42,1.42l-7.53,7.52A1,1,0,0,1,46.15,60.21Z"/>
    <path class="icon-dark" d="M48.52,62.57a1,1,0,0,1-.71-.29,1,1,0,0,1,0-1.41l7.52-7.53a1,1,0,1,1,1.42,1.42l-7.53,7.52A1,1,0,0,1,48.52,62.57Z"/>
    <path class="icon-dark" d="M31.88,40.88a3.94,3.94,0,0,1-2.81-1.16,4,4,0,0,1,0-5.61,4.07,4.07,0,0,1,5.62,0h0a4,4,0,0,1,0,5.61A3.94,3.94,0,0,1,31.88,40.88Zm0-5.93a1.94,1.94,0,0,0-1.39.57,2,2,0,1,0,2.78,0h0A1.94,1.94,0,0,0,31.88,35Z"/>
    <path class="icon-dark" d="M38.12,39.86c-3.93,0-6.6-1.17-7.54-3.33a4.49,4.49,0,0,1-.32-2.26,1,1,0,0,1,2,.22,2.45,2.45,0,0,0,.17,1.25c.61,1.41,2.82,2.17,6.07,2.12a34,34,0,0,0,12.33-3,34,34,0,0,0,10.65-6.93c2.26-2.33,3.21-4.47,2.59-5.89S61.24,19.84,58,19.88a34,34,0,0,0-12.33,3,34,34,0,0,0-10.75,7,1,1,0,1,1-1.44-1.38,35.76,35.76,0,0,1,11.39-7.48A35.82,35.82,0,0,1,58,17.88c4.18-.09,7,1.1,8,3.33s-.1,5.1-3,8.07a36.11,36.11,0,0,1-11.28,7.37,36.23,36.23,0,0,1-13.09,3.21Z"/>
  </g>
</svg>
