<svg xmlns="http://www.w3.org/2000/svg" viewBox="0 0 99.25 99.25"><defs><style>.cls-1{fill:#c8c9c7;stroke-width:2.06px;}.cls-1,.cls-2,.cls-3{stroke:#000;stroke-linecap:round;stroke-linejoin:round;}.cls-2{fill:none;}.cls-2,.cls-3{stroke-width:2px;}.cls-3{fill:#fff;}</style></defs><g id="Icons"><path class="cls-1" d="M71.42,36.69C69.49,30.84,62.55,26.5,54.26,26.5a30.57,30.57,0,0,0-7.16.88s-2-3.12-9.77-2.75a32.69,32.69,0,0,1,3.41,6.65A12.52,12.52,0,0,0,37,37H33.71v8.86h4.62a14.82,14.82,0,0,0,4.75,4.59l-1.63,6.64h7.61l1.15-4a22.46,22.46,0,0,0,8.28,0l1.17,4h7.61l-1.66-6.76C69.49,47.84,71.85,44.13,72,40A11.58,11.58,0,0,0,71.42,36.69Z"/><path class="cls-2" d="M71.82,37.36s3.58,2.66,6.32-.92"/><circle cx="43.25" cy="36.12" r="1.33"/><circle class="cls-3" cx="62.3" cy="28.52" r="9.82" transform="translate(15.4 78.47) rotate(-71.4)"/><path class="cls-2" d="M64.53,26.24a2,2,0,0,0-1.9-1.84c-1.7,0-2.33.9-2.33,1.84,0,2.82,4.16,1,4.16,3.93a1.89,1.89,0,0,1-2.07,2,2.48,2.48,0,0,1-2.46-2.1"/><line class="cls-2" x1="62.47" y1="22.91" x2="62.47" y2="24.34"/><line class="cls-2" x1="62.47" y1="32.43" x2="62.47" y2="33.85"/><path class="cls-3" d="M40,71.7a3,3,0,0,1,2.54-1.25H60.25c1.39,0,9.11-7.76,10.11-8.86a69.61,69.61,0,0,0,6.32-10.11c-.75-1-2.74-1.79-5.08-1.24s-3.54,2.14-5.08,5.08l-5.68,2.49"/><path class="cls-3" d="M47.65,62.83H57.76c5.08,0,5.08-6.32,0-6.32H51.08c-1,0-3-2.54-4.68-2.54H40.08c-1.69,0-3.83,1.4-5.08,2.54-1.89,1.94-5.08,5.08-5.08,5.08"/><rect class="cls-1" x="27.39" y="59.07" width="8.96" height="21.46" transform="translate(-40.02 42.98) rotate(-45)"/><line class="cls-2" x1="27.38" y1="65.37" x2="29.92" y2="67.91"/></g></svg>