<svg class="triumph-svg-icon" xmlns="http://www.w3.org/2000/svg" viewBox="0 0 99.25 99.25">
  <defs>
    <style>
      .icon-accent
        fill: #c8c9c7;
      }

      .icon-dark {
        fill: #000000;
      }
    </style>
  </defs>
  <g>
    <g>
      <path class="icon-accent" d="M43.08,50.47,42.21,54H46.4c1,0,2.11.92,3.08,1.66l.73-2.55a23.19,23.19,0,0,0,4,.37,22.47,22.47,0,0,0,4.23-.41l1.11,3.83a2.71,2.71,0,0,1,.42.2h2.51l4-1.76c.08-.14.15-.26.22-.4l-1.13-4.6C69.49,47.88,71.85,44.17,72,40a11.56,11.56,0,0,0-.55-3.28,11.28,11.28,0,0,0-1.16-2.43,9.82,9.82,0,0,1-17.58-7.71,30.37,30.37,0,0,0-5.58.83s-2-3.12-9.77-2.75a32.79,32.79,0,0,1,3.41,6.64A12.52,12.52,0,0,0,37,37H33.71v8.86h4.62A14.82,14.82,0,0,0,43.08,50.47Z"/>
      <path class="icon-dark" d="M62.53,58.13H60A1,1,0,0,1,59.5,58l-.3-.14a1,1,0,0,1-.58-.66l-.86-2.94a23.55,23.55,0,0,1-6.81,0L50.46,56a1,1,0,0,1-.66.69,1,1,0,0,1-.95-.16l-.23-.17A5.34,5.34,0,0,0,46.4,55H42.21a1,1,0,0,1-.81-.4,1.06,1.06,0,0,1-.19-.88l.7-2.83a16,16,0,0,1-4.13-4H33.71a1,1,0,0,1-1-1V37a1,1,0,0,1,1-1h2.55a13.67,13.67,0,0,1,3.29-5,34,34,0,0,0-3.07-5.78,1,1,0,0,1,.8-1.61c6.26-.3,9.12,1.63,10.17,2.63a32.76,32.76,0,0,1,5.17-.71,1.05,1.05,0,0,1,.84.36,1,1,0,0,1,.23.88,8.79,8.79,0,0,0,15.74,6.9,1,1,0,0,1,.87-.43,1,1,0,0,1,.84.49,12.69,12.69,0,0,1,1.25,2.65A12.37,12.37,0,0,1,73,40a13.66,13.66,0,0,1-6.22,10.77l1,3.9a1,1,0,0,1-.09.73l-.22.39a1,1,0,0,1-.5.46l-4,1.76A1.15,1.15,0,0,1,62.53,58.13Zm-2.1-2.05h1.88l3.29-1.45-1-4a1,1,0,0,1,.45-1.11c3.63-2.32,5.78-5.78,5.88-9.5a10.18,10.18,0,0,0-.5-2.94,7.2,7.2,0,0,0-.37-.93,10.85,10.85,0,0,1-18.59-8.41,28,28,0,0,0-4.11.7A1,1,0,0,1,46.24,28s-1.6-2.16-7.06-2.3A31,31,0,0,1,41.72,31a1,1,0,0,1-.29,1.1A11.51,11.51,0,0,0,38,37.32a1,1,0,0,1-1,.73H34.74v6.8h3.58a1,1,0,0,1,.87.48,13.92,13.92,0,0,0,4.43,4.26,1,1,0,0,1,.46,1.12L43.52,53H46.4a4.53,4.53,0,0,1,2.5,1l.33-1.12a1,1,0,0,1,1.16-.73,21.52,21.52,0,0,0,7.92,0,1,1,0,0,1,1.17.73Z"/>
    </g>
    <path class="icon-dark" d="M74.7,39.36a6.08,6.08,0,0,1-3.48-1.16,1,1,0,0,1-.2-1.4,1,1,0,0,1,1.39-.21,3.43,3.43,0,0,0,4.94-.72,1,1,0,0,1,1.58,1.22A5.21,5.21,0,0,1,74.7,39.36Z"/>
    <circle class="icon-dark" cx="43.25" cy="36.16" r="1.33"/>
    <g>
      <path class="icon-dark" d="M62.29,39.38a10.68,10.68,0,0,1-3.14-.47,10.82,10.82,0,1,1,13.5-7.2h0A10.84,10.84,0,0,1,62.29,39.38Zm0-19.65a8.83,8.83,0,1,0,8.43,11.4h0a8.84,8.84,0,0,0-8.43-11.4ZM71.7,31.42h0Z"/>
      <path class="icon-dark" d="M62.39,33.21A3.44,3.44,0,0,1,59,30.38a1,1,0,0,1,.7-1.23,1,1,0,0,1,1.23.69c.33,1.21,1,1.37,1.49,1.37.72,0,1.07-.33,1.07-1s-.17-.74-1.36-1.05-2.8-.71-2.8-2.88c0-1.31.87-2.84,3.33-2.84a3,3,0,0,1,2.9,2.77,1,1,0,0,1-.93,1.07,1,1,0,0,1-1.07-.92c0-.19-.21-.92-.9-.92-1.33,0-1.33.64-1.33.84,0,.52.1.64,1.29.95s2.87.72,2.87,3A2.88,2.88,0,0,1,62.39,33.21Z"/>
      <path class="icon-dark" d="M62.47,25.38a1,1,0,0,1-1-1V23a1,1,0,0,1,2,0v1.43A1,1,0,0,1,62.47,25.38Z"/>
      <path class="icon-dark" d="M62.47,34.89a1,1,0,0,1-1-1V32.47a1,1,0,0,1,2,0v1.42A1,1,0,0,1,62.47,34.89Z"/>
    </g>
    <g>
      <rect class="icon-accent" x="27.39" y="59.11" width="8.96" height="21.46" transform="translate(-40.05 42.99) rotate(-45)"/>
      <path class="icon-dark" d="M36.29,81.62a1,1,0,0,1-.73-.3L20.38,66.15a1,1,0,0,1,0-1.46l6.34-6.34a1,1,0,0,1,1.45,0L43.35,73.53a1,1,0,0,1,0,1.45L37,81.32A1,1,0,0,1,36.29,81.62ZM22.56,65.42,36.29,79.14l4.88-4.88L27.45,60.53Z"/>
    </g>
    <path class="icon-dark" d="M29.92,69a1,1,0,0,1-.71-.29l-2.54-2.54a1,1,0,1,1,1.42-1.41l2.54,2.54a1,1,0,0,1,0,1.41A1,1,0,0,1,29.92,69Z"/>
    <path class="icon-dark" d="M57.76,63.87H47.65a1,1,0,0,1,0-2H57.76c1.94,0,2.81-1.08,2.81-2.16s-.87-2.16-2.81-2.16H51.08a4.56,4.56,0,0,1-2.44-1.26A5.44,5.44,0,0,0,46.4,55H40.08c-1.27,0-3.17,1.14-4.4,2.27-1.84,1.89-5,5-5.06,5.06a1,1,0,1,1-1.4-1.42s3.2-3.16,5.06-5.07c1.45-1.33,3.8-2.84,5.8-2.84H46.4c1.26,0,2.43.9,3.46,1.69a6.15,6.15,0,0,0,1.27.85h6.63c3.15,0,4.81,2.09,4.81,4.16S60.91,63.87,57.76,63.87Z"/>
    <path class="icon-dark" d="M40,72.74A1,1,0,0,1,39.32,71l.16-.17a3.86,3.86,0,0,1,3.09-1.37h17.6C61.5,69,67.93,62.81,69.61,61a72.65,72.65,0,0,0,5.86-9.22,4.66,4.66,0,0,0-3.64-.49c-1.71.38-2.83,1.53-4.42,4.57a1,1,0,0,1-.49.45l-5.67,2.49a1,1,0,0,1-.81-1.83l5.36-2.35c1.56-2.91,3-4.71,5.58-5.28,2.85-.67,5.16.37,6.1,1.62a1,1,0,0,1,.12,1A68.63,68.63,0,0,1,71.1,62.3c-.09.09-8.7,9.19-10.85,9.19H42.57a1.82,1.82,0,0,0-1.63.75l-.2.2A1,1,0,0,1,40,72.74ZM60.14,69.5Z"/>
  </g>
</svg>
