<svg class="triumph-svg-icon" xmlns="http://www.w3.org/2000/svg" width="1.38in" height="1.38in" viewBox="0 0 99.25 99.25">
  <defs>
    <style>
      .icon-dark {
        fill: #000000;
      }
      .icon-accent {
        fill: #c8c9c7;
      }
    </style>
  </defs>
		<path class="icon-accent" d="M69,34.29H49.25l3.71,6a129,129,0,0,1,19.22-1.77"></path>
		<path class="icon-dark" d="M53,41.3a1,1,0,0,1-.85-.47l-3.71-6a1,1,0,0,1,0-1,1,1,0,0,1,.87-.52H69a1,1,0,0,1,0,2H51l2.42,3.92a129.3,129.3,0,0,1,18.43-1.68h.29a1,1,0,1,1,0,2h-.3a129.08,129.08,0,0,0-18.75,1.76Z"></path>
		<path class="icon-dark" d="M41.88,47.28a1,1,0,0,1-.49-.13A1,1,0,0,1,41,45.79c3.94-7.07-3.66-16.28-3.74-16.37a1,1,0,0,1,.35-1.55c4.33-2,8.31.35,9.4,1.1H66.37a1,1,0,0,1,.8.4L75.8,40.88a1,1,0,0,1-.2,1.4,1,1,0,0,1-1.4-.2L65.87,31H46.7a1,1,0,0,1-.61-.21,8.3,8.3,0,0,0-6.42-1.49c2.08,2.9,6.85,10.75,3.08,17.5A1,1,0,0,1,41.88,47.28Z"></path>
		<path class="icon-dark" d="M18.45,63.68l-.17,0a1,1,0,0,1-.82-1.15c3.7-22.25,68.95-22.22,71.69-22.22A1,1,0,0,1,89.9,42L77.64,56a1,1,0,0,1-1.51-1.32l10.8-12.39a249.45,249.45,0,0,0-31.65,2.54c-15.38,2.36-34.08,7.39-35.85,18A1,1,0,0,1,18.45,63.68Z"></path>
		<path class="icon-dark" d="M55.54,65.3a8.41,8.41,0,0,1-6.4-3.1,7,7,0,0,1-5.85,3.1,8.27,8.27,0,0,1-6.39-3.15,7.45,7.45,0,0,1-6.12,3.15,8,8,0,0,1-6.26-3.1,7.19,7.19,0,0,1-6,3.1c-4.94,0-7.25-4.35-7.34-4.54A1,1,0,0,1,13,59.85a6.66,6.66,0,0,0,5.56,3.45,5.56,5.56,0,0,0,5-3.36,1,1,0,0,1,.89-.63,1,1,0,0,1,.94.56,6.37,6.37,0,0,0,5.42,3.43,5.79,5.79,0,0,0,5.14-3.39,1,1,0,0,1,.89-.6,1,1,0,0,1,.92.54,6.68,6.68,0,0,0,5.56,3.45A5.08,5.08,0,0,0,48.06,60a1,1,0,0,1,.87-.67,1,1,0,0,1,1,.52c.08.14,1.94,3.47,5.65,3.47a5.52,5.52,0,0,0,5-3.36,1,1,0,0,1,.89-.63,1,1,0,0,1,.94.56,7,7,0,0,0,2.4,2.57,1,1,0,0,1-1.06,1.7,9,9,0,0,1-2.18-1.94A7.19,7.19,0,0,1,55.54,65.3Z"></path>
		<path class="icon-dark" d="M83.49,64.3a1,1,0,0,1-.56-1.83,6,6,0,0,0,2.12-2.53,1,1,0,1,1,1.87.73A8.18,8.18,0,0,1,84,64.14,1,1,0,0,1,83.49,64.3Z"></path>
		<path class="icon-dark" d="M53.24,72.65a8.4,8.4,0,0,1-6.4-3.1A7,7,0,0,1,41,72.65,8.24,8.24,0,0,1,34.6,69.5a7.47,7.47,0,0,1-6.13,3.15c-4.95,0-7.12-4.37-7.22-4.56a1,1,0,0,1,1.81-.87,6.32,6.32,0,0,0,5.41,3.43,5.79,5.79,0,0,0,5.15-3.39,1,1,0,0,1,.88-.6,1,1,0,0,1,.93.54A6.66,6.66,0,0,0,41,70.65a5.09,5.09,0,0,0,4.77-3.32,1,1,0,0,1,.86-.67,1,1,0,0,1,1,.52,6.86,6.86,0,0,0,5.65,3.47,5.53,5.53,0,0,0,5-3.36,1,1,0,0,1,1.87.73A7.53,7.53,0,0,1,53.24,72.65Z"></path>
		<path class="icon-dark" d="M74,74.9A10.44,10.44,0,1,1,84.46,64.46,10.45,10.45,0,0,1,74,74.9ZM74,56a8.44,8.44,0,1,0,8.44,8.44A8.45,8.45,0,0,0,74,56Z"></path>
		<path class="icon-dark" d="M74,69.22a3.43,3.43,0,0,1-3.42-2.84,1,1,0,1,1,1.92-.54c.34,1.22,1,1.38,1.5,1.38.72,0,1.07-.33,1.07-1s-.16-.75-1.36-1c-1-.27-2.8-.71-2.8-2.89,0-1.31.87-2.84,3.33-2.84a3,3,0,0,1,2.9,2.77,1,1,0,0,1-.92,1.07,1,1,0,0,1-1.07-.92c0-.18-.22-.92-.91-.92-1.33,0-1.33.64-1.33.84,0,.52.1.65,1.29.95s2.87.73,2.87,3A2.88,2.88,0,0,1,74,69.22Z"></path>
		<path class="icon-dark" d="M74.1,61.36a1,1,0,0,1-1-1V58.93a1,1,0,0,1,2,0v1.43A1,1,0,0,1,74.1,61.36Z"></path>
		<path class="icon-dark" d="M74.1,70.9a1,1,0,0,1-1-1V68.47a1,1,0,0,1,2,0V69.9A1,1,0,0,1,74.1,70.9Z"></path>
</svg>