<svg class="triumph-svg-icon" xmlns="http://www.w3.org/2000/svg" width="1.38in" height="1.38in" viewBox="0 0 99.25 99.25">
  <defs>
    <style>
      .primary {
        fill: #c8c9c7;
      }

      .secondary {
        fill: #000000;
      }
    </style>
  </defs>
  <g>
    <circle class="primary" cx="49.58" cy="49.62" r="12.82" transform="translate(-13.26 80.79) rotate(-71.4)"/>
    <g>
      <path class="secondary" d="M53,57.32a1,1,0,0,1-.7-.29,1,1,0,0,1,0-1.42l1-1a12.9,12.9,0,1,0-18.25,0A1,1,0,0,1,35,56a1,1,0,0,1-1.42,0A14.91,14.91,0,1,1,59,45.5,14.77,14.77,0,0,1,54.64,56l-1,1A1,1,0,0,1,53,57.32Z"/>
      <path class="secondary" d="M56.89,57.32H53a1,1,0,0,1-1-1V52.39a1,1,0,0,1,2,0v2.93h2.94a1,1,0,0,1,0,2Z"/>
    </g>
    <g>
      <path class="secondary" d="M55.18,68.55A14.91,14.91,0,0,1,44.64,43.1l1-1a1,1,0,0,1,1.41,0,1,1,0,0,1,0,1.42l-1,1a12.91,12.91,0,1,0,18.25,0,1,1,0,1,1,1.42-1.42A14.91,14.91,0,0,1,55.18,68.55Z"/>
      <path class="secondary" d="M46.33,47.76a1,1,0,0,1-1-1V43.83H42.39a1,1,0,0,1,0-2h3.94a1,1,0,0,1,1,1v3.93A1,1,0,0,1,46.33,47.76Z"/>
    </g>
  </g>
</svg>
