<svg class="triumph-svg-icon" xmlns="http://www.w3.org/2000/svg" width="1.38in" height="1.38in" viewBox="0 0 99.25 99.25">
  <defs>
    <style>
      .cls-1 {
        fill: #000000;
      }

      .cls-2 {
        fill: #808080;
      }
    </style>
  </defs>
  <g>
    <path class="cls-1" d="M75.27,65.77H24.84a1,1,0,0,1-1-1V28.28a1,1,0,0,1,1-1H75.27a1,1,0,0,1,1,1V64.77A1,1,0,0,1,75.27,65.77Zm-49.43-2H74.27V29.28H25.84Z"/>
    <path class="cls-1" d="M50.16,55.89a9.65,9.65,0,1,1,9.65-9.65A9.66,9.66,0,0,1,50.16,55.89Zm0-17.3a7.65,7.65,0,1,0,7.65,7.65A7.66,7.66,0,0,0,50.16,38.59Z"/>
    <path class="cls-1" d="M58.62,47.34H55.2a1,1,0,0,1,0-2h3.42a1,1,0,1,1,0,2Z"/>
    <path class="cls-1" d="M45.42,47.34H41.55a1,1,0,0,1,0-2h3.87a1,1,0,0,1,0,2Z"/>
    <path class="cls-1" d="M50.08,55.76a1,1,0,0,1-1-1V50.84a1,1,0,0,1,2,0v3.92A1,1,0,0,1,50.08,55.76Z"/>
    <path class="cls-1" d="M50.08,42.56a1,1,0,0,1-1-1V37.69a1,1,0,0,1,2,0v3.87A1,1,0,0,1,50.08,42.56Z"/>
    <path class="cls-1" d="M56,53.34a1,1,0,0,1-.7-.29l-2.42-2.41a1,1,0,0,1,1.42-1.42l2.41,2.42a1,1,0,0,1,0,1.41A1,1,0,0,1,56,53.34Z"/>
    <path class="cls-1" d="M47,44.26a1,1,0,0,1-.71-.29l-3-3a1,1,0,0,1,0-1.41,1,1,0,0,1,1.42,0l3,3a1,1,0,0,1-.7,1.71Z"/>
    <path class="cls-1" d="M44.05,53.26a1,1,0,0,1-.71-1.71l2.76-2.76a1,1,0,0,1,1.41,0,1,1,0,0,1,0,1.42L44.75,53A1,1,0,0,1,44.05,53.26Z"/>
    <path class="cls-1" d="M53.71,43.6A1,1,0,0,1,53,41.89l2.41-2.41a1,1,0,0,1,1.41,0,1,1,0,0,1,0,1.42l-2.41,2.41A1,1,0,0,1,53.71,43.6Z"/>
    <g>
      <path class="cls-2" d="M29.47,64.82v3.5a.9.9,0,0,0,.91.9h7a.9.9,0,0,0,.91-.9v-3.5Z"/>
      <path class="cls-1" d="M37.4,70.22h-7a1.9,1.9,0,0,1-1.91-1.9v-3.5a1,1,0,0,1,1-1h8.84a1,1,0,0,1,1,1v3.5A1.9,1.9,0,0,1,37.4,70.22Zm-6.93-2h6.84v-2.4H30.47Z"/>
    </g>
    <g>
      <path class="cls-2" d="M61.87,64.82v3.5a.9.9,0,0,0,.91.9h7a.9.9,0,0,0,.91-.9v-3.5Z"/>
      <path class="cls-1" d="M69.8,70.22h-7a1.9,1.9,0,0,1-1.91-1.9v-3.5a1,1,0,0,1,1-1h8.84a1,1,0,0,1,1,1v3.5A1.9,1.9,0,0,1,69.8,70.22Zm-6.93-2h6.84v-2.4H62.87Z"/>
    </g>
    <g>
      <path class="cls-2" d="M32.23,33.65v3.49h.84A1.91,1.91,0,0,1,35,39v3A1.9,1.9,0,0,1,33.07,44h-.84v5.38h.84a1.91,1.91,0,0,1,1.9,1.9v3a1.9,1.9,0,0,1-1.9,1.89h-.84v3.15H67.88V33.65ZM50.13,55a8.66,8.66,0,1,1,8.65-8.66A8.66,8.66,0,0,1,50.13,55Z"/>
      <path class="cls-1" d="M67.88,60.31H32.23a1,1,0,0,1-1-1V56.17a1,1,0,0,1,1-1h.84a.9.9,0,0,0,.9-.9v-3a.9.9,0,0,0-.9-.9h-.84a1,1,0,0,1-1-1V44a1,1,0,0,1,1-1h.84a.89.89,0,0,0,.9-.89V39a.9.9,0,0,0-.9-.9h-.84a1,1,0,0,1-1-1V33.65a1,1,0,0,1,1-1H67.88a1,1,0,0,1,1,1V59.31A1,1,0,0,1,67.88,60.31Zm-34.65-2H66.88V34.65H33.23v1.5A2.9,2.9,0,0,1,36,39v3A2.9,2.9,0,0,1,33.23,45v3.39A2.9,2.9,0,0,1,36,51.24v3a2.9,2.9,0,0,1-2.74,2.89ZM50.13,56a9.66,9.66,0,1,1,9.65-9.66A9.66,9.66,0,0,1,50.13,56Zm0-17.31a7.66,7.66,0,1,0,7.65,7.65A7.66,7.66,0,0,0,50.13,38.69Z"/>
    </g>
    <path class="cls-1" d="M33.14,45H31.71a2.9,2.9,0,0,1-2.9-2.89V39a2.9,2.9,0,0,1,2.9-2.9h1.43A2.9,2.9,0,0,1,36,39v3A2.9,2.9,0,0,1,33.14,45Zm-1.43-6.82a.9.9,0,0,0-.9.9v3a.89.89,0,0,0,.9.89h1.43a.89.89,0,0,0,.9-.89V39a.9.9,0,0,0-.9-.9Z"/>
    <path class="cls-1" d="M33.14,57.17H31.71a2.9,2.9,0,0,1-2.9-2.9v-3a2.9,2.9,0,0,1,2.9-2.9h1.43a2.9,2.9,0,0,1,2.9,2.9v3A2.9,2.9,0,0,1,33.14,57.17Zm-1.43-6.83a.9.9,0,0,0-.9.9v3a.9.9,0,0,0,.9.9h1.43a.9.9,0,0,0,.9-.9v-3a.9.9,0,0,0-.9-.9Z"/>
    <path class="cls-1" d="M50.18,51.42a5.18,5.18,0,1,1,5.18-5.18A5.18,5.18,0,0,1,50.18,51.42Zm0-8.36a3.18,3.18,0,1,0,3.18,3.18A3.18,3.18,0,0,0,50.18,43.06Z"/>
  </g>
</svg>
