<svg class="triumph-svg-icon" xmlns="http://www.w3.org/2000/svg" width="1.38in" height="1.38in" viewBox="0 0 99.25 99.25">
  <defs>
    <style>
      .secondary {
        fill: #000000;
      }

      .primary {
        fill: #c8c9c7;
      }
    </style>
  </defs>
  <g>
    <path class="secondary" d="M42,46H31.2a1,1,0,1,1,0-2.05H42A1,1,0,1,1,42,46Z"/>
    <path class="secondary" d="M69.66,65.77a1,1,0,0,1-1-1V46H50.22a1,1,0,1,1,0-2.05H69.66a1,1,0,0,1,1,1V64.74A1,1,0,0,1,69.66,65.77Z"/>
    <path class="secondary" d="M42,41.35H36.08a1,1,0,0,1,0-2.06H42a1,1,0,0,1,0,2.06Z"/>
    <path class="secondary" d="M74.54,61.17a1,1,0,0,1-1-1V41.35H50.22a1,1,0,0,1,0-2.06H74.54a1,1,0,0,1,1,1V60.14A1,1,0,0,1,74.54,61.17Z"/>
    <g>
      <path class="primary" d="M64.83,49.78H26.36V69.6H64.83Z"/>
      <path class="secondary" d="M64.83,70.63H26.36a1,1,0,0,1-1-1V49.78a1,1,0,0,1,1-1H64.83a1,1,0,0,1,1,1V69.6A1,1,0,0,1,64.83,70.63ZM27.39,68.57H63.8V50.81H27.39V68.57Z"/>
    </g>
    <path class="secondary" d="M46,65.12a3.7,3.7,0,0,1-3.68-3,1,1,0,1,1,1.92-.55c.41,1.41,1.13,1.59,1.77,1.58a1.38,1.38,0,0,0,1-.33,1.28,1.28,0,0,0,.3-.89c0-.78-.31-.94-1.6-1.26-1.13-.28-3-.74-3-3.06a2.86,2.86,0,0,1,.89-2.16,3.82,3.82,0,0,1,2.66-.91,3.17,3.17,0,0,1,3.13,3,1,1,0,1,1-2,.16,1.21,1.21,0,0,0-1.12-1.11h0a2,2,0,0,0-1.32.37.86.86,0,0,0-.25.68c0,.67.2.82,1.51,1.14s3.1.77,3.12,3.19a3.21,3.21,0,0,1-.86,2.29,3.25,3.25,0,0,1-2.41.94Z"/>
    <path class="secondary" d="M46,56.44a1,1,0,0,1-1-1V53.87a1,1,0,0,1,1-1h0a1,1,0,0,1,1,1v1.58a1,1,0,0,1-1,1Z"/>
    <path class="secondary" d="M46.1,67a1,1,0,0,1-1-1V64.41a1,1,0,0,1,1-1h0a1,1,0,0,1,1,1V66a1,1,0,0,1-1,1Z"/>
    <path class="secondary" d="M60.25,55.85H55.83a1,1,0,1,1,0-2.05h4.42a1,1,0,1,1,0,2.05Z"/>
    <path class="secondary" d="M60.25,65.7H55.83a1,1,0,0,1,0-2.06h4.42a1,1,0,0,1,0,2.06Z"/>
    <path class="secondary" d="M35.22,55.85H30.79a1,1,0,1,1,0-2.05h4.43a1,1,0,0,1,0,2.05Z"/>
    <path class="secondary" d="M35.22,65.7H30.79a1,1,0,1,1,0-2.06h4.43a1,1,0,0,1,0,2.06Z"/>
    <g>
      <path class="secondary" d="M50.41,36.78a1,1,0,0,1-.71-.3l-3.61-3.61-3.62,3.61a1,1,0,0,1-1.41-1.41l4.32-4.32a1,1,0,0,1,1.42,0l4.32,4.32a1,1,0,0,1-.71,1.71Z"/>
      <path class="secondary" d="M46.11,47.3a1,1,0,0,1-1-1V32a1,1,0,0,1,2,0V46.3A1,1,0,0,1,46.11,47.3Z"/>
    </g>
  </g>
</svg>
