<svg class="triumph-svg-icon" xmlns="http://www.w3.org/2000/svg" width="1.38in" height="1.38in" viewBox="0 0 99.16 99.18">
  <defs>
    <style>
      .icon-dark {
        fill: #000000;
      }

      .icon-accent {
        fill: #c8c9c7;
      }
    </style>
  </defs>
  <g>
    <g>
      <path class="icon-dark" d="M43.26,35.53a1,1,0,0,1-1-.77,1,1,0,0,1,.75-1.18,29.93,29.93,0,0,1,12.39,0,1,1,0,0,1,.76,1.16,1,1,0,0,1-1.16.77,27.57,27.57,0,0,0-11.57,0Z"/>
      <path class="icon-dark" d="M36.43,25.42a1,1,0,0,1-.4-1.89,32.59,32.59,0,0,1,19.34-2.38,28.72,28.72,0,0,1,7.19,2.32A1,1,0,0,1,63,24.79a1,1,0,0,1-1.31.45A27.48,27.48,0,0,0,55,23.08a30.54,30.54,0,0,0-18.19,2.26A.91.91,0,0,1,36.43,25.42Z"/>
      <path class="icon-dark" d="M39.44,29a1.23,1.23,0,0,1-.4-2.4,33.27,33.27,0,0,1,7.81-1.64,1.23,1.23,0,0,1,.21,2.45,30.9,30.9,0,0,0-7.23,1.53A1.32,1.32,0,0,1,39.44,29Z"/>
      <path class="icon-dark" d="M41.53,32.24a1.24,1.24,0,0,1-1.19-.91,1.22,1.22,0,0,1,.87-1.51,33.25,33.25,0,0,1,5.7-1,1.23,1.23,0,1,1,.21,2.46,31.32,31.32,0,0,0-5.27.93A1.17,1.17,0,0,1,41.53,32.24Z"/>
      <path class="icon-dark" d="M55.91,53.34a1,1,0,0,1-.81-1.55L66.43,35.35,62,26.48l-4.61,6.8v0L50.21,43.89a1,1,0,0,1-1.37.26,1,1,0,0,1-.26-1.37l7.17-10.6h0L61.3,24a1,1,0,0,1,1.69.11L68.45,35a1,1,0,0,1-.07,1L56.72,52.91A1,1,0,0,1,55.91,53.34Z"/>
    </g>
    <path class="icon-dark" d="M59,77.06,30.39,35.47l6-11.93,6,8.84.14.1v.1L68.26,70.71ZM31.55,35.39,59.29,75.67l7.58-5.22L36.48,25.52Z"/>
    <g>
      <g>
        <polygon class="icon-accent" points="30.97 35.43 36.42 24.53 41.97 32.73 41.97 32.73 67.57 70.58 59.16 76.36 30.97 35.43"/>
        <path class="icon-dark" d="M59.16,77.35a1,1,0,0,1-.81-.43L30.16,36a1,1,0,0,1-.07-1l5.45-10.9a1,1,0,0,1,.82-.54,1,1,0,0,1,.88.43l5.53,8.19,0,0L68.38,70a1,1,0,0,1-.25,1.36l-8.41,5.79A1,1,0,0,1,59.16,77.35Zm-27-42L59.41,75l6.79-4.68-25.05-37h0l-4.6-6.8Z"/>
      </g>
      <path class="icon-dark" d="M39.37,77.35a1,1,0,0,1-.56-.17l-8.4-5.79A1,1,0,0,1,30.15,70L42,52.56a1,1,0,1,1,1.63,1.11L32.33,70.32,39.12,75l9.06-13.16A1,1,0,1,1,49.8,63l-9.62,14A1,1,0,0,1,39.37,77.35Z"/>
    </g>
  </g>
</svg>
