<svg class="triumph-svg-icon" xmlns="http://www.w3.org/2000/svg" width="1.38in" height="1.38in" viewBox="0 0 99.25 99.25">
  <defs>
    <style>
      .primary {
        fill: #c8c9c7;
      }

      .secondary {
        fill: #000000;
      }
    </style>
  </defs>
  <g>
    <g>
      <polygon class="primary" points="73.89 58.17 73.89 51.8 67.52 51.8 67.52 53.87 31.99 53.87 31.99 51.8 25.61 51.8 25.61 58.17 27.84 58.17 27.84 72.99 25.61 72.99 25.61 79.36 31.99 79.36 31.99 77.29 67.52 77.29 67.52 79.36 73.89 79.36 73.89 72.99 71.98 72.99 71.98 58.17 73.89 58.17"/>
      <path class="secondary" d="M73.89,80.36H67.52a1,1,0,0,1-1-1V78.29H33v1.07a1,1,0,0,1-1,1H25.61a1,1,0,0,1-1-1V73a1,1,0,0,1,1-1h1.23V59.17H25.61a1,1,0,0,1-1-1V51.8a1,1,0,0,1,1-1H32a1,1,0,0,1,1,1v1.07H66.52V51.8a1,1,0,0,1,1-1h6.37a1,1,0,0,1,1,1v6.37a1,1,0,0,1-1,1H73V72h.91a1,1,0,0,1,1,1v6.37A1,1,0,0,1,73.89,80.36Zm-5.37-2h4.37V74H72a1,1,0,0,1-1-1V58.17a1,1,0,0,1,1-1h.91V52.8H68.52v1.07a1,1,0,0,1-1,1H32a1,1,0,0,1-1-1V52.8H26.61v4.37h1.23a1,1,0,0,1,1,1V73a1,1,0,0,1-1,1H26.61v4.37H31V77.29a1,1,0,0,1,1-1H67.52a1,1,0,0,1,1,1Z"/>
    </g>
    <path class="secondary" d="M33.9,74.62a1,1,0,0,1-1-1V57.9a1,1,0,0,1,1-1h3.29a1,1,0,0,1,0,2H34.9V73.62A1,1,0,0,1,33.9,74.62Z"/>
    <path class="secondary" d="M41.2,74.62a1,1,0,0,1-1-1V57.9a1,1,0,0,1,1-1h3.3a1,1,0,0,1,0,2H42.2V73.62A1,1,0,0,1,41.2,74.62Z"/>
    <path class="secondary" d="M48.51,74.62a1,1,0,0,1-1-1V57.9a1,1,0,0,1,1-1H51.8a1,1,0,0,1,0,2H49.51V73.62A1,1,0,0,1,48.51,74.62Z"/>
    <path class="secondary" d="M55.81,74.62a1,1,0,0,1-1-1V57.9a1,1,0,0,1,1-1H59.1a1,1,0,0,1,0,2H56.81V73.62A1,1,0,0,1,55.81,74.62Z"/>
    <path class="secondary" d="M63.11,74.62a1,1,0,0,1-1-1V57.9a1,1,0,0,1,1-1H66.4a1,1,0,0,1,0,2H64.11V73.62A1,1,0,0,1,63.11,74.62Z"/>
    <path class="secondary" d="M49.84,47.82a9.42,9.42,0,0,1-3.06-18.33V28.06a1,1,0,0,1,2,0v2.18a1,1,0,0,1-.76,1,7.42,7.42,0,1,0,9.17,8.19H54.94a5.19,5.19,0,1,1-5.1-6.2h.37V28.32a1,1,0,0,1,2,0V34.2a1,1,0,0,1-1,1H49.84A3.2,3.2,0,1,0,53,38.4a1,1,0,0,1,1-1h4.22a1,1,0,0,1,1,1A9.43,9.43,0,0,1,49.84,47.82Z"/>
    <g>
      <rect class="primary" x="45.37" y="20.94" width="8.87" height="6.59"/>
      <path class="secondary" d="M54.24,28.53H45.37a1,1,0,0,1-1-1V20.94a1,1,0,0,1,1-1h8.87a1,1,0,0,1,1,1v6.59A1,1,0,0,1,54.24,28.53Zm-7.87-2h6.87V21.94H46.37Z"/>
    </g>
    <path class="secondary" d="M35.49,51.36a1,1,0,0,1-.64-1.77l14.5-12.05a1,1,0,0,1,1.41.13,1,1,0,0,1-.13,1.41L36.13,51.13A1,1,0,0,1,35.49,51.36Z"/>
    <path class="secondary" d="M64.22,51.68a1,1,0,0,1-.65-.24l-5.94-5.1a1,1,0,1,1,1.3-1.52l5.94,5.1a1,1,0,0,1-.65,1.76Z"/>
  </g>
</svg>
