<svg class="triumph-svg-icon" xmlns="http://www.w3.org/2000/svg" width="1.38in" height="1.38in" viewBox="0 0 99.25 99.25">
  <defs>
    <style>
      .icon-dark {
        fill: #000000;
      }

      .icon-accent {
        fill: #c8c9c7;
      }
    </style>
  </defs>
  <g>
    <g>
      <polygon class="icon-dark" points="74.08 77.33 35.65 77.33 35.65 70.06 37.65 70.06 37.65 75.33 72.08 75.33 72.08 29.6 43.34 29.6 37.65 35.28 37.65 44.94 35.65 44.94 35.65 34.45 42.51 27.6 74.08 27.6 74.08 77.33"/>
      <g>
        <g>
          <polygon class="icon-accent" points="36.66 34.87 42.92 28.6 73.08 28.6 73.08 76.33 36.66 76.33 36.66 34.87"/>
          <path class="icon-dark" d="M73.08,77.33H36.65a1,1,0,0,1-1-1V34.87a1,1,0,0,1,.3-.71l6.27-6.27a1,1,0,0,1,.7-.29H73.08a1,1,0,0,1,1,1V76.33A1,1,0,0,1,73.08,77.33Zm-35.43-2H72.08V29.6H43.34l-5.69,5.68Z"/>
        </g>
        <path class="icon-dark" d="M78.07,73.58a1,1,0,0,1-1-1v-48H48a1,1,0,0,1,0-2H78.07a1,1,0,0,1,1,1v49A1,1,0,0,1,78.07,73.58Z"/>
        <path class="icon-dark" d="M45.44,38.39H39.12a1,1,0,1,1,0-2h5.32V31.12a1,1,0,0,1,2,0v6.27A1,1,0,0,1,45.44,38.39Z"/>
      </g>
    </g>
    <g>
      <circle class="icon-accent" cx="64.41" cy="38.41" r="3.6"/>
      <path class="icon-dark" d="M64.41,43a4.6,4.6,0,1,1,4.6-4.6A4.61,4.61,0,0,1,64.41,43Zm0-7.2a2.6,2.6,0,1,0,2.6,2.6A2.6,2.6,0,0,0,64.41,35.81Z"/>
    </g>
    <path class="icon-dark" d="M65.15,51.06H43.94a1,1,0,0,1,0-2H65.15a1,1,0,0,1,0,2Z"/>
    <path class="icon-dark" d="M65.15,57.62H43.94a1,1,0,0,1,0-2H65.15a1,1,0,0,1,0,2Z"/>
    <path class="icon-dark" d="M43.48,70.66a.8.8,0,0,1-.06-1.6,9,9,0,0,0,3.11-.84c-.42-.37-.82-.78-1.22-1.16s-.65-.65-1-1a1,1,0,0,1-.14-1.41c.79-1,5.35-1.8,6.82-.64.3.24,1.16,1.11,0,2.63a10.87,10.87,0,0,1-1.57,1.61,2.84,2.84,0,0,0,1.3.27c1.1,0,2.31-.87,3.61-2.43a.84.84,0,0,1,.65-.29.81.81,0,0,1,.62.36c.15.21.31.47.49.75.3.46.62,1,1,1.45a14.21,14.21,0,0,1,8.12-.94A.8.8,0,0,1,64.86,69a12.58,12.58,0,0,0-7.77,1.09.8.8,0,0,1-1-.25c-.45-.61-.91-1.32-1.29-1.92a6.19,6.19,0,0,1-4,2.21,4.89,4.89,0,0,1-2.86-.86,10.67,10.67,0,0,1-4.38,1.34ZM46,65.47l.46.45A19,19,0,0,0,48,67.37a8.3,8.3,0,0,0,1.73-1.67,1.39,1.39,0,0,0,.26-.42C49.45,64.91,47.14,65.12,46,65.47Z"/>
    <g>
      <path class="icon-dark" d="M26.82,77.85a1,1,0,0,1-.92-.62l-2.61-6.42a1.22,1.22,0,0,1-.07-.38V33.6a3.51,3.51,0,1,1,7,0V70.43a1.13,1.13,0,0,1-.06.36l-2.42,6.42a1,1,0,0,1-.92.64Zm-1.6-7.61,1.57,3.87,1.45-3.86V33.6a1.51,1.51,0,1,0-3,0Zm4,.19h0Z"/>
      <path class="icon-dark" d="M28.68,68.92H24.23a1,1,0,0,1,0-2h4.45a1,1,0,0,1,0,2Z"/>
      <path class="icon-dark" d="M20.88,52.5a1,1,0,0,1-1-1V38.29a1,1,0,0,1,1-1h8.36a1,1,0,1,1,0,2H21.88V51.5A1,1,0,0,1,20.88,52.5Z"/>
    </g>
  </g>
</svg>
