<svg class="triumph-svg-icon" xmlns="http://www.w3.org/2000/svg" width="1.38in" height="1.38in" viewBox="0 0 99.25 99.25">
  <defs>
    <style>
      .primary {
        fill: #c8c9c7;
      }

      .secondary {
        fill: #000000;
      }
    </style>
  </defs>
  <g>
    <g>
      <path class="primary" d="M46.32,27.9v42H72.07v-42ZM57.13,65.09H52V57.33h5.12Zm0-12.3H52V45h5.12Zm0-12.3H52V32.72h5.12Zm9.48,24.6H61.5V57.33h5.11Zm0-12.3H61.5V45h5.11Zm0-12.3H61.5V32.72h5.11Z"/>
      <path class="secondary" d="M72.07,70.93H46.32a1,1,0,0,1-1-1v-42a1,1,0,0,1,1-1H72.07a1,1,0,0,1,1,1v42A1,1,0,0,1,72.07,70.93Zm-24.75-2H71.07v-40H47.32Zm19.29-2.84H61.5a1,1,0,0,1-1-1V57.33a1,1,0,0,1,1-1h5.11a1,1,0,0,1,1,1v7.76A1,1,0,0,1,66.61,66.09Zm-4.11-2h3.11V58.33H62.5Zm-5.37,2H52a1,1,0,0,1-1-1V57.33a1,1,0,0,1,1-1h5.12a1,1,0,0,1,1,1v7.76A1,1,0,0,1,57.13,66.09Zm-4.12-2h3.12V58.33H53Zm13.6-10.3H61.5a1,1,0,0,1-1-1V45a1,1,0,0,1,1-1h5.11a1,1,0,0,1,1,1v7.77A1,1,0,0,1,66.61,53.79Zm-4.11-2h3.11V46H62.5Zm-5.37,2H52a1,1,0,0,1-1-1V45a1,1,0,0,1,1-1h5.12a1,1,0,0,1,1,1v7.77A1,1,0,0,1,57.13,53.79Zm-4.12-2h3.12V46H53Zm13.6-10.3H61.5a1,1,0,0,1-1-1V32.72a1,1,0,0,1,1-1h5.11a1,1,0,0,1,1,1v7.77A1,1,0,0,1,66.61,41.49Zm-4.11-2h3.11V33.72H62.5Zm-5.37,2H52a1,1,0,0,1-1-1V32.72a1,1,0,0,1,1-1h5.12a1,1,0,0,1,1,1v7.77A1,1,0,0,1,57.13,41.49Zm-4.12-2h3.12V33.72H53Z"/>
    </g>
    <path class="secondary" d="M32.29,53.79H27.18a1,1,0,0,1-1-1V45a1,1,0,0,1,1-1h5.11a1,1,0,0,1,1,1v7.77A1,1,0,0,1,32.29,53.79Zm-4.11-2h3.11V46H28.18Z"/>
    <path class="secondary" d="M41.78,53.79H36.66a1,1,0,0,1-1-1V45a1,1,0,0,1,1-1h5.12a1,1,0,0,1,1,1v7.77A1,1,0,0,1,41.78,53.79Zm-4.12-2h3.12V46H37.66Z"/>
    <path class="secondary" d="M32.29,70.75a1,1,0,0,1-1-1V58.33H28.18V69.75a1,1,0,0,1-2,0V57.33a1,1,0,0,1,1-1h5.11a1,1,0,0,1,1,1V69.75A1,1,0,0,1,32.29,70.75Z"/>
    <path class="secondary" d="M21.9,71a1,1,0,0,1-1-1V40.31a1,1,0,0,1,1-1h24a1,1,0,1,1,0,2h-23V70A1,1,0,0,1,21.9,71Z"/>
    <path class="secondary" d="M84,71.53H16.46a1,1,0,0,1,0-2H84a1,1,0,0,1,0,2Z"/>
    <path class="secondary" d="M84,77.11H16.46a1,1,0,1,1,0-2H84a1,1,0,0,1,0,2Z"/>
  </g>
</svg>
