<svg class="triumph-svg-icon" xmlns="http://www.w3.org/2000/svg" width="1.38in" height="1.38in" viewBox="0 0 99.25 99.25">
  <defs>
    <style>
      .primary {
        fill: #c8c9c7;
      }

      .secondary {
        fill: #000000;
      }

      .c {
        fill: #fff;
      }
    </style>
  </defs>
  <g>
    <g>
      <circle class="primary" cx="57.97" cy="51.99" r="16" transform="translate(-9.79 90.36) rotate(-71.4)"/>
      <path class="secondary" d="M58,69a17,17,0,0,1-5-.75A17,17,0,1,1,74.24,57h0A17,17,0,0,1,58,69Zm0-32A15,15,0,0,0,53.6,66.34a15,15,0,0,0,18.72-10h0A15,15,0,0,0,58,37Z"/>
    </g>
    <path class="secondary" d="M58.07,36.39a1,1,0,0,1-1-1V30a1,1,0,1,1,2,0v5.38A1,1,0,0,1,58.07,36.39Z"/>
    <path class="secondary" d="M58.07,52a1,1,0,0,1-1-1V45.63a1,1,0,0,1,2,0V51A1,1,0,0,1,58.07,52Z"/>
    <path class="secondary" d="M62.72,31H53a1,1,0,0,1,0-2h9.69a1,1,0,0,1,0,2Z"/>
    <path class="secondary" d="M39.09,45H28.89a1,1,0,0,1,0-2h10.2a1,1,0,0,1,0,2Z"/>
    <path class="secondary" d="M37.28,52.83H25.67a1,1,0,0,1,0-2H37.28a1,1,0,0,1,0,2Z"/>
    <path class="secondary" d="M38.77,60.7H29.28a1,1,0,0,1,0-2h9.49a1,1,0,0,1,0,2Z"/>
    <g>
      <path class="c" d="M48.55,35.84,43,40.21a3.53,3.53,0,1,1,5.54-4.37Z"/>
      <path class="secondary" d="M43,41.21h-.12a1.05,1.05,0,0,1-.67-.37A4.55,4.55,0,0,1,43,34.46a4.6,4.6,0,0,1,3.34-.94,4.51,4.51,0,0,1,3,1.7,1,1,0,0,1-.16,1.4L43.63,41A1,1,0,0,1,43,41.21Zm2.77-5.72a2.53,2.53,0,0,0-2.44,3.18L47,35.8A2.55,2.55,0,0,0,45.78,35.49Z"/>
    </g>
    <g>
      <path class="c" d="M72.67,40.29l-5.41-4.54a3.53,3.53,0,0,1,5.41,4.54Z"/>
      <path class="secondary" d="M72.67,41.29a.94.94,0,0,1-.64-.24l-5.41-4.53a1,1,0,0,1-.13-1.41,4.53,4.53,0,0,1,6.38-.56,4.53,4.53,0,0,1,.57,6.38,1,1,0,0,1-.68.35Zm-3.84-5.53,3.56,3a2.53,2.53,0,0,0-2.65-3.25A2.58,2.58,0,0,0,68.83,35.76Z"/>
    </g>
    <circle class="secondary" cx="58.13" cy="51.57" r="1.64"/>
  </g>
</svg>
