<svg class="triumph-svg-icon" xmlns="http://www.w3.org/2000/svg" width="1.38in" height="1.38in" viewBox="0 0 99.25 99.25">
  <defs>
    <style>
      .icon-accent {
        fill: #c8c9c7;
      }

      .icon-dark {
        fill: #000000;
      }
    </style>
  </defs>
  <g>
    <g>
      <path class="icon-accent" d="M45,71.81V62a3.51,3.51,0,0,1,3.5-3.51h2.28A3.51,3.51,0,0,1,54.24,62v9.86"/>
      <path class="icon-dark" d="M54.24,72.81a1,1,0,0,1-1-1V62a2.51,2.51,0,0,0-2.5-2.51H48.46A2.51,2.51,0,0,0,46,62v9.86a1,1,0,0,1-2,0V62a4.51,4.51,0,0,1,4.5-4.51h2.28A4.51,4.51,0,0,1,55.24,62v9.86A1,1,0,0,1,54.24,72.81Z"/>
    </g>
    <g>
      <g>
        <rect class="icon-accent" x="24.17" y="50.21" width="5.38" height="21.5"/>
        <path class="icon-dark" d="M29.54,72.71H24.17a1,1,0,0,1-1-1V50.21a1,1,0,0,1,1-1h5.37a1,1,0,0,1,1,1v21.5A1,1,0,0,1,29.54,72.71Zm-4.37-2h3.37V51.21H25.17Z"/>
      </g>
      <g>
        <rect class="icon-accent" x="33.93" y="50.21" width="5.38" height="21.5"/>
        <path class="icon-dark" d="M39.31,72.71H33.93a1,1,0,0,1-1-1V50.21a1,1,0,0,1,1-1h5.38a1,1,0,0,1,1,1v21.5A1,1,0,0,1,39.31,72.71Zm-4.38-2h3.38V51.21H34.93Z"/>
      </g>
      <g>
        <rect class="icon-accent" x="59.89" y="50.21" width="5.38" height="21.5"/>
        <path class="icon-dark" d="M65.27,72.71H59.89a1,1,0,0,1-1-1V50.21a1,1,0,0,1,1-1h5.38a1,1,0,0,1,1,1v21.5A1,1,0,0,1,65.27,72.71Zm-4.38-2h3.38V51.21H60.89Z"/>
      </g>
      <g>
        <rect class="icon-accent" x="69.66" y="50.21" width="5.38" height="21.5"/>
        <path class="icon-dark" d="M75,72.71H69.66a1,1,0,0,1-1-1V50.21a1,1,0,0,1,1-1H75a1,1,0,0,1,1,1v21.5A1,1,0,0,1,75,72.71Zm-4.37-2H74V51.21H70.66Z"/>
      </g>
    </g>
    <g>
      <polyline class="icon-accent" points="50.47 22.27 59.1 22.27 59.1 27.65 50.47 27.65"/>
      <path class="icon-dark" d="M59.1,28.65H50.47a1,1,0,0,1,0-2H58.1V23.27H50.47a1,1,0,0,1,0-2H59.1a1,1,0,0,1,1,1v5.38A1,1,0,0,1,59.1,28.65Z"/>
    </g>
    <path class="icon-dark" d="M80.56,45.34H18.64a1,1,0,0,1,0-2H80.56a1,1,0,0,1,0,2Z"/>
    <path class="icon-dark" d="M80.56,51H18.64a1,1,0,0,1,0-2H80.56a1,1,0,0,1,0,2Z"/>
    <path class="icon-dark" d="M74.21,41.84a1,1,0,0,1-.33-.06L49.6,33.18l-24.28,8.6a1,1,0,1,1-.67-1.89l24.62-8.71a.94.94,0,0,1,.66,0l24.62,8.71a1,1,0,0,1-.34,2Z"/>
    <path class="icon-dark" d="M49.6,33.05a1,1,0,0,1-1-1V20.32a1,1,0,0,1,2,0V32.05A1,1,0,0,1,49.6,33.05Z"/>
    <path class="icon-dark" d="M80,82.17a1,1,0,0,1-1-1V75.38a2.5,2.5,0,0,0-2.5-2.5H22.71a2.5,2.5,0,0,0-2.5,2.5v5.79a1,1,0,0,1-2,0V75.38a4.51,4.51,0,0,1,4.5-4.5H76.49a4.51,4.51,0,0,1,4.5,4.5v5.79A1,1,0,0,1,80,82.17Z"/>
    <path class="icon-dark" d="M69.64,81.17H29.56a1,1,0,0,1,0-2H69.64a1,1,0,0,1,0,2Z"/>
    <path class="icon-dark" d="M63.85,77.11H35.35a1,1,0,0,1,0-2h28.5a1,1,0,0,1,0,2Z"/>
  </g>
</svg>
