<svg class="triumph-svg-icon" xmlns="http://www.w3.org/2000/svg" width="1.38in" height="1.38in" viewBox="0 0 99.25 99.25">
  <defs>
    <style>
      .primary {
        fill: #c8c9c7;
      }

      .secondary {
        fill: #000000;
      }
    </style>
  </defs>
  <g>
    <g>
      <path class="primary" d="M68.51,73.1V38.39l-5.83-5.84H38V73.1Z"/>
      <path class="secondary" d="M68.51,74.1H38a1,1,0,0,1-1-1V32.55a1,1,0,0,1,1-1H62.68a1,1,0,0,1,.7.29l5.84,5.84a1,1,0,0,1,.29.71V73.1A1,1,0,0,1,68.51,74.1ZM39,72.1H67.51V38.8l-5.25-5.25H39Z"/>
    </g>
    <path class="secondary" d="M66.13,41.05H61.2a1,1,0,0,1-1-1V35a1,1,0,0,1,2,0v4h3.93a1,1,0,0,1,0,2Z"/>
    <path class="secondary" d="M63,59.6H52.75a1,1,0,0,1,0-2H63a1,1,0,0,1,0,2Z"/>
    <path class="secondary" d="M63,54.81H48.75a1,1,0,0,1,0-2H63a1,1,0,0,1,0,2Z"/>
    <path class="secondary" d="M45.19,48.27a3.67,3.67,0,0,1-3.64-3,1,1,0,0,1,.7-1.24,1,1,0,0,1,1.23.7c.38,1.38,1.12,1.55,1.71,1.55.83,0,1.25-.39,1.25-1.17s-.2-.89-1.54-1.23c-1.12-.28-3-.75-3-3,0-1.38.92-3,3.53-3a3.14,3.14,0,0,1,3.07,2.93,1,1,0,0,1-2,.15,1.15,1.15,0,0,0-1.07-1.08c-1.53,0-1.53.76-1.53,1,0,.64.19.79,1.47,1.11s3,.78,3,3.17A3,3,0,0,1,45.19,48.27Z"/>
    <path class="secondary" d="M45.28,39.75a1,1,0,0,1-1-1V37.2a1,1,0,0,1,2,0v1.55A1,1,0,0,1,45.28,39.75Z"/>
    <path class="secondary" d="M45.28,50.1a1,1,0,0,1-1-1V47.55a1,1,0,0,1,2,0V49.1A1,1,0,0,1,45.28,50.1Z"/>
    <path class="secondary" d="M33.89,66.83a1,1,0,0,1-1-1V28.48a1,1,0,0,1,1-1h23a1,1,0,0,1,0,2h-22V65.83A1,1,0,0,1,33.89,66.83Z"/>
    <path class="secondary" d="M30.06,63a1,1,0,0,1-1-1V24.68a1,1,0,0,1,1-1H53a1,1,0,0,1,0,2h-22V62A1,1,0,0,1,30.06,63Z"/>
    <path class="secondary" d="M71.79,77.85a1,1,0,0,1-.7-.29L59.19,65.65a1,1,0,1,1,1.41-1.41l11.9,11.9a1,1,0,0,1-.71,1.71Z"/>
    <path class="secondary" d="M71.79,77.85H67a1,1,0,0,1,0-2h3.84V71.76a1,1,0,0,1,2,0v5.09A1,1,0,0,1,71.79,77.85Z"/>
  </g>
</svg>
