<svg class="triumph-svg-icon" xmlns="http://www.w3.org/2000/svg" width="1.38in" height="1.38in" viewBox="0 0 99.25 99.25">
  <defs>
    <style>
      .icon-dark {
        fill: #000000;
      }

      .icon-accent {
        fill: #c8c9c7;
      }
    </style>
  </defs>
  <g>
    <path class="icon-dark" d="M80.09,70.2H19.69a1,1,0,0,1-1-1V32.44a1,1,0,0,1,1-1h60.4a1,1,0,0,1,1,1V69.2A1,1,0,0,1,80.09,70.2Zm-59.4-2h58.4V33.44H20.69Z"/>
    <polygon class="icon-dark" points="62.87 68.36 60.87 68.36 60.87 25.89 32.32 25.89 26.26 31.95 26.26 68.36 24.26 68.36 24.26 31.12 31.49 23.89 62.87 23.89 62.87 68.36"/>
    <g>
      <polyline class="icon-accent" points="25.26 68.36 25.26 31.53 31.9 24.89 61.87 24.89 61.87 68.36"/>
      <path class="icon-dark" d="M61.87,69.36a1,1,0,0,1-1-1V25.9H32.32L26.26,32V68.36a1,1,0,0,1-2,0V31.53a1,1,0,0,1,.3-.7l6.63-6.64a1,1,0,0,1,.71-.29h30a1,1,0,0,1,1,1V68.36A1,1,0,0,1,61.87,69.36Z"/>
    </g>
    <path class="icon-dark" d="M34.57,36.15h-6.7a1,1,0,1,1,0-2h5.7V28.51a1,1,0,1,1,2,0v6.64A1,1,0,0,1,34.57,36.15Z"/>
    <path class="icon-dark" d="M67.75,70.11a1,1,0,0,1-1-1V44.19H62.28a1,1,0,0,1,0-2h5.47a1,1,0,0,1,1,1V69.11A1,1,0,0,1,67.75,70.11Z"/>
    <path class="icon-dark" d="M74.12,69.91a1,1,0,0,1-1-1V49.26H68.66a1,1,0,0,1,0-2h5.46a1,1,0,0,1,1,1V68.91A1,1,0,0,1,74.12,69.91Z"/>
    <path class="icon-dark" d="M86.34,75.77H13.44a1,1,0,0,1-1-1V69.23a1,1,0,0,1,1-1h72.9a1,1,0,0,1,1,1v5.54A1,1,0,0,1,86.34,75.77Zm-71.9-2h70.9V70.23H14.44Z"/>
    <path class="icon-dark" d="M55,73H44.83a1,1,0,0,1,0-2H55a1,1,0,0,1,0,2Z"/>
  </g>
</svg>
