<svg class="triumph-svg-icon" xmlns="http://www.w3.org/2000/svg" width="1.38in" height="1.38in" viewBox="0 0 99.25 99.25">
  <defs>
    <style>
      .secondary {
        fill: #000000;
      }

      .primary {
        fill: #c8c9c7;
      }
    </style>
  </defs>
  <g>
    <g>
      <path class="secondary" d="M58,75.29H39a4.79,4.79,0,0,1-4.78-4.79V34.11A4.79,4.79,0,0,1,39,29.32H58a4.79,4.79,0,0,1,4.78,4.79V70.5A4.79,4.79,0,0,1,58,75.29Zm-19-44a2.79,2.79,0,0,0-2.78,2.79V70.5A2.79,2.79,0,0,0,39,73.29H58a2.79,2.79,0,0,0,2.78-2.79V34.11A2.79,2.79,0,0,0,58,31.32Z"/>
      <path class="secondary" d="M61.82,37.41H35.22a1,1,0,0,1,0-2h26.6a1,1,0,0,1,0,2Z"/>
      <path class="secondary" d="M62,62.82H35a1,1,0,0,1,0-2H62a1,1,0,0,1,0,2Z"/>
      <path class="secondary" d="M48.52,71.45a3.34,3.34,0,1,1,3.33-3.34A3.35,3.35,0,0,1,48.52,71.45Zm0-4.67a1.34,1.34,0,1,0,1.33,1.33A1.34,1.34,0,0,0,48.52,66.78Z"/>
    </g>
    <g>
      <g>
        <path class="primary" d="M55.86,45.11H52.64V43.94a.77.77,0,0,0-.76-.77H45.09a.77.77,0,0,0-.76.77v1.17h-3a1.52,1.52,0,0,0-1.51,1.51v7.61a1.52,1.52,0,0,0,1.51,1.52H55.86a1.52,1.52,0,0,0,1.51-1.52V46.62A1.52,1.52,0,0,0,55.86,45.11Zm-7.27,7.71a2.66,2.66,0,1,1,2.66-2.66A2.66,2.66,0,0,1,48.59,52.82Z"/>
        <path class="secondary" d="M55.86,56.77H41.31a2.54,2.54,0,0,1-2.54-2.54V46.62a2.54,2.54,0,0,1,2.54-2.54h2v-.14a1.79,1.79,0,0,1,1.79-1.79h6.79a1.79,1.79,0,0,1,1.79,1.79v.14h2.19a2.54,2.54,0,0,1,2.54,2.54v7.61A2.54,2.54,0,0,1,55.86,56.77ZM41.31,46.14a.5.5,0,0,0-.49.48v7.61a.5.5,0,0,0,.49.49H55.86a.49.49,0,0,0,.49-.49V46.62a.49.49,0,0,0-.49-.48H52.64a1,1,0,0,1-1-1V44.2H45.35v.91a1,1,0,0,1-1,1Zm7.28,7.7a3.69,3.69,0,1,1,3.69-3.68A3.69,3.69,0,0,1,48.59,53.84Zm0-5.31a1.63,1.63,0,1,0,1.63,1.63A1.63,1.63,0,0,0,48.59,48.53Z"/>
      </g>
      <path class="secondary" d="M59.05,28.68h0a1,1,0,0,1-1-1l.05-2.81a1,1,0,0,1,1-1h0a1,1,0,0,1,1,1l-.05,2.81A1,1,0,0,1,59.05,28.68Z"/>
      <path class="secondary" d="M64.49,32.72a1,1,0,0,1-.25-2L67,30A1,1,0,1,1,67.47,32l-2.72.73A1.09,1.09,0,0,1,64.49,32.72Z"/>
      <path class="secondary" d="M62.7,29.65a1,1,0,0,1-.84-1.55l1.55-2.35a1,1,0,0,1,1.39-.28,1,1,0,0,1,.28,1.39L63.53,29.2A1,1,0,0,1,62.7,29.65Z"/>
    </g>
  </g>
</svg>
