<svg class="triumph-svg-icon" xmlns="http://www.w3.org/2000/svg" width="1.38in" height="1.38in" viewBox="0 0 99.25 99.25">
  <defs>
    <style>
      .secondary {
        fill: #000000;
      }

      .primary {
        fill: #c8c9c7;
      }
    </style>
  </defs>
  <g>
    <path class="secondary" d="M64.91,73.19h-35a6.76,6.76,0,0,1-6.76-6.76v-29a6.76,6.76,0,0,1,6.76-6.76h4.17a1,1,0,0,1,0,2H29.92a4.77,4.77,0,0,0-4.76,4.76v29a4.76,4.76,0,0,0,4.76,4.76h35a4.76,4.76,0,0,0,4.76-4.76V53.49a1,1,0,1,1,2,0V66.43A6.76,6.76,0,0,1,64.91,73.19Z"/>
    <path class="secondary" d="M54.93,32.63H38.65a1,1,0,1,1,0-2H54.93a1,1,0,0,1,0,2Z"/>
    <path class="secondary" d="M54.74,44.28H24.48a1,1,0,0,1,0-2H54.74a1,1,0,1,1,0,2Z"/>
    <g>
      <g>
        <rect class="primary" x="30.66" y="48.38" width="14.14" height="6.7"/>
        <path class="secondary" d="M44.8,56.07H30.66a1,1,0,0,1-1-1V48.38a1,1,0,0,1,1-1H44.8a1,1,0,0,1,1,1v6.69A1,1,0,0,1,44.8,56.07Zm-13.14-2H43.8V49.38H31.66Z"/>
      </g>
      <g>
        <rect class="primary" x="30.66" y="59.46" width="14.14" height="6.7"/>
        <path class="secondary" d="M44.8,67.16H30.66a1,1,0,0,1-1-1v-6.7a1,1,0,0,1,1-1H44.8a1,1,0,0,1,1,1v6.7A1,1,0,0,1,44.8,67.16Zm-13.14-2H43.8v-4.7H31.66Z"/>
      </g>
      <g>
        <rect class="primary" x="50.03" y="59.46" width="14.14" height="6.7"/>
        <path class="secondary" d="M64.17,67.16H50a1,1,0,0,1-1-1v-6.7a1,1,0,0,1,1-1H64.17a1,1,0,0,1,1,1v6.7A1,1,0,0,1,64.17,67.16ZM51,65.16H63.17v-4.7H51Z"/>
      </g>
    </g>
    <path class="secondary" d="M36.22,37.93a3,3,0,0,1-3-3V28.16a3,3,0,0,1,5.92,0V35A3,3,0,0,1,36.22,37.93Zm0-10.73a1,1,0,0,0-1,1V35a1,1,0,0,0,1.92,0V28.16A1,1,0,0,0,36.22,27.2Z"/>
    <g>
      <g>
        <rect class="primary" x="50.03" y="48.38" width="5.09" height="6.7"/>
        <path class="secondary" d="M55.12,56.07H50a1,1,0,0,1-1-1V48.38a1,1,0,0,1,1-1h5.09a1,1,0,0,1,1,1v6.69A1,1,0,0,1,55.12,56.07Zm-4.09-2h3.09V49.38H51Z"/>
      </g>
      <g>
        <polygon class="primary" points="57.52 55.07 64.17 55.07 64.17 49.91 57.52 55.07"/>
        <path class="secondary" d="M64.17,56.07H57.52a1,1,0,0,1-.61-1.79l6.65-5.16a1,1,0,0,1,1.61.79v5.16A1,1,0,0,1,64.17,56.07Zm-3.73-2h2.73V52Z"/>
      </g>
    </g>
    <path class="secondary" d="M75.43,57.94a1,1,0,0,1-.63-.22l-9.36-7.51-9.68,7.52a1,1,0,0,1-1,.1,1,1,0,0,1-.56-.89V26.24a1,1,0,0,1,1-1H75.43a1,1,0,0,1,1,1v30.7a1,1,0,0,1-.57.9A1.12,1.12,0,0,1,75.43,57.94ZM56.15,27.24V54.89l8.69-6.75a1,1,0,0,1,1.23,0l8.36,6.7V27.24Z"/>
  </g>
</svg>
