<svg class="triumph-svg-icon" xmlns="http://www.w3.org/2000/svg" width="1.38in" height="1.38in" viewBox="0 0 99.16 99.18">
  <defs>
    <style>
      .icon-accent {
        fill: #c8c9c7;
      }

      .icon-dark {
        fill: #000000;
      }
    </style>
  </defs>
  <g>
    <path class="icon-accent" d="M79.05,31.29V74.43H56.49V78s-13.06.13-12.93,0V74.43H21V31.29h4.22V69.7H45.59l3.89,2.21.5,2.33,1.48-3.47,5-1.07H74.84V31.29"/>
    <g>
      <path class="icon-dark" d="M47.56,79c-4.62,0-4.69-.15-4.9-.67a1,1,0,0,1-.08-.41V75.41H21a1,1,0,0,1-1-1V31.29a1,1,0,1,1,2,0V73.44H43.56a1,1,0,0,1,1,1v2.62c2,0,7.16,0,11,0V74.43a1,1,0,0,1,1-1H78.07V31.29a1,1,0,1,1,2,0V74.43a1,1,0,0,1-1,1H57.48V78a1,1,0,0,1-1,1C52.42,79,49.56,79,47.56,79Z"/>
      <path class="icon-dark" d="M50.4,75.19h-.74a1,1,0,0,1-1-1A2.91,2.91,0,0,0,47.85,72c-1.39-1.38-4.4-1.33-5.86-1.31H25.22a1,1,0,0,1-.71-.29,1,1,0,0,1-.29-.71V27.4a1,1,0,0,1,1-1c1,0,2.16,0,3.5,0,11.4-.2,20.94-.08,22.2,3.49A1,1,0,1,1,49,30.5c-.89-2.49-15-2.24-20.29-2.15-.92,0-1.77,0-2.53,0V68.7H42c1.85,0,5.3-.08,7.29,1.88a4.76,4.76,0,0,1,.78,1,5.06,5.06,0,0,1,.77-1c2-2,5.44-1.91,7.3-1.88H73.84V27a1,1,0,0,1,2,0V69.7a1,1,0,0,1-.3.71,1,1,0,0,1-.7.29H58.07c-1.45,0-4.47-.07-5.86,1.31a2.91,2.91,0,0,0-.81,2.19A1,1,0,0,1,50.4,75.19Z"/>
    </g>
    <path class="icon-dark" d="M50,74.62a1,1,0,0,1-1-1,8.53,8.53,0,0,1,.05-.89V29.47c0-4.76,9.08-7.15,15.71-8.89a36.33,36.33,0,0,0,4.8-1.46,1,1,0,0,1,1.89.45v43a1,1,0,0,1-.93,1C63,64,51.87,66.89,51,72.88V73a.86.86,0,0,1,0,.28c0,.11,0,.22,0,.34A1,1,0,0,1,50,74.62Zm19.45-53.3c-1,.34-2.33.7-4.18,1.19-5,1.31-14.22,3.74-14.22,7v39c3.86-4.37,12.38-6.28,18.4-6.77Z"/>
    <g>
      <polygon class="icon-accent" points="33.22 26.34 33.22 46.15 40.13 44.52 40.13 26.34 33.22 26.34"/>
      <path class="icon-dark" d="M33.22,47.13a1,1,0,0,1-.61-.21,1,1,0,0,1-.37-.77V26.35a1,1,0,0,1,1-1h6.91a1,1,0,0,1,1,1V44.52a1,1,0,0,1-.76,1l-6.9,1.63Zm1-19.8V44.91l4.93-1.17V27.33Z"/>
    </g>
  </g>
</svg>
