<svg class="triumph-svg-icon" xmlns="http://www.w3.org/2000/svg" width="1.38in" height="1.38in" viewBox="0 0 99.25 99.25">
  <defs>
    <style>
      .primary {
        fill: #c8c9c7;
      }

      .secondary {
        fill: #000000;
      }
    </style>
  </defs>
  <g>
    <g>
      <g>
        <rect class="primary" x="45.97" y="41.61" width="29.7" height="24.95"/>
        <path class="secondary" d="M75.67,67.56H46a1,1,0,0,1-1-1v-25a1,1,0,0,1,1-1h29.7a1,1,0,0,1,1,1v25A1,1,0,0,1,75.67,67.56Zm-28.7-2h27.7v-23H47Z"/>
      </g>
      <path class="secondary" d="M62.6,78.26h-38a3.39,3.39,0,0,1-3.38-3.38v-44a3.39,3.39,0,0,1,3.38-3.38h4.75a1,1,0,0,1,0,2H24.58a1.38,1.38,0,0,0-1.38,1.38v44a1.38,1.38,0,0,0,1.38,1.38h38A1.38,1.38,0,0,0,64,74.88V70.13a1,1,0,0,1,2,0v4.75A3.39,3.39,0,0,1,62.6,78.26Z"/>
      <path class="secondary" d="M65,39.05a1,1,0,0,1-1-1V30.92a1.38,1.38,0,0,0-1.38-1.38H57.85a1,1,0,0,1,0-2H62.6A3.39,3.39,0,0,1,66,30.92v7.13A1,1,0,0,1,65,39.05Z"/>
      <path class="secondary" d="M60.22,73.5H27a1,1,0,0,1-1-1V33.3a1,1,0,0,1,1-1h2.37a1,1,0,0,1,0,2H28V71.5H59.22V70.13a1,1,0,0,1,2,0V72.5A1,1,0,0,1,60.22,73.5Z"/>
      <path class="secondary" d="M60.22,39.05a1,1,0,0,1-1-1V34.3H57.85a1,1,0,0,1,0-2h2.37a1,1,0,0,1,1,1v4.75A1,1,0,0,1,60.22,39.05Z"/>
      <path class="secondary" d="M55.47,35.48H31.71a1,1,0,0,1-1-1V30.92a4.57,4.57,0,0,1,4.56-4.57h2.65a5.75,5.75,0,0,1,11.33,0h2.66a4.57,4.57,0,0,1,4.56,4.57v3.56A1,1,0,0,1,55.47,35.48Zm-22.76-2H54.47V30.92a2.57,2.57,0,0,0-2.56-2.57H48.34a1,1,0,0,1-1-1,3.75,3.75,0,1,0-7.5,0,1,1,0,0,1-1,1H35.27a2.57,2.57,0,0,0-2.56,2.57Z"/>
      <path class="secondary" d="M43.59,29.54a1,1,0,0,1-1-1V26.17a1,1,0,0,1,2,0v2.37A1,1,0,0,1,43.59,29.54Z"/>
    </g>
    <path class="secondary" d="M60.61,58.29A1,1,0,0,1,59.9,58l-7.2-7.2a1,1,0,0,1,0-1.41,1,1,0,0,1,1.42,0l6.49,6.49L79.29,37.19a1,1,0,0,1,1.42,1.42L61.31,58A1,1,0,0,1,60.61,58.29Z"/>
    <path class="secondary" d="M45,49.41H33.15a1,1,0,0,1,0-2H45a1,1,0,1,1,0,2Z"/>
    <path class="secondary" d="M45,54.72H33.15a1,1,0,0,1,0-2H45a1,1,0,1,1,0,2Z"/>
    <path class="secondary" d="M45,60H33.15a1,1,0,0,1,0-2H45a1,1,0,0,1,0,2Z"/>
  </g>
</svg>
