<svg class="triumph-svg-icon" xmlns="http://www.w3.org/2000/svg" width="1.38in" height="1.38in" viewBox="0 0 99.25 99.25">
  <defs>
    <style>
      .cls-1 {
        fill: #808080;
      }

      .cls-2 {
        fill: #000000;
      }
    </style>
  </defs>
  <g>
    <g>
      <path class="cls-1" d="M68.49,73.06H30.05V26.61H68.54V73.06ZM24.71,21.32v57H73.78v-57Z"/>
      <path class="cls-2" d="M73.78,79.35H24.71a1,1,0,0,1-1-1v-57a1,1,0,0,1,1-1H73.78a1,1,0,0,1,1,1v57A1,1,0,0,1,73.78,79.35Zm-48.07-2H72.78v-55H25.71Zm42.83-3.29H30.05a1,1,0,0,1-1-1V26.61a1,1,0,0,1,1-1H68.54a1,1,0,0,1,1,1V73.06A1,1,0,0,1,68.54,74.06Zm-37.49-2H67.54V27.61H31.05Z"/>
    </g>
    <path class="cls-2" d="M48.6,74.06a1,1,0,0,1-1-1V26.61a1,1,0,0,1,2,0V73.06A1,1,0,0,1,48.6,74.06Z"/>
    <path class="cls-2" d="M68.48,50.16H48.6a1,1,0,1,1,0-2H68.48a1,1,0,0,1,0,2Z"/>
    <path class="cls-2" d="M34,34.24a1,1,0,0,1-.7-1.72L36,29.9a1,1,0,0,1,1.4,1.43L34.71,34A1,1,0,0,1,34,34.24Z"/>
    <path class="cls-2" d="M34,39.58a1,1,0,0,1-.71-.29,1,1,0,0,1,0-1.42l8-8a1,1,0,0,1,1.41,1.41l-8,8A1,1,0,0,1,34,39.58Z"/>
  </g>
</svg>
