<svg class="triumph-svg-icon" xmlns="http://www.w3.org/2000/svg" width="1.38in" height="1.38in" viewBox="0 0 99.25 99.25">
  <defs>
    <style>
      .icon-accent {
        fill: #c8c9c7;
      }

      .icon-dark {
        fill: #000000;
      }
    </style>
  </defs>
  <g>
    <g>
      <g>
        <path class="icon-accent" d="M43.12,76.93a48.53,48.53,0,0,0,6.28,3.53,48,48,0,0,0,6.08-3.53Z"/>
        <path class="icon-dark" d="M49.39,81.46a1.27,1.27,0,0,1-.26,0,46.36,46.36,0,0,1-6.55-3.65,1,1,0,0,1,.54-1.84H55.48A1,1,0,0,1,56,77.77a44.48,44.48,0,0,1-6.38,3.65A1.17,1.17,0,0,1,49.39,81.46ZM46.7,77.93c1.27.73,2.22,1.23,2.69,1.45.44-.21,1.33-.7,2.59-1.45Z"/>
      </g>
      <g>
        <path class="icon-accent" d="M49.45,20.85C47,24.24,31.05,31.23,24.78,31.23V55.84c0,5,4.31,10.16,9.33,14.48V66.19a3.74,3.74,0,0,1,1.34-2.67l1.33-1.34V42.3s25.76.53,25.23,0V62.24l1.34,1.33a3.68,3.68,0,0,1,1.33,2.67v4c5-4.2,9.33-9,9.33-13.07V31.23C67.22,31.23,51.86,24.24,49.45,20.85Z"/>
        <path class="icon-dark" d="M34.11,71.32a1,1,0,0,1-.65-.24C27,65.55,23.78,60.42,23.78,55.84V31.23a1,1,0,0,1,1-1c6.07,0,21.65-6.87,23.85-10a1,1,0,0,1,1.63,0c2.11,3,16.95,10,23.75,10a1,1,0,0,1,1,1v25.9c0,3.79-3.26,8.45-9.69,13.84a1,1,0,0,1-1.64-.77v-4a2.69,2.69,0,0,0-1-2L61.3,62.94a1,1,0,0,1-.29-.7V43.41c-2.5.22-8.49.21-23.23-.09V62.18a1,1,0,0,1-.29.71l-1.34,1.34a2.78,2.78,0,0,0-1,2v4.13a1,1,0,0,1-.58.91A1.06,1.06,0,0,1,34.11,71.32ZM25.78,32.18V55.84c0,3.53,2.53,7.74,7.33,12.24V66.19a4.74,4.74,0,0,1,1.63-3.38l1-1V42.3a1,1,0,0,1,.3-.71,1,1,0,0,1,.72-.29c8.68.18,22.74.36,24.74.12a.25.25,0,0,1,.09,0,1,1,0,0,1,1.09.21,1.08,1.08,0,0,1,.29.84V61.82l1,1a4.66,4.66,0,0,1,1.63,3.38V68C70.48,63.69,73,60,73,57.13V32.19c-6.89-.54-19.62-6.2-23.57-9.86C45.39,26.05,32.15,31.6,25.78,32.18Z"/>
      </g>
    </g>
    <g>
      <g>
        <path class="icon-accent" d="M33.93,76.83v4a1.36,1.36,0,0,0,1.34,1.33h4a1.36,1.36,0,0,0,1.34-1.33v-4"/>
        <path class="icon-dark" d="M39.27,83.17h-4a2.37,2.37,0,0,1-2.34-2.33v-4a1,1,0,0,1,2,0v4a.36.36,0,0,0,.34.33h4a.36.36,0,0,0,.34-.33v-4a1,1,0,0,1,2,0v4A2.37,2.37,0,0,1,39.27,83.17Z"/>
      </g>
      <g>
        <path class="icon-accent" d="M57.87,76.83v4a1.36,1.36,0,0,0,1.34,1.33h4a1.36,1.36,0,0,0,1.33-1.33v-4"/>
        <path class="icon-dark" d="M63.22,83.17h-4a2.37,2.37,0,0,1-2.34-2.33v-4a1,1,0,0,1,2,0v4a.36.36,0,0,0,.34.33h4a.36.36,0,0,0,.33-.33v-4a1,1,0,0,1,2,0v4A2.37,2.37,0,0,1,63.22,83.17Z"/>
      </g>
      <path class="icon-dark" d="M67.23,77.93H31.31a1,1,0,0,1-1-1V71.54a1,1,0,0,1,1-1H33V66.19a4.74,4.74,0,0,1,1.63-3.38l1-1V42.3a1,1,0,0,1,.3-.71,1,1,0,0,1,.73-.29c8.67.18,22.73.36,24.73.12l.09,0a1,1,0,0,1,1.09.21,1,1,0,0,1,.29.84V61.82l1,1a4.69,4.69,0,0,1,1.62,3.38v4.35h1.68a1,1,0,0,1,1,1v5.34A1,1,0,0,1,67.23,77.93Zm-34.92-2H66.23V72.59H64.55a1,1,0,0,1-1-1V66.24a2.66,2.66,0,0,0-1-2l-1.33-1.34a1,1,0,0,1-.3-.7V43.41c-2.5.21-8.49.21-23.23-.09V62.18a1,1,0,0,1-.29.71L36,64.23a2.76,2.76,0,0,0-1.05,2v5.35a1,1,0,0,1-1,1H32.31Z"/>
      <path class="icon-dark" d="M40.61,72.54h-4a1,1,0,0,1,0-2h4a1,1,0,0,1,0,2Z"/>
      <path class="icon-dark" d="M36.6,61.9a1,1,0,0,1-.24,0l-5.29-1.34a1,1,0,0,1-.76-1V54.22a1,1,0,0,1,2,0v4.56l4.54,1.15a1,1,0,0,1-.25,2Z"/>
      <path class="icon-dark" d="M55.25,73.87a1,1,0,0,1-1-1V67.19h-10v5.68a1,1,0,0,1-2,0V66.19a1,1,0,0,1,1-1h12a1,1,0,0,1,1,1v6.68A1,1,0,0,1,55.25,73.87Z"/>
      <path class="icon-dark" d="M61.88,72.54h-4a1,1,0,1,1,0-2h4a1,1,0,1,1,0,2Z"/>
      <path class="icon-dark" d="M61.88,61.9a1,1,0,0,1-.24-2l4.59-1.15V54.22a1,1,0,0,1,2,0v5.34a1,1,0,0,1-.76,1l-5.35,1.34A1,1,0,0,1,61.88,61.9Z"/>
      <path class="icon-dark" d="M39.27,82.67h-4a1.86,1.86,0,0,1-1.84-1.83v-4h1v4a.86.86,0,0,0,.84.83h4a.86.86,0,0,0,.84-.83v-4h1v4A1.86,1.86,0,0,1,39.27,82.67Z"/>
      <path class="icon-dark" d="M63.22,82.67h-4a1.87,1.87,0,0,1-1.84-1.83v-4h1v4a.86.86,0,0,0,.84.83h4a.85.85,0,0,0,.83-.83v-4h1v4A1.86,1.86,0,0,1,63.22,82.67Z"/>
      <path class="icon-dark" d="M58.37,61.35H40.11V53.72H58.37Zm-17.26-1H57.37V54.72H41.11Z"/>
      <g>
        <rect class="icon-accent" x="40.61" y="54.22" width="17.26" height="6.63"/>
        <path class="icon-dark" d="M57.87,61.85H40.61a1,1,0,0,1-1-1V54.22a1,1,0,0,1,1-1H57.87a1,1,0,0,1,1,1v6.63A1,1,0,0,1,57.87,61.85Zm-16.26-2H56.87V55.22H41.61Z"/>
      </g>
      <path class="icon-dark" d="M61.88,51.26A1,1,0,0,1,61.2,51l-1.65-1.54a.46.46,0,0,0-.07-.07c-.65-.75-1.41-.79-2.94-.79H42c-1.53,0-2.3,0-3,.79l-.07.07L37.29,51a1,1,0,1,1-1.37-1.46L37.53,48c1.27-1.44,2.87-1.44,4.42-1.44H56.54c1.55,0,3.15,0,4.42,1.44l1.61,1.5a1,1,0,0,1,0,1.42A1,1,0,0,1,61.88,51.26Z"/>
    </g>
  </g>
</svg>
