<svg class="triumph-svg-icon" xmlns="http://www.w3.org/2000/svg" width="1.38in" height="1.38in" viewBox="0 0 99.25 99.25">
  <defs>
    <style>
      .cls-1 {
        fill: #000000;
      }

      .cls-2 {
        fill: #808080;
      }
    </style>
  </defs>
  <g>
    <path class="cls-1" d="M29.24,39.3a1,1,0,0,1-.95-.68,1,1,0,0,1,.64-1.27l40-13.18a1,1,0,0,1,1.27.64,1,1,0,0,1-.64,1.26l-40,13.18A.84.84,0,0,1,29.24,39.3Z"/>
    <path class="cls-1" d="M49.61,68.06a1,1,0,0,1-1-1V36.66a1,1,0,0,1,2,0v30.4A1,1,0,0,1,49.61,68.06Z"/>
    <g>
      <rect class="cls-2" x="35.63" y="67.53" width="28.01" height="6.74"/>
      <path class="cls-1" d="M63.63,75.27h-28a1,1,0,0,1-1-1V67.53a1,1,0,0,1,1-1h28a1,1,0,0,1,1,1v6.74A1,1,0,0,1,63.63,75.27Zm-27-2h26V68.53h-26Z"/>
    </g>
    <path class="cls-1" d="M38.75,56.64H22.28a1,1,0,0,1-.9-1.45l8.39-16.62a1,1,0,0,1,.89-.55h0a1,1,0,0,1,.89.56L39.65,55.2a1,1,0,0,1-.9,1.44Zm-14.85-2H37.15l-6.5-13.37Z"/>
    <path class="cls-1" d="M76.86,43.5H60.39a1,1,0,0,1-.89-1.45l8.38-16.63a1,1,0,0,1,.9-.55,1,1,0,0,1,.9.57l8.08,16.62a1,1,0,0,1-.05,1A1,1,0,0,1,76.86,43.5ZM62,41.5H75.27L68.76,28.13Z"/>
    <g>
      <path class="cls-2" d="M41.16,56A11.23,11.23,0,0,1,31,63.22,11.11,11.11,0,0,1,20.59,56H41.16Z"/>
      <path class="cls-1" d="M31,64.22A12.17,12.17,0,0,1,19.65,56.3a1,1,0,0,1,.12-.92,1,1,0,0,1,.82-.43H41.15a1,1,0,0,1,.66.25,1,1,0,0,1,.28,1.14A12.15,12.15,0,0,1,31,64.22ZM22.14,57A10.15,10.15,0,0,0,31,62.22,10,10,0,0,0,39.57,57Z"/>
    </g>
    <g>
      <path class="cls-2" d="M78.82,42.52a11.22,11.22,0,0,1-10.14,7.26,11.1,11.1,0,0,1-10.42-7.27H78.82Z"/>
      <path class="cls-1" d="M68.68,50.78a12.16,12.16,0,0,1-11.36-7.92,1,1,0,0,1,.12-.92,1,1,0,0,1,.82-.43H78.81a1,1,0,0,1,.71.29,1,1,0,0,1,.23,1.1A12.15,12.15,0,0,1,68.68,50.78Zm-8.87-7.27a10.15,10.15,0,0,0,8.87,5.27,10,10,0,0,0,8.56-5.27Z"/>
    </g>
    <g>
      <circle class="cls-2" cx="49.53" cy="31.56" r="3.97"/>
      <path class="cls-1" d="M49.53,36.53a5,5,0,1,1,5-5A5,5,0,0,1,49.53,36.53Zm0-7.93a3,3,0,1,0,3,3A3,3,0,0,0,49.53,28.6Z"/>
    </g>
  </g>
</svg>
