<svg class="triumph-svg-icon" xmlns="http://www.w3.org/2000/svg" width="1.38in" height="1.38in" viewBox="0 0 99.25 99.25">
  <defs>
    <style>
      .cls-1 {
        fill: #000000;
      }
    </style>
  </defs>
  <g>
    <path class="cls-1" d="M47.36,49H23A1,1,0,0,1,22,48.4a1,1,0,0,1,.21-1.09l5.4-5.44a1,1,0,0,1,.71-.3h13v-13a1,1,0,0,1,.3-.7l5-5a1,1,0,0,1,1.71.71V48A1,1,0,0,1,47.36,49Zm-22-2h21V26l-3,3V42.57a1,1,0,0,1-1,1H28.77Z"/>
    <path class="cls-1" d="M76.18,49H51.78a1,1,0,0,1-1-1V23.56a1,1,0,0,1,1.7-.71l5.4,5.4a1,1,0,0,1,.29.7v13h13a1,1,0,0,1,.71.3l5,5.08a1,1,0,0,1,.22,1.09A1,1,0,0,1,76.18,49Zm-23.4-2h21l-3.06-3.09H57.17a1,1,0,0,1-1-1V29.37L52.78,26Z"/>
    <path class="cls-1" d="M47.36,77.84a1,1,0,0,1-.71-.29l-5.39-5.4a1,1,0,0,1-.3-.7v-13l-13,0a1,1,0,0,1-.7-.3l-5-5A1,1,0,0,1,22,52a1,1,0,0,1,.92-.62H47.36a1,1,0,0,1,1,1V76.84a1,1,0,0,1-.62.92A.84.84,0,0,1,47.36,77.84ZM43,71l3.4,3.4V53.38h-21l3,3,13.57,0a1,1,0,0,1,1,1Z"/>
    <path class="cls-1" d="M51.78,77.84a.84.84,0,0,1-.38-.08,1,1,0,0,1-.62-.92V52.38a1,1,0,0,1,1-1h24.4a1,1,0,0,1,.93.62,1,1,0,0,1-.22,1.09l-5.39,5.4a1.05,1.05,0,0,1-.71.29h-13v13a1,1,0,0,1-.29.71l-5,5.08A1,1,0,0,1,51.78,77.84Zm1-24.46v21l3-3.07V57.78a1,1,0,0,1,1-1H70.37l3.4-3.4Zm4,18.37h0Z"/>
  </g>
</svg>
