<svg class="triumph-svg-icon" xmlns="http://www.w3.org/2000/svg" width="1.38in" height="1.38in" viewBox="0 0 99.25 99.25">
  <defs>
    <style>
      .secondary {
        fill: #000000;
      }

      .primary {
        fill: #c8c9c7;
      }
    </style>
  </defs>
  <g>
    <path class="secondary" d="M28.92,63.05h-4a1,1,0,0,1,0-2h4a1,1,0,0,1,0,2Z"/>
    <path class="secondary" d="M24.92,52.41a1.07,1.07,0,0,1-.25,0l-5.29-1.33a1,1,0,0,1-.76-1V44.73a1,1,0,0,1,2,0V49.3l4.54,1.14a1,1,0,0,1-.24,2Z"/>
    <path class="secondary" d="M43.57,64.39a1,1,0,0,1-1-1V57.71h-10v5.68a1,1,0,0,1-2,0V56.71a1,1,0,0,1,1-1h12a1,1,0,0,1,1,1v6.68A1,1,0,0,1,43.57,64.39Z"/>
    <path class="secondary" d="M50.2,63.05h-4a1,1,0,0,1,0-2h4a1,1,0,0,1,0,2Z"/>
    <path class="secondary" d="M50.2,52.41a1,1,0,0,1-.25-2l4.59-1.14V44.73a1,1,0,0,1,2,0v5.35a1,1,0,0,1-.76,1l-5.34,1.33Z"/>
    <path class="secondary" d="M27.59,73.19h-4a1.87,1.87,0,0,1-1.84-1.84v-4h1v4a.87.87,0,0,0,.84.84h4a.86.86,0,0,0,.83-.84v-4h1v4A1.86,1.86,0,0,1,27.59,73.19Z"/>
    <g>
      <path class="primary" d="M22.24,67.34v4a1.37,1.37,0,0,0,1.34,1.34h4a1.36,1.36,0,0,0,1.33-1.34v-4"/>
      <path class="secondary" d="M27.59,73.69h-4a2.37,2.37,0,0,1-2.34-2.34v-4a1,1,0,0,1,2,0v4a.37.37,0,0,0,.34.34h4a.36.36,0,0,0,.33-.34v-4a1,1,0,0,1,2,0v4A2.37,2.37,0,0,1,27.59,73.69Z"/>
    </g>
    <path class="secondary" d="M51.53,73.19h-4a1.86,1.86,0,0,1-1.83-1.84v-4h1v4a.86.86,0,0,0,.83.84h4a.86.86,0,0,0,.84-.84v-4h1v4A1.86,1.86,0,0,1,51.53,73.19Z"/>
    <g>
      <path class="primary" d="M46.19,67.34v4a1.36,1.36,0,0,0,1.33,1.34h4a1.37,1.37,0,0,0,1.34-1.34v-4"/>
      <path class="secondary" d="M51.53,73.69h-4a2.37,2.37,0,0,1-2.33-2.34v-4a1,1,0,0,1,2,0v4a.36.36,0,0,0,.33.34h4a.37.37,0,0,0,.34-.34v-4a1,1,0,0,1,2,0v4A2.37,2.37,0,0,1,51.53,73.69Z"/>
    </g>
    <path class="secondary" d="M76.81,73.19h-4A1.86,1.86,0,0,1,71,71.35v-4h1v4a.86.86,0,0,0,.83.84h4a.86.86,0,0,0,.84-.84v-4h1v4A1.86,1.86,0,0,1,76.81,73.19Z"/>
    <g>
      <path class="primary" d="M71.47,67.34v4a1.36,1.36,0,0,0,1.33,1.34h4a1.37,1.37,0,0,0,1.34-1.34v-4"/>
      <path class="secondary" d="M76.81,73.69h-4a2.37,2.37,0,0,1-2.33-2.34v-4a1,1,0,0,1,2,0v4a.36.36,0,0,0,.33.34h4a.37.37,0,0,0,.34-.34v-4a1,1,0,0,1,2,0v4A2.37,2.37,0,0,1,76.81,73.69Z"/>
    </g>
    <path class="secondary" d="M46.69,51.86H28.42V44.23H46.69Zm-17.27-1H45.69V45.23H29.42Z"/>
    <g>
      <rect class="primary" x="28.92" y="44.74" width="17.26" height="6.63"/>
      <path class="secondary" d="M46.19,52.36H28.92a1,1,0,0,1-1-1V44.73a1,1,0,0,1,1-1H46.19a1,1,0,0,1,1,1v6.63A1,1,0,0,1,46.19,52.36Zm-16.27-2H45.19V45.73H29.92Z"/>
    </g>
    <path class="secondary" d="M55.54,68.45H19.62a1,1,0,0,1-1-1v-5.4a1,1,0,0,1,1-1H21.3V56.71a4.74,4.74,0,0,1,1.63-3.38l1-1V32.81a1,1,0,1,1,2,0V52.7a1,1,0,0,1-.3.71l-1.33,1.33a2.77,2.77,0,0,0-1,2v5.34a1,1,0,0,1-1,1H20.62v3.4H54.54V63.1H52.87a1,1,0,0,1-1-1V56.76a2.67,2.67,0,0,0-1-2l-1.33-1.33a1,1,0,0,1-.29-.71V32.81a1,1,0,1,1,2,0V52.34l1,1a4.66,4.66,0,0,1,1.63,3.38V61.1h1.67a1,1,0,0,1,1,1v5.35A1,1,0,0,1,55.54,68.45Z"/>
    <path class="secondary" d="M50.2,41.78a1,1,0,0,1-.69-.27L47.87,40l-.08-.08c-.64-.75-1.41-.78-2.94-.78H30.26c-1.53,0-2.29,0-2.94.78l-.08.08L25.6,41.51a1,1,0,0,1-1.37-1.46l1.61-1.51c1.27-1.43,2.87-1.43,4.42-1.43H44.85c1.55,0,3.15,0,4.42,1.43l1.61,1.51a1,1,0,0,1,0,1.41A1,1,0,0,1,50.2,41.78Z"/>
    <path class="secondary" d="M55.54,43.11a1,1,0,0,1-1-1V28.47H20.62V42.11a1,1,0,0,1-2,0V27.47a1,1,0,0,1,1-1H55.54a1,1,0,0,1,1,1V42.11A1,1,0,0,1,55.54,43.11Z"/>
    <path class="secondary" d="M80.77,68.34H58.16a1,1,0,0,1,0-2H79.77V44L56.52,28.47h-1a1,1,0,1,1,0-2h1.28a1,1,0,0,1,.56.17l23.94,16a1,1,0,0,1,.45.83V67.34A1,1,0,0,1,80.77,68.34Z"/>
  </g>
</svg>
