<svg class="triumph-svg-icon" xmlns="http://www.w3.org/2000/svg" width="1.38in" height="1.38in" viewBox="0 0 99.25 99.25">
  <defs>
    <style>
      .icon-dark {
        fill: #000000;
      }

      .icon-accent {
        fill: #c8c9c7;
      }
    </style>
  </defs>
  <g>
    <path class="icon-dark" d="M43.76,74.84c-5.47,0-9.15-2.22-11.39-6.78a8.52,8.52,0,0,1-6.92-2.75,11.83,11.83,0,0,1-2.38-9.22,11.18,11.18,0,0,1-2.59-7.16c0-3.84,1.63-7.22,4.21-8.83v-.42c0-4.53,2.76-8.13,6.79-8.95,1.3-3,5.7-6.79,11.47-6.79,4,0,5.33,0,5.39,0a1,1,0,0,1,1,1v48.4a1,1,0,0,1-.83,1A26.42,26.42,0,0,1,43.76,74.84ZM33,66a1,1,0,0,1,.91.59c2.28,5.16,6.43,7,13.4,5.93V26l-4.35,0c-5.13,0-9,3.53-9.78,6a1,1,0,0,1-.82.7c-3.33.44-5.66,3.34-5.66,7.07a5.84,5.84,0,0,0,0,.84,1,1,0,0,1-.55,1c-2.21,1.08-3.7,4-3.7,7.37a9,9,0,0,0,2.36,6.12,1,1,0,0,1,.29.93A9.82,9.82,0,0,0,27,64a6.69,6.69,0,0,0,5.95,2Zm-.77-34.4Z"/>
    <path class="icon-dark" d="M40.28,40.63c-4.68,0-9-1.09-9-9a1,1,0,1,1,2,0c0,5.89,2.46,7,7,7a1,1,0,0,1,0,2Z"/>
    <path class="icon-dark" d="M35.17,49.48a6.33,6.33,0,0,1-3.44-.94,1,1,0,1,1,1.08-1.68c1.77,1.14,4.84.65,6.44-1a6.75,6.75,0,0,1,4.83-2.4h0a7,7,0,0,1,5,2.5,1,1,0,0,1-1.44,1.38,5.13,5.13,0,0,0-3.55-1.88h0a4.88,4.88,0,0,0-3.39,1.78A7.74,7.74,0,0,1,35.17,49.48Z"/>
    <path class="icon-dark" d="M45.52,35.82A6.33,6.33,0,0,1,39.4,32a1,1,0,0,1,1.86-.73c1.05,2.64,4.19,3.06,6.74,2.1a1,1,0,0,1,1.29.59,1,1,0,0,1-.59,1.28A8.89,8.89,0,0,1,45.52,35.82Z"/>
    <path class="icon-dark" d="M42,65.65a1.07,1.07,0,0,1-.39-.07,1,1,0,0,1-.54-1.31,5.76,5.76,0,0,1,7.64-3.12A1,1,0,1,1,48,63a3.75,3.75,0,0,0-5.1,2A1,1,0,0,1,42,65.65Z"/>
    <path class="icon-dark" d="M34.94,60.77h-.17c-2.58-.43-4.84-2.76-4.84-5a1,1,0,0,1,2,0c0,1.12,1.46,2.73,3.17,3a1,1,0,0,1-.16,2Z"/>
    <path class="icon-dark" d="M33.09,68a1,1,0,0,1-1-1c0-6.09,3.75-12.26,10.92-12.26a1,1,0,0,1,0,2c-7.06,0-8.92,6.71-8.92,10.26A1,1,0,0,1,33.09,68Z"/>
    <path class="icon-dark" d="M56.06,74.24H52.25a1,1,0,0,1,0-2h2.81v-5a1,1,0,0,1,.82-1,15.31,15.31,0,0,0,5.91-2.38A1,1,0,0,1,63,64l3.56,3.43,4.3-4.31-3.41-3.4a1,1,0,0,1-.12-1.26,14.49,14.49,0,0,0,2.37-5.74,1,1,0,0,1,1-.82h4.7V46.33H70.7a1,1,0,0,1-1-.8,16.47,16.47,0,0,0-2.43-5.87,1,1,0,0,1,.12-1.24l3.43-3.55-4.36-4.32L63,34a1,1,0,0,1-1.24.12,15.25,15.25,0,0,0-5.9-2.37,1,1,0,0,1-.83-1v-4.8H52.2a1,1,0,0,1,0-2H56a1,1,0,0,1,1,1v5A17,17,0,0,1,62.13,32l3.66-3.57a1,1,0,0,1,1.4,0l5.75,5.7a1,1,0,0,1,0,1.41l-3.57,3.7a18,18,0,0,1,2.11,5.08h4.9a1,1,0,0,1,1,1v7.61a1,1,0,0,1-1,1H71.52a16.13,16.13,0,0,1-2.06,5L73,62.46a1,1,0,0,1,0,1.41l-5.7,5.7a1,1,0,0,1-1.41,0L62.19,66a16.87,16.87,0,0,1-5.13,2.07v5.15A1,1,0,0,1,56.06,74.24Z"/>
    <path class="icon-dark" d="M29.6,52.71a1,1,0,0,1-.35-1.94,3.35,3.35,0,0,0,2-3.07,2.85,2.85,0,0,0-3-2.8,1,1,0,1,1,0-2,4.86,4.86,0,0,1,5,4.8,5.37,5.37,0,0,1-3.33,4.95A1,1,0,0,1,29.6,52.71Z"/>
    <g>
      <path class="icon-accent" d="M52.2,59.16a10.13,10.13,0,1,0,0-20.25"/>
      <path class="icon-dark" d="M52.2,60.16a1,1,0,0,1,0-2,9.13,9.13,0,1,0,0-18.25,1,1,0,0,1,0-2,11.13,11.13,0,1,1,0,22.25Z"/>
    </g>
  </g>
</svg>
