<svg class="triumph-svg-icon" xmlns="http://www.w3.org/2000/svg" width="1.38in" height="1.38in" viewBox="0 0 99.25 99.25">
  <defs>
    <style>
      .primary {
        fill: #c8c9c7;
      }

      .secondary {
        fill: #000000;
      }
    </style>
  </defs>
  <g>
    <path class="primary" d="M48.62,28.85a21,21,0,1,0,21,21A21,21,0,0,0,48.62,28.85Zm7.57,16.44L48,54.47h7.59v5.15h-5V63.9h-5V59.62H40l0-4.27,8.93-9.84H41.15V40.36h4.46V36.14h5v4.22H56.2Z"/>
    <path class="secondary" d="M48.62,71.87a22,22,0,1,1,22-22A22,22,0,0,1,48.62,71.87Zm0-42a20,20,0,1,0,20,20A20,20,0,0,0,48.62,29.85Zm2,35.05h-5a1,1,0,0,1-1-1V60.62H40a1,1,0,0,1-1-1l0-4.27a1,1,0,0,1,.26-.68l7.42-8.17H41.15a1,1,0,0,1-1-1V40.36a1,1,0,0,1,1-1h3.46V36.14a1,1,0,0,1,1-1h5a1,1,0,0,1,1,1v3.22H56.2a1,1,0,0,1,1,1v4.93a1,1,0,0,1-.26.67l-6.7,7.51h5.36a1,1,0,0,1,1,1v5.15a1,1,0,0,1-1,1h-4V63.9A1,1,0,0,1,50.64,64.9Zm-4-2h3V59.62a1,1,0,0,1,1-1h4V55.47H48a1,1,0,0,1-.75-1.66l7.94-8.9V41.36H50.64a1,1,0,0,1-1-1V37.14h-3v3.22a1,1,0,0,1-1,1H42.15v3.15h6.71a1,1,0,0,1,.74,1.67l-8.66,9.55,0,2.89h4.64a1,1,0,0,1,1,1Zm9.58-17.61h0Z"/>
  </g>
</svg>
